<?xml version="1.0" encoding="UTF-8"?>
<svg id="Calque_1" data-name="Calque 1" xmlns="http://www.w3.org/2000/svg" viewBox="0 0 241.4 257.35">
  <defs>
    <style>
      .cls-1 {
        fill: #4b996c;
        stroke-width: 0px;
      }
    </style>
  </defs>
  <path class="cls-1" d="M213.19,5.26c-41.65-11.62-92.77-.35-92.77-.35-44.37,9.78-67.13,14.08-84.61,35.16-12.51,15.09-19.61,34.65-25.29,54.15-13.2,45.31-18.3,100.56,10.89,135.5,21.92,26.24,58.42,32.92,89.62,23.75,31.2-9.17,57.8-31.82,80.66-57.06,17.06-18.84,32.86-39.98,41.14-65.05,3.72-11.26,5.32-34.96,8.28-82.46.49-7.91,1.04-18.88-4.97-28.46-6.16-9.81-16.17-13.29-22.95-15.19Z"/>
</svg>