<svg xmlns="http://www.w3.org/2000/svg" xmlns:xlink="http://www.w3.org/1999/xlink" width="600" zoomAndPan="magnify" viewBox="0 0 450 449.999984" height="600" preserveAspectRatio="xMidYMid meet" version="1.0"><defs><clipPath id="07bda8cd0f"><path d="M 29.445312 37.121094 L 429.195312 37.121094 L 429.195312 405.371094 L 29.445312 405.371094 Z M 29.445312 37.121094 " clip-rule="nonzero"/></clipPath></defs><g clip-path="url(#07bda8cd0f)"><path fill="#0f548d" d="M -6.765625 -18.222656 C -44.417969 17.433594 -74.003906 62.21875 -92.636719 110.558594 C -122.605469 188.398438 -117.804688 276.71875 -79.09375 350.71875 C -51.332031 403.765625 -7.726562 447.394531 41.839844 480.457031 C 87.371094 510.824219 137.992188 534.851562 192.359375 543.980469 C 277.367188 558.203125 361.316406 534.65625 428.460938 481.222656 C 488.300781 433.652344 532.488281 364.460938 550.835938 290.269531 C 559.574219 254.808594 562.457031 217.902344 557.367188 181.578125 C 551.601562 140.347656 534.792969 102.582031 512.699219 67.597656 C 485.804688 24.832031 453.914062 -13.992188 413.570312 -44.839844 C 346.8125 -96.0625 262.09375 -118.9375 178.71875 -107.210938 C 115.609375 -98.371094 55.863281 -70.210938 6.78125 -30.042969 C 2.167969 -26.292969 -2.347656 -22.351562 -6.765625 -18.222656 C -20.308594 -5.4375 0.152344 14.839844 13.597656 2.152344 C 103.507812 -82.511719 244.996094 -107.882812 355.9375 -48.109375 C 403.679688 -22.351562 443.636719 16.183594 474.085938 60.871094 C 487.824219 81.054688 500.886719 102.003906 511.066406 124.203125 C 526.917969 159.089844 533.160156 197.242188 530.566406 235.394531 C 520.960938 379.546875 396.667969 516.492188 248.742188 519.570312 C 185.824219 520.820312 126.367188 498.90625 73.441406 466.425781 C 35.308594 443.070312 0.246094 414.242188 -27.128906 378.585938 C -73.136719 318.714844 -93.5 241.542969 -78.902344 166.96875 C -67.757812 109.980469 -38.558594 57.125 1.015625 14.839844 C 5.148438 10.515625 9.371094 6.1875 13.695312 2.152344 C 27.238281 -10.628906 6.78125 -31.003906 -6.667969 -18.222656 Z M -6.765625 -18.222656 " fill-opacity="1" fill-rule="nonzero"/></g><path fill="#0f548d" d="M 198.21875 109.308594 C 195.527344 191.667969 200.234375 273.835938 211.664062 355.425781 C 214.257812 373.6875 242.019531 365.902344 239.425781 347.738281 C 228.378906 268.742188 224.441406 188.976562 227.035156 109.308594 C 227.609375 90.757812 198.792969 90.757812 198.21875 109.308594 Z M 198.21875 109.308594 " fill-opacity="1" fill-rule="nonzero"/><path fill="#0f548d" d="M 65.949219 255.09375 C 174.105469 279.792969 289.851562 260.667969 383.890625 201.566406 C 399.546875 191.761719 385.140625 166.777344 369.386719 176.675781 C 281.878906 231.644531 174.394531 250.289062 73.632812 227.320312 C 55.574219 223.1875 47.890625 250.960938 65.949219 255.09375 Z M 65.949219 255.09375 " fill-opacity="1" fill-rule="nonzero"/></svg>