<svg xmlns="http://www.w3.org/2000/svg" xmlns:xlink="http://www.w3.org/1999/xlink" width="1200" zoomAndPan="magnify" viewBox="0 0 900 899.99999" height="1200" preserveAspectRatio="xMidYMid meet" version="1.0"><defs><clipPath id="ebefa60551"><path d="M 77 273 L 853 273 L 853 642 L 77 642 Z M 77 273 " clip-rule="nonzero"/></clipPath><clipPath id="e07f5905e9"><path d="M 392.328125 0 L 875.238281 291.238281 L 507.8125 900.484375 L 24.898438 609.242188 Z M 392.328125 0 " clip-rule="nonzero"/></clipPath><clipPath id="39d92c9a31"><path d="M 874.921875 291.046875 L 392.007812 -0.191406 L 24.582031 609.050781 L 507.492188 900.289062 Z M 874.921875 291.046875 " clip-rule="nonzero"/></clipPath><clipPath id="de3e2d0b2e"><path d="M 79.78125 628.1875 L 99.285156 628.1875 L 99.285156 647.695312 L 79.78125 647.695312 Z M 79.78125 628.1875 " clip-rule="nonzero"/></clipPath><clipPath id="7cef591f73"><path d="M 89.53125 628.1875 C 84.144531 628.1875 79.78125 632.554688 79.78125 637.941406 C 79.78125 643.328125 84.144531 647.695312 89.53125 647.695312 C 94.917969 647.695312 99.285156 643.328125 99.285156 637.941406 C 99.285156 632.554688 94.917969 628.1875 89.53125 628.1875 Z M 89.53125 628.1875 " clip-rule="nonzero"/></clipPath><clipPath id="b8d2b2eb15"><path d="M 833.082031 266.03125 L 852.585938 266.03125 L 852.585938 285.539062 L 833.082031 285.539062 Z M 833.082031 266.03125 " clip-rule="nonzero"/></clipPath><clipPath id="bd7ce63134"><path d="M 842.835938 266.03125 C 837.449219 266.03125 833.082031 270.398438 833.082031 275.785156 C 833.082031 281.171875 837.449219 285.539062 842.835938 285.539062 C 848.222656 285.539062 852.585938 281.171875 852.585938 275.785156 C 852.585938 270.398438 848.222656 266.03125 842.835938 266.03125 Z M 842.835938 266.03125 " clip-rule="nonzero"/></clipPath></defs><rect x="-90" width="1080" fill="#ffffff" y="-89.999999" height="1079.999988" fill-opacity="1"/><rect x="-90" width="1080" fill="#ffffff" y="-89.999999" height="1079.999988" fill-opacity="1"/><g clip-path="url(#ebefa60551)"><g clip-path="url(#e07f5905e9)"><g clip-path="url(#39d92c9a31)"><path fill="#4e986d" d="M 80.238281 641.902344 C 79.984375 640.578125 74.191406 608.917969 78.96875 569.726562 C 85.363281 516.960938 108.078125 476.003906 144.652344 451.304688 C 227.183594 395.570312 332.179688 423.882812 405.699219 457.4375 C 524.320312 511.570312 620.511719 521.65625 691.566406 487.460938 C 758.027344 455.371094 805.714844 383.285156 833.246094 273.074219 L 852.6875 277.929688 C 837.792969 337.601562 816.933594 387.21875 790.691406 425.390625 C 765.78125 461.628906 735.367188 488.578125 700.253906 505.472656 C 659.269531 525.234375 610.980469 531.699219 556.648438 524.792969 C 509.117188 518.742188 455.539062 502.222656 397.335938 475.652344 C 328.488281 444.234375 230.660156 417.371094 155.820312 467.933594 C 78.765625 520.003906 99.679688 637.015625 99.90625 638.191406 Z M 80.238281 641.902344 " fill-opacity="1" fill-rule="nonzero"/></g></g></g><g clip-path="url(#de3e2d0b2e)"><g clip-path="url(#7cef591f73)"><path fill="#4e986d" d="M 79.78125 628.1875 L 99.285156 628.1875 L 99.285156 647.695312 L 79.78125 647.695312 Z M 79.78125 628.1875 " fill-opacity="1" fill-rule="nonzero"/></g></g><g clip-path="url(#b8d2b2eb15)"><g clip-path="url(#bd7ce63134)"><path fill="#4e986d" d="M 833.082031 266.03125 L 852.585938 266.03125 L 852.585938 285.539062 L 833.082031 285.539062 Z M 833.082031 266.03125 " fill-opacity="1" fill-rule="nonzero"/></g></g></svg>