<svg xmlns="http://www.w3.org/2000/svg" xmlns:xlink="http://www.w3.org/1999/xlink" width="1200" zoomAndPan="magnify" viewBox="0 0 900 899.99999" height="1200" preserveAspectRatio="xMidYMid meet" version="1.0"><defs><clipPath id="66042feeb3"><path d="M 162.617188 158.089844 L 708.617188 158.089844 L 708.617188 774.589844 L 162.617188 774.589844 Z M 162.617188 158.089844 " clip-rule="nonzero"/></clipPath><clipPath id="d842907ed2"><path d="M 314 364 L 543.226562 364 L 543.226562 670.914062 L 314 670.914062 Z M 314 364 " clip-rule="nonzero"/></clipPath></defs><g clip-path="url(#66042feeb3)"><path fill="#ffffff" d="M 233.957031 252.0625 C 217.910156 275.675781 176.882812 336.03125 166.464844 435.195312 C 163.691406 461.59375 151.257812 562.855469 193.523438 634.15625 C 213.703125 668.199219 241.910156 688.804688 270.085938 705.644531 C 318.59375 734.640625 369.378906 755.023438 421.035156 766.246094 C 470.382812 776.964844 521.425781 779.171875 569.441406 758.957031 C 617.457031 738.738281 662.367188 693.921875 686.167969 627.992188 C 700.675781 587.785156 706.804688 541.695312 708.074219 495.984375 C 709.460938 446.117188 705.269531 395.90625 695.714844 348.105469 C 691.277344 325.878906 685.292969 303.285156 673.785156 287.835938 C 665.308594 276.460938 654.527344 269.902344 643.980469 263.550781 C 561.070312 213.664062 518.738281 171.546875 415.222656 161.171875 C 379.109375 157.554688 354.300781 155.425781 322.378906 170.011719 C 275.976562 191.207031 247 232.875 233.957031 252.058594 Z M 233.957031 252.0625 " fill-opacity="1" fill-rule="nonzero"/></g><g clip-path="url(#d842907ed2)"><path fill="#d9f2f2" d="M 314.785156 1204.972656 C 315.164062 1274.855469 316.011719 1453.476562 440.6875 1630.679688 C 473.886719 1677.835938 597.242188 1862.492188 794.441406 1888.425781 C 888.5625 1900.78125 980.136719 1875.695312 1065.957031 1844.761719 C 1213.832031 1791.476562 1353.789062 1719.992188 1482.140625 1632.285156 C 1604.742188 1548.539062 1718.292969 1447.910156 1792.042969 1318.234375 C 1865.789062 1188.5625 1896.347656 1026.445312 1849.945312 874.230469 C 1821.652344 781.429688 1766.484375 696.457031 1701.410156 621.953125 C 1630.394531 540.660156 1546.839844 470.304688 1455.265625 414.570312 C 1412.730469 388.632812 1366.238281 365.339844 1318.421875 364.492188 C 1283.246094 363.832031 1250.238281 375.523438 1217.984375 387.03125 C 964.761719 477.566406 810.757812 497.65625 571.683594 692.402344 C 488.222656 760.304688 431.445312 807.554688 384.105469 895.636719 C 315.257812 1023.617188 314.503906 1148.199219 314.785156 1204.972656 Z M 314.785156 1204.972656 " fill-opacity="1" fill-rule="nonzero"/></g><path fill="#4e986d" d="M 362.414062 362.511719 C 363.640625 359.210938 362.414062 362.511719 362.980469 361 C 364.394531 357.890625 365.996094 354.777344 367.601562 351.664062 C 371.75 344.027344 376.558594 336.667969 382.3125 330.066406 C 397.871094 312.335938 418.527344 300.644531 442.574219 301.304688 C 474.828125 302.246094 494.257812 327.238281 494.726562 358.265625 C 495.292969 393.253906 474.734375 416.453125 452.289062 440.316406 C 427.296875 466.722656 424.65625 503.21875 438.425781 535.945312 C 441.445312 543.015625 447.761719 547.921875 455.871094 545.847656 C 462.570312 544.054688 468.699219 535.472656 465.773438 528.398438 C 458.324219 510.667969 454.363281 491.054688 463.230469 472.945312 C 469.359375 460.589844 481.242188 452.199219 490.105469 442.011719 C 515.570312 412.589844 529.621094 373.449219 520.191406 334.785156 C 511.890625 300.738281 484.824219 277.347656 450.214844 273.671875 C 420.222656 270.464844 391.175781 282.066406 369.582031 302.625 C 354.398438 317.054688 342.609375 335.539062 335.15625 355.058594 C 328.648438 372.035156 356 379.390625 362.414062 362.605469 Z M 362.414062 362.511719 " fill-opacity="1" fill-rule="nonzero"/><path fill="#4e986d" d="M 477.65625 662.128906 C 495.859375 662.128906 495.859375 633.835938 477.65625 633.835938 C 459.457031 633.835938 459.457031 662.128906 477.65625 662.128906 Z M 477.65625 662.128906 " fill-opacity="1" fill-rule="nonzero"/></svg>