<svg xmlns="http://www.w3.org/2000/svg" xmlns:xlink="http://www.w3.org/1999/xlink" width="600" zoomAndPan="magnify" viewBox="0 0 450 449.999984" height="600" preserveAspectRatio="xMidYMid meet" version="1.0"><path fill="#ff8200" d="M 123.132812 72.5 C 121.03125 72.230469 119.246094 72.074219 117.488281 71.765625 C 113.851562 71.132812 111.980469 69.292969 111.226562 65.667969 C 109.933594 59.410156 111.207031 53.949219 116.261719 49.675781 C 116.566406 49.46875 116.800781 49.199219 116.972656 48.875 C 117.597656 47.058594 118.984375 46.710938 120.695312 46.675781 C 133.996094 46.382812 147.292969 46.03125 160.59375 45.734375 C 168.445312 45.554688 176.285156 45.441406 184.128906 45.308594 C 188.3125 45.242188 192.492188 45.089844 196.683594 45.132812 C 206.023438 45.25 215.359375 45.539062 224.695312 45.625 C 228.800781 45.667969 232.902344 45.316406 237.011719 45.257812 C 242.988281 45.167969 248.96875 45.15625 254.945312 45.164062 C 258.605469 45.164062 262.269531 45.230469 265.929688 45.316406 C 284.234375 45.726562 302.539062 46.152344 320.84375 46.589844 C 323.679688 46.652344 326.523438 46.6875 329.363281 46.671875 C 330.996094 46.671875 332.273438 47.078125 332.957031 48.746094 C 333.164062 49.25 333.703125 49.640625 334.140625 50.03125 C 339.257812 54.609375 340.207031 60.882812 338.253906 67.28125 C 338.113281 67.773438 337.914062 68.234375 337.65625 68.671875 C 337.394531 69.109375 337.082031 69.503906 336.71875 69.855469 C 336.351562 70.210938 335.949219 70.511719 335.503906 70.761719 C 335.058594 71.007812 334.59375 71.191406 334.097656 71.316406 C 332.527344 71.753906 330.894531 71.941406 329.265625 72.203125 C 328.542969 72.320312 327.8125 72.347656 326.96875 72.429688 C 326.96875 73.800781 326.90625 75.050781 326.96875 76.296875 C 327.285156 81.75 327.398438 87.199219 326.726562 92.636719 C 325.777344 100.246094 322.921875 107.195312 319.257812 113.851562 C 315.140625 121.332031 310.203125 128.28125 305.148438 135.136719 C 293.722656 150.671875 282.359375 166.246094 270.839844 181.707031 C 260.886719 195.066406 250.742188 208.285156 240.703125 221.585938 C 238.03125 225.113281 238 224.828125 240.742188 228.457031 C 252.710938 244.324219 264.785156 260.101562 276.65625 276.054688 C 288.144531 291.523438 299.488281 307.125 310.789062 322.742188 C 315.867188 329.773438 320.367188 337.171875 323.613281 345.289062 C 326.492188 352.503906 327.410156 360.007812 327.210938 367.699219 C 327.128906 370.90625 326.964844 374.109375 326.832031 377.453125 C 328.570312 377.679688 330.179688 377.867188 331.78125 378.109375 C 336.15625 378.769531 337.992188 380.417969 338.804688 384.714844 C 339.945312 390.707031 338.707031 396 333.917969 400.144531 C 333.585938 400.429688 333.15625 400.722656 333.023438 401.097656 C 332.339844 403.023438 330.851562 403.28125 329.074219 403.304688 C 321.003906 403.429688 312.933594 403.628906 304.867188 403.792969 C 289.476562 404.101562 274.085938 404.410156 258.695312 404.714844 C 256.453125 404.757812 254.210938 404.921875 251.976562 404.882812 C 243.085938 404.730469 234.199219 404.445312 225.3125 404.347656 C 221.132812 404.308594 216.953125 404.679688 212.773438 404.738281 C 206.71875 404.824219 200.667969 404.8125 194.617188 404.8125 C 192.597656 404.8125 190.585938 404.714844 188.566406 404.679688 C 175.265625 404.449219 161.964844 404.253906 148.664062 403.988281 C 139.328125 403.800781 129.992188 403.492188 120.652344 403.292969 C 118.925781 403.253906 117.59375 402.863281 116.945312 401.066406 C 116.792969 400.632812 116.257812 400.320312 115.878906 399.980469 C 110.402344 395.078125 109.808594 388.546875 111.769531 382.539062 C 112.464844 380.402344 114.058594 379.019531 116.25 378.53125 C 118.441406 378.046875 120.648438 377.777344 123.035156 377.382812 C 123.035156 376.410156 123.035156 375.324219 123.035156 374.238281 C 123.066406 369.011719 122.90625 363.78125 123.191406 358.570312 C 123.539062 352.222656 125.675781 346.308594 128.40625 340.609375 C 132.429688 332.210938 137.667969 324.578125 143.164062 317.097656 C 161.671875 291.941406 180.0625 266.691406 199.101562 241.921875 C 202.644531 237.324219 206.101562 232.632812 209.59375 227.96875 C 210.039062 227.371094 210.445312 226.746094 210.855469 226.121094 C 211.105469 225.777344 211.226562 225.390625 211.222656 224.964844 C 211.21875 224.535156 211.085938 224.152344 210.828125 223.8125 C 210.371094 223.128906 209.914062 222.445312 209.421875 221.792969 C 197.214844 205.632812 184.914062 189.546875 172.816406 173.296875 C 161.488281 158.066406 150.355469 142.699219 139.210938 127.34375 C 135.125 121.707031 131.539062 115.765625 128.457031 109.523438 C 124.296875 101.09375 122.472656 92.195312 122.757812 82.839844 C 122.847656 80.003906 123.003906 77.167969 123.117188 74.332031 C 123.152344 73.75 123.132812 73.167969 123.132812 72.5 Z M 131.066406 377.144531 C 130.925781 374.804688 130.832031 372.722656 130.671875 370.644531 C 129.871094 360.296875 132.050781 350.566406 136.914062 341.460938 C 144.761719 326.765625 155.5625 314.65625 169.195312 305.09375 C 180.152344 297.410156 192.03125 292.101562 205.601562 291.414062 C 207.472656 291.320312 208.320312 290.636719 209.058594 289.007812 C 212.875 280.597656 215.511719 271.824219 217.367188 262.800781 C 219.128906 254.222656 220.4375 245.59375 220.136719 236.789062 C 220.011719 233.136719 220.0625 229.480469 219.980469 225.835938 C 219.917969 222.992188 219.089844 220.417969 217.238281 218.1875 C 216.238281 216.980469 215.347656 215.683594 214.453125 214.390625 C 206.609375 203.011719 198.8125 191.601562 190.925781 180.253906 C 186.324219 173.628906 181.367188 167.238281 176.960938 160.484375 C 171.039062 151.398438 164.867188 142.511719 158.078125 134.054688 C 157.617188 133.464844 157.246094 132.828125 156.960938 132.136719 C 156.867188 131.769531 156.949219 131.449219 157.207031 131.171875 C 157.558594 131.011719 157.894531 131.03125 158.21875 131.234375 C 158.789062 131.71875 159.328125 132.226562 159.84375 132.769531 C 168.730469 141.175781 179.121094 145.445312 191.46875 143.96875 C 196.253906 143.421875 200.859375 142.191406 205.277344 140.277344 C 209.699219 138.359375 213.746094 135.84375 217.414062 132.722656 C 221.472656 129.3125 225.277344 125.601562 229.253906 122.09375 C 239.335938 113.222656 251.164062 108.371094 264.523438 107.949219 C 278.324219 107.511719 289.851562 112.757812 298.652344 123.589844 C 300.320312 125.636719 300.3125 125.941406 298.769531 128.058594 C 277.929688 156.6875 257.074219 185.308594 236.199219 213.925781 C 234.539062 216.203125 233.273438 218.589844 232.667969 221.335938 C 230.882812 229.429688 229.167969 237.539062 227.273438 245.605469 C 225.671875 252.441406 225.34375 259.34375 225.691406 266.3125 C 225.773438 268.027344 225.863281 269.746094 225.957031 271.460938 C 226.417969 279.15625 227.449219 286.765625 229.457031 294.230469 C 229.773438 295.417969 230.320312 296.152344 231.4375 296.691406 C 236.472656 299.179688 241.238281 302.113281 245.730469 305.484375 C 247.894531 307.089844 250.070312 308.671875 252.339844 310.113281 C 261.660156 316.027344 271.867188 318.183594 282.761719 316.753906 C 285.835938 316.351562 288.832031 315.269531 291.84375 314.382812 C 292.824219 314.09375 293.527344 314.054688 294.191406 314.917969 C 299.296875 321.636719 304.808594 328.039062 309.417969 335.136719 C 316.734375 346.402344 320.453125 358.578125 319.246094 372.089844 C 319.101562 373.695312 318.980469 375.328125 318.855469 377.042969 C 319.183594 377.121094 319.511719 377.175781 319.847656 377.214844 C 320.199219 377.214844 320.554688 377.171875 321 377.136719 C 321.578125 371.894531 321.71875 366.640625 321.421875 361.375 C 321.148438 356.332031 320.050781 351.472656 318.125 346.800781 C 315.371094 340.140625 311.867188 333.902344 307.609375 328.085938 C 294.242188 309.632812 280.792969 291.242188 267.265625 272.910156 C 256.949219 258.980469 246.359375 245.253906 235.933594 231.402344 C 234.910156 230.046875 234.152344 228.488281 233.320312 226.992188 C 232.953125 226.359375 232.773438 225.679688 232.777344 224.949219 C 232.777344 224.21875 232.96875 223.539062 233.339844 222.914062 C 234.160156 221.414062 234.941406 219.863281 235.957031 218.503906 C 245.796875 205.429688 255.757812 192.445312 265.53125 179.324219 C 277.492188 163.269531 289.3125 147.105469 301.1875 130.980469 C 305.882812 124.601562 310.445312 118.128906 314.28125 111.179688 C 317.882812 104.648438 320.671875 97.839844 321.296875 90.3125 C 321.753906 84.441406 321.652344 78.574219 321 72.71875 C 320.230469 72.71875 319.574219 72.699219 318.921875 72.71875 C 313.917969 72.886719 308.917969 73.058594 303.914062 73.234375 C 292.339844 73.621094 280.769531 74.082031 269.195312 74.367188 C 254.714844 74.722656 240.230469 74.941406 225.75 75.199219 C 223.363281 75.242188 220.972656 75.257812 218.589844 75.167969 C 213.886719 75 209.195312 74.636719 204.496094 74.554688 C 187.460938 74.289062 170.421875 74.570312 153.398438 73.621094 C 147.132812 73.277344 140.863281 73.046875 134.59375 72.804688 C 132.75 72.734375 130.902344 72.804688 128.871094 72.804688 C 128.738281 75.320312 128.621094 77.695312 128.484375 80.066406 C 127.882812 90.054688 129.4375 99.597656 134.269531 108.457031 C 136.027344 111.660156 137.699219 114.953125 139.78125 117.941406 C 145.628906 126.335938 151.613281 134.640625 157.652344 142.902344 C 167.269531 156.054688 176.933594 169.164062 186.640625 182.234375 C 195.574219 194.210938 204.671875 206.070312 213.644531 218.019531 C 214.839844 219.625 215.753906 221.4375 216.710938 223.195312 C 217.03125 223.765625 217.1875 224.375 217.183594 225.027344 C 217.179688 225.683594 217.015625 226.292969 216.6875 226.855469 C 215.765625 228.554688 214.890625 230.304688 213.734375 231.84375 C 204.082031 244.679688 194.296875 257.425781 184.691406 270.300781 C 175.214844 282.992188 165.90625 295.804688 156.515625 308.5625 C 150.316406 316.984375 143.828125 325.210938 138.417969 334.179688 C 136.375 337.566406 134.507812 341.070312 132.789062 344.628906 C 128.886719 352.714844 127.996094 361.351562 128.496094 370.203125 C 128.625 372.496094 128.742188 374.792969 128.867188 377.148438 Z M 121.03125 397.546875 C 121.539062 397.574219 122.128906 397.617188 122.722656 397.632812 C 130.265625 397.835938 137.804688 398.0625 145.347656 398.234375 C 159.3125 398.546875 173.28125 398.992188 187.246094 399.085938 C 210.027344 399.238281 232.8125 399.160156 255.59375 399.164062 C 259.257812 399.164062 262.914062 399.082031 266.574219 399 C 281.890625 398.65625 297.203125 398.300781 312.503906 397.929688 C 316.984375 397.828125 321.464844 397.621094 325.945312 397.703125 C 328.070312 397.742188 329.363281 397.03125 330.753906 395.425781 C 333.195312 392.632812 333.960938 389.625 333.28125 386.101562 C 332.890625 384.078125 332.777344 383.875 330.753906 383.617188 C 328.679688 383.351562 326.589844 383.183594 324.503906 383.097656 C 318.3125 382.832031 312.113281 382.652344 305.917969 382.441406 C 294.5 382.050781 283.085938 381.566406 271.664062 381.296875 C 259.042969 380.992188 246.417969 380.898438 233.796875 380.6875 C 230.363281 380.628906 226.929688 380.316406 223.5 380.386719 C 214.683594 380.570312 205.886719 381.035156 197.074219 381.136719 C 182.140625 381.3125 167.199219 381.214844 152.269531 382.027344 C 143.027344 382.53125 133.761719 382.734375 124.511719 383.132812 C 122.503906 383.21875 120.503906 383.535156 118.507812 383.773438 C 117.738281 383.867188 117.074219 384.128906 116.878906 385.042969 C 116.117188 388.613281 116.125 392.019531 118.808594 394.925781 C 119.523438 395.710938 120.160156 396.53125 121.03125 397.546875 Z M 120.960938 52.386719 C 120.292969 53.253906 119.867188 53.972656 119.289062 54.523438 C 117.167969 56.59375 116.347656 59.085938 116.476562 62.023438 C 116.648438 65.792969 116.902344 66.246094 120.722656 66.472656 C 126.984375 66.847656 133.25 67.105469 139.519531 67.359375 C 150.640625 67.804688 161.757812 68.292969 172.878906 68.617188 C 179.449219 68.804688 186.027344 68.703125 192.601562 68.753906 C 196.488281 68.78125 200.371094 68.832031 204.257812 68.902344 C 214.554688 69.074219 224.828125 69.800781 235.160156 69.292969 C 245.597656 68.777344 256.070312 68.878906 266.527344 68.726562 C 271.90625 68.652344 277.289062 68.742188 282.660156 68.546875 C 296.84375 68.035156 311.019531 67.425781 325.199219 66.820312 C 327.207031 66.730469 329.207031 66.496094 331.214844 66.242188 C 332.015625 66.140625 332.863281 65.960938 333.085938 64.9375 C 333.886719 61.355469 333.816406 57.960938 331.15625 55.050781 C 330.410156 54.25 329.742188 53.347656 328.941406 52.378906 C 294.40625 51.644531 259.777344 50.058594 225.109375 51.125 C 190.378906 50.066406 155.671875 51.640625 120.960938 52.386719 Z M 120.960938 52.386719 " fill-opacity="1" fill-rule="nonzero"/></svg>