<svg xmlns="http://www.w3.org/2000/svg" xmlns:xlink="http://www.w3.org/1999/xlink" width="1200" zoomAndPan="magnify" viewBox="0 0 900 899.99999" height="1200" preserveAspectRatio="xMidYMid meet" version="1.0"><defs><clipPath id="c36aa19682"><path d="M 390.085938 390.085938 L 509.914062 390.085938 L 509.914062 509.914062 L 390.085938 509.914062 Z M 390.085938 390.085938 " clip-rule="nonzero"/></clipPath><clipPath id="5456db19ec"><path d="M 450 390.085938 C 416.910156 390.085938 390.085938 416.910156 390.085938 450 C 390.085938 483.089844 416.910156 509.914062 450 509.914062 C 483.089844 509.914062 509.914062 483.089844 509.914062 450 C 509.914062 416.910156 483.089844 390.085938 450 390.085938 Z M 450 390.085938 " clip-rule="nonzero"/></clipPath><clipPath id="ad63ed91c9"><path d="M 390.085938 390.085938 L 509.910156 390.085938 L 509.910156 509.910156 L 390.085938 509.910156 Z M 390.085938 390.085938 " clip-rule="nonzero"/></clipPath><clipPath id="c7c85746d7"><path d="M 450 390.085938 C 416.910156 390.085938 390.085938 416.910156 390.085938 450 C 390.085938 483.085938 416.910156 509.910156 450 509.910156 C 483.085938 509.910156 509.910156 483.085938 509.910156 450 C 509.910156 416.910156 483.085938 390.085938 450 390.085938 Z M 450 390.085938 " clip-rule="nonzero"/></clipPath></defs><rect x="-90" width="1080" fill="#ffffff" y="-89.999999" height="1079.999988" fill-opacity="1"/><rect x="-90" width="1080" fill="#ffffff" y="-89.999999" height="1079.999988" fill-opacity="1"/><g clip-path="url(#c36aa19682)"><g clip-path="url(#5456db19ec)"><path fill="#ffffff" d="M 390.085938 390.085938 L 509.914062 390.085938 L 509.914062 509.914062 L 390.085938 509.914062 Z M 390.085938 390.085938 " fill-opacity="1" fill-rule="nonzero"/></g></g><g clip-path="url(#ad63ed91c9)"><g clip-path="url(#c7c85746d7)"><path stroke-linecap="butt" transform="matrix(0.75, 0, 0, 0.75, 390.087054, 390.087187)" fill="none" stroke-linejoin="miter" d="M 79.883932 -0.00166571 C 35.764138 -0.00166571 -0.00148865 35.763961 -0.00148865 79.883755 C -0.00148865 123.998341 35.764138 159.763968 79.883932 159.763968 C 123.998518 159.763968 159.764145 123.998341 159.764145 79.883755 C 159.764145 35.763961 123.998518 -0.00166571 79.883932 -0.00166571 Z M 79.883932 -0.00166571 " stroke="#ff8200" stroke-width="70" stroke-opacity="1" stroke-miterlimit="4"/></g></g></svg>