<svg xmlns="http://www.w3.org/2000/svg" xmlns:xlink="http://www.w3.org/1999/xlink" width="600" zoomAndPan="magnify" viewBox="0 0 450 449.999984" height="600" preserveAspectRatio="xMidYMid meet" version="1.0"><defs><clipPath id="55c19adf2b"><path d="M 78 324 L 350 324 L 350 405 L 78 405 Z M 78 324 " clip-rule="nonzero"/></clipPath></defs><g clip-path="url(#55c19adf2b)"><path fill="#4e986d" d="M 347.71875 339.355469 C 350.730469 335.464844 350.015625 329.867188 346.117188 326.855469 C 342.210938 323.832031 336.605469 324.570312 333.621094 328.460938 C 304.785156 365.789062 261.238281 387.195312 214.132812 387.195312 C 174.117188 387.195312 136.769531 371.617188 108.726562 344.078125 L 127.140625 345.15625 C 132.003906 345.507812 136.261719 341.699219 136.554688 336.785156 C 136.84375 331.871094 133.101562 327.65625 128.183594 327.371094 L 88.128906 325.015625 C 87.792969 325 87.472656 325.148438 87.136719 325.171875 C 86.355469 325.210938 85.601562 325.28125 84.847656 325.527344 C 84.382812 325.679688 83.996094 325.9375 83.566406 326.160156 C 83.097656 326.40625 82.589844 326.523438 82.160156 326.855469 C 81.992188 326.984375 81.917969 327.179688 81.757812 327.320312 C 81.621094 327.441406 81.4375 327.480469 81.308594 327.609375 C 81.042969 327.871094 80.941406 328.238281 80.714844 328.527344 C 80.285156 329.074219 79.894531 329.613281 79.609375 330.226562 C 79.398438 330.695312 79.269531 331.160156 79.140625 331.652344 C 78.960938 332.328125 78.847656 332.988281 78.828125 333.6875 C 78.820312 333.941406 78.699219 334.175781 78.714844 334.433594 L 81.0625 374.484375 C 81.34375 379.21875 85.269531 382.875 89.949219 382.875 C 90.125 382.875 90.304688 382.871094 90.480469 382.855469 C 95.398438 382.566406 99.140625 378.351562 98.855469 373.441406 L 97.984375 358.625 C 129.128906 388.335938 170.230469 405.019531 214.132812 405.019531 C 266.808594 405.019531 315.492188 381.085938 347.71875 339.355469 " fill-opacity="1" fill-rule="nonzero"/></g><path fill="#4e986d" d="M 45.285156 236.167969 C 45.285156 261.984375 50.941406 286.675781 62.082031 309.554688 C 63.632812 312.722656 66.800781 314.5625 70.105469 314.5625 C 71.414062 314.5625 72.742188 314.277344 74.007812 313.660156 C 78.429688 311.507812 80.261719 306.171875 78.113281 301.746094 C 68.15625 281.316406 63.109375 259.253906 63.109375 236.167969 C 63.109375 165.042969 111.59375 105.351562 178.785156 89.414062 L 168.085938 104.269531 C 165.214844 108.265625 166.117188 113.835938 170.113281 116.710938 C 171.6875 117.84375 173.507812 118.390625 175.308594 118.390625 C 178.078125 118.390625 180.808594 117.105469 182.550781 114.6875 L 205.996094 82.125 C 206.195312 81.847656 206.234375 81.503906 206.398438 81.210938 C 206.777344 80.535156 207.125 79.867188 207.320312 79.101562 C 207.453125 78.582031 207.449219 78.066406 207.484375 77.527344 C 207.519531 77.042969 207.679688 76.59375 207.632812 76.09375 C 207.613281 75.890625 207.5 75.730469 207.464844 75.53125 C 207.433594 75.34375 207.5 75.160156 207.460938 74.972656 C 207.375 74.59375 207.121094 74.304688 206.992188 73.949219 C 206.761719 73.316406 206.523438 72.71875 206.167969 72.160156 C 205.875 71.703125 205.53125 71.328125 205.160156 70.933594 C 204.71875 70.464844 204.269531 70.046875 203.734375 69.6875 C 203.496094 69.523438 203.347656 69.261719 203.09375 69.121094 L 168 49.65625 C 163.675781 47.265625 158.269531 48.828125 155.886719 53.128906 C 153.492188 57.433594 155.050781 62.855469 159.347656 65.246094 L 172.589844 72.585938 C 98.515625 91.121094 45.285156 157.375 45.285156 236.167969 " fill-opacity="1" fill-rule="nonzero"/><path fill="#4e986d" d="M 402.660156 285.28125 C 400.617188 280.808594 395.304688 278.820312 390.859375 280.875 L 374.742188 288.238281 C 380.175781 271.574219 382.984375 254.152344 382.984375 236.167969 C 382.984375 148.625 317.363281 76.359375 230.347656 68.0625 C 225.351562 67.65625 221.097656 71.195312 220.636719 76.09375 C 220.167969 80.992188 223.761719 85.339844 228.660156 85.808594 C 306.472656 93.222656 365.160156 157.863281 365.160156 236.167969 C 365.160156 250.882812 362.878906 265.121094 358.8125 278.851562 L 354.273438 264.726562 C 352.769531 260.042969 347.746094 257.472656 343.0625 258.96875 C 338.371094 260.472656 335.796875 265.496094 337.300781 270.179688 L 349.582031 308.378906 C 350.316406 310.644531 351.964844 312.445312 354.078125 313.519531 C 354.148438 313.558594 354.191406 313.628906 354.265625 313.660156 C 354.269531 313.664062 354.273438 313.664062 354.277344 313.667969 C 354.351562 313.699219 354.398438 313.773438 354.472656 313.804688 C 355.613281 314.308594 356.839844 314.5625 358.066406 314.5625 C 358.082031 314.5625 358.101562 314.550781 358.117188 314.550781 C 358.132812 314.550781 358.144531 314.5625 358.164062 314.5625 C 359.347656 314.5625 360.484375 314.25 361.5625 313.800781 C 361.628906 313.777344 361.703125 313.789062 361.765625 313.757812 L 398.257812 297.089844 C 402.738281 295.046875 404.707031 289.757812 402.660156 285.28125 " fill-opacity="1" fill-rule="nonzero"/></svg>