<svg xmlns="http://www.w3.org/2000/svg" xmlns:xlink="http://www.w3.org/1999/xlink" width="600" zoomAndPan="magnify" viewBox="0 0 450 449.999984" height="600" preserveAspectRatio="xMidYMid meet" version="1.0"><defs><clipPath id="2599e96873"><path d="M -46.6875 229.960938 L 242.4375 -46.09375 L 496.738281 220.25 L 207.613281 496.304688 Z M -46.6875 229.960938 " clip-rule="nonzero"/></clipPath><clipPath id="dfc6e0a8bf"><path d="M 702.335938 230.292969 L 216.300781 694.355469 L -241.027344 215.371094 L 245.007812 -248.691406 Z M 702.335938 230.292969 " clip-rule="nonzero"/></clipPath><clipPath id="7f1392436c"><path d="M 124 112 L 329 112 L 329 310 L 124 310 Z M 124 112 " clip-rule="nonzero"/></clipPath><clipPath id="29d396de6c"><path d="M -46.6875 229.960938 L 242.4375 -46.09375 L 496.738281 220.25 L 207.613281 496.304688 Z M -46.6875 229.960938 " clip-rule="nonzero"/></clipPath><clipPath id="59a6e8e7db"><path d="M 702.335938 230.292969 L 216.300781 694.355469 L -241.027344 215.371094 L 245.007812 -248.691406 Z M 702.335938 230.292969 " clip-rule="nonzero"/></clipPath><clipPath id="cb70910681"><path d="M 126 85 L 341 85 L 341 365 L 126 365 Z M 126 85 " clip-rule="nonzero"/></clipPath><clipPath id="ae8297cb29"><path d="M -46.6875 229.960938 L 242.4375 -46.09375 L 496.738281 220.25 L 207.613281 496.304688 Z M -46.6875 229.960938 " clip-rule="nonzero"/></clipPath><clipPath id="44674f8169"><path d="M 702.335938 230.292969 L 216.300781 694.355469 L -241.027344 215.371094 L 245.007812 -248.691406 Z M 702.335938 230.292969 " clip-rule="nonzero"/></clipPath></defs><g clip-path="url(#2599e96873)"><g clip-path="url(#dfc6e0a8bf)"><path fill="#c42923" d="M 561.222656 235.152344 C 563.847656 183.351562 554.332031 130.523438 534.4375 82.691406 C 502.371094 5.691406 437.910156 -54.863281 358.800781 -81.636719 C 302.085938 -100.824219 240.402344 -102.25 181.710938 -91.917969 C 127.796875 -82.425781 74.582031 -64.832031 28.9375 -33.871094 C -42.394531 14.570312 -86.878906 89.597656 -98.566406 174.625 C -109.015625 250.371094 -93.207031 330.9375 -55.253906 397.269531 C -37.089844 428.953125 -13.695312 457.632812 15.074219 480.390625 C 47.710938 506.222656 85.953125 521.925781 126.097656 531.960938 C 175.085938 544.308594 224.972656 550.355469 275.464844 544.796875 C 359.136719 535.71875 436.234375 493.730469 488.464844 427.652344 C 528.023438 377.660156 551.808594 316.019531 559.585938 253.054688 C 560.335938 247.160156 560.878906 241.191406 561.222656 235.152344 C 562.199219 216.550781 533.390625 216.019531 532.421875 234.484375 C 525.832031 357.828125 440.972656 473.925781 319.421875 507.34375 C 267.09375 521.695312 211.570312 521.433594 158.679688 510.148438 C 134.804688 505.042969 110.886719 498.917969 88.191406 489.898438 C 52.632812 475.617188 21.773438 452.335938 -2.695312 422.953125 C -95.285156 312.0625 -99.914062 127.152344 4.996094 22.734375 C 49.65625 -21.636719 107.808594 -46.867188 168.535156 -59.9375 C 212.253906 -69.394531 257.527344 -72.765625 301.957031 -65.894531 C 376.589844 -54.378906 444.613281 -12.636719 485.542969 51.382812 C 516.832031 100.296875 532.203125 158.695312 532.765625 216.617188 C 532.765625 222.597656 532.691406 228.644531 532.351562 234.550781 C 531.378906 253.152344 560.25 253.75 561.15625 235.21875 Z M 561.222656 235.152344 " fill-opacity="1" fill-rule="nonzero"/></g></g><g clip-path="url(#7f1392436c)"><g clip-path="url(#29d396de6c)"><g clip-path="url(#59a6e8e7db)"><path fill="#c42923" d="M 324.847656 284.535156 C 269.921875 223.113281 209.777344 166.941406 145.167969 115.828125 C 130.683594 104.414062 115.972656 129.222656 130.390625 140.566406 C 192.929688 190.066406 250.859375 245.03125 303.996094 304.441406 C 316.386719 318.253906 337.238281 298.347656 324.847656 284.535156 Z M 324.847656 284.535156 " fill-opacity="1" fill-rule="nonzero"/></g></g></g><g clip-path="url(#cb70910681)"><g clip-path="url(#ae8297cb29)"><g clip-path="url(#44674f8169)"><path fill="#c42923" d="M 319.882812 87.722656 C 224.566406 144.582031 154.023438 238.375 126.792969 346.085938 C 122.230469 363.992188 149.910156 372.109375 154.472656 354.066406 C 179.832031 253.859375 244.730469 166.117188 333.5 113.117188 C 349.421875 103.628906 335.800781 78.234375 319.882812 87.722656 Z M 319.882812 87.722656 " fill-opacity="1" fill-rule="nonzero"/></g></g></g></svg>