<svg xmlns="http://www.w3.org/2000/svg" xmlns:xlink="http://www.w3.org/1999/xlink" width="1200" zoomAndPan="magnify" viewBox="0 0 900 899.99999" height="1200" preserveAspectRatio="xMidYMid meet" version="1.0"><defs><clipPath id="6c2770fa45"><path d="M 301.003906 301.003906 L 598.753906 301.003906 L 598.753906 598.753906 L 301.003906 598.753906 Z M 301.003906 301.003906 " clip-rule="nonzero"/></clipPath><clipPath id="fa308579f7"><path d="M 390.085938 390.085938 L 509.914062 390.085938 L 509.914062 509.914062 L 390.085938 509.914062 Z M 390.085938 390.085938 " clip-rule="nonzero"/></clipPath><clipPath id="f714fee54e"><path d="M 450 390.085938 C 416.910156 390.085938 390.085938 416.910156 390.085938 450 C 390.085938 483.089844 416.910156 509.914062 450 509.914062 C 483.089844 509.914062 509.914062 483.089844 509.914062 450 C 509.914062 416.910156 483.089844 390.085938 450 390.085938 Z M 450 390.085938 " clip-rule="nonzero"/></clipPath></defs><rect x="-90" width="1080" fill="#ffffff" y="-89.999999" height="1079.999988" fill-opacity="1"/><rect x="-90" width="1080" fill="#ffffff" y="-89.999999" height="1079.999988" fill-opacity="1"/><g clip-path="url(#6c2770fa45)"><path fill="#4e986d" d="M 573.683594 447.984375 C 572.613281 381.363281 518.628906 327.378906 452.007812 326.308594 L 452.007812 301.003906 L 447.984375 301.003906 L 447.984375 326.308594 C 381.363281 327.378906 327.378906 381.363281 326.308594 447.984375 L 301.003906 447.984375 L 301.003906 452.007812 L 326.308594 452.007812 C 327.378906 518.628906 381.363281 572.613281 447.984375 573.683594 L 447.984375 598.988281 L 452.007812 598.988281 L 452.007812 573.683594 C 518.628906 572.613281 572.613281 518.628906 573.683594 452.007812 L 598.988281 452.007812 L 598.988281 447.984375 Z M 452.007812 569.65625 L 452.007812 536.757812 L 447.984375 536.757812 L 447.984375 569.65625 C 383.585938 568.589844 331.402344 516.410156 330.335938 452.007812 L 361.183594 452.007812 L 361.183594 447.984375 L 330.335938 447.984375 C 331.402344 383.582031 383.585938 331.402344 447.984375 330.335938 L 447.984375 361.355469 L 452.007812 361.355469 L 452.007812 330.335938 C 516.410156 331.402344 568.589844 383.582031 569.65625 447.984375 L 538.808594 447.984375 L 538.808594 452.007812 L 569.65625 452.007812 C 568.589844 516.410156 516.410156 568.589844 452.007812 569.65625 Z M 506.136719 447.984375 L 502.109375 447.984375 C 501.050781 420.152344 478.085938 397.832031 449.996094 397.832031 C 421.90625 397.832031 398.941406 420.152344 397.882812 447.984375 L 393.855469 447.984375 C 394.917969 417.929688 419.6875 393.804688 449.996094 393.804688 C 480.304688 393.804688 505.074219 417.929688 506.136719 447.984375 Z M 502.109375 452.011719 L 506.136719 452.011719 C 505.070312 482.0625 480.304688 506.1875 449.996094 506.1875 C 419.6875 506.1875 394.921875 482.0625 393.855469 452.011719 L 397.882812 452.011719 C 398.945312 479.84375 421.90625 502.164062 449.996094 502.164062 C 478.085938 502.164062 501.046875 479.84375 502.109375 452.011719 Z M 502.109375 452.011719 " fill-opacity="1" fill-rule="nonzero"/></g><g clip-path="url(#fa308579f7)"><g clip-path="url(#f714fee54e)"><path fill="#4e986d" d="M 390.085938 390.085938 L 509.914062 390.085938 L 509.914062 509.914062 L 390.085938 509.914062 Z M 390.085938 390.085938 " fill-opacity="1" fill-rule="nonzero"/></g></g></svg>