<?xml version="1.0" encoding="UTF-8"?>
<svg id="Calque_1" data-name="Calque 1" xmlns="http://www.w3.org/2000/svg" viewBox="0 0 168.93 175.63">
  <defs>
    <style>
      .cls-1 {
        fill: #c8efd9;
      }

      .cls-1, .cls-2 {
        stroke-width: 0px;
      }

      .cls-2 {
        fill: #4e986d;
      }
    </style>
  </defs>
  <path class="cls-1" d="M37.03,33.69c-6.1,4.32-21.69,15.36-30.36,37.6-2.31,5.92-11.7,28.51-3.14,48.09,4.09,9.35,11.31,16.16,18.74,22.1,12.79,10.22,26.74,18.61,41.47,24.93,14.07,6.04,29.12,10.23,44.53,9,15.41-1.23,31.28-8.38,42.06-21.96,6.57-8.28,10.99-18.53,13.93-29.03,3.22-11.46,4.79-23.41,4.64-35.18-.07-5.47-.58-11.15-3.13-15.56-1.88-3.25-4.72-5.55-7.49-7.78-21.85-17.55-32.07-30.36-62.26-40.23-10.53-3.44-17.79-5.72-28.1-4.64-14.99,1.57-25.94,9.15-30.9,12.65Z"/>
  <g>
    <path class="cls-2" d="M39.25,174.22c26.83.32,53.66.63,80.48.95,7.5.09,15,.18,22.5.27,2.41.03,2.42-3.72,0-3.75-26.83-.32-53.66-.63-80.48-.95-7.5-.09-15-.18-22.5-.27-2.41-.03-2.42,3.72,0,3.75h0Z"/>
    <g>
      <path class="cls-2" d="M39.31,60.27c-.54,29.05-1.08,58.09-1.61,87.14-.15,8.13-.3,16.27-.45,24.4-.04,2.41,3.71,2.41,3.75,0,.54-29.05,1.08-58.09,1.61-87.14.15-8.13.3-16.27.45-24.4.04-2.41-3.71-2.41-3.75,0h0Z"/>
      <path class="cls-2" d="M144.18,172.98c.58-29.09,1.15-58.18,1.73-87.27.16-8.15.32-16.29.48-24.44.05-2.41-3.7-2.41-3.75,0-.58,29.09-1.15,58.18-1.73,87.27-.16,8.15-.32,16.29-.48,24.44-.05,2.41,3.7,2.41,3.75,0h0Z"/>
      <path class="cls-2" d="M20.39,61.68c18.48-1,36.98-1.6,55.49-1.78,18.51-.19,37.02.03,55.52.66,10.45.35,20.9.84,31.34,1.45,2.41.14,2.4-3.61,0-3.75-18.48-1.08-36.98-1.76-55.48-2.04s-37.02-.14-55.52.4c-10.45.31-20.9.74-31.34,1.31-2.4.13-2.42,3.88,0,3.75h0Z"/>
      <path class="cls-2" d="M21.5,61.29c17.61-15.77,35.82-30.87,54.61-45.21,5.3-4.04,10.64-8.03,16.02-11.95.82-.6,1.21-1.62.67-2.57-.46-.81-1.75-1.27-2.57-.67-19.29,14.07-38.05,28.88-56.18,44.42-5.12,4.39-10.19,8.83-15.21,13.33-1.8,1.61.86,4.26,2.65,2.65h0Z"/>
      <path class="cls-2" d="M89.67,3.18c18.77,14.58,37.26,29.51,55.48,44.77,5.07,4.25,10.13,8.53,15.16,12.84,1.82,1.56,4.49-1.08,2.65-2.65-18.1-15.48-36.48-30.63-55.13-45.44-5.15-4.08-10.32-8.14-15.5-12.17-.81-.63-1.86-.77-2.65,0-.65.64-.8,2.03,0,2.65h0Z"/>
      <path class="cls-2" d="M88.47,102.48c2.41,0,2.42-3.75,0-3.75s-2.42,3.75,0,3.75h0Z"/>
      <path class="cls-2" d="M100.56,102.48c2.41,0,2.42-3.75,0-3.75s-2.42,3.75,0,3.75h0Z"/>
      <path class="cls-2" d="M69.03,113.1c9.77,11.06,25.57,15.43,39.61,10.84,4.02-1.31,7.81-3.27,11.17-5.85.81-.62,1.22-1.61.67-2.57-.45-.8-1.76-1.29-2.57-.67-7,5.36-15.84,7.95-24.64,6.99-8.32-.91-16.09-5.16-21.6-11.4-1.6-1.81-4.25.85-2.65,2.65h0Z"/>
    </g>
  </g>
</svg>