<?xml version="1.0" encoding="UTF-8"?>
<svg id="Calque_1" data-name="Calque 1" xmlns="http://www.w3.org/2000/svg" viewBox="0 0 162.61 180.43">
  <defs>
    <style>
      .cls-1 {
        fill: #ffeca7;
      }

      .cls-1, .cls-2 {
        stroke-width: 0px;
      }

      .cls-2 {
        fill: #ff8300;
      }
    </style>
  </defs>
  <path class="cls-1" d="M24.83,43.64c-5.1,5.1-18.14,18.13-22.65,40.6-1.2,5.98-6.34,28.89,5.18,45.97,5.5,8.15,13.58,13.39,21.7,17.76,13.98,7.53,28.76,13.13,43.93,16.65,14.49,3.37,29.61,4.82,44.14,1.09,14.54-3.73,28.51-13.14,36.51-27.76,4.88-8.92,7.36-19.34,8.39-29.76,1.13-11.37.6-22.92-1.55-34.02-1-5.16-2.45-10.44-5.65-14.18-2.35-2.76-5.46-4.46-8.5-6.1-23.89-12.94-35.85-23.35-66.42-27.65-10.67-1.5-18-2.44-27.68.3-14.07,3.98-23.27,12.97-27.41,17.11Z"/>
  <g>
    <path class="cls-2" d="M65.13,154.09c.05-9.59-1.8-19.27-5.91-27.96-1.69-3.56-3.92-6.8-6-10.14-2.84-4.56-5.43-9.29-7.64-14.2-4.25-9.43-6.98-19.81-5.93-30.22.94-9.29,4.98-18.4,12.35-24.34,7.82-6.29,18.64-9.16,28.49-9.84,10.02-.69,20.33,1.2,28.65,7.08,15.13,10.7,20.36,31.33,15.88,48.71-2.73,10.59-9.07,19.52-14.48,28.85-2.3,3.97-4.49,8.04-6.06,12.37-1.73,4.78-2.78,9.78-3.2,14.85-.16,1.93-.22,3.88-.2,5.82s3.02,1.93,3,0c-.12-9.47,2.1-18.62,6.52-26.98,5.18-9.8,12.01-18.77,15.8-29.26,6.52-18.04,2.95-39.86-11.3-53.29-7.35-6.93-17-10.5-27-11.16s-21.38,1.41-30.72,5.98-15.68,12.11-18.8,21.74c-3.19,9.82-2.59,20.41.28,30.23,2.99,10.25,8.21,19.61,13.91,28.56,2.34,3.67,4.34,7.42,5.8,11.53,1.79,5.04,2.91,10.3,3.34,15.63.16,2.01.23,4.02.22,6.03s2.99,1.93,3,0h0Z"/>
    <path class="cls-2" d="M63.43,155.97c7.25-.22,14.49.26,21.73.63,3.54.18,7.07.33,10.62.35,1.73,0,3.46-.01,5.18-.07,1.41-.05,3.09-.35,4.43.21,1.22.5,1.55,1.72,1.52,2.94-.01.53-.05,1.41-.45,1.81-.56.57-1.91.51-2.64.61-3.45.45-6.93.66-10.41.72-7.06.12-14.11-.43-21.14-1.09-1.91-.18-3.82-.37-5.73-.57-1.76-.18-3.59-.26-5.32-.63-1.46-.32-2.41-1.1-1.77-2.69.55-1.36,2.06-2.7,3.59-2.19,1.83.62,2.62-2.28.8-2.89-3.26-1.09-6.68,1.7-7.44,4.8-.39,1.6-.07,3.32,1.16,4.48s2.79,1.42,4.33,1.61c8.5,1.07,17.11,1.87,25.68,2.12,4.29.13,8.59.07,12.87-.31,2.06-.18,4.36-.26,6.35-.82,1.67-.47,2.65-1.85,2.96-3.51.63-3.38-.83-6.87-4.48-7.51-1.83-.32-3.7-.1-5.55-.05-2.22.06-4.44.05-6.66,0-9.88-.22-19.74-1.24-29.63-.94-1.93.06-1.93,3.06,0,3h0Z"/>
    <path class="cls-2" d="M60.86,162.93c-.29,3.41.18,6.84,3.49,8.6,3.13,1.66,7.01,1.54,10.45,1.6,4.38.08,8.77.16,13.15.24,2.11.04,4.23.08,6.34.1,1.88.03,3.89.18,5.7-.42,3.61-1.18,5.11-4.91,5.2-8.44.05-1.93-2.95-1.93-3,0-.04,1.51-.35,3.15-1.33,4.36-1.25,1.56-3.28,1.53-5.11,1.52-4.5-.04-9.01-.15-13.51-.23s-8.91.16-13.25-.44c-1.49-.2-3.26-.59-4.31-1.76-1.23-1.38-.97-3.45-.83-5.14.16-1.92-2.84-1.91-3,0h0Z"/>
    <path class="cls-2" d="M70.35,172.84c.68,2.38,2.53,4.06,4.58,5.33,2.22,1.38,4.84,2.31,7.48,2.25,4.64-.11,8.71-3.18,10.37-7.45.3-.76-.33-1.64-1.05-1.85-.85-.24-1.55.3-1.85,1.05-1.16,2.99-4.27,5.18-7.48,5.25-1.96.04-3.86-.61-5.54-1.58-1.52-.88-3.12-2.04-3.63-3.8-.53-1.85-3.43-1.06-2.89.8h0Z"/>
    <path class="cls-2" d="M14.2,41.8c5.12,2.69,10.24,5.38,15.36,8.07,1.71.9,3.23-1.69,1.51-2.59-5.12-2.69-10.24-5.38-15.36-8.07-1.71-.9-3.23,1.69-1.51,2.59h0Z"/>
    <path class="cls-2" d="M84.25,1.45v17.81c0,1.93,3,1.93,3,0V1.45c0-1.93-3-1.93-3,0h0Z"/>
    <path class="cls-2" d="M137.11,45.42c4.77-3.55,9.83-6.67,15.14-9.33,1.73-.86.21-3.45-1.51-2.59-5.31,2.66-10.38,5.78-15.14,9.33-.65.48-.98,1.3-.54,2.05.37.64,1.4,1.02,2.05.54h0Z"/>
    <path class="cls-2" d="M34.8,15.5c4.8,5.07,9.83,9.92,15.09,14.51,1.45,1.27,3.58-.85,2.12-2.12-5.26-4.6-10.29-9.44-15.09-14.51-1.33-1.41-3.45.72-2.12,2.12h0Z"/>
    <path class="cls-2" d="M115.11,27.23c4.31-6.28,8.75-12.48,13.31-18.58.49-.65.11-1.68-.54-2.05-.77-.45-1.57-.11-2.05.54-4.56,6.1-9,12.3-13.31,18.58-1.09,1.6,1.5,3.1,2.59,1.51h0Z"/>
    <path class="cls-2" d="M141.82,73.22c5.87.25,11.74.51,17.61.76,1.93.08,1.93-2.92,0-3-5.87-.25-11.74-.51-17.61-.76-1.93-.08-1.93,2.92,0,3h0Z"/>
    <path class="cls-2" d="M22.78,76.02c-6.63.63-13.04,2.33-19.11,5.07-.74.33-.92,1.41-.54,2.05.44.76,1.31.87,2.05.54,5.55-2.5,11.53-4.08,17.6-4.66.81-.08,1.5-.63,1.5-1.5,0-.75-.69-1.58-1.5-1.5h0Z"/>
    <path class="cls-2" d="M75.7,154.52c.17-13.11.31-26.29-1.84-39.27-.21-1.28-.32-2.76-1.28-3.74-.9-.93-2.46-1.11-3.48-.27-.96.79-.89,1.95-.75,3.06.18,1.47.39,2.94.95,4.32.93,2.3,2.84,4.32,5.42,4.56s4.79-1.45,6.31-3.4c1.71-2.2,3.09-4.93,3.52-7.7.32-2.04.28-5.87-2.31-6.5-2.89-.7-3.68,3.06-4.05,5.06-.53,2.86-.61,5.84.51,8.57,2.03,4.96,8.07,7.59,12.79,4.4,2.06-1.4,3.43-3.68,3.72-6.15.13-1.16.06-2.42-.64-3.4-.84-1.18-2.41-1.45-3.66-.76-2.6,1.44-3.31,5.12-3.63,7.79-.44,3.63-.61,7.32-.78,10.98-.34,7.54-.32,15.1.06,22.65.1,1.92,3.1,1.93,3,0-.47-9.51-.39-19.05.29-28.54.15-2.16.22-4.39.68-6.51.2-.93.48-1.84.96-2.67.24-.4.51-.85.93-1.09-.52.3-.06-.29-.19.2-.04.17.03.46.03.63-.09,3.85-4.23,6.34-7.71,4.8-4.04-1.8-4.12-7.09-3.34-10.75.05-.25.72-2.25.68-2.29-.73-.82-.24,1.17-.25,1.09.08.55.07,1.15,0,1.71-.23,2.06-1.23,4.05-2.34,5.77-.85,1.32-2.18,3.03-3.88,3.16-1.92.15-3.12-1.79-3.59-3.38-.28-.96-.43-1.96-.54-2.95,0-.05-.01-.48-.05-.52l-.41.12c-.43-.02-.52.12-.28.42,0,.52.23,1.15.32,1.66.4,2.35.72,4.7.97,7.07,1.12,10.59.98,21.25.84,31.88-.03,1.93,2.97,1.93,3,0h0Z"/>
  </g>
</svg>