<?xml version="1.0" encoding="UTF-8"?>
<svg id="Calque_1" data-name="Calque 1" xmlns="http://www.w3.org/2000/svg" viewBox="0 0 159.01 161.36">
  <defs>
    <style>
      .cls-1 {
        fill: #d9f2f2;
      }

      .cls-1, .cls-2 {
        stroke-width: 0px;
      }

      .cls-2 {
        fill: #0f548d;
      }
    </style>
  </defs>
  <path class="cls-1" d="M5.62,57.65c-2.47,6.23-8.79,22.16-3.67,41.49,1.37,5.15,6.11,25.11,23.34,33.06,8.22,3.79,17.56,4.18,26.58,3.87,15.53-.52,30.99-2.88,45.95-7.02,14.29-3.95,28.36-9.66,39.8-19.1,11.44-9.44,20.07-22.99,21.25-37.87.72-9.07-1.31-18.22-4.64-26.71-3.63-9.26-8.8-17.92-15.23-25.5-2.99-3.52-6.44-6.93-10.81-8.37-3.22-1.06-6.68-.97-10.06-.86-26.57.83-41.47-1.79-70.48,8.72-10.12,3.66-17.04,6.25-24.56,12.73-10.93,9.42-15.47,20.5-17.48,25.56Z"/>
  <path class="cls-2" d="M73,160.43c12.03-16.37,23.66-33.05,34.85-50,11.2-16.96,21.97-34.19,32.3-51.69,3.95-6.7,7.88-13.45,9.27-21.22,1.16-6.46.47-13.68-5.17-17.88-7.4-5.51-17.05-1.75-24.29,2.02s-13.83,8.44-19.8,13.88c-11.94,10.89-21.12,24.84-26.25,40.18-.64,1.91-1.21,3.84-1.72,5.79h3.62c-7.45-17.9-14.9-35.81-22.34-53.71-1.85-4.44-3.69-8.88-5.54-13.31-1.5-3.61-2.79-7.5-5.27-10.58C40.59,1.33,37.37-.34,34.03.06s-5.81,2.36-7.76,4.8c-4.74,5.93-5.72,13.42-6.2,20.76-.53,8.06.04,16.15,1.44,24.1,2.87,16.33,9.38,31.86,17.26,46.37,8.11,14.93,17.78,28.94,27.76,42.67,1.22,1.68,2.45,3.36,3.68,5.03.6.82,1.62,1.21,2.57.67.81-.46,1.27-1.75.67-2.57-9.6-13.07-19.03-26.3-27.25-40.3-8.04-13.68-14.98-28.14-19.02-43.53-1.96-7.47-3.2-15.12-3.49-22.85-.14-3.9-.05-7.81.3-11.69.31-3.51.7-7.06,1.91-10.39,1.55-4.26,5.86-11.47,11.42-8.86,2.96,1.39,4.38,4.92,5.56,7.75,1.79,4.28,3.56,8.57,5.35,12.85,7.1,17.06,14.2,34.13,21.29,51.19.89,2.14,1.78,4.28,2.67,6.43.66,1.58,3.1,1.96,3.62,0,3.91-14.93,11.74-28.7,22.41-39.84,5.33-5.57,11.33-10.47,17.89-14.52,3.3-2.03,6.74-3.96,10.33-5.44,3.78-1.56,8.17-2.81,12.23-1.69,2.88.79,5.32,2.82,6.5,5.57s1.19,5.81.83,8.68c-.9,7.12-4.3,13.44-7.88,19.52-9.89,16.83-20.19,33.43-30.89,49.77s-21.79,32.41-33.26,48.22c-1.4,1.93-2.8,3.85-4.21,5.77-.6.82-.13,2.08.67,2.57.95.57,1.97.14,2.57-.67h0Z"/>
</svg>