<?xml version="1.0" encoding="UTF-8"?>
<svg id="Calque_1" data-name="Calque 1" xmlns="http://www.w3.org/2000/svg" viewBox="0 0 111.56 116.79">
  <defs>
    <style>
      .cls-1 {
        fill: #0f548d;
      }

      .cls-1, .cls-2 {
        stroke-width: 0px;
      }

      .cls-2 {
        fill: #fff;
      }
    </style>
  </defs>
  <path class="cls-1" d="M55.94,0C22.08,0,0,23.23,0,58.4s22.08,58.4,55.62,58.4,55.61-22.9,55.94-58.4C111.23,23.23,89.31,0,55.94,0Z"/>
  <path class="cls-2" d="M46.82,66.59v-2.59c0-5.88,4.41-8.26,8.82-9.87l4.9-1.82c2.73-.98,3.85-1.61,3.85-3.15s-.7-2.59-7.98-2.59-9.45,1.54-9.45,4.83v3.36h-12.95v-2.1c0-9.52,6.37-18.06,23.38-18.06,14.56,0,20.16,6.23,20.16,14.07s-5.11,10.5-9.52,12.18l-5.25,1.96c-2.52.98-2.8,1.96-2.8,3.43v.35h-13.16ZM45.91,82.2v-12.39h15.05v12.39h-15.05Z"/>
</svg>