<?xml version="1.0" encoding="UTF-8"?>
<svg id="Calque_1" data-name="Calque 1" xmlns="http://www.w3.org/2000/svg" viewBox="0 0 164.55 170.18">
  <defs>
    <style>
      .cls-1 {
        fill: #f9d4cf;
      }

      .cls-1, .cls-2 {
        stroke-width: 0px;
      }

      .cls-2 {
        fill: #c42923;
      }
    </style>
  </defs>
  <path class="cls-1" d="M6.69,69.9c-2.71,6.82-9.62,24.25-4.01,45.42,1.49,5.64,6.69,27.49,25.55,36.18,9,4.15,19.22,4.57,29.09,4.24,17-.57,33.92-3.16,50.29-7.69,15.64-4.33,31.04-10.58,43.57-20.91,12.53-10.33,21.97-25.17,23.26-41.45.79-9.93-1.44-19.94-5.07-29.23-3.97-10.14-9.63-19.62-16.68-27.91-3.28-3.86-7.04-7.58-11.83-9.16-3.52-1.16-7.31-1.06-11.01-.94-29.08.91-45.4-1.95-77.14,9.54-11.08,4.01-18.65,6.84-26.88,13.94-11.96,10.32-16.93,22.44-19.13,27.98Z"/>
  <g>
    <path class="cls-2" d="M74.21,71.53c1.93,0,1.93-3,0-3s-1.93,3,0,3h0Z"/>
    <path class="cls-2" d="M91.85,71.26c1.93,0,1.93-3,0-3s-1.93,3,0,3h0Z"/>
    <path class="cls-2" d="M51.24,85.39c7.12,7.32,14.78,15,25.01,17.59,4.82,1.22,9.88,1.12,14.57-.6s8.46-4.42,12.02-7.59c3.96-3.53,7.82-7.84,8.68-13.27.3-1.89-2.59-2.7-2.89-.8-.7,4.4-3.56,7.86-6.71,10.84s-6.72,5.72-10.75,7.47c-8.96,3.89-18.44.71-25.94-4.79-4.35-3.19-8.11-7.11-11.86-10.96-1.35-1.39-3.47.74-2.12,2.12h0Z"/>
    <path class="cls-2" d="M27.84,108.73c.54,12.83,1.1,25.67,1.61,38.5.1,2.62.23,5.24.27,7.86.01.9.07,1.79.42,2.63.64,1.56,1.95,2.27,3.49,2.73,3.79,1.14,7.63,2.14,11.48,3.09,15.42,3.8,31.23,6.28,47.12,6.6,7.89.16,15.79-.22,23.62-1.23,3.29-.43,6.93-.76,9.08-3.63,1.56-2.09,1.83-4.79,1.7-7.32-.57-10.89-.39-21.84-.37-32.74,0-2.01,0-4.03.02-6.04s-2.99-1.93-3,0c-.03,11.8-.21,23.62.2,35.41.06,1.68.25,3.39.18,5.07-.04,1.22-.27,2.48-.92,3.53-.84,1.33-2.23,1.89-3.71,2.22-3.55.79-7.32,1.02-10.94,1.3s-7.56.44-11.35.46c-15.23.09-30.41-1.9-45.26-5.22-3.64-.81-7.26-1.71-10.86-2.67-1.76-.47-3.52-.96-5.27-1.46-.65-.19-1.68-.31-2.18-.82-.39-.4-.42-.99-.44-1.52-.09-2.17-.13-4.35-.21-6.52-.52-13.42-1.11-26.83-1.68-40.24-.08-1.92-3.08-1.93-3,0h0Z"/>
    <path class="cls-2" d="M43.04,111.73c-8.09-2.18-16.28-5.16-22.7-10.73-6.31-5.48-11.03-13.36-14.05-21.08s-4.58-16.26-2-24.21c2.46-7.59,9.36-12.66,17.12-13.85,10.66-1.62,20.32,4.28,28.9,9.8,1.63,1.05,3.13-1.55,1.51-2.59-8.36-5.38-17.59-10.93-27.91-10.44-8.4.4-16.65,4.66-20.77,12.19s-3.67,17.47-1.17,25.76,7.27,17.16,13.41,23.79c7.08,7.65,17.01,11.6,26.87,14.25,1.87.5,2.66-2.39.8-2.89h0Z"/>
    <path class="cls-2" d="M41.11,44.43c5.36-10.84,11.99-21.61,20.45-30.3,5.29-5.43,11.71-9.87,19.39-10.93,5.4-.75,10.93.63,15.76,3.01,3.43,1.69,6.36,4.02,8.04,7.5,1.9,3.91,2.4,8.58,2.89,12.85.64,5.61.84,11.27.66,16.92-.06,1.93,2.94,1.93,3,0,.17-5.36,0-10.73-.57-16.07-.46-4.36-.98-8.87-2.47-13.02-1.22-3.4-3.26-6.26-6.17-8.44-4.34-3.25-9.98-5.2-15.33-5.79-17.9-1.98-30.82,14.13-39.5,27.48-3.2,4.92-6.15,10.02-8.76,15.28-.85,1.72,1.73,3.25,2.59,1.51h0Z"/>
    <path class="cls-2" d="M119.11,120.71c6.82-.07,12.43-4.57,17.01-9.19,4.52-4.56,8.66-9.54,12.36-14.79,7.6-10.77,13.34-23.12,15.32-36.23,1.07-7.13,1.37-14.39-1.64-21.1-2.45-5.47-6.39-10.2-11.18-13.78-5.46-4.08-12.03-6.69-18.9-6.55-8.69.18-17.72,4.36-23.62,10.77-1.31,1.42.81,3.55,2.12,2.12,4.45-4.84,10.87-8.28,17.3-9.47s12.76.27,18.45,3.64c4.28,2.53,7.98,6.01,10.7,10.18,1.78,2.72,3.23,5.69,3.96,8.87.81,3.52.66,7.2.34,10.77-1.1,12.46-5.87,24.35-12.52,34.86-3.66,5.79-7.91,11.19-12.57,16.21s-10.06,10.6-17.14,10.67c-1.93.02-1.93,3.02,0,3h0Z"/>
  </g>
</svg>