<?xml version="1.0" encoding="UTF-8"?>
<svg id="Calque_1" data-name="Calque 1" xmlns="http://www.w3.org/2000/svg" viewBox="0 0 285 170.58">
  <defs>
    <style>
      .cls-1 {
        fill: #0f548d;
        stroke-width: 0px;
      }

      .cls-2 {
        fill: none;
        stroke: #0f548d;
        stroke-miterlimit: 10;
        stroke-width: 2px;
      }
    </style>
  </defs>
  <rect class="cls-2" x="1" y="1" width="283" height="168.58" rx="42.12" ry="42.12"/>
  <g>
    <path class="cls-1" d="M168.1,80.63c0-18.26,0-36.51,0-54.77,0-.4.03-.8,0-1.2-.04-.62.35-.85,1.11-.85,2.04,0,4.08.01,6.13,0,.79,0,1.13.28,1.07.87-.02.22,0,.44,0,.66,0,36.81,0,73.61,0,110.42q0,1.65-2.18,1.65c-1.61,0-3.23-.03-4.84.01-1,.02-1.36-.28-1.3-1.04.06-.76,0-1.53,0-2.3,0-17.82,0-35.64,0-53.46h0Z"/>
    <path class="cls-1" d="M149.05,80.63c0-18.48.01-36.96-.03-55.44,0-1.09.34-1.51,1.82-1.42,1.56.1,3.14.07,4.7,0,1.2-.05,1.83.2,1.62,1.21-.03.14,0,.29,0,.44,0,36.77,0,73.55,0,110.32,0,1.83.23,1.65-2.13,1.66-1.52,0-3.04-.06-4.56.02-1.18.06-1.54-.31-1.42-1.14.04-.33,0-.66,0-.99,0-18.22,0-36.45,0-54.67Z"/>
    <path class="cls-1" d="M206.4,80.64c0-18.48.01-36.95-.03-55.43,0-1.12.4-1.44,1.84-1.42,3.68.05,3.68,0,3.68,2.79,0,36.41,0,72.81,0,109.22q0,1.61-2.05,1.62-3.43,0-3.43-2.66c0-18.04,0-36.08,0-54.12Z"/>
    <path class="cls-1" d="M124.32,80.51c0-18.44.01-36.88-.03-55.32,0-1.13.44-1.43,1.85-1.41,3.65.05,3.66,0,3.66,2.82,0,36.44,0,72.88,0,109.32q0,1.48-1.93,1.48-3.55,0-3.55-2.68c0-18.07,0-36.15,0-54.22h0Z"/>
    <path class="cls-1" d="M187.37,80.58c0-18.44,0-36.88,0-55.32q0-1.45,1.81-1.45c3.67,0,3.66,0,3.66,2.82,0,36.37,0,72.74,0,109.11q0,1.68-2.15,1.68-3.32,0-3.32-2.61c0-18.08,0-36.15,0-54.23Z"/>
    <path class="cls-1" d="M217.35,80.52c0-18.37,0-36.73,0-55.1q0-1.62,2.09-1.62,3.38,0,3.38,2.57c0,36.48,0,72.95,0,109.43q0,1.61-2.05,1.61-3.42,0-3.42-2.67c0-18.07,0-36.15,0-54.22Z"/>
    <path class="cls-1" d="M53.18,80.63c0,18.44,0,36.89,0,55.33q0,1.45-1.84,1.45-3.63,0-3.63-2.74c0-36.41,0-72.83,0-109.24q0-1.62,2.11-1.63,3.37,0,3.37,2.59c0,18.08,0,36.16,0,54.24h0Z"/>
    <path class="cls-1" d="M198.3,80.5c0-18.33,0-36.65,0-54.98q0-1.72,2.22-1.72,3.25,0,3.25,2.49c0,36.47,0,72.94,0,109.42q0,1.7-2.25,1.7-3.22,0-3.22-2.48c0-18.14,0-36.29,0-54.43Z"/>
    <path class="cls-1" d="M105.28,80.63c0-18.37,0-36.74,0-55.11,0-1.72,0-1.74,2.23-1.72,3.83.03,3.24-.36,3.24,2.49.01,36.49,0,72.97,0,109.46q0,1.66-2.17,1.66-3.3,0-3.3-2.54c0-18.08,0-36.16,0-54.23Z"/>
    <path class="cls-1" d="M66.96,80.65c0-18.4,0-36.8,0-55.2,0-1.64,0-1.66,2.18-1.64,3.82.03,3.29-.41,3.29,2.56,0,36.33,0,72.65,0,108.98,0,.37-.03.73,0,1.09.08.7-.31,1-1.23.98-1.04-.03-2.09-.04-3.13,0-.9.04-1.16-.28-1.13-.92.04-.66,0-1.31,0-1.97,0-17.96,0-35.92,0-53.89Z"/>
    <path class="cls-1" d="M86.01,137.41c0-.62,0-1.05,0-1.48,0-36.77,0-73.53,0-110.3,0-.33.04-.66,0-.99-.06-.63.38-.8,1.12-.84q4.35-.27,4.36,3.04c0,36.33,0,72.66,0,108.98q0,1.59-2.09,1.59c-1.08,0-2.15,0-3.38,0Z"/>
    <path class="cls-1" d="M36.76,85.23c0-20.05,0-40.1,0-60.14,0-.68-.11-1.28,1.23-1.31,1.39-.03,1.63.41,1.63,1.35-.02,40.13-.02,80.27-.02,120.4,0,1.22-.44,1.54-1.93,1.26-.36-.07-.7-.47-.88-.77-.14-.24-.03-.57-.03-.87,0-19.98,0-39.95,0-59.93Z"/>
    <path class="cls-1" d="M34.14,85.35c0,20.05,0,40.1,0,60.14,0,.66.15,1.32-1.19,1.36-1.34.05-1.68-.34-1.68-1.33.04-13.77.02-27.53.02-41.3,0-26.33,0-52.66,0-78.99,0-.59-.4-1.38,1.04-1.44,1.57-.06,1.79.06,1.79,1.3,0,20.08,0,40.17,0,60.25h0Z"/>
    <path class="cls-1" d="M75.05,80.64c0-18.29,0-36.58,0-54.87,0-.22.03-.44,0-.66-.11-.86.15-1.35,1.52-1.34,1.38.01,1.35.58,1.35,1.34-.01,21.07,0,42.13,0,63.2,0,15.92,0,31.84,0,47.76,0,1.32-.12,1.36-1.72,1.35-1.56,0-1.13-.85-1.13-1.46-.02-18.44-.01-36.88-.01-55.31Z"/>
    <path class="cls-1" d="M228.2,80.61c0,18.51,0,37.02,0,55.53,0,1.28-.18,1.44-1.76,1.23-.38-.05-.8-.48-.94-.8-.16-.36-.04-.79-.04-1.19,0-36.51,0-73.02,0-109.53,0-.29.04-.59,0-.88-.14-.91.38-1.18,1.55-1.19,1.26-.01,1.2.53,1.2,1.19,0,18.55,0,37.09,0,55.64Z"/>
    <path class="cls-1" d="M162.63,80.64c0-18.51,0-37.02-.02-55.53,0-.86.12-1.39,1.51-1.33,1.06.04,1.38.32,1.37,1.11-.04,4.02-.02,8.03-.02,12.05,0,33,0,66.01,0,99.01,0,.62.4,1.46-1.13,1.47-1.56.01-1.71-.05-1.71-1.37,0-18.47,0-36.95,0-55.42Z"/>
    <path class="cls-1" d="M184.52,80.63c0,18.48,0,36.96,0,55.44,0,.6.33,1.31-1.12,1.37-1.55.07-1.53-.56-1.53-1.41.01-36.63.01-73.27.01-109.9,0-.4.06-.81-.01-1.2-.19-1.09.63-1.28,1.7-1.1.36.06.78.42.9.7.16.36.05.79.05,1.2,0,18.3,0,36.6,0,54.9Z"/>
    <path class="cls-1" d="M113.38,80.65c0-18.47,0-36.95.01-55.42,0-.58-.4-1.38,1.04-1.44,1.57-.06,1.79.06,1.79,1.31,0,36.98,0,73.96.03,110.95,0,1.02-.3,1.48-1.73,1.37-.83-.06-1.21-.25-1.15-.92.05-.62,0-1.24,0-1.86,0-18,0-36,0-53.99Z"/>
    <path class="cls-1" d="M253.74,85.46c0,20.01,0,40.02,0,60.03,0,1.33-.22,1.54-1.69,1.31-.4-.06-.78-.48-1.01-.8-.16-.23-.04-.57-.04-.86,0-39.84,0-79.68,0-119.51,0-.26.03-.51,0-.77-.11-.83.4-1.05,1.42-1.08,1.12-.03,1.34.33,1.33,1.1-.03,7.41-.01,14.82-.01,22.24,0,12.78,0,25.56,0,38.34Z"/>
    <path class="cls-1" d="M248.26,85.35c0,20.05,0,40.09,0,60.14,0,.61.31,1.36-1.12,1.37-1.14,0-1.73-.24-1.6-1.17.03-.18,0-.36,0-.55,0-39.87,0-79.75,0-119.62,0-.26.03-.51,0-.77-.11-.93.67-.93,1.55-.96,1-.04,1.18.32,1.18.98-.02,7.12,0,14.24,0,21.36,0,13.07,0,26.14,0,39.22Z"/>
    <path class="cls-1" d="M138.11,85.22c0-20.01,0-40.02.01-60.03,0-.58-.41-1.33,1.06-1.41,1.51-.08,1.57.5,1.57,1.38-.02,23.22-.02,46.45-.02,69.67,0,16.91,0,33.81,0,50.72,0,1.25-.23,1.46-1.63,1.26-.38-.05-.8-.48-.95-.8-.17-.36-.05-.79-.05-1.19,0-19.86,0-39.73,0-59.59Z"/>
    <path class="cls-1" d="M143.58,85.22c0-20.05,0-40.09,0-60.14,0-1.24.31-1.48,1.78-1.25.32.05.62.41.81.68.12.17.03.43.03.65,0,40.09,0,80.19,0,120.28,0,1.36-.31,1.62-1.78,1.37-.33-.06-.71-.41-.8-.68-.14-.41-.05-.87-.05-1.31,0-19.86,0-39.73,0-59.59Z"/>
    <path class="cls-1" d="M132.65,80.51c0-18.51,0-37.02,0-55.53,0-1.18.23-1.36,1.73-1.15.33.05.67.38.85.64.14.2.04.5.04.76,0,36.95,0,73.89-.01,110.84,0,.53.44,1.29-.96,1.36-1.31.07-1.68-.25-1.68-1.28.04-18.55.03-37.09.03-55.64Z"/>
    <path class="cls-1" d="M239.14,80.65c0,18.48,0,36.96.01,55.44,0,.8.03,1.43-1.43,1.35-.98-.05-1.4-.3-1.3-1.04.03-.25,0-.51,0-.77,0-36.63,0-73.26,0-109.89,0-.29.04-.59,0-.88-.13-.93.54-1.06,1.56-1.08,1.15-.03,1.18.45,1.18,1.1-.01,10.7,0,21.4,0,32.1,0,7.89,0,15.78,0,23.66Z"/>
    <path class="cls-1" d="M96.95,80.63c0,18.48,0,36.96-.01,55.44,0,.54.41,1.3-.97,1.36-1.17.05-1.68-.13-1.67-1.17.03-37.1.03-74.21.02-111.31,0-.71.08-1.14,1.27-1.17,1.39-.03,1.37.55,1.37,1.31-.01,18.52,0,37.03,0,55.55Z"/>
    <path class="cls-1" d="M58.65,80.63c0,18.48,0,36.96,0,55.44,0,.67.26,1.37-1.25,1.38-1.53.01-1.37-.67-1.37-1.41,0-35.9,0-71.8,0-107.7,0-1.24.04-2.48,0-3.72-.03-.85.68-.79,1.42-.81.8-.03,1.3.14,1.22.85-.03.22,0,.44,0,.66,0,18.44,0,36.89,0,55.33Z"/>
  </g>
</svg>