<?xml version="1.0" encoding="utf-8"?>
<svg id="Calque_1" data-name="Calque 1" xmlns="http://www.w3.org/2000/svg" viewBox="0 0 910.758 976.424">
  <defs>
    <style>
      .cls-1 {
        fill: #d9f2f2;
        stroke-width: 0px;
      }
    </style>
  </defs>
  <path class="cls-1" d="M 118.507 147.902 C 91.844 185.238 23.693 280.668 6.389 437.458 C 1.782 479.199 -18.871 639.302 51.339 752.041 C 84.861 805.867 131.715 838.447 178.518 865.073 C 259.099 910.917 343.459 943.146 429.273 960.893 C 511.247 977.841 596.036 981.33 675.798 949.364 C 755.561 917.398 830.163 846.536 869.696 742.296 C 893.798 678.724 903.976 605.845 906.085 533.571 C 908.389 454.727 901.426 375.338 885.556 299.76 C 878.184 264.617 868.242 228.889 849.125 204.466 C 835.047 186.475 817.138 176.106 799.619 166.068 C 661.894 87.186 591.572 20.593 419.617 4.191 C 359.627 -1.53 318.414 -4.892 265.386 18.166 C 188.307 51.682 140.173 117.563 118.507 147.892 L 118.507 147.902 Z" style=""/>
</svg>