<?xml version="1.0" encoding="UTF-8"?>
<svg id="Calque_1" data-name="Calque 1" xmlns="http://www.w3.org/2000/svg" viewBox="0 0 50.75 51.19">
  <defs>
    <style>
      .cls-1 {
        fill: #6dc3bc;
        stroke-width: 0px;
      }
    </style>
  </defs>
  <path class="cls-1" d="M49.29,36.82c-8.61,1.11-16.41-3.34-23.18-8.17S13.05,18.91,8.29,12.45C5.76,9.03,3.83,5.25,2.93,1.08,2.52-.81-.37-.01.04,1.87c1.74,8.05,7.07,14.71,13.01,20.17,3.17,2.91,6.57,5.56,10.03,8.1s7.35,5.17,11.44,7.02c4.64,2.1,9.66,3.31,14.77,2.66,1.89-.24,1.91-3.25,0-3h0Z"/>
  <path class="cls-1" d="M50.26,36.47c-3.99-4.01-7.25-8.67-9.56-13.83-.33-.74-1.41-.92-2.05-.54-.76.45-.87,1.31-.54,2.05,2.41,5.38,5.87,10.26,10.03,14.44,1.36,1.37,3.49-.75,2.12-2.12h0Z"/>
  <path class="cls-1" d="M48.89,36.89c-8.02,2.18-15.52,6.15-21.66,11.78-1.43,1.31.7,3.42,2.12,2.12,5.76-5.28,12.82-8.96,20.34-11.01,1.86-.51,1.07-3.4-.8-2.89h0Z"/>
</svg>