<?xml version="1.0" encoding="UTF-8"?>
<svg id="Calque_1" data-name="Calque 1" xmlns="http://www.w3.org/2000/svg" viewBox="0 0 44.92 51.25">
  <defs>
    <style>
      .cls-1 {
        fill: #6dc3bc;
        stroke-width: 0px;
      }
    </style>
  </defs>
  <path class="cls-1" d="M1.09,39.78c8.53,1.24,15.99-3.51,22.34-8.66s12.18-10.49,16.5-17.19c2.37-3.67,4.14-7.74,4.96-12.05.36-1.89-2.53-2.7-2.89-.8-1.36,7.17-5.43,13.27-10.37,18.5-2.53,2.69-5.28,5.18-8.1,7.56s-5.97,4.9-9.33,6.8c-3.73,2.11-7.99,3.57-12.32,2.94-1.89-.27-2.7,2.62-.8,2.89h0Z"/>
  <path class="cls-1" d="M2.62,38.6c3.84-4.39,6.85-9.38,8.98-14.8.3-.75-.33-1.65-1.05-1.85-.85-.23-1.55.29-1.85,1.05-1.93,4.91-4.74,9.5-8.21,13.48-.53.61-.6,1.52,0,2.12.54.54,1.59.61,2.12,0h0Z"/>
  <path class="cls-1" d="M1.09,39.79c6.76,2.1,12.88,5.9,17.77,11.01,1.34,1.4,3.46-.73,2.12-2.12-5.25-5.48-11.85-9.53-19.1-11.78-1.85-.57-2.64,2.32-.8,2.89h0Z"/>
</svg>