<?xml version="1.0" encoding="UTF-8"?>
<svg id="Calque_1" data-name="Calque 1" xmlns="http://www.w3.org/2000/svg" viewBox="0 0 111.56 116.79">
  <defs>
    <style>
      .cls-1 {
        fill: #ff8300;
      }

      .cls-1, .cls-2 {
        stroke-width: 0px;
      }

      .cls-2 {
        fill: #ffeda3;
      }
    </style>
  </defs>
  <path class="cls-2" d="M55.61,0c33.86,0,55.94,23.23,55.94,58.4s-22.08,58.4-55.62,58.4S.33,93.89,0,58.4C.33,23.23,22.25,0,55.61,0Z"/>
  <path class="cls-1" d="M44.14,36.84c9.74,8.54,20.34,16.06,31.64,22.39v-2.59c-10.73,7.03-21.45,14.07-32.18,21.1-1.61,1.05-.11,3.65,1.51,2.59,10.73-7.03,21.45-14.07,32.18-21.1.91-.6,1.03-2.02,0-2.59-11.08-6.21-21.49-13.55-31.03-21.92-1.45-1.27-3.58.85-2.12,2.12h0Z"/>
</svg>