<?xml version="1.0" encoding="UTF-8"?>
<svg id="Calque_1" xmlns="http://www.w3.org/2000/svg" viewBox="0 0 435.13 435.13">
  <defs>
    <style>
      .cls-1 {
        fill: #ff8300;
      }
    </style>
  </defs>
  <path class="cls-1" d="M333.89,185.68c-2.74-12.9-7.31-25.47-13.87-36.93-12.52-21.84-32.21-38.52-55.71-47.47-14.32-5.45-29.67-7.9-44.95-8.12-22.89-.24-46.01,4.58-65.87,16.28-18.55,10.92-33.29,27.45-42.55,46.83-10.5,21.99-14.23,46.8-13.09,71.02,1.12,23.9,7.42,47.92,20.89,67.92,12.45,18.48,30.35,32.4,51.14,40.32,5.41,2.06,10.98,3.71,16.64,4.97,1.43.32,2.87.61,4.31.88.71.13,1.5.35,2.29.44.69.25,1.46.22,2.09-.27.13-.1.25-.19.38-.29,2.09-1.38,4.03-3.1,6.01-4.63,1.57-1.21,3.14-2.42,4.71-3.63,8.49-6.53,16.97-13.06,25.46-19.59,13.94-10.72,27.87-21.44,41.81-32.16,13-10.01,26.01-20.01,39.01-30.02,7.24-5.57,14.48-11.14,21.73-16.72.34-.26.69-.53,1.03-.79-.02,0-.04,0-.05,0h0s0-.01,0-.01c.76-.43,1.26-1.24,1.39-2.3,1.85-15,.33-31.01-2.8-45.75ZM198.32,332.44c-.43.33-.9.66-1.38.99,2.18-23.34,10.57-46,26.37-63.63,15.64-17.45,36.91-28.51,59.6-33.71,14.48-3.32,29.56-4.5,44.35-2.88-2.88,2.22-5.76,4.43-8.64,6.65-11.16,8.59-22.33,17.18-33.49,25.78-13.55,10.43-27.1,20.85-40.64,31.28-11.62,8.94-23.23,17.88-34.85,26.82-2.24,1.72-4.48,3.45-6.72,5.17-1.53,1.18-3.07,2.36-4.6,3.54ZM135.32,307.1c-16.39-16.52-26.11-38.3-30.1-61.04-4.3-24.52-2.81-50.85,5.22-74.46,6.92-20.35,19.46-38.85,36.86-51.66,18.23-13.42,40.42-20.15,62.9-21.24,3.04-.15,6.09-.19,9.14-.16,25.14.36,50.41,7.33,70.37,23.04,19.33,15.22,31.98,37.03,37.89,60.73,1.84,7.39,3.07,14.92,3.72,22.5.67,7.78.99,15.79.3,23.61-27.22-3.77-56.21.98-80.66,13.52-21.21,10.88-38.58,28.47-48.65,50.12-6.45,13.86-9.87,28.8-10.95,43.99-21.05-4.11-40.84-13.61-56.06-28.95Z"/>
</svg>