<?xml version="1.0" encoding="UTF-8"?>
<svg id="Calque_1" xmlns="http://www.w3.org/2000/svg" viewBox="0 0 435.13 435.13">
  <defs>
    <style>
      .cls-1 {
        fill: #fff;
      }

      .cls-2 {
        fill: #ff8300;
      }
    </style>
  </defs>
  <rect class="cls-2" y="0" width="435.13" height="435.13"/>
  <g>
    <path class="cls-1" d="M106.56,183.13c.32-.82.56-1.65.69-2.54.3-2.03.61-4.06.95-6.09.16-.99.4-1.96.59-2.95.05-.26.07-.54.1-.8.11-1.02.17-2.05.34-3.06.28-1.68.64-3.34.95-5.02.21-1.14.38-2.29.57-3.44.33-1.92.72-3.82,1.31-5.69.38-1.21.55-2.48.86-3.72.44-1.73.79-3.49,1.41-5.16,1.01-2.73,1.95-5.5,3.3-8.1.71-1.36,1.23-2.82,1.89-4.22.54-1.15,1.13-2.28,1.74-3.39.43-.78.9-1.54,1.4-2.27.77-1.15,1.94-1.65,3.25-1.97.98-.23,1.81.12,2.66.49,1.09.47,2.14,1.02,3,1.88.43.43.82.85,1.04,1.43.31.81.69,1.59.96,2.41.47,1.47.71,2.97.7,4.54-.01,2.02.22,4.05.26,6.07.03,1.4-.09,2.81-.15,4.21-.06,1.59-.23,3.17-.42,4.75-.19,1.56-.25,3.13-.42,4.68-.08.75-.31,1.48-.47,2.22-.06.26-.1.52-.16.86.44-.15.47-.51.55-.78.55-1.72.99-3.49,1.64-5.18.97-2.52,1.5-5.21,2.88-7.56.9-1.53,1.4-3.22,2.17-4.8.42-.88.89-1.73,1.38-2.57,1.13-1.93,2.32-3.84,3.44-5.78.79-1.37,1.88-2.51,2.87-3.72,1.08-1.31,2.08-2.69,3.13-4.03.35-.44.73-.85,1.09-1.28.12-.14.25-.29.37-.43,1.07-1.26,2.19-2.41,3.72-3.19,1.06-.54,1.96-1.44,2.89-2.22.41-.35.83-.56,1.37-.62,1.28-.17,2.55-.46,3.86-.38,1.42.09,2.68.62,3.67,1.55.95.89,1.33,2.13,1.14,3.49-.26,1.87-.5,3.75-.76,5.62-.16,1.1-.38,2.17-.8,3.22-.29.72-.44,1.5-.65,2.26-.37,1.33-.73,2.66-1.09,3.99-.16.6-.36,1.19-.49,1.8-.33,1.49-.89,2.87-1.55,4.25-.78,1.65-1.57,3.32-2.07,5.1-.5,1.81-1.29,3.49-2.1,5.17-.36.75-.7,1.55-.82,2.36-.2,1.34-.83,2.51-1.29,3.74-.38,1.01-.85,1.98-1.26,2.98-.46,1.12-.85,2.28-1.35,3.38-.39.86-.9,1.66-1.35,2.49-.12.21-.19.45-.29.68.04.03.09.07.13.1.13-.06.29-.09.4-.18,1.18-.95,2.32-1.93,3.33-3.07.57-.65,1.22-1.23,1.82-1.85.62-.64,1.27-1.26,1.82-1.95,1.14-1.43,2.51-2.6,3.95-3.7,1.31-1.01,2.57-2.06,3.87-3.08.85-.67,1.75-1.27,2.59-1.95,1.49-1.22,3.13-2.22,4.78-3.2.15-.09.36-.19.51-.15.5.12.9-.1,1.31-.32,1-.54,1.97-1.14,2.99-1.63.9-.43,1.85-.76,2.79-1.08.94-.32,1.93-.54,2.86-.89,1.57-.58,3.19-.84,4.84-.89,1.38-.04,2.77-.13,4.13.01,1.44.15,2.88.48,4.29.86,2.54.69,4.74,2.08,6.87,3.57,1.4.97,2.81,1.9,4.43,2.5.86.32,1.7.7,2.5,1.16.45.26.82.7,1.18,1.1.65.73,1.26,1.49,1.88,2.24.16.19.34.36.47.56,1.22,1.92,2.55,3.77,3.44,5.88.3.71.44,1.5.56,2.27.23,1.44.42,2.89.58,4.34.23,2-.34,3.86-1.48,5.44-1.23,1.71-3.04,2.68-5.18,2.84-1.07.08-2.16.01-3.24-.04-1.02-.05-1.94-.4-2.81-.95-.87-.54-1.78-1.02-2.68-1.52-.12-.07-.24-.14-.37-.17-2.06-.46-3.81-1.63-5.7-2.47-1.43-.63-2.85-1.29-4.26-1.97-.26-.13-.57-.19-.86-.2-1.51-.06-3.03-.16-4.53-.11-.79.03-1.6.28-2.35.55-.94.33-1.84.78-2.75,1.18-.6.26-1.18.54-1.79.77-.99.39-1.85.99-2.74,1.57-.95.62-1.51,1.59-2.4,2.25-.74.54-1.4,1.19-2.11,1.77-.63.51-.98,1.21-1.33,1.92-.48.97-.96,1.94-1.42,2.91-.15.31-.24.66-.33,1-.34,1.28-.7,2.55-.99,3.84-.38,1.63-.72,3.27-1.05,4.91-.21,1.06-.35,2.13-.56,3.2-.31,1.59-.18,3.18,0,4.77.04.36.21.73.41,1.04.25.39.38.77.27,1.22-.18.75.02,1.42.37,2.1.51.98.9,2.02,1.38,3.02.6,1.24,1.21,2.48,1.87,3.69.21.38.59.69.92.99.78.71,1.56,1.42,2.37,2.09,1.1.92,2.22,1.81,3.35,2.69.79.61,1.57,1.23,2.42,1.76,1.24.77,2.53,1.45,3.8,2.17.63.36,1.28.7,1.91,1.05,2.25,1.24,4.46,2.54,6.51,4.11.68.52,1.42.86,2.25,1.07.78.2,1.57.46,2.27.84,1.56.87,3.07,1.81,4.58,2.76.57.36,1.05.85,1.6,1.24,1.33.93,2.67,1.85,4,2.76.47.32.85.71,1.23,1.15.54.62,1.24,1.12,1.87,1.66.2.17.47.29.64.49.66.82,1.4,1.58,1.8,2.59.11.27.32.5.48.75.52.85,1.08,1.68,1.53,2.57.43.84.74,1.74,1.08,2.62.22.57.49,1.15.59,1.75.1.6.1,1.24,0,1.84-.13.8-.39,1.57-.6,2.36-.16.61-.52,1.06-1.05,1.39-.99.62-1.97,1.24-2.97,1.84-.2.12-.46.21-.68.2-1.51-.04-3.03-.08-4.53-.19-1.19-.09-2.34-.39-3.39-1.02-.46-.27-1.01-.38-1.51-.59-.65-.27-1.32-.49-1.92-.85-.98-.59-1.95-1.12-3.09-1.38-1.96-.45-3.76-1.32-5.6-2.12-1.66-.72-3.41-1.22-5.25-1.26-.67-.02-1.35-.04-2.02.02-1.67.15-3.29.58-4.88,1.1-.15.05-.3.14-.46.16-2.15.3-3.96,1.41-5.8,2.43-1.07.59-2.12,1.21-3.13,1.88-1.04.69-2.1,1.36-3.01,2.2-1.17,1.07-2.22,2.26-3.03,3.67-1.33,2.3-2.5,4.67-3.58,7.08-.53,1.18-.8,2.46-1.21,3.7-.64,1.95-1.31,3.89-1.95,5.84-.14.44-.27.88-.36,1.33-.35,1.75-.68,3.5-1.02,5.25-.41,2.13-.82,4.25-1.23,6.38-.06.32-.11.65-.22.95-.74,1.88-1.07,3.85-1.44,5.82-.3,1.59-.66,3.18-1.1,4.74-.43,1.51-.53,3.04-.54,4.58,0,.71-.06,1.4-.24,2.08-.53,1.96-.88,3.96-1.02,5.99-.04.67,0,1.35,0,2.03-.02,1.1-.56,1.87-1.5,2.17-1.13.35-1.98-.3-2.01-1.48-.06-2.07.29-4.09.7-6.11.38-1.86.72-3.72.66-5.63,0-.24,0-.49.05-.73.34-1.78.7-3.56,1.03-5.34.17-.93.29-1.87.43-2.8.25-1.69.71-3.33,1.19-4.96.78-2.68,1.17-5.44,1.57-8.2.21-1.45.34-2.9.57-4.34.13-.8.37-1.58.61-2.36.8-2.59,1.54-5.19,2.17-7.82.51-2.17,1.48-4.17,2.53-6.12.27-.5.5-1.02.75-1.53,1.03-2.09,2.31-4.04,3.64-5.95.46-.66,1.07-1.21,1.61-1.82.41-.46.83-.92,1.23-1.4.56-.68,1.21-1.2,2.1-1.44.69-.19,1.33-.6,2-.89,1.54-.66,3.06-1.36,4.63-1.95.98-.37,2.02-.57,3.04-.85,1.09-.3,2.18-.64,3.28-.9,1.65-.4,3.32-.78,5.03-.71.89.04,1.78.14,2.66.22.13.01.27.02.4.06,1.47.45,2.94.91,4.41,1.37.34.11.66.25.99.36,1.1.36,2.2.71,3.24,1.27.73.39,1.57.56,2.35.87.8.32,1.58.68,2.37,1.03.2.09.37.24.56.32,1.42.59,2.85,1.16,4.28,1.74.15.06.32.09.48.09,1.32.06,2.64.11,3.96.17.43.02.8-.1,1.13-.37.15-.12.31-.22.48-.31.9-.5,1.11-.98.85-1.98-.49-1.84-1.26-3.56-2.37-5.12-.58-.82-1.1-1.68-1.72-2.46-.54-.67-1.17-1.27-1.79-1.88-1.12-1.09-2.22-2.21-3.41-3.22-.86-.74-1.82-1.36-2.77-1.98-.79-.51-1.58-1.04-2.52-1.28-.35-.09-.67-.34-.99-.55-1.47-.97-3.01-1.79-4.66-2.45-1.07-.43-2.04-1.11-3.08-1.64-2.75-1.41-5.25-3.23-7.85-4.89-.75-.48-1.47-1.01-2.21-1.49-.34-.22-.69-.46-1.07-.58-1.04-.34-1.99-.84-2.92-1.39-.32-.19-.59-.47-.87-.72-.91-.8-1.88-1.55-2.7-2.44-.7-.76-1.56-1.4-2.01-2.39-.18-.4-.5-.8-.86-1.06-1.17-.85-1.93-2.03-2.75-3.17-.22-.31-.4-.64-.63-.95-1.39-1.88-2.19-3.96-2.25-6.32-.02-.63-.21-1.27-.4-1.89-.28-.92-.44-1.84-.37-2.8.13-1.83.27-3.65.72-5.45.34-1.38.42-2.83.65-4.24.18-1.09.43-2.16.61-3.25.07-.39.08-.8.06-1.2-.05-.86.14-1.61.59-2.38.8-1.37,1.75-2.65,2.34-4.15.56-1.43,1.33-2.76,2.65-3.71.78-.56,1.42-1.32,2.07-2.04.89-.99,2.05-1.58,3.12-2.32,1.57-1.09,3.31-1.84,5.05-2.59.99-.42,1.98-.86,3-1.21.55-.19,1.16-.22,1.75-.29,3.64-.45,7.17.04,10.62,1.22.36.12.72.25,1.09.31,2.24.39,4.15,1.52,6.04,2.68.96.58,1.93,1.04,3.06,1.21.74.11,1.48.38,2.14.72.87.45,1.6.36,2.34-.21.47-.36.97-.69,1.39-1.11.28-.27.43-.67.64-1.01,1.36-2.17,1.09-4.38.12-6.58-.34-.76-.83-1.45-1.26-2.17-.53-.91-.98-1.89-1.62-2.72-.91-1.19-1.72-2.52-3.12-3.25-.7-.36-1.4-.72-2.12-1.02-1.79-.75-3.38-1.8-4.96-2.91-2.09-1.46-4.25-2.69-6.91-3-2.41-.28-4.8-.22-7.2-.06-.71.05-1.44.29-2.11.56-1.58.64-3.12,1.36-4.68,2.05-2.17.96-4.11,2.28-6.02,3.67-2.32,1.68-4.73,3.25-7.08,4.9-.71.49-1.35,1.08-2.02,1.63-.08.07-.15.16-.24.22-.92.71-1.84,1.4-2.76,2.11-.23.18-.47.38-.64.61-.68.93-1.52,1.67-2.45,2.35-.67.49-1.25,1.11-1.85,1.69-1.25,1.23-2.52,2.45-3.73,3.73-.83.88-1.51,1.91-2.36,2.78-.87.88-1.4,1.99-2.17,2.92-1.03,1.26-2.21,1.36-3.35.55-.24-.17-.38-.36-.35-.67.07-.67.09-1.35.21-2.01.2-1.09.45-2.17.7-3.25.45-1.9,1.28-3.67,2.03-5.46.57-1.37,1.02-2.8,1.64-4.14.55-1.19.9-2.43,1.34-3.65.62-1.69,1.41-3.33,2.05-5.01.77-2.02,1.47-4.07,2.21-6.1.42-1.14.84-2.28,1.3-3.41.53-1.3,1.08-2.59,1.83-3.79.22-.35.31-.8.42-1.22.64-2.41,1.25-4.82,1.89-7.22.23-.86.56-1.7.76-2.57.22-.94.35-1.91.52-2.87.21-1.17.44-2.34.62-3.51.1-.66.13-1.34.13-2.01,0-.52-.3-.88-.78-1.13-1.04-.56-2.07-.39-3.04.09-1.07.53-2.06,1.17-2.92,2.03-.51.51-1.09.98-1.68,1.4-.84.61-1.51,1.38-2.2,2.14-.2.22-.4.44-.57.69-.67.95-1.36,1.87-2.2,2.7-1.42,1.39-2.35,3.17-3.53,4.75-.37.5-.77.98-1.1,1.51-.59.94-1.12,1.91-1.69,2.86-.45.74-.94,1.46-1.36,2.21-.23.42-.37.89-.55,1.34-.07.18-.08.38-.17.54-.62,1.14-1.23,2.28-1.89,3.39-.61,1.03-1.12,2.08-1.47,3.23-.39,1.32-.93,2.59-1.38,3.89-.38,1.1-.73,2.2-1.09,3.31-.43,1.34-.82,2.69-1.29,4.01-.69,1.94-1.35,3.88-1.77,5.9-.22,1.06-.52,2.1-1.1,3.04-.93,1.5-1.3,3.19-1.75,4.86-.56,2.09-1.17,4.17-1.75,6.25-.39,1.38-.72,2.78-1.2,4.13-.29.83-.78,1.59-1.22,2.37-.23.41-.63.66-1.11.76-.93.19-1.73-.38-1.7-1.33.03-.89.26-1.76.31-2.65.09-1.58.5-3.09.85-4.62.22-.97.2-1.99.37-2.97.22-1.36.47-2.71.78-4.06.19-.82.38-1.61.36-2.47-.02-.77.15-1.56.3-2.33.36-1.89.78-3.76,1.13-5.65.31-1.7.57-3.41.85-5.12,0-.05.02-.11.03-.16.07-2.98.82-5.89.83-8.87,0-1.92-.1-3.84-.15-5.76-.02-.65-.05-1.3,0-1.95.15-1.77-.03-3.52-.23-5.26-.14-1.23-.64-2.34-1.37-3.35-.34-.48-.58-.57-1.1-.35-.72.31-1.45.61-2.13,1-.41.24-.75.61-1.08.97-.47.52-.91,1.07-1.34,1.63-.21.27-.42.57-.57.88-.64,1.34-1.31,2.67-1.85,4.05-.34.87-.45,1.83-.69,2.75-.16.6-.3,1.21-.55,1.77-.52,1.14-.97,2.29-.92,3.58,0,.26-.09.53-.17.79-.48,1.39-.85,2.78-.88,4.27-.02.66-.21,1.34-.46,1.95-.5,1.22-1.11,2.4-1.27,3.75-.05.42-.21.84-.39,1.24-.7,1.6-1.05,3.3-1.4,4.99-.23,1.11-.32,2.25-.6,3.34-.47,1.84-.79,3.7-1.09,5.57-.14.85-.43,1.68-.59,2.53-.15.82-.22,1.66-.34,2.49-.04.29-.1.59-.18.87-.84,2.97-1.45,5.99-1.86,9.05-.12.91-.34,1.81-.56,2.7-.43,1.74-.52,3.53-.7,5.3-.07.7-.26,1.31-.8,1.8-.38.34-.82.45-1.27.42-.5-.02-.86-.34-.98-.84-.14-.58-.24-1.16-.35-1.75-.1-.53-.2-1.06-.3-1.59-.25-1.3-.5-2.6-.74-3.9-.14-.77-.3-1.54-.4-2.32-.28-2.09-.6-4.17-.79-6.27-.12-1.37-.08-2.75-.43-4.11-.11-.43-.03-.92-.05-1.37-.06-.97-.09-1.94-.21-2.9-.16-1.29-.42-2.56-.57-3.85-.23-1.96-.98-3.7-2.09-5.31-.9-1.32-1.78-2.65-2.69-3.96-.19-.28-.46-.52-.74-.72-.53-.38-.76-.33-1.1.24-.19.32-.33.68-.46,1.03-.27.7-.52,1.41-.79,2.12-.15.4-.35.79-.46,1.21-.43,1.77-.61,3.57-.7,5.38,0,.14,0,.28-.02.4-.43,1.8-.36,3.65-.54,5.47-.12,1.29-.16,2.59-.1,3.89.04,1.06.07,2.1-.24,3.13-.21.71-.26,1.44-.15,2.17.24,1.57-.12,3.13-.16,4.69-.06,2.27-.06,4.54-.1,6.81,0,.48-.11.97-.1,1.45.02,1.38.08,2.75.12,4.13.05,1.59.1,3.19.14,4.78,0,.03,0,.05,0,.08-.69,2.97-.12,5.98-.34,8.97-.07.92-.2,1.83-.23,2.75-.08,2.81-.34,5.61-.26,8.43.03.91-.19,1.82-.27,2.74-.06.75-.07,1.51-.1,2.27-.01.32.05.66-.03.97-.4,1.55-.28,3.12-.22,4.68.06,1.58-.16,3.13-.34,4.69-.15,1.31-.23,2.64-.24,3.96-.02,1.22-.09,2.43-.38,3.62-.38,1.58-.53,3.2-.66,4.81-.04.46-.01.92.03,1.38.13,1.42,0,2.79-.46,4.16-.48,1.46-.86,2.96-.94,4.52-.04.81-.21,1.61-.38,2.4-.53,2.49-1.08,4.97-1.65,7.45-.39,1.69-.7,3.41-1.28,5.03-.67,1.88-.89,3.84-1.37,5.75-.4,1.6-.84,3.19-1.19,4.8-.44,1.98-.78,3.98-1.22,5.96-.22,1-.58,1.97-.89,2.94-.48,1.49-.95,2.99-1.45,4.47-.17.51-.42.99-.61,1.49-.32.8-.63,1.61-.93,2.42-.14.38-.24.77-.38,1.16-.42,1.15-1.4,1.62-2.46,1.91-.66.18-1.29-.39-1.31-1.11,0-.29.06-.6.16-.87.75-1.97,1.53-3.93,2.28-5.9.16-.43.27-.88.4-1.32.52-1.68,1.06-3.35,1.54-5.03.2-.7.25-1.43.38-2.15.1-.56.19-1.12.31-1.67.29-1.35.6-2.69.9-4.04.4-1.74.79-3.48,1.2-5.22.68-2.9,1.4-5.79,2.05-8.69.57-2.53,1.11-5.07,1.62-7.62.49-2.46.96-4.93,1.37-7.41.23-1.41.31-2.84.48-4.26.19-1.53.42-3.05.62-4.58.08-.59.09-1.18.15-1.78.06-.7.14-1.4.21-2.1.05-.51.1-1.02.14-1.53.04-.51.04-1.03.12-1.54.35-2.09.31-4.2.33-6.31,0-.3-.04-.61.04-.89.59-1.98.41-4.03.58-6.04.19-2.24.04-4.49.39-6.72.09-.58-.02-1.19,0-1.78.04-1.84.11-3.68.14-5.52.02-1.03-.04-2.06-.04-3.08,0-.73.02-1.46.06-2.19.13-2.21.29-4.42.42-6.63.03-.45-.08-.91-.1-1.37-.08-1.81-.2-3.62-.22-5.43-.03-2.7-.03-5.41.05-8.11.08-2.43,0-4.87.31-7.29.12-.93.04-1.89.06-2.84.03-1.3.08-2.59.12-3.89.03-1.22.06-2.43.09-3.65,0-.14-.02-.28,0-.41.59-2.62.47-5.33,1.11-7.94.4-1.65.72-3.33,1.44-4.89.2-.44.38-.9.52-1.36.51-1.75,1.75-2.82,3.31-3.58.29-.14.69-.14,1.02-.07,1.99.42,3.53,1.56,4.82,3.09.4.48.8.95,1.21,1.42.82.93,1.36,2.03,1.78,3.17.51,1.36.99,2.75,1.31,4.16.3,1.31.37,2.67.54,4.01.03.21.02.44.1.64.47,1.22.45,2.5.44,3.76,0,1.31.18,2.59.47,3.86.44,1.89.61,3.78.39,5.71-.02.18.06.37.1.56.1,0,.19,0,.29,0Z"/>
    <path class="cls-1" d="M333.26,186.47c-.29-.83-.5-1.67-.6-2.56-.22-2.04-.46-4.08-.73-6.12-.13-.99-.32-1.98-.48-2.97-.04-.27-.05-.54-.07-.81-.07-1.02-.09-2.05-.22-3.07-.22-1.69-.52-3.37-.76-5.05-.17-1.15-.29-2.31-.45-3.46-.26-1.93-.58-3.84-1.1-5.73-.34-1.22-.46-2.5-.72-3.74-.37-1.74-.66-3.52-1.21-5.21-.9-2.77-1.74-5.57-3-8.22-.66-1.39-1.12-2.87-1.73-4.28-.5-1.17-1.05-2.32-1.61-3.45-.4-.79-.84-1.57-1.31-2.32-.73-1.18-1.88-1.73-3.17-2.09-.97-.27-1.82.05-2.67.39-1.11.43-2.18.94-3.07,1.76-.44.41-.85.82-1.09,1.39-.34.79-.75,1.56-1.04,2.37-.53,1.45-.82,2.94-.87,4.51-.06,2.02-.37,4.04-.49,6.06-.08,1.4-.01,2.81,0,4.21,0,1.59.11,3.18.24,4.77.13,1.56.13,3.13.25,4.7.06.75.26,1.49.39,2.24.05.26.08.53.13.87-.44-.17-.45-.53-.53-.8-.49-1.74-.86-3.53-1.45-5.23-.87-2.55-1.31-5.26-2.6-7.66-.84-1.56-1.28-3.27-1.99-4.88-.39-.89-.82-1.76-1.28-2.62-1.06-1.98-2.17-3.92-3.22-5.91-.74-1.4-1.78-2.57-2.73-3.82-1.03-1.35-1.98-2.77-2.97-4.15-.33-.45-.7-.88-1.05-1.32-.12-.15-.24-.3-.35-.44-1.02-1.3-2.1-2.49-3.6-3.32-1.04-.58-1.9-1.51-2.8-2.32-.4-.36-.81-.59-1.34-.67-1.28-.21-2.53-.56-3.85-.52-1.42.03-2.71.52-3.73,1.41-.98.86-1.41,2.08-1.27,3.44.19,1.88.36,3.77.55,5.65.11,1.1.3,2.19.68,3.24.26.73.38,1.52.56,2.28.32,1.34.63,2.68.94,4.03.14.61.32,1.21.43,1.82.27,1.5.79,2.9,1.39,4.3.72,1.68,1.45,3.38,1.87,5.17.43,1.83,1.16,3.54,1.91,5.25.33.76.64,1.57.74,2.39.15,1.35.74,2.54,1.15,3.79.34,1.02.78,2.01,1.15,3.03.42,1.14.76,2.31,1.22,3.43.36.87.84,1.69,1.26,2.54.11.22.18.46.26.69-.05.03-.09.07-.14.1-.13-.06-.29-.1-.39-.19-1.14-.99-2.25-2.01-3.21-3.19-.55-.67-1.17-1.28-1.75-1.92-.59-.66-1.22-1.3-1.75-2.02-1.08-1.47-2.41-2.69-3.81-3.85-1.27-1.05-2.49-2.16-3.75-3.22-.83-.7-1.71-1.33-2.52-2.05-1.45-1.28-3.05-2.33-4.66-3.38-.15-.1-.35-.2-.5-.17-.51.1-.9-.14-1.29-.37-.98-.58-1.93-1.22-2.93-1.74-.88-.46-1.82-.82-2.75-1.18-.93-.36-1.91-.61-2.83-.99-1.54-.64-3.15-.96-4.8-1.07-1.37-.09-2.76-.23-4.13-.14-1.45.1-2.9.37-4.32.7-2.56.59-4.81,1.91-7,3.31-1.44.92-2.88,1.8-4.52,2.33-.87.29-1.73.64-2.54,1.07-.46.24-.85.66-1.22,1.05-.67.7-1.31,1.44-1.96,2.16-.16.18-.35.35-.49.54-1.29,1.87-2.69,3.67-3.65,5.74-.32.7-.49,1.48-.65,2.24-.28,1.43-.52,2.87-.75,4.32-.31,1.99.2,3.87,1.27,5.49,1.16,1.75,2.93,2.8,5.07,3.03,1.07.12,2.16.09,3.24.08,1.02,0,1.96-.33,2.85-.84.89-.51,1.82-.95,2.73-1.42.12-.06.24-.13.37-.16,2.08-.39,3.87-1.49,5.79-2.26,1.45-.58,2.9-1.18,4.33-1.81.26-.12.58-.17.87-.17,1.51,0,3.03-.05,4.53.06.79.06,1.58.34,2.33.63.93.36,1.81.85,2.71,1.28.59.28,1.16.58,1.76.84.97.43,1.81,1.06,2.68,1.67.92.65,1.45,1.65,2.32,2.34.72.57,1.35,1.24,2.04,1.85.61.54.94,1.25,1.26,1.96.44.99.89,1.97,1.31,2.96.14.32.22.67.3,1.01.29,1.29.6,2.58.85,3.88.32,1.64.6,3.29.87,4.95.17,1.07.27,2.15.44,3.22.25,1.6.06,3.18-.17,4.76-.05.36-.24.72-.45,1.02-.26.38-.41.75-.32,1.21.15.76-.07,1.42-.45,2.08-.54.96-.97,1.99-1.49,2.97-.64,1.22-1.3,2.44-2.01,3.62-.22.38-.62.66-.96.96-.8.68-1.61,1.36-2.44,2-1.13.87-2.28,1.73-3.44,2.56-.81.58-1.62,1.18-2.48,1.67-1.27.72-2.58,1.36-3.88,2.02-.65.33-1.3.65-1.95.98-2.3,1.15-4.56,2.38-6.66,3.86-.7.49-1.45.81-2.29.99-.79.17-1.59.4-2.3.76-1.59.81-3.14,1.7-4.68,2.59-.58.34-1.08.81-1.65,1.17-1.36.88-2.73,1.74-4.1,2.61-.48.3-.88.68-1.27,1.1-.56.6-1.28,1.07-1.93,1.59-.21.17-.48.27-.65.47-.69.79-1.46,1.53-1.9,2.52-.12.27-.34.48-.5.73-.55.83-1.14,1.64-1.62,2.51-.46.82-.8,1.71-1.18,2.58-.24.56-.53,1.13-.66,1.72-.13.6-.15,1.24-.08,1.84.1.8.33,1.59.51,2.38.14.61.48,1.08,1,1.43.96.65,1.92,1.31,2.9,1.95.19.13.45.22.68.23,1.51.01,3.03.03,4.54-.02,1.2-.04,2.35-.31,3.43-.89.47-.25,1.02-.34,1.53-.53.66-.24,1.34-.44,1.95-.78,1-.55,1.99-1.05,3.14-1.27,1.97-.38,3.81-1.18,5.68-1.91,1.69-.65,3.46-1.09,5.3-1.07.67,0,1.35.01,2.02.1,1.67.21,3.26.71,4.84,1.28.15.06.29.15.45.18,2.14.37,3.9,1.56,5.71,2.64,1.04.63,2.07,1.29,3.06,2,1.01.72,2.05,1.44,2.93,2.31,1.13,1.12,2.14,2.34,2.89,3.78,1.24,2.35,2.33,4.76,3.32,7.21.48,1.2.71,2.49,1.07,3.74.57,1.97,1.16,3.94,1.74,5.91.13.44.23.89.31,1.35.28,1.76.55,3.53.82,5.29.33,2.14.66,4.28.99,6.42.05.32.08.65.19.95.67,1.9.93,3.89,1.22,5.87.24,1.6.54,3.2.93,4.78.37,1.52.42,3.05.37,4.59-.02.71,0,1.4.16,2.09.45,1.98.73,3.99.79,6.02.02.67-.06,1.35-.07,2.03-.03,1.1.49,1.89,1.42,2.22,1.11.39,1.99-.23,2.06-1.4.14-2.07-.14-4.1-.47-6.13-.31-1.87-.58-3.74-.45-5.65.02-.24.01-.49-.02-.73-.27-1.79-.57-3.58-.83-5.37-.14-.93-.22-1.88-.33-2.81-.19-1.7-.59-3.35-1-5.01-.68-2.71-.97-5.48-1.27-8.25-.15-1.45-.23-2.91-.41-4.36-.1-.8-.31-1.59-.52-2.38-.7-2.61-1.35-5.24-1.87-7.9-.43-2.18-1.32-4.22-2.3-6.21-.25-.51-.46-1.04-.69-1.56-.95-2.13-2.15-4.12-3.41-6.08-.44-.68-1.03-1.25-1.54-1.88-.4-.48-.8-.95-1.17-1.45-.54-.7-1.16-1.24-2.04-1.52-.69-.21-1.3-.65-1.96-.96-1.51-.72-3.01-1.47-4.55-2.12-.96-.41-2-.65-3-.96-1.08-.34-2.15-.72-3.24-1.02-1.64-.46-3.29-.91-5-.9-.89,0-1.78.07-2.67.12-.13,0-.27,0-.4.04-1.49.4-2.97.8-4.46,1.21-.34.09-.67.23-1,.32-1.11.32-2.23.63-3.28,1.15-.74.36-1.59.51-2.38.79-.81.29-1.61.62-2.4.95-.2.08-.37.22-.57.3-1.44.53-2.89,1.06-4.34,1.57-.15.05-.32.07-.48.07-1.32.01-2.64,0-3.97.02-.43,0-.79-.13-1.11-.41-.14-.12-.3-.23-.46-.33-.88-.53-1.07-1.02-.77-2.01.56-1.82,1.4-3.51,2.55-5.03.61-.8,1.16-1.64,1.81-2.39.56-.65,1.21-1.23,1.85-1.81,1.16-1.05,2.3-2.12,3.53-3.09.89-.7,1.87-1.29,2.84-1.87.81-.48,1.61-.98,2.57-1.18.36-.08.68-.32,1.01-.51,1.51-.91,3.08-1.68,4.75-2.27,1.09-.39,2.08-1.03,3.13-1.52,2.81-1.31,5.37-3.03,8.02-4.6.77-.45,1.51-.95,2.27-1.41.35-.21.7-.43,1.09-.54,1.05-.3,2.02-.76,2.97-1.28.33-.18.6-.45.89-.69.94-.77,1.93-1.48,2.79-2.34.73-.73,1.61-1.34,2.09-2.32.2-.4.53-.78.89-1.03,1.2-.81,2-1.96,2.86-3.07.23-.3.43-.63.66-.92,1.46-1.83,2.33-3.87,2.49-6.23.04-.63.25-1.27.47-1.87.32-.91.51-1.83.48-2.78-.06-1.83-.13-3.66-.51-5.47-.29-1.39-.31-2.84-.49-4.26-.14-1.09-.35-2.18-.49-3.27-.05-.39-.05-.8-.02-1.2.08-.86-.08-1.62-.5-2.4-.75-1.4-1.65-2.71-2.18-4.24-.51-1.45-1.23-2.8-2.51-3.81-.75-.59-1.37-1.37-2-2.12-.85-1.02-1.99-1.66-3.03-2.43-1.53-1.14-3.24-1.97-4.95-2.77-.98-.46-1.95-.93-2.95-1.32-.55-.21-1.15-.26-1.74-.36-3.62-.59-7.17-.23-10.66.83-.36.11-.73.22-1.1.27-2.25.3-4.2,1.37-6.14,2.45-.98.55-1.97.97-3.11,1.1-.74.08-1.49.33-2.17.64-.88.41-1.62.3-2.33-.3-.46-.38-.95-.73-1.35-1.16-.27-.28-.41-.69-.61-1.04-1.27-2.22-.93-4.42.12-6.58.36-.75.89-1.42,1.34-2.12.57-.89,1.05-1.85,1.72-2.66.96-1.16,1.81-2.45,3.24-3.13.71-.34,1.42-.67,2.16-.94,1.81-.68,3.44-1.68,5.06-2.72,2.14-1.38,4.35-2.53,7.01-2.74,2.42-.19,4.81-.04,7.19.21.71.07,1.43.34,2.09.64,1.55.7,3.07,1.47,4.6,2.22,2.13,1.04,4.02,2.43,5.88,3.89,2.26,1.77,4.6,3.42,6.89,5.16.69.52,1.31,1.13,1.95,1.7.08.07.15.16.23.23.89.74,1.79,1.47,2.68,2.22.22.19.45.39.61.64.65.95,1.46,1.72,2.36,2.44.65.52,1.21,1.15,1.78,1.76,1.21,1.28,2.43,2.54,3.58,3.87.8.91,1.44,1.97,2.25,2.86.83.91,1.32,2.04,2.06,3,.99,1.29,2.16,1.44,3.33.67.25-.16.4-.34.37-.66-.05-.67-.04-1.35-.13-2.01-.16-1.1-.37-2.19-.58-3.28-.38-1.92-1.15-3.71-1.83-5.54-.52-1.39-.91-2.83-1.48-4.2-.5-1.21-.8-2.46-1.2-3.7-.56-1.72-1.28-3.38-1.87-5.09-.7-2.05-1.31-4.12-1.98-6.18-.37-1.16-.76-2.31-1.17-3.46-.48-1.32-.99-2.63-1.69-3.85-.21-.36-.28-.81-.37-1.23-.55-2.43-1.07-4.86-1.62-7.28-.2-.87-.5-1.72-.67-2.59-.19-.95-.28-1.92-.41-2.88-.16-1.18-.36-2.35-.49-3.53-.07-.67-.08-1.34-.06-2.02.02-.52.33-.86.82-1.1,1.06-.52,2.08-.32,3.03.2,1.05.57,2.02,1.25,2.84,2.14.49.53,1.05,1.02,1.63,1.46.82.64,1.46,1.43,2.11,2.22.19.23.38.46.54.71.63.98,1.29,1.92,2.1,2.78,1.37,1.45,2.23,3.25,3.35,4.88.35.51.73,1.01,1.04,1.55.55.96,1.05,1.95,1.59,2.92.42.76.88,1.49,1.28,2.26.22.43.34.9.5,1.36.06.18.07.38.15.54.58,1.16,1.14,2.33,1.76,3.46.57,1.05,1.05,2.12,1.35,3.29.34,1.33.83,2.63,1.23,3.94.34,1.11.65,2.23.96,3.34.38,1.35.72,2.72,1.14,4.05.62,1.96,1.21,3.93,1.55,5.96.18,1.07.44,2.12.98,3.08.87,1.53,1.19,3.24,1.57,4.93.48,2.11,1.01,4.21,1.52,6.31.34,1.39.62,2.8,1.04,4.17.26.84.72,1.62,1.13,2.41.22.42.61.69,1.08.8.92.23,1.74-.32,1.75-1.27,0-.89-.2-1.77-.22-2.66-.03-1.58-.38-3.1-.68-4.64-.19-.98-.13-1.99-.25-2.98-.17-1.37-.37-2.73-.63-4.08-.16-.82-.32-1.62-.27-2.48.05-.77-.09-1.56-.21-2.34-.29-1.9-.64-3.79-.92-5.69-.25-1.71-.44-3.43-.65-5.15,0-.05-.02-.11-.02-.16.04-2.98-.6-5.92-.5-8.9.06-1.92.25-3.83.37-5.75.04-.65.1-1.3.07-1.94-.08-1.77.16-3.51.42-5.25.19-1.22.73-2.32,1.49-3.29.36-.46.61-.55,1.12-.31.71.33,1.43.66,2.09,1.07.4.25.73.64,1.04,1.01.45.54.87,1.1,1.28,1.67.2.28.4.58.54.9.59,1.36,1.21,2.71,1.7,4.11.31.88.38,1.85.59,2.77.13.6.25,1.22.49,1.79.47,1.16.88,2.32.79,3.61-.02.26.07.54.14.79.43,1.4.74,2.81.72,4.3,0,.66.16,1.35.39,1.97.46,1.24,1.02,2.44,1.13,3.79.04.42.18.85.34,1.25.64,1.62.92,3.33,1.22,5.04.19,1.12.24,2.26.48,3.36.4,1.86.65,3.73.88,5.61.1.86.37,1.69.49,2.55.12.83.16,1.67.24,2.5.03.29.08.59.15.88.73,3,1.22,6.04,1.52,9.12.09.91.27,1.82.46,2.72.36,1.76.39,3.55.5,5.33.04.7.21,1.32.74,1.83.36.35.8.48,1.26.47.5,0,.87-.31,1.02-.8.17-.57.28-1.15.41-1.73.12-.52.24-1.05.36-1.58.3-1.29.59-2.58.88-3.87.17-.76.35-1.53.49-2.3.36-2.08.75-4.15,1.02-6.24.18-1.37.18-2.75.59-4.09.13-.43.06-.91.1-1.37.09-.97.16-1.94.32-2.89.2-1.28.52-2.54.71-3.82.3-1.95,1.12-3.66,2.28-5.23.95-1.28,1.88-2.58,2.84-3.86.2-.27.48-.5.77-.69.54-.36.77-.3,1.09.28.18.33.3.69.42,1.05.25.71.47,1.43.71,2.14.14.41.32.81.41,1.22.37,1.78.47,3.59.5,5.4,0,.14-.02.27,0,.41.36,1.81.23,3.66.34,5.49.08,1.29.06,2.6-.04,3.89-.08,1.06-.15,2.1.12,3.14.19.72.21,1.44.07,2.17-.3,1.56,0,3.13-.02,4.69-.03,2.27-.11,4.54-.15,6.81,0,.48.07.97.04,1.45-.07,1.37-.18,2.75-.27,4.12-.11,1.59-.21,3.18-.32,4.77,0,.03,0,.05,0,.08.58,2.99-.11,5.98,0,8.97.03.92.14,1.84.13,2.75-.02,2.81.13,5.62-.06,8.44-.06.91.13,1.83.17,2.74.03.76.01,1.51.02,2.27,0,.32-.07.66,0,.97.35,1.56.17,3.13.05,4.69-.12,1.58.05,3.13.16,4.7.1,1.32.13,2.65.1,3.97-.03,1.22,0,2.44.24,3.64.32,1.6.41,3.21.48,4.83.02.46-.02.92-.08,1.37-.18,1.41-.1,2.79.3,4.17.42,1.48.75,2.99.77,4.55,0,.81.15,1.62.29,2.41.44,2.5.89,5.01,1.37,7.5.33,1.7.57,3.43,1.09,5.07.6,1.9.74,3.87,1.15,5.8.34,1.61.72,3.22,1.01,4.84.36,1.99.63,4.01,1,6,.19,1.01.5,1.99.78,2.98.42,1.51.84,3.02,1.29,4.53.15.52.38,1.01.56,1.52.29.82.57,1.63.84,2.45.13.39.21.78.34,1.17.37,1.17,1.34,1.67,2.39,2,.65.21,1.3-.34,1.35-1.06.02-.29-.04-.6-.13-.87-.68-2-1.38-3.98-2.06-5.98-.15-.43-.23-.89-.35-1.33-.45-1.69-.93-3.38-1.35-5.09-.17-.7-.2-1.44-.3-2.16-.08-.56-.15-1.12-.25-1.68-.24-1.36-.5-2.71-.75-4.07-.33-1.75-.66-3.51-1.01-5.26-.57-2.92-1.18-5.84-1.73-8.76-.48-2.55-.92-5.11-1.34-7.68-.4-2.48-.78-4.96-1.1-7.45-.18-1.42-.2-2.85-.32-4.28-.13-1.53-.31-3.07-.45-4.6-.05-.59-.05-1.19-.08-1.78-.04-.7-.09-1.4-.13-2.1-.03-.51-.06-1.02-.09-1.54-.02-.51,0-1.03-.06-1.54-.27-2.1-.16-4.21-.09-6.32,0-.3.06-.61,0-.89-.51-2-.26-4.04-.36-6.06-.11-2.24.13-4.49-.14-6.73-.07-.58.06-1.19.07-1.78.03-1.84.03-3.68.07-5.52.02-1.03.12-2.05.16-3.08.03-.73.04-1.46.02-2.19-.05-2.21-.13-4.43-.17-6.64,0-.46.11-.91.15-1.37.15-1.81.34-3.61.42-5.42.13-2.7.23-5.41.25-8.11.01-2.43.18-4.86-.04-7.29-.09-.94.03-1.89.04-2.84.02-1.3.01-2.6.03-3.89.01-1.22.03-2.43.05-3.65,0-.14.03-.28,0-.41-.49-2.64-.28-5.34-.81-7.98-.34-1.67-.6-3.36-1.26-4.94-.19-.45-.35-.91-.47-1.38-.45-1.76-1.64-2.89-3.17-3.7-.28-.15-.69-.16-1.02-.11-2.01.35-3.59,1.43-4.93,2.91-.42.46-.83.92-1.26,1.37-.85.9-1.43,1.98-1.9,3.1-.56,1.34-1.09,2.71-1.47,4.11-.35,1.3-.47,2.66-.69,3.99-.04.21-.04.44-.12.64-.51,1.2-.55,2.48-.58,3.74-.04,1.31-.27,2.58-.62,3.84-.51,1.87-.75,3.76-.6,5.7.01.18-.08.37-.12.55-.1,0-.19,0-.29-.01Z"/>
  </g>
</svg>