<?xml version="1.0" encoding="UTF-8"?>
<svg id="Calque_1" data-name="Calque 1" xmlns="http://www.w3.org/2000/svg" viewBox="0 0 210.35 210.35">
  <defs>
    <style>
      .cls-1 {
        fill: #69c3bc;
        stroke-width: 0px;
      }
    </style>
  </defs>
  <path class="cls-1" d="M62.44,163.86c2.92,9.76,8.48,18.65,16.29,25.24,7.36,6.22,16.41,10.47,25.93,12.03s20.33.57,29.1-4.33c8.75-4.89,14.31-13.48,18.27-22.45,4.42-10.01,8.11-20.84,8.26-31.88s-3.9-21.75-6.09-32.57c-1.09-5.38-1.5-10.77-1.2-16.25s1.11-10.78,1.92-16.13c1.57-10.4,3.21-21.13.75-31.53-1.98-8.39-6.76-15.81-13.14-21.54-3.7-3.32-7.86-5.96-12.14-8.46-6.56-3.82-13.75-6.54-21.35-7.28-9.8-.96-19.56,1.8-27.56,7.49-8.81,6.27-16.27,14.76-21.91,23.94-8.67,14.13-12.94,31.87-6.04,47.63,2.77,6.33,7.32,11.74,9.51,18.34,1.44,4.36,2.02,9.04,1.78,13.61-.3,5.61-1.92,11.05-3.1,16.51-.84,3.92-1.42,7.9-1.66,11.9-.23,3.71-.24,7.66.88,11.24.49,1.56,1.23,3.1,2.4,4.26,1.45,1.42,3.47,2.16,5.36,2.79,2.2.73,4.38,1.41,6.54,2.26,2.66,1.04,5.36,1.99,8.16,2.57,5.63,1.16,11.26.43,16.88-.38,1.9-.27,1.09-3.17-.8-2.89-5.64.81-11.26,1.45-16.86.01-2.7-.69-5.29-1.69-7.88-2.71-1.96-.78-3.99-1.29-5.97-1.99-1.61-.57-3.2-1.27-4.11-2.79-.78-1.3-1.15-2.82-1.4-4.31-.58-3.51-.36-7.18,0-10.7.95-9.57,4.83-18.82,4.58-28.51-.11-4.2-.76-8.43-2.17-12.4-1.13-3.19-2.72-6.16-4.45-9.06s-3.48-5.68-4.86-8.71c-1.63-3.58-2.64-7.46-3.06-11.37-.88-8.22.7-16.45,3.84-24.05,4.1-9.91,10.71-19.14,18.54-26.46,5.4-5.05,11.29-9.55,18.45-11.76,8.87-2.73,18.26-1.84,26.82,1.52,4.41,1.73,8.58,4.15,12.57,6.7,5.49,3.5,10.45,7.95,14.06,13.41,11.71,17.73,3.62,38.85,2.45,58.2-.32,5.2-.05,10.35.85,15.48s2.37,10.38,3.66,15.55,2.45,10.37,2.7,15.7-.5,10.87-1.84,16.15-3.12,10.2-5.16,15.11c-1.81,4.36-3.92,8.64-6.59,12.54s-5.98,7.35-9.98,9.86-8.81,4.16-13.61,4.94c-18.67,3.04-38.5-6.29-48.69-22.06-2.64-4.09-4.65-8.52-6.04-13.18-.55-1.85-3.45-1.06-2.89.8h0Z"/>
  <path class="cls-1" d="M79.08,153.69c-.4,5.42-.75,11,.66,16.31s5.04,9.59,8.86,13.59c1.34,1.4,3.46-.73,2.12-2.12-3.58-3.74-6.93-7.52-8.2-12.68-1.21-4.92-.81-10.1-.45-15.1.14-1.93-2.86-1.92-3,0h0Z"/>
  <path class="cls-1" d="M130.4,140.52c5.97-.76,11.2-3.93,15.23-8.34,2.04-2.23,3.78-4.72,5.31-7.32s3.71-5.81,3.36-9c-.21-1.9-3.21-1.92-3,0,.29,2.67-1.74,5.46-3.05,7.66-1.38,2.32-2.92,4.55-4.74,6.54-3.43,3.76-7.96,6.81-13.1,7.46-.81.1-1.49.62-1.5,1.5,0,.73.7,1.6,1.5,1.5h0Z"/>
  <path class="cls-1" d="M139.66,114.9c.52,12.07.33,24.17-.57,36.22-.14,1.93,2.86,1.92,3,0,.9-12.05,1.09-24.15.57-36.22-.08-1.92-3.08-1.93-3,0h0Z"/>
  <path class="cls-1" d="M97.83,73.76c1.93,0,1.93-3,0-3s-1.93,3,0,3h0Z"/>
  <path class="cls-1" d="M110.65,72.8c1.93,0,1.93-3,0-3s-1.93,3,0,3h0Z"/>
  <path class="cls-1" d="M88.53,88.94c5.42,5.37,13.95,7,21.29,5.75,7.7-1.31,12.69-7.46,17.14-13.33,1.17-1.54-1.44-3.04-2.59-1.51-3.89,5.13-8.22,10.58-14.9,11.87s-14.11-.24-18.81-4.9c-1.37-1.36-3.5.76-2.12,2.12h0Z"/>
  <path class="cls-1" d="M90.75,13.16c-7.18,11.05-10.41,24.51-8.97,37.61.21,1.9,3.21,1.92,3,0-1.39-12.63,1.63-25.44,8.56-36.1,1.06-1.62-1.54-3.13-2.59-1.51h0Z"/>
  <path class="cls-1" d="M74.47,35.46c8.3,2.15,16.88,3.09,25.45,2.79,1.92-.07,1.93-3.07,0-3-8.32.3-16.6-.6-24.65-2.68-1.87-.48-2.67,2.41-.8,2.89h0Z"/>
</svg>