<?xml version="1.0" encoding="UTF-8"?>
<svg id="Calque_1" data-name="Calque 1" xmlns="http://www.w3.org/2000/svg" viewBox="0 0 210.35 210.35">
  <defs>
    <style>
      .cls-1 {
        fill: #69c3bc;
        stroke-width: 0px;
      }
    </style>
  </defs>
  <path class="cls-1" d="M61.55,79.79c14.59-1.19,29.19-2.38,43.78-3.57s28.49-2.99,42.69-2.09c12.06.77,24.56,4.02,34.04,11.87,9.73,8.06,15.05,20.83,15.29,33.35.12,6.29-1.27,12.45-4.21,18.01-2.61,4.96-6.2,9.31-10.17,13.23s-8.58,7.64-13.15,11.1c-2.28,1.72-4.6,3.8-7.28,4.87-1.12.45-2.45.75-3.59.21-1.34-.63-1.94-2.14-2.31-3.47-1.8-6.54.66-13.36,2.77-19.52,1.85-5.4,3.59-10.89,3.4-16.67-.17-5.33-2.15-10.43-6.58-13.63-4.79-3.45-11.04-3.95-16.7-4.76-25.16-3.64-52.19-8.17-71.99-25.49-2.2-1.93-4.28-4-6.21-6.19-1.28-1.45-3.39.68-2.12,2.12,17.75,20.13,44.88,27.08,70.37,31.09,3.6.57,7.2,1.09,10.8,1.61,3.01.43,6.04.82,8.96,1.69,2.76.82,5.37,2.12,7.28,4.32,1.73,1.99,2.67,4.58,3.02,7.17,1.75,12.76-8.19,23.89-6.38,36.67.41,2.89,1.39,6.21,4.17,7.68s5.68.44,8.1-.94c2.61-1.48,4.98-3.49,7.35-5.31s4.74-3.69,7.02-5.65c8.69-7.44,16.69-16.54,19.39-27.95,3.05-12.91-.46-27.92-8.36-38.5-7.31-9.78-18.61-15.59-30.35-18.17-14.07-3.1-28.59-1.79-42.81-.63-15.09,1.23-30.18,2.46-45.28,3.69l-10.95.89c-1.91.16-1.93,3.16,0,3h0Z"/>
  <path class="cls-1" d="M122.9,74.17c5.47,9.72,6.18,21.91,1.71,32.16-.76,1.75,1.82,3.28,2.59,1.51,4.91-11.27,4.33-24.45-1.71-35.19-.95-1.68-3.54-.17-2.59,1.51h0Z"/>
  <path class="cls-1" d="M154.1,73.91c1.15,6.92,1.71,14.07,1.21,21.08-.41,5.8-1.85,11.81-5.86,16.21-1.3,1.42.82,3.55,2.12,2.12,4.4-4.82,6.12-11.17,6.67-17.54.65-7.53-.02-15.23-1.25-22.66-.32-1.9-3.21-1.09-2.89.8h0Z"/>
  <path class="cls-1" d="M158.49,119.51c7.54-.83,14.28-4.4,19.99-9.28,5.6-4.78,11.31-11.04,12.18-18.65.22-1.92-2.78-1.9-3,0-.76,6.69-6.42,12.36-11.3,16.52s-11.19,7.66-17.87,8.4c-1.9.21-1.92,3.21,0,3h0Z"/>
  <path class="cls-1" d="M161.11,128c7.39,3.09,16.06,1.21,23.29-1.46,6.75-2.5,13.33-7.11,14.98-14.55.42-1.88-2.48-2.68-2.89-.8-1.48,6.71-7.62,10.63-13.71,12.75-6.61,2.3-14.17,3.97-20.88,1.17-.75-.31-1.64.34-1.85,1.05-.25.86.3,1.53,1.05,1.85h0Z"/>
  <path class="cls-1" d="M159.66,135.08c8.44,7.12,18.7,13.75,30.27,11.43,1.89-.38,1.09-3.27-.8-2.89-10.38,2.08-19.82-4.3-27.35-10.66-1.47-1.24-3.6.87-2.12,2.12h0Z"/>
  <path class="cls-1" d="M155.53,148.72c4.79,5.71,11.45,9.77,18.72,11.45,1.88.43,2.68-2.46.8-2.89-6.81-1.57-12.9-5.32-17.39-10.68-.52-.62-1.58-.54-2.12,0-.61.61-.52,1.5,0,2.12h0Z"/>
  <path class="cls-1" d="M95.28,83.99c1.93,0,1.93-3,0-3s-1.93,3,0,3h0Z"/>
  <path class="cls-1" d="M104.18,84.22c1.93,0,1.93-3,0-3s-1.93,3,0,3h0Z"/>
  <path class="cls-1" d="M84.52,86.75c7.57,6.17,18.47,7.26,27.06,2.57,1.7-.92.18-3.52-1.51-2.59-7.32,3.99-16.94,3.18-23.43-2.11-1.48-1.21-3.62.9-2.12,2.12h0Z"/>
  <path class="cls-1" d="M129.98,108.64c-3.97,4.33-6.78,9.64-8.06,15.37-.42,1.88,2.47,2.68,2.89.8,1.17-5.24,3.66-10.09,7.29-14.05,1.3-1.42-.81-3.55-2.12-2.12h0Z"/>
  <path class="cls-1" d="M143.63,110.03c-5.72,4.18-9.92,10.15-11.83,16.99-.52,1.86,2.37,2.66,2.89.8,1.68-6.04,5.38-11.49,10.45-15.2.65-.48.98-1.3.54-2.05-.38-.64-1.4-1.02-2.05-.54h0Z"/>
  <path class="cls-1" d="M158.33,115.39c-2.33-1.02-4.64-.27-6.85.7-1.9.84-3.64,1.98-5.23,3.32-3.21,2.71-5.59,6.34-6.83,10.35-.57,1.85,2.32,2.64,2.89.8,1.02-3.29,2.95-6.22,5.5-8.53,1.26-1.14,2.66-2.09,4.18-2.86.74-.38,1.5-.7,2.29-.96s1.76-.56,2.54-.22,1.61.22,2.05-.54c.37-.64.21-1.73-.54-2.05h0Z"/>
  <path class="cls-1" d="M161.38,126.51c-3.64-.79-6.69,1.18-9.48,3.27s-5.35,4.09-7.34,6.87c-.47.66-.12,1.67.54,2.05.75.44,1.58.12,2.05-.54,1.61-2.26,3.85-3.99,6.05-5.64,2.06-1.54,4.6-3.72,7.38-3.12,1.88.41,2.69-2.48.8-2.89h0Z"/>
  <path class="cls-1" d="M68.01,84.24c-12.02,1.78-24.74-1.19-33.79-9.57-3.6-3.34-6.72-7.28-9.57-11.27s-5.31-8.13-7.45-12.48c-3.22-6.52-5.61-13.4-7.33-20.46-.46-1.88-3.35-1.08-2.89.8,2.86,11.77,7.68,23.11,14.65,33.04,2.89,4.11,6.05,8.19,9.64,11.71,5.21,5.09,11.73,8.69,18.8,10.43,6.14,1.51,12.5,1.63,18.74.71,1.9-.28,1.09-3.17-.8-2.89h0Z"/>
  <path class="cls-1" d="M37.2,24.25c-1.75,4.25-3.46,8.72-3.53,13.38s2.07,8.67,5.25,12.15,6.72,6.21,11.2,7.93c4.15,1.59,8.49,2.69,11.77,5.87s5.24,7.66,5.29,12.27c.02,1.93,3.02,1.93,3,0-.08-8.5-5.44-15.62-13.17-18.8-4.27-1.75-8.76-2.77-12.36-5.83-3.36-2.86-7.05-6.56-7.82-11.08-.87-5.14,1.34-10.44,3.26-15.1.74-1.78-2.17-2.56-2.89-.8h0Z"/>
  <path class="cls-1" d="M154.88,160.18c-9.9.41-19.76,1.74-29.4,4-4.8,1.12-9.54,2.47-14.2,4.04-4.18,1.41-8.72,2.76-11.93,5.94-1.13,1.12.05,2.77,1.46,2.51,3.13-.59,6.67-1.31,9.67.17s3.46,4.38,2.9,7.51-1.51,6.28-1.69,9.46c-.15,2.55.67,5.23,3.16,6.35,2.64,1.18,5.57,0,8-1.15,2.71-1.28,5.31-2.79,7.78-4.47,4.92-3.34,9.38-7.3,13.51-11.56,4.76-4.92,9.09-10.22,13.36-15.56,1.19-1.49-.92-3.63-2.12-2.12-7.35,9.2-14.98,18.54-24.59,25.49-2.42,1.75-4.96,3.35-7.62,4.73-1.86.97-5.35,3.17-7.44,1.74s-.76-5.44-.38-7.37c.6-3.04,1.63-6.34,1.2-9.45s-2.68-5.48-5.59-6.62c-3.52-1.38-7.36-.69-10.95-.01l1.46,2.51c3.01-2.99,7.58-4.17,11.5-5.47,4.53-1.5,9.12-2.78,13.77-3.85,9.25-2.13,18.67-3.39,28.15-3.78,1.92-.08,1.93-3.08,0-3h0Z"/>
</svg>