<?xml version="1.0" encoding="UTF-8"?>
<svg id="Calque_1" data-name="Calque 1" xmlns="http://www.w3.org/2000/svg" viewBox="0 0 210.35 210.35">
  <defs>
    <style>
      .cls-1 {
        fill: #69c3bc;
        stroke-width: 0px;
      }
    </style>
  </defs>
  <path class="cls-1" d="M104.87,194.26c-12.97-8.33-15.12-25.34-14.5-39.43.4-9.17,1.58-18.27,1.49-27.46s-.89-17.72.41-26.46c1.09-7.31,3.57-14.71,8.71-20.19.58-.61,1.24-1.41,2.07-1.67.98-.31,1.94.38,2.74.88,1.61,1.03,3.24,2.08,4.72,3.29,3.1,2.51,5.06,5.57,5.97,9.47s1.07,8.36,1.39,12.51c.36,4.63.67,9.27.93,13.91.53,9.2.88,18.41,1.07,27.62s.38,17.98-.72,26.89c-.52,4.16-1.28,8.42-2.75,12.36-1.32,3.54-3.57,6.87-7.11,8.48-1.63.74-3.45,1-5.21.63-1.88-.4-2.69,2.49-.8,2.89,3.92.84,7.79-.51,10.78-3.08,3.17-2.72,4.95-6.76,6.06-10.7,2.58-9.1,2.89-18.77,2.86-28.17-.03-9.9-.34-19.81-.81-29.7-.47-9.84-.95-19.73-2.03-29.52-.45-4.12-1.27-8.37-3.76-11.8s-5.86-5.67-9.27-7.78c-1.79-1.1-3.77-1.73-5.75-.71-1.69.87-3.03,2.57-4.18,4.04-2.49,3.18-4.33,6.78-5.66,10.59-2.94,8.47-3.11,17.53-2.9,26.4.11,4.91.33,9.83.2,14.75s-.57,9.81-.95,14.71c-1.24,15.88-1.4,34.6,11.15,46.48,1.33,1.26,2.79,2.38,4.33,3.37,1.63,1.05,3.14-1.55,1.51-2.59h0Z"/>
  <path class="cls-1" d="M104.23,194.91c-7.3-.17-14.29-3.49-19.21-8.85-5.9-6.43-7.23-15.22-8.41-23.55-1.34-9.47-1.88-19.07-1.69-28.63s.89-19.2,2.86-28.5c.94-4.44,2.94-8.06,6.55-10.87,3.3-2.56,7.22-4.27,11.03-5.92,1.77-.76.24-3.35-1.51-2.59-7.17,3.09-14.79,6.82-17.8,14.55-1.73,4.45-2.16,9.51-2.75,14.22-.63,5.05-1.06,10.14-1.27,15.23-.42,10.18.02,20.39,1.31,30.5,1.15,9,2.34,18.64,8.13,25.99,5.45,6.92,13.96,11.22,22.76,11.42,1.93.04,1.93-2.96,0-3h0Z"/>
  <path class="cls-1" d="M107.45,198.63c8.37-.35,17.16-2.77,22.25-9.92,2.51-3.52,3.3-7.8,3.68-12.02.43-4.84.6-9.7.7-14.56.2-9.83-.05-19.66-.3-29.49s-.56-18.82-2.01-28.13c-.41-2.63-.91-5.24-1.53-7.82s-1.16-5.09-2.2-7.41c-.85-1.9-2.48-3.04-4.52-3.36s-4.12-.01-6.03-.8c-1.78-.74-2.56,2.16-.8,2.89,1.55.64,3.23.64,4.88.72,1.74.08,3.17.32,3.88,2.09,1.59,3.96,2.4,8.45,3.12,12.64,1.49,8.62,1.89,17.39,2.13,26.12.25,9.12.49,18.25.44,27.38-.02,4.52-.13,9.03-.36,13.54-.22,4.22-.28,8.65-1.63,12.7-3.01,9.05-13.12,12.07-21.71,12.43-1.92.08-1.93,3.08,0,3h0Z"/>
  <g>
    <path class="cls-1" d="M119.13,83.27c-.98-10.85,2.17-21.92,8.92-30.5l-2.51-.66c.36,2.51.93,4.96,1.7,7.37.36,1.12,1.64,1.41,2.51.66,8.1-7.06,17.84-12.05,28.28-14.59l-1.9-1.45c.07,8.7-7.49,14.47-13.94,18.97-1.34.93-.57,3.23,1.16,2.74,3.35-.95,6.77-.93,10.11.05l-1.1-1.45c-.15,3.17-3.84,5.28-6.11,6.95-2.84,2.08-5.74,4.09-8.75,5.92-6,3.64-12.56,6.59-19.59,7.42-1.89.23-1.92,3.23,0,3,7.88-.94,15.14-4.13,21.84-8.28,3.36-2.08,6.58-4.38,9.74-6.74,2.8-2.1,5.69-4.5,5.87-8.26.03-.66-.49-1.27-1.1-1.45-3.83-1.12-7.86-1.13-11.71-.05l1.16,2.74c7.37-5.14,15.51-11.69,15.42-21.56,0-1-.95-1.68-1.9-1.45-10.95,2.66-21.12,7.96-29.61,15.36l2.51.66c-.77-2.41-1.34-4.87-1.7-7.37-.15-1.07-1.85-1.5-2.51-.66-7.24,9.2-10.86,20.94-9.8,32.63.17,1.91,3.17,1.93,3,0h0Z"/>
    <path class="cls-1" d="M120.4,84.98c3.82-6.51,8.79-12.26,14.65-17.01.63-.51.53-1.59,0-2.12-.62-.62-1.49-.51-2.12,0-6.05,4.9-11.18,10.9-15.12,17.62-.98,1.67,1.61,3.18,2.59,1.51h0Z"/>
  </g>
  <g>
    <path class="cls-1" d="M94.23,83.48c1.06-11.68-2.56-23.43-9.8-32.63-.66-.84-2.35-.4-2.51.66-.36,2.51-.93,4.96-1.7,7.37l2.51-.66c-8.49-7.4-18.66-12.7-29.61-15.36-.95-.23-1.89.45-1.9,1.45-.08,9.88,8.06,16.43,15.42,21.56l1.16-2.74c-3.84-1.09-7.87-1.08-11.71.05-.61.18-1.13.79-1.1,1.45.18,3.76,3.07,6.16,5.87,8.26,3.16,2.37,6.38,4.66,9.74,6.74,6.7,4.15,13.96,7.34,21.84,8.28,1.91.23,1.9-2.77,0-3-7.03-.84-13.59-3.79-19.59-7.42-3.01-1.83-5.91-3.83-8.75-5.92-2.27-1.66-5.96-3.78-6.11-6.95l-1.1,1.45c3.34-.98,6.76-.99,10.11-.05,1.71.48,2.5-1.8,1.16-2.74-6.45-4.5-14.01-10.27-13.94-18.97l-1.9,1.45c10.44,2.53,20.18,7.53,28.28,14.59.86.75,2.15.46,2.51-.66.77-2.41,1.34-4.87,1.7-7.37l-2.51.66c6.75,8.58,9.9,19.66,8.92,30.5-.17,1.92,2.83,1.91,3,0h0Z"/>
    <path class="cls-1" d="M92.55,83.68c-3.94-6.72-9.07-12.71-15.12-17.62-.63-.51-1.51-.61-2.12,0-.53.53-.63,1.61,0,2.12,5.87,4.75,10.83,10.5,14.65,17.01.98,1.66,3.57.16,2.59-1.51h0Z"/>
  </g>
  <path class="cls-1" d="M105.41,78.72c6.5-3.3,9.6-10.9,12.22-17.27,1.53-3.73,2.84-7.56,3.9-11.46.54-1.98,1.02-3.98,1.44-6,.38-1.85,1-3.9.94-5.79s-1.87-3.82-3.87-2.83c-.91.45-1.6,1.3-2.4,1.9-.92.69-1.91,1.27-2.93,1.8l2.2.9c-1.55-9.88-6.31-18.81-11.01-27.5-.56-1.04-1.99-.9-2.59,0-4.96,7.45-8.26,15.94-9.6,24.79l2.51-.66c-2.25-2.55-4.77-4.79-7.53-6.78-.99-.71-2.2.26-2.26,1.3-.55,10.42,2.65,20.92,8.96,29.24l1.69-2.2c-1.88-.55-3.59-1.38-5.2-2.49-1.17-.79-2.44.51-2.2,1.69.79,3.93,2.39,7.72,4.7,11.01,1.15,1.64,2.46,3.18,3.92,4.55,1.54,1.45,3.27,2.72,4.45,4.5.82,1.25,2.73.76,2.8-.76.28-6.39.53-12.78.74-19.17.06-1.93-2.94-1.93-3,0-.21,6.39-.46,12.78-.74,19.17l2.8-.76c-2.21-3.34-5.77-5.47-8.13-8.73s-3.85-6.78-4.63-10.62l-2.2,1.69c1.82,1.24,3.81,2.16,5.92,2.79,1.16.34,2.51-1.13,1.69-2.2-6.02-7.94-9.07-17.76-8.55-27.72l-2.26,1.3c2.55,1.83,4.85,3.96,6.92,6.31.7.79,2.34.44,2.51-.66,1.3-8.62,4.46-16.81,9.3-24.07h-2.59c4.58,8.49,9.19,17.14,10.71,26.79.16,1.02,1.43,1.29,2.2.9.89-.46,1.76-.96,2.58-1.54.21-.15,2.28-1.87,2.3-1.86-.15-.11-.37,1.43-.39,1.57-.08.45-.16.9-.24,1.35-.19,1.05-.41,2.09-.64,3.14-.93,4.24-2.14,8.42-3.62,12.5s-3.03,7.73-5.01,11.36c-1.76,3.23-3.96,6.25-7.31,7.95-1.72.87-.21,3.46,1.51,2.59h0Z"/>
</svg>