<?xml version="1.0" encoding="UTF-8"?>
<svg id="Calque_1" data-name="Calque 1" xmlns="http://www.w3.org/2000/svg" viewBox="0 0 210.35 210.35">
  <defs>
    <style>
      .cls-1 {
        fill: #69c3bc;
        stroke-width: 0px;
      }
    </style>
  </defs>
  <path class="cls-1" d="M11.62,56.87c-9.54,20.18-10.1,43.76-1.35,64.32s25,35.32,45.16,42.66c11.07,4.03,23.05,5.47,34.76,4.23,1.9-.2,1.92-3.2,0-3-20.16,2.12-40.73-3.95-56.3-16.99-16.16-13.53-26.05-33.6-26.85-54.67-.46-12.05,2.01-24.13,7.16-35.03.82-1.74-1.76-3.26-2.59-1.51h0Z"/>
  <path class="cls-1" d="M12.31,58.21c13.41,10.9,25.62,23.26,36.38,36.78,10.71,13.47,19.96,28.14,27.54,43.59,4.29,8.74,8.02,17.74,11.19,26.95.63,1.81,3.52,1.03,2.89-.8-5.69-16.53-13.18-32.43-22.31-47.33-9.09-14.84-19.78-28.72-31.82-41.29-6.83-7.12-14.1-13.81-21.75-20.03-1.49-1.21-3.62.9-2.12,2.12h0Z"/>
  <path class="cls-1" d="M64.44,109.81c4.1-16.4,8.2-32.8,12.31-49.2,1.17-4.66,2.33-9.33,3.5-13.99.47-1.87-2.42-2.67-2.89-.8-4.1,16.4-8.2,32.8-12.31,49.2-1.17,4.66-2.33,9.33-3.5,13.99-.47,1.87,2.42,2.67,2.89.8h0Z"/>
  <path class="cls-1" d="M77.5,46.98c7.86,16.05,13.1,33.39,15.38,51.12,1.98,15.42,1.82,31.09-.16,46.51-.89,6.89-2.17,13.72-3.76,20.48-.44,1.88,2.45,2.68,2.89.8,3.12-13.28,5-26.86,5.37-40.5.47-17.32-1.53-34.74-6.22-51.43-2.75-9.81-6.43-19.34-10.91-28.49-.85-1.73-3.44-.21-2.59,1.51h0Z"/>
  <path class="cls-1" d="M20.55,60.92c4.66-7.71,10.84-15.01,18.7-19.58,3.74-2.17,8.06-3.25,12.25-1.78,1.98.7,3.8,1.83,5.57,2.93s3.39,2.12,5.01,3.28c4.42,3.17,8.37,6.95,11.88,11.1,1.25,1.48,3.36-.65,2.12-2.12-3.43-4.06-7.28-7.72-11.55-10.89-3.48-2.59-7.29-5.18-11.32-6.83-4.43-1.82-9.15-1.32-13.44.66s-8.43,5.22-11.7,8.62c-3.83,3.99-7.26,8.37-10.13,13.1-1,1.66,1.59,3.17,2.59,1.51h0Z"/>
  <path class="cls-1" d="M43.55,56.72c1.93,0,1.93-3,0-3s-1.93,3,0,3h0Z"/>
  <path class="cls-1" d="M52.44,55.83c1.93,0,1.93-3,0-3s-1.93,3,0,3h0Z"/>
  <path class="cls-1" d="M34.7,65.43c2.47,1.04,5.01,1.89,7.62,2.52s5.3,1.21,7.94,1.01c4.96-.38,8.23-3.87,11.14-7.54,1.19-1.5-.92-3.63-2.12-2.12-2.58,3.25-5.4,6.68-9.9,6.7s-9.62-1.66-13.89-3.46c-.75-.32-1.64.34-1.85,1.05-.25.86.3,1.53,1.05,1.85h0Z"/>
  <path class="cls-1" d="M109.42,163.06c-5.27-7.32-3.75-17.11-.86-25.07,1.21-3.35,2.91-6.66,5.13-9.71,2.67-3.67,6.02-6.9,9.47-9.83,15.66-13.32,36.74-19.92,57.19-18.58,5.12.33,10.19,1.19,15.13,2.56,2.24.62,5.03,1.17,6.81,2.77,2.28,2.05.22,5.61-.67,7.9-3.64,9.34-8.29,18.38-14.31,26.42-3.23,4.31-6.93,8.39-11.19,11.71.29-.23-.17.13-.23.18-.14.1-.27.2-.41.3-.24.18-.49.35-.74.52-.3.21-.61.39-.92.59-2.1,1.38-4.02,3.1-6.04,4.58-7.72,5.66-16.18,10.61-25.57,12.87-5.28,1.27-10.79,1.61-16.17.8-3.88-.59-7.8-1.45-11.24-3.39-2.07-1.17-3.93-2.7-5.37-4.61-1.15-1.52-3.75-.03-2.59,1.51,5.97,7.93,17.09,10.2,26.53,9.9,10.85-.34,21.1-4.71,30.12-10.5,4.55-2.92,8.82-6.44,12.92-9.28s7.5-6.31,10.62-10.04c6.24-7.46,11.13-15.98,15.04-24.87,1.29-2.93,2.53-5.91,3.59-8.93.98-2.81,1.02-5.8-1.36-7.91-1.96-1.73-4.64-2.46-7.1-3.17-2.59-.75-5.21-1.36-7.87-1.83-21.43-3.81-44.33,1.21-62.18,13.67-8.12,5.67-15.98,12.93-20.07,22.12-3.28,7.36-5.41,16.13-3.36,24.11.62,2.41,1.67,4.71,3.12,6.73,1.12,1.55,3.72.06,2.59-1.51Z"/>
  <path class="cls-1" d="M114.26,143.95c5.46-13.54,18.83-21.28,31.32-27.38,3.63-1.77,7.3-3.45,10.96-5.18,1.75-.82.22-3.41-1.51-2.59-13.15,6.2-27.65,12.13-37.2,23.58-2.71,3.25-4.87,6.84-6.45,10.76-.72,1.79,2.18,2.57,2.89.8h0Z"/>
  <path class="cls-1" d="M114.11,161.13c16.07-18.75,36.67-33.91,59.25-43.89,6.26-2.77,12.72-5.09,19.31-6.91,1.86-.51,1.07-3.41-.8-2.89-24.26,6.7-46.75,19.98-65.4,36.76-5.14,4.62-9.99,9.56-14.49,14.81-1.25,1.46.86,3.59,2.12,2.12h0Z"/>
  <path class="cls-1" d="M127.66,166.22c6.19-7.09,13.48-13.26,20.93-18.97,8.62-6.6,17.71-12.66,27.25-17.88,4.77-2.61,9.67-5.01,14.75-6.95,1.79-.68,1.01-3.58-.8-2.89-9.69,3.69-18.82,8.84-27.52,14.44s-17.89,12.37-26.03,19.55c-3.76,3.32-7.4,6.79-10.7,10.57-1.26,1.45.85,3.58,2.12,2.12h0Z"/>
  <path class="cls-1" d="M147.85,163.19c6.95-7.5,15.73-13.11,25.48-16.19,1.83-.58,1.05-3.48-.8-2.89-10.23,3.24-19.51,9.09-26.8,16.97-1.31,1.41.81,3.54,2.12,2.12h0Z"/>
</svg>