<?xml version="1.0" encoding="UTF-8"?>
<svg id="Calque_1" data-name="Calque 1" xmlns="http://www.w3.org/2000/svg" viewBox="0 0 113.2 161.16">
  <defs>
    <style>
      .cls-1 {
        fill: #6dc3bc;
        stroke-width: 0px;
      }
    </style>
  </defs>
  <path class="cls-1" d="M8.12,160.1c4.14-14.76,9.35-29.22,15.66-43.19,7.66-16.96,16.89-33.21,27.54-48.47,5.57-7.98,11.54-15.68,17.86-23.08,1.25-1.46-.87-3.59-2.12-2.12-11.86,13.9-22.51,28.83-31.69,44.63s-16.43,31.37-22.54,47.96c-2.85,7.72-5.37,15.56-7.6,23.48-.52,1.86,2.37,2.66,2.89.8h0Z"/>
  <path class="cls-1" d="M69.63,44.3c.19-5.71,1.61-11.59,3.97-16.92,4.58-10.35,13.08-18.47,23.87-22.11,4.6-1.55,9.42-2.3,14.27-2.27,1.93.01,1.93-2.99,0-3-11.03-.08-21.95,3.77-30.18,11.17-7.27,6.54-11.93,15.6-13.9,25.11-.55,2.63-.93,5.32-1.01,8.01-.06,1.93,2.94,1.93,3,0h0Z"/>
  <path class="cls-1" d="M68.13,45.8c9.94-1.31,19.36-5.28,27.07-11.74s12.83-14.61,15.9-23.77c.92-2.73,1.62-5.54,2.08-8.39.3-1.89-2.59-2.7-2.89-.8-2.7,16.78-13.62,31.66-29.45,38.26-4.04,1.68-8.4,2.87-12.7,3.44-.81.11-1.49.61-1.5,1.5,0,.73.7,1.61,1.5,1.5h0Z"/>
  <g>
    <path class="cls-1" d="M52.74,66.58c12.02-8.98,26.59-14.26,41.6-14.87,3.39-.14,6.78-.04,10.16.27,1.92.18,1.91-2.82,0-3-15.41-1.42-31.12,1.9-44.65,9.42-3,1.67-5.88,3.54-8.63,5.6-1.53,1.14-.03,3.75,1.51,2.59h0Z"/>
    <path class="cls-1" d="M46.04,76.16c19.27,3.07,39.18-3.18,53.09-16.92,2.42-2.39,4.63-4.99,6.63-7.73,1.14-1.56-1.46-3.06-2.59-1.51-10.31,14.16-26.99,23.16-44.56,23.92-3.93.17-7.89-.03-11.77-.65-1.89-.3-2.7,2.59-.8,2.89h0Z"/>
  </g>
  <g>
    <path class="cls-1" d="M30.67,103.19c9.81-13.4,26.58-20.42,43.03-17.93,2.98.45,5.92,1.17,8.77,2.17,1.83.64,2.61-2.26.8-2.89-16.53-5.81-35.32-2.2-48.36,9.55-2.54,2.29-4.8,4.84-6.82,7.6-1.14,1.56,1.46,3.06,2.59,1.51h0Z"/>
    <path class="cls-1" d="M24.39,111.66c19.27,3.07,39.18-3.18,53.09-16.92,2.42-2.39,4.63-4.99,6.63-7.73,1.14-1.56-1.46-3.06-2.59-1.51-10.31,14.16-26.99,23.16-44.56,23.92-3.93.17-7.89-.03-11.77-.65-1.89-.3-2.7,2.59-.8,2.89h0Z"/>
  </g>
  <g>
    <path class="cls-1" d="M30.87,102.43c1.52-17.89-6.1-35.7-20.13-46.91-2.31-1.85-4.75-3.53-7.32-4.99-1.68-.95-3.19,1.64-1.51,2.59,13.84,7.86,23.53,21.84,25.7,37.66.53,3.85.59,7.77.27,11.65-.16,1.92,2.84,1.91,3,0h0Z"/>
    <path class="cls-1" d="M25.59,109.45C11.46,98.36,2.98,81.24,2.96,63.24c0-3.62.31-7.23.97-10.79.35-1.89-2.54-2.7-2.89-.8-3.49,18.74,1.9,38.35,14.61,52.59,2.38,2.67,5,5.12,7.81,7.33,1.5,1.18,3.64-.93,2.12-2.12h0Z"/>
  </g>
  <g>
    <path class="cls-1" d="M53.43,65.69c6.13-15.04,5.53-32.29-1.72-46.83-1.6-3.2-3.5-6.24-5.67-9.08-1.16-1.51-3.76-.02-2.59,1.51,9.73,12.74,13.45,29.26,9.84,44.92-.68,2.96-1.61,5.86-2.75,8.68-.73,1.79,2.17,2.56,2.89.8h0Z"/>
    <path class="cls-1" d="M46.47,72.69c-9.72-15.49-11.66-34.87-5.18-51.98,1.22-3.22,2.74-6.32,4.51-9.28.99-1.66-1.6-3.17-2.59-1.51-9.69,16.2-11.45,36.48-4.48,54.06,1.41,3.56,3.12,6.99,5.16,10.23,1.02,1.63,3.62.13,2.59-1.51h0Z"/>
  </g>
</svg>