<?xml version="1.0" encoding="UTF-8"?>
<svg id="Calque_1" data-name="Calque 1" xmlns="http://www.w3.org/2000/svg" viewBox="0 0 109.5 160.57">
  <defs>
    <style>
      .cls-1 {
        fill: #6dc3bc;
        stroke-width: 0px;
      }
    </style>
  </defs>
  <path class="cls-1" d="M3.89,44.26c5.48-7.09,10.95-14.19,16.43-21.28.5-.65.09-1.67-.54-2.05-.77-.46-1.56-.1-2.05.54-5.48,7.09-10.95,14.19-16.43,21.28-.5.65-.09,1.67.54,2.05.77.46,1.56.1,2.05-.54h0Z"/>
  <path class="cls-1" d="M17.62,23.07c1.36,1.93,3.14,3.43,4.73,5.16s2.89,3.58,4.16,5.5c2.53,3.82,4.87,7.78,8.03,11.13,1.33,1.41,3.45-.72,2.12-2.12-3.06-3.25-5.29-7.13-7.75-10.82-1.22-1.83-2.51-3.63-3.96-5.28-1.52-1.74-3.39-3.19-4.73-5.08-1.11-1.56-3.71-.07-2.59,1.51h0Z"/>
  <path class="cls-1" d="M35.75,45.78c9.43-.21,18.87-.53,28.31-.58s18.72.87,28.1.95c5.34.05,10.67-.24,15.94-1.11,1.9-.31,1.09-3.2-.8-2.89-9.21,1.52-18.59,1-27.87.52s-18.36-.45-27.57-.24c-5.37.12-10.74.24-16.11.36-1.93.04-1.93,3.04,0,3h0Z"/>
  <path class="cls-1" d="M89.41,22.01c5.85,7.38,11.69,14.77,17.54,22.15.51.64,1.59.52,2.12,0,.63-.62.5-1.49,0-2.12-5.85-7.38-11.69-14.77-17.54-22.15-.51-.64-1.59-.52-2.12,0-.63.62-.5,1.49,0,2.12h0Z"/>
  <path class="cls-1" d="M.66,45.16C.16,74.75-.05,104.35.01,133.94c.02,8.31.06,16.63.12,24.94.01,1.93,3.01,1.93,3,0-.22-29.6-.16-59.2.17-88.79.1-8.31.21-16.63.35-24.94.03-1.93-2.97-1.93-3,0h0Z"/>
  <path class="cls-1" d="M33.95,44.73c.82,29.74,1.64,59.49,2.46,89.23.23,8.31.46,16.62.69,24.93.05,1.93,3.05,1.93,3,0-.82-29.74-1.64-59.49-2.46-89.23-.23-8.31-.46-16.62-.69-24.93-.05-1.93-3.05-1.93-3,0h0Z"/>
  <path class="cls-1" d="M2.32,160.57c27.31-.44,54.62-.58,81.92-.4,7.66.05,15.32.12,22.98.22,1.93.02,1.93-2.98,0-3-27.31-.35-54.62-.39-81.92-.12-7.66.08-15.32.18-22.98.3-1.93.03-1.93,3.03,0,3h0Z"/>
  <path class="cls-1" d="M106.42,44.29c-.11,29.6-.22,59.19-.33,88.79-.03,8.31-.06,16.63-.09,24.94,0,1.93,2.99,1.93,3,0,.11-29.6.22-59.19.33-88.79.03-8.31.06-16.63.09-24.94,0-1.93-2.99-1.93-3,0h0Z"/>
  <path class="cls-1" d="M19.34,22.19c17.96-.42,35.92-.85,53.88-1.27,5.16-.12,10.31-.24,15.47-.37,1.93-.05,1.93-3.05,0-3-17.96.42-35.92.85-53.88,1.27-5.16.12-10.31.24-15.47.37-1.93.05-1.93,3.05,0,3h0Z"/>
  <path class="cls-1" d="M20.68,19.95c-.26-5.96-.14-11.93.35-17.88.16-1.92-2.84-1.91-3,0-.49,5.95-.61,11.92-.35,17.88.08,1.92,3.08,1.93,3,0h0Z"/>
  <path class="cls-1" d="M19.34,3c17.75.09,35.5.18,53.25.27,5.08.03,10.17.05,15.25.08,1.93,0,1.93-2.99,0-3-17.75-.09-35.5-.18-53.25-.27C29.5.05,24.42.03,19.34,0c-1.93,0-1.93,2.99,0,3h0Z"/>
  <path class="cls-1" d="M87.62,1.46c-.95,6.05,1.24,11.86,1.17,17.89-.02,1.93,2.98,1.93,3,0,.07-5.71-2.17-11.39-1.28-17.09.13-.8-.2-1.61-1.05-1.85-.71-.2-1.72.24-1.85,1.05h0Z"/>
  <path class="cls-1" d="M68.7,82.41c1.93,0,1.93-3,0-3s-1.93,3,0,3h0Z"/>
  <path class="cls-1" d="M81.35,82.38c1.93,0,1.93-3,0-3s-1.93,3,0,3h0Z"/>
  <path class="cls-1" d="M52.67,94.52c6.53,4.05,13.9,7.4,21.72,7.49,6.7.08,13.65-2.35,18.05-7.57,1.24-1.47-.87-3.6-2.12-2.12-4.01,4.75-10.21,6.84-16.31,6.68-7.16-.19-13.85-3.37-19.83-7.08-1.64-1.02-3.15,1.57-1.51,2.59h0Z"/>
</svg>