<?xml version="1.0" encoding="UTF-8"?>
<svg id="Calque_1" data-name="Calque 1" xmlns="http://www.w3.org/2000/svg" viewBox="0 0 210.35 210.35">
  <defs>
    <style>
      .cls-1 {
        fill: #69c3bc;
        stroke-width: 0px;
      }
    </style>
  </defs>
  <g>
    <path class="cls-1" d="M65.34,59.23c-13.06,5.79-21.12,18.33-24.73,31.75-3.33,12.39-3.84,27.18,4.45,37.75,4.96,6.33,13.48,9.82,21.44,8.35,4.01-.74,7.52-2.95,10.01-6.17,2.78-3.6,4.14-7.98,5.89-12.12,1.76-4.14,4.12-7.52,7.56-10.44,3.25-2.76,6.89-5.02,10.15-7.77s6.16-6.31,7.6-10.57c1.64-4.87,1.72-10.29,1.69-15.37-.03-3.94-.61-7.56-3.28-10.62-2.06-2.36-4.91-3.81-7.77-4.96-7.83-3.16-16.71-4.07-24.99-2.4-2.77.56-5.42,1.45-8.01,2.56-1.77.76-.24,3.35,1.51,2.59,8.4-3.61,17.87-3.78,26.59-1.27,5.41,1.56,11.78,4.19,12.73,10.45.32,2.08.23,4.22.18,6.32-.06,2.45-.13,4.92-.48,7.35-.64,4.42-2.33,8.34-5.46,11.56-5.51,5.66-13.14,8.92-17.71,15.56-4.52,6.57-5.09,16.62-12.59,20.86-6.35,3.58-14.9,1.51-20.18-3.09-6.33-5.51-8.56-14.27-8.54-22.37,0-1.78.11-3.57.28-5.34.07-.75.16-1.49.25-2.24.01-.11.03-.22.04-.33-.05.38,0,.05.02-.13.24-1.63.54-3.25.9-4.86,2.65-11.7,8.62-23.26,19.01-29.83,1.59-1,3.25-1.88,4.97-2.64s.24-3.37-1.51-2.59Z"/>
    <path class="cls-1" d="M99.92,75.61c.27,7.12-3.71,13.99-10.01,17.32-1.71.9-.19,3.49,1.51,2.59,7.19-3.79,11.81-11.79,11.5-19.91-.07-1.92-3.07-1.93-3,0h0Z"/>
  </g>
  <g>
    <path class="cls-1" d="M88.52,123.62c-7.44,14.76-4.28,31.98,3.59,45.88,6.71,11.85,18.65,23.77,33.49,21.16,7.16-1.26,14.2-6.12,16.26-13.35,2.69-9.44-4.42-18.11-3.76-27.52.66-9.39,6.11-18.35,2.97-27.86-1.51-4.59-4.44-8.48-7.38-12.24-2.39-3.06-4.92-6.23-8.74-7.48-5.43-1.77-11.53.44-16.48,2.72-6.49,3-12.27,7.52-16.56,13.25-1.28,1.71-2.41,3.53-3.39,5.43-.89,1.71,1.7,3.23,2.59,1.51,5.27-10.17,15.69-18.19,27.03-20.31,3.54-.66,6.97.04,9.59,2.55,3.13,2.99,5.89,6.78,8.12,10.47,2.37,3.92,3.52,8.05,3.11,12.63-.39,4.47-1.91,8.77-2.9,13.13s-1.38,8.77-.44,13.21,2.74,8.41,3.53,12.77c.67,3.74.18,7.46-1.94,10.65-1.85,2.78-4.69,4.86-7.74,6.16-7.01,2.99-14.65,1.49-20.9-2.56-5.38-3.49-9.47-8.63-12.81-14.04-6.85-11.1-10.81-25.19-7.23-38.06.64-2.29,1.5-4.49,2.57-6.61.87-1.72-1.72-3.24-2.59-1.51Z"/>
    <path class="cls-1" d="M125.65,114.75c4.72,5.36,5.83,13.22,3.07,19.76-.32.75.34,1.64,1.05,1.85.86.25,1.53-.31,1.85-1.05,3.18-7.54,1.53-16.58-3.85-22.68-1.28-1.45-3.39.68-2.12,2.12h0Z"/>
  </g>
  <g>
    <path class="cls-1" d="M171.54,59.74c-2.09-14.24-12.15-25.42-24.22-32.49-4.05-2.37-8.37-4.31-12.84-5.75-9.17-2.96-20.22-3.51-28.49,2.24-6.51,4.54-10.95,12.68-9.55,20.71,1.59,9.15,10.75,12.8,16.59,18.83,6.23,6.44,6.87,16.07,11.8,23.31,2.7,3.98,6.53,6.61,10.93,8.44,2.28.95,4.63,1.69,6.99,2.4,2.22.67,4.48,1.31,6.8,1.53,6.65.62,11.45-4.47,14.84-9.52,4.4-6.56,7.16-14.31,7.54-22.22.12-2.51-.04-5-.38-7.48-.11-.81-1.14-1.23-1.85-1.05-.87.23-1.16,1.05-1.05,1.85,1.11,8.13-.71,16.42-4.58,23.61-2.45,4.55-6.07,10.32-11.43,11.65-3.61.9-7.67-.78-11.06-1.85-4.31-1.36-8.74-3.01-12-6.25-5.86-5.83-6.8-14.78-10.83-21.73-2.09-3.61-5.05-6.34-8.32-8.87-3.2-2.47-6.74-4.84-9.02-8.26-4.28-6.43-1.84-14.73,3.19-19.98,6.45-6.73,16.57-7.58,25.22-5.54,2.06.49,4.08,1.11,6.06,1.84.83.31,1.66.63,2.48.97.15.06.97.41.44.18.13.05.26.11.38.17,1.48.65,2.94,1.35,4.36,2.11,10.65,5.68,20.28,14.57,23.87,26.41.55,1.82.95,3.67,1.22,5.55s3.17,1.09,2.89-.8Z"/>
    <path class="cls-1" d="M146.48,88.67c-6.94-1.64-12.5-7.34-14-14.31-.41-1.89-3.3-1.09-2.89.8,1.7,7.93,8.2,14.54,16.09,16.4,1.88.44,2.68-2.45.8-2.89h0Z"/>
  </g>
</svg>