<?xml version="1.0" encoding="UTF-8"?>
<svg id="Calque_1" data-name="Calque 1" xmlns="http://www.w3.org/2000/svg" viewBox="0 0 210.35 210.35">
  <defs>
    <style>
      .cls-1 {
        fill: #69c3bc;
        stroke-width: 0px;
      }
    </style>
  </defs>
  <path class="cls-1" d="M84.66,65.06c-3.61,5.13-7.26,10.24-10.84,15.38-3.27,4.69-6.12,9.56-7.51,15.16s-1.53,11.33-1.32,17.02c.22,6.02.72,12.02,1.04,18.03.66,12.61,1.04,25.23,1.13,37.85.04,6.04-.12,12.09-.05,18.13.05,4.22.46,8.94,3.05,12.45,3.26,4.43,8.74,4.5,13.75,4.98,5.93.57,11.88,1.03,17.85,1.14,11.18.21,23.11-.65,33.52-5.06,4.29-1.82,8.33-4.66,10-9.18.99-2.7,1.09-5.74,1.29-8.58.22-3.1.32-6.21.34-9.32.09-12.56-1.11-25.08-1.48-37.62-.18-6.2-.01-12.38.15-18.58s.15-11.92-.77-17.81c-1.72-11.02-7.36-20.72-13.72-29.69-1.59-2.24-3.22-4.44-4.85-6.64-1.14-1.53-3.74-.04-2.59,1.51,6.26,8.44,12.73,17.11,16.18,27.14,3.75,10.92,2.73,22.45,2.52,33.78-.22,12.06.83,24.08,1.32,36.11.24,5.89.34,11.79.08,17.68-.23,5.16.03,11.22-4.04,15.02-3.49,3.25-8.51,4.67-13.02,5.81-5.44,1.37-11.02,2.07-16.62,2.33s-11.44.09-17.14-.29c-2.78-.19-5.56-.42-8.34-.68s-5.46-.3-8.03-1.05c-4.31-1.26-5.83-5.56-6.26-9.64-.55-5.18-.14-10.51-.14-15.71,0-12.13-.26-24.25-.78-36.37-.26-6.04-.59-12.08-.98-18.11-.36-5.53-.73-11.08-.33-16.61s1.68-10.63,4.3-15.39c2.79-5.07,6.41-9.71,9.74-14.43,1.71-2.42,3.41-4.84,5.12-7.26,1.11-1.58-1.49-3.08-2.59-1.51h0Z"/>
  <path class="cls-1" d="M83.87,65.14c13.92,3.06,28.49,2.53,42.14-1.6,1.84-.56,1.06-3.45-.8-2.89-13.13,3.97-27.14,4.55-40.55,1.6-1.88-.41-2.69,2.48-.8,2.89h0Z"/>
  <path class="cls-1" d="M83.17,42.08c-.15,7.24-.3,14.48-.45,21.73-.04,1.93,2.96,1.93,3,0,.15-7.24.3-14.48.45-21.73.04-1.93-2.96-1.93-3,0h0Z"/>
  <path class="cls-1" d="M85.3,43.4c13.08.38,26.16-.61,39.03-2.92l-1.9-1.45c.2,7.74.89,15.46,2.02,23.12.28,1.9,3.17,1.09,2.89-.8-1.09-7.4-1.72-14.85-1.91-22.33-.03-1.04-.93-1.62-1.9-1.45-12.61,2.26-25.43,3.19-38.23,2.82-1.93-.06-1.93,2.94,0,3h0Z"/>
  <path class="cls-1" d="M98.4,40.7c.67-6.39,1.44-12.78,2.5-19.12.61-3.65,1.12-7.55,2.51-11.01.05-.13.02-.04.16-.34.04-.09.1-.18.15-.27.14-.24-.02-.14-.04.02.02-.23.23-.1-.02-.01.44-.17.91-.32,1.38-.35,1.93-.09,2.54.84,3.27,2.45,1.65,3.62,2.31,7.78,2.97,11.67.89,5.24,1.6,10.51,2.51,15.75.33,1.9,3.22,1.09,2.89-.8-.89-5.12-1.59-10.26-2.45-15.38-.73-4.41-1.5-9.14-3.53-13.17-.94-1.87-2.23-3.04-4.35-3.4-1.75-.3-4.08-.04-5.14,1.54-.68,1.01-1.03,2.29-1.36,3.46-.59,2.1-1.01,4.25-1.41,6.4-1.37,7.46-2.27,15.01-3.06,22.54-.2,1.92,2.8,1.9,3,0h0Z"/>
  <path class="cls-1" d="M74.32,108.65c.35,13.03.7,26.07.99,39.1.13,5.59.3,11.18.25,16.77-.03,3.41,3,4.66,5.92,4.65,2.67-.01,5.34-.2,7.99-.37,7.97-.51,15.93-1.18,23.89-1.87,6.17-.53,12.34-1.09,18.51-1.66,1.91-.18,1.92-3.18,0-3-12.91,1.21-25.84,2.37-38.77,3.29-3.07.22-6.15.43-9.23.55-.98.04-1.96.08-2.95.06-.29,0-.58-.02-.87-.04-.33-.02.38.11.11.01-.54-.18-1.01-.32-1.42-.74-.24-.25,0-.01.02.05-.15-.31-.18-.4-.21-.7-.02-.18.02-.36.02-.54,0-.26.01-.51.01-.77,0-.92,0-1.85-.02-2.77-.04-3.42-.12-6.84-.2-10.26-.31-13.93-.68-27.85-1.06-41.77-.05-1.93-3.05-1.93-3,0h0Z"/>
  <path class="cls-1" d="M75.9,109.92c17.59,4.8,36.38,4.62,53.88-.52,1.85-.54,1.06-3.44-.8-2.89-16.99,4.99-35.19,5.18-52.28.52-1.87-.51-2.66,2.38-.8,2.89h0Z"/>
  <path class="cls-1" d="M127.8,107.96c-.26,18.65.69,37.31,2.83,55.85.22,1.9,3.22,1.92,3,0-2.14-18.53-3.08-37.19-2.83-55.85.03-1.93-2.97-1.93-3,0h0Z"/>
  <path class="cls-1" d="M96.61,131.59c1.93,0,1.93-3,0-3s-1.93,3,0,3h0Z"/>
  <path class="cls-1" d="M103.58,131.35c1.93,0,1.93-3,0-3s-1.93,3,0,3h0Z"/>
  <path class="cls-1" d="M87.26,141.08c2.88,1.28,5.26,3.34,8.31,4.28s6.22.99,9.24.25c5.59-1.37,10.04-5.69,11.96-11.05.65-1.82-2.24-2.6-2.89-.8-1.63,4.54-5.56,8.02-10.27,9.05-2.53.55-5.19.36-7.63-.47-2.61-.88-4.7-2.74-7.2-3.85-1.75-.78-3.28,1.81-1.51,2.59h0Z"/>
</svg>