<?xml version="1.0" encoding="UTF-8"?>
<svg id="Calque_1" data-name="Calque 1" xmlns="http://www.w3.org/2000/svg" viewBox="0 0 210.35 197.36">
  <defs>
    <style>
      .cls-1 {
        fill: #69c3bc;
        stroke-width: 0px;
      }
    </style>
  </defs>
  <path class="cls-1" d="M64.16,38.47c-2.28,1.83-5.68,2.9-8.57,3.82-5.47,1.74-11.05,3.21-16.6,4.68-6.37,1.68-13.06,2.73-19.17,5.28C10.13,56.29,1.33,63.83.15,74.84c-1.38,12.86,7.27,23.95,12.91,34.68,2.85,5.42,5.34,11.35,5.33,17.58s-3.16,11.78-5.13,17.61c-3.55,10.5-1.39,22.65,6.1,30.93,7.63,8.44,19.61,11.66,30.67,11.03,6.49-.37,12.86-1.89,19.01-3.97s12.16-5.19,18.52-6.89c3.1-.83,6.27-1.15,9.46-.76s6.34,1.4,9.35,2.54c5.95,2.24,11.72,4.97,17.52,7.57,11.12,5,22.5,9.95,34.68,11.59,6,.81,12.45,1.03,18.31-.69s10.16-5.75,13.55-10.7c6.8-9.92,10.6-21.7,13.05-33.38,2.58-12.3,3.98-24.89,5.44-37.36,1.54-13.15,2.46-26.74-.75-39.73-2.47-9.99-7.6-19.69-15.35-26.57-3.89-3.45-8.43-6.14-13.4-7.71-6.08-1.92-12.51-2.12-18.77-3.06s-11.54-2.75-16.62-6.11c-4.77-3.16-8.88-7.25-12.5-11.66-3.2-3.89-6.03-8.08-9.18-12.02-1.6-1.99-3.36-3.74-5.63-4.94-8.31-4.41-18.29-3.22-26.62.52-4.57,2.05-8.84,5.02-12.16,8.78-3.67,4.16-5.47,8.98-6.84,14.27-.53,2.04-1.07,4.11-2.01,6.01-1.18,2.4-2.89,4.36-4.94,6.06-1.49,1.23.65,3.35,2.12,2.12,3.99-3.31,6.16-7.53,7.48-12.46s2.62-9.57,6-13.52c6.24-7.29,16.24-11.85,25.85-11.62,3.68.09,7.32,1,10.47,2.92,1.95,1.19,3.57,3.18,5.07,5.14,3.18,4.15,6.16,8.46,9.58,12.41,3.68,4.25,7.87,8.12,12.64,11.12s10.33,4.91,16.06,5.8c6.12.95,12.38,1.15,18.36,2.86,9.84,2.83,17.46,10.31,22.33,19.11,5.6,10.12,7.33,21.66,7.23,33.1-.12,12.91-2.12,25.84-3.87,38.61-1.61,11.73-3.63,23.53-7.85,34.64-2.08,5.48-4.72,10.85-8.11,15.64-1.61,2.28-3.51,4.48-5.79,6.11-2.44,1.74-5.23,2.76-8.17,3.31-5.78,1.08-11.99.58-17.74-.49s-11.74-2.98-17.38-5.17c-11.27-4.37-21.96-10.32-33.42-14.2-6.09-2.06-12.21-2.65-18.46-.94s-11.86,4.62-17.86,6.68c-11.21,3.84-23.46,5.89-34.91,1.85-5.13-1.81-9.88-4.89-13.29-9.17s-5.27-9.26-5.78-14.45c-.56-5.66.74-10.83,2.83-16.05,2.26-5.63,4.34-11.11,3.73-17.29-1.22-12.36-9.64-22.12-14.65-33.05-2.5-5.46-4.39-11.71-3.31-17.76.95-5.27,4.01-9.68,8.06-13.08,5.25-4.41,11.58-6.66,18.13-8.23,4.55-1.09,9.09-2.22,13.6-3.45,5.1-1.39,10.24-2.71,15.24-4.43,2.8-.97,5.6-2.07,7.93-3.94,1.51-1.21-.63-3.32-2.12-2.12Z"/>
  <path class="cls-1" d="M151.31,95.25c-.59-2.56-1.49-5.02-2.6-7.4-6.72-13.92-21.96-22.62-37.26-22.55-7.95.04-15.99,2.23-22.52,6.86-5.55,3.94-9.79,9.41-12.62,15.57-3.25,7.07-5.11,14.97-4.56,22.77.67,9.46,4.85,18.08,12.41,23.89,7.73,5.93,17.5,8.19,27.1,8.43,9,.24,18.85-.7,26.71-5.46,7.44-4.5,11.68-12.32,13.19-20.7,1.26-7,1.76-14.43.15-21.41ZM115.54,96.18c.66-.5,1.61-.36,2.11.29.24.32.34.72.29,1.11-.06.4-.26.75-.58,1-.27.2-.58.3-.91.3-.07,0-.13,0-.2-.01-.4-.06-.75-.26-1-.58-.49-.66-.36-1.61.29-2.11ZM108.54,96.18c.66-.5,1.61-.36,2.11.29.2.27.3.59.3.9,0,.46-.21.91-.59,1.21-.27.2-.59.3-.91.3-.45,0-.9-.21-1.2-.59-.49-.66-.36-1.61.29-2.11ZM133.75,104.14c-1.45,3.38-3.71,6.42-6.58,8.73-5.18,4.16-11.89,5.88-18.43,4.65-6.6-1.24-12.33-5.55-15.59-11.38-.94-1.69,1.66-3.2,2.6-1.52,3.74,6.72,10.99,10.8,18.7,10.26,7.45-.52,13.81-5.47,16.7-12.26.76-1.77,3.34-.24,2.6,1.52Z"/>
</svg>