<?xml version="1.0" encoding="UTF-8"?>
<svg id="Calque_1" data-name="Calque 1" xmlns="http://www.w3.org/2000/svg" viewBox="0 0 210.35 210.35">
  <defs>
    <style>
      .cls-1 {
        fill: #69c3bc;
        stroke-width: 0px;
      }
    </style>
  </defs>
  <path class="cls-1" d="M21.66,167.87c-2.4-3.67-2.87-7.85-2.58-12.14.32-4.79,1.1-9.75,2.43-14.36,2.18-7.53,6.33-14.02,10.18-20.77,2.26-3.95,4.91-7.63,9.2-9.52,3.8-1.68,8.08-1.99,12.16-2.43s8.38-.97,12.25-2.7c3.36-1.51,6.04-4.02,8.19-6.97,4.17-5.71,6.15-12.69,10.21-18.47,2.02-2.88,4.7-5.27,8.06-6.44,4.25-1.48,8.82-1.38,13.24-1.89s8.41-1.57,11.82-4.37c2.93-2.4,4.95-5.72,6.64-9.06s3.21-7.03,5.2-10.34c2.13-3.54,5-6.43,8.54-8.57,7.26-4.38,16.21-5.86,24.55-6.49,7.73-.58,16.85-.27,23.1,4.95,6.82,5.7,7.33,14.89,5.69,23.03s-4.94,16.51-9.07,23.84c-3.9,6.92-9.3,13.53-16.86,16.59-4.14,1.67-8.62,2.03-12.99,2.69s-8.88,1.88-12.58,4.74c-3.23,2.5-5.43,5.75-6.99,9.49-1.45,3.47-2.45,7.11-4.37,10.36-2.26,3.85-5.77,7.23-9.9,9.01-3.38,1.45-7.04,1.53-10.65,1.71-3.94.2-7.76.75-11.39,2.36-4.17,1.85-7.93,4.86-10.76,8.44-2.32,2.94-3.99,6.23-5.54,9.63-1.41,3.1-2.79,6.31-4.94,8.98-2.59,3.22-6.2,5.49-10.13,6.73-4.47,1.41-9.16,1.36-13.8,1.24-6.99-.18-14.29-.31-20.85-3.03-3.19-1.32-6.1-3.37-8.06-6.24-1.08-1.58-3.69-.08-2.59,1.51,4.5,6.56,12.25,9.05,19.8,10.03,3.39.44,6.81.58,10.23.67,4.84.14,9.77.31,14.51-.87,4.27-1.06,8.39-3.18,11.52-6.3,2.58-2.56,4.34-5.73,5.87-8.99s3.01-6.8,5.11-9.89c2.6-3.82,6.24-6.99,10.41-9,7.26-3.5,15.62-1.17,22.92-4.47,4.29-1.94,7.97-5.44,10.46-9.4,2.11-3.36,3.23-7.15,4.68-10.81,1.56-3.94,3.92-7.34,7.51-9.69,3.96-2.6,8.77-3.13,13.35-3.76s8.84-1.47,12.88-3.6c3.63-1.91,6.82-4.62,9.5-7.7,5.64-6.46,9.35-14.38,12.32-22.35s5.6-17.57,3.43-26.31c-4.74-19.09-28.21-18.12-43.38-15.01-8.53,1.75-17.06,5.23-22.42,12.4-4.74,6.34-6.28,14.93-12.1,20.48-6.86,6.54-17.26,3.37-25.44,6.62-7.25,2.88-10.81,9.8-14.02,16.44s-6.61,13.64-14.11,16.1c-8.12,2.66-17.5.93-24.95,5.7-4.02,2.57-6.45,6.62-8.77,10.66-1.77,3.1-3.68,6.12-5.33,9.29-2.13,4.13-3.9,8.47-4.99,12.99s-1.94,9.8-2.07,14.67c-.11,4.26.7,8.48,3.06,12.08,1.05,1.61,3.65.11,2.59-1.51Z"/>
  <g>
    <path class="cls-1" d="M40.68,157.08c-1.79-1.7-5.32-5.04-6.14-10.35-1.02-6.61,2.79-11.9,5.76-15.77,2.85-3.7,6.17-7.37,10.62-8.79,4.08-1.3,8.64-.47,12.37,1.63,3.72,2.1,6.67,5.39,8.98,8.99,1.14,1.77,2.14,3.66,2.67,5.69,1.62,6.29-1.6,11.89-2.64,13.72-1.24,2.2-5.53,9.81-14.33,11.23-9.05,1.46-15.66-4.81-17.3-6.36Z"/>
    <path class="cls-1" d="M41.74,156.02c-2.57-2.43-4.76-5.16-5.56-8.69-1.03-4.53.72-8.87,3.22-12.59s5.24-7.33,8.9-9.66c4.13-2.63,9.19-2.55,13.51-.37s7.3,5.7,9.65,9.61c1.37,2.27,2.36,4.7,2.43,7.38.05,2.13-.4,4.22-1.15,6.21-1.89,5.03-5.51,10-10.32,12.51-7.22,3.77-15.14.84-20.67-4.4-1.4-1.33-3.53.79-2.12,2.12,5.71,5.41,13.6,8.69,21.43,6.09,6.5-2.16,11.16-7.78,13.9-13.87,2.12-4.72,2.67-9.91.56-14.75s-5.75-9.32-10.09-12.25-10.18-4.3-15.26-2.5-8.45,5.8-11.53,9.87c-3.32,4.38-6.21,9.46-5.68,15.16.46,4.96,3.16,8.92,6.68,12.26,1.4,1.33,3.53-.79,2.12-2.12Z"/>
  </g>
  <g>
    <path class="cls-1" d="M89.35,118.83c-1.79-1.7-5.32-5.04-6.14-10.35-1.02-6.61,2.79-11.9,5.76-15.77,2.85-3.7,6.17-7.37,10.62-8.79,4.08-1.3,8.64-.47,12.37,1.63,3.72,2.1,6.67,5.39,8.98,8.99,1.14,1.77,2.14,3.66,2.67,5.69,1.62,6.29-1.6,11.89-2.64,13.72-1.24,2.2-5.53,9.81-14.33,11.23-9.05,1.46-15.66-4.81-17.3-6.36Z"/>
    <path class="cls-1" d="M90.41,117.77c-2.57-2.43-4.76-5.16-5.56-8.69-1.03-4.53.72-8.87,3.22-12.59s5.24-7.33,8.9-9.66c4.13-2.63,9.19-2.55,13.51-.37s7.3,5.7,9.65,9.61c1.37,2.27,2.36,4.7,2.43,7.38.05,2.13-.4,4.22-1.15,6.21-1.89,5.03-5.51,10-10.32,12.51-7.22,3.77-15.14.84-20.67-4.4-1.4-1.33-3.53.79-2.12,2.12,5.71,5.41,13.6,8.69,21.43,6.09,6.5-2.16,11.16-7.78,13.9-13.87,2.12-4.72,2.67-9.91.56-14.75s-5.75-9.32-10.09-12.25-10.18-4.3-15.26-2.5-8.45,5.8-11.53,9.87c-3.32,4.38-6.21,9.46-5.68,15.16.46,4.96,3.16,8.92,6.68,12.26,1.4,1.33,3.53-.79,2.12-2.12Z"/>
  </g>
  <g>
    <path class="cls-1" d="M143.23,80.71c-1.79-1.7-5.32-5.04-6.14-10.35-1.02-6.61,2.79-11.9,5.76-15.77,2.85-3.7,6.17-7.37,10.62-8.79,4.08-1.3,8.64-.47,12.37,1.63,3.72,2.1,6.67,5.39,8.98,8.99,1.14,1.77,2.14,3.66,2.67,5.69,1.62,6.29-1.6,11.89-2.64,13.72-1.24,2.2-5.53,9.81-14.33,11.23-9.05,1.46-15.66-4.81-17.3-6.36Z"/>
    <path class="cls-1" d="M144.29,79.65c-2.57-2.43-4.76-5.16-5.56-8.69-1.03-4.53.72-8.87,3.22-12.59s5.24-7.33,8.9-9.66c4.13-2.63,9.19-2.55,13.51-.37s7.3,5.7,9.65,9.61c1.37,2.27,2.36,4.7,2.43,7.38.05,2.13-.4,4.22-1.15,6.21-1.89,5.03-5.51,10-10.32,12.51-7.22,3.77-15.14.84-20.67-4.4-1.4-1.33-3.53.79-2.12,2.12,5.71,5.41,13.6,8.69,21.43,6.09,6.5-2.16,11.16-7.78,13.9-13.87,2.12-4.72,2.67-9.91.56-14.75s-5.75-9.32-10.09-12.25-10.18-4.3-15.26-2.5-8.45,5.8-11.53,9.87c-3.32,4.38-6.21,9.46-5.68,15.16.46,4.96,3.16,8.92,6.68,12.26,1.4,1.33,3.53-.79,2.12-2.12Z"/>
  </g>
</svg>