<?xml version="1.0" encoding="UTF-8"?>
<svg id="Calque_1" data-name="Calque 1" xmlns="http://www.w3.org/2000/svg" viewBox="0 0 210.35 210.35">
  <defs>
    <style>
      .cls-1 {
        fill: #69c3bc;
        stroke-width: 0px;
      }
    </style>
  </defs>
  <g>
    <path class="cls-1" d="M87.48,78.76c-.05-2.61-.78-26.71-15.52-33.52-4.61-2.13-13.02-3.69-16.1.17-2.7,3.38-.15,9.47.77,11.67,6.08,14.52,24.06,19.97,30.86,21.68Z"/>
    <path class="cls-1" d="M88.98,78.76c-.09-4.93-.81-9.93-2.06-14.7-1.92-7.27-5.46-14.71-11.98-18.89-5.6-3.59-20.28-7.12-21.68,2.78-.58,4.15,1.27,8.72,3.23,12.3,2.13,3.89,5.19,7.2,8.68,9.91,6.4,4.96,14.11,8.08,21.91,10.05,1.87.47,2.67-2.42.8-2.89-13.21-3.34-27.65-10.59-31.3-24.88-.47-1.83-.86-4.21.29-5.88.93-1.35,2.67-1.83,4.22-1.96,3.82-.32,8.04.72,11.37,2.58,6.08,3.4,9.39,10.08,11.25,16.54,1.4,4.87,2.17,9.97,2.27,15.04.04,1.93,3.04,1.93,3,0Z"/>
  </g>
  <g>
    <path class="cls-1" d="M144.45,173.5c1.69-1.99,17.07-20.55,10.51-35.41-2.05-4.64-7.32-11.38-12.19-10.52-4.26.75-6.37,7-7.14,9.26-5.04,14.92,4.85,30.9,8.81,36.67Z"/>
    <path class="cls-1" d="M145.51,174.56c3.36-3.95,6.26-8.38,8.52-13.05,3.37-6.97,5.61-15.35,2.76-22.9-2.21-5.85-10.03-16.68-17.26-11.17-2.74,2.09-4.16,5.5-5.24,8.67-1.51,4.43-1.87,9.14-1.28,13.78,1.13,8.82,5.15,17.09,10.13,24.37,1.08,1.58,3.69.08,2.59-1.51-7.77-11.33-14.33-27.33-6.56-40.35.75-1.26,1.76-2.61,3.18-3.16s3.02,0,4.29.8c3.1,1.94,5.49,5.38,6.95,8.68,2.89,6.53,1.14,14.08-1.7,20.31-2.2,4.82-5.18,9.49-8.51,13.42-1.24,1.46.87,3.6,2.12,2.12Z"/>
  </g>
  <g>
    <path class="cls-1" d="M121.29,109.31c-2.12-1.54-21.8-15.44-36.11-7.76-4.47,2.4-10.78,8.18-9.55,12.96,1.08,4.19,7.47,5.82,9.78,6.4,15.26,3.88,30.43-7.21,35.88-11.61Z"/>
    <path class="cls-1" d="M122.05,108.02c-4.21-3.05-8.87-5.54-13.7-7.43-7.28-2.85-15.71-4.21-23.04-.78-5.81,2.72-15.85,11.75-9.19,18.36,2.33,2.31,5.7,3.4,8.81,4.18,4.69,1.18,9.54,1.09,14.25.07,8.59-1.86,16.39-6.59,23.17-12.04,1.5-1.21-.63-3.32-2.12-2.12-5.26,4.24-11.18,7.92-17.6,10.09-7.05,2.38-15.3,2.83-22.08-.7-1.26-.66-2.6-1.52-3.23-2.85-.69-1.44-.23-3.05.49-4.38,1.75-3.23,4.93-5.85,8.13-7.56,6.35-3.41,13.98-2.16,20.45.19,5.01,1.82,9.83,4.44,14.15,7.57,1.57,1.13,3.07-1.47,1.51-2.59Z"/>
  </g>
  <g>
    <path class="cls-1" d="M58.99,90.32c-2.38,1.09-24.18,11.36-24.55,27.6-.11,5.07,1.8,13.41,6.57,14.7,4.18,1.13,8.74-3.64,10.39-5.36,10.9-11.37,8.72-30.03,7.58-36.94Z"/>
    <path class="cls-1" d="M58.23,89.03c-4.53,2.07-8.8,4.76-12.7,7.84-5.88,4.65-11.29,10.95-12.38,18.61-.57,4.04,0,8.42,1.52,12.2s4.35,7.16,8.75,6.52c4.03-.59,7.47-3.96,10.01-6.94,3.03-3.54,5.11-7.77,6.36-12.25,2.26-8.13,2-16.82.64-25.08-.31-1.9-3.2-1.09-2.89.8,1.04,6.32,1.36,12.91.3,19.24-1.29,7.74-5,15.72-11.86,20.03-1.5.94-3.42,1.78-5.15.97-1.45-.68-2.37-2.2-3.03-3.59-1.54-3.24-2.12-7.22-1.77-10.77.67-6.89,5.57-12.59,10.68-16.84,3.93-3.26,8.4-6.02,13.04-8.15,1.75-.8.23-3.39-1.51-2.59Z"/>
  </g>
  <g>
    <path class="cls-1" d="M145.39,106.91c2.56-.55,26.05-5.94,29.87-21.73,1.19-4.93,1.1-13.48-3.29-15.76-3.84-1.99-9.32,1.69-11.3,3.01-13.07,8.78-14.93,27.48-15.29,34.47Z"/>
    <path class="cls-1" d="M145.79,108.36c4.82-1.05,9.56-2.74,14-4.89,6.79-3.3,13.31-8.23,16.16-15.46,2.38-6.05,3.05-20.54-6.43-20.66-4.21-.05-8.38,2.71-11.55,5.24-3.52,2.8-6.29,6.49-8.32,10.48-3.75,7.35-5.33,15.67-5.75,23.85-.1,1.93,2.9,1.92,3,0,.71-13.61,5.22-29.93,19.01-35.73,1.71-.72,3.96-1.36,5.65-.28,1.34.86,1.98,2.49,2.36,3.97.92,3.6.67,7.75-.48,11.28-2.15,6.62-8.15,11.13-14.1,14.19-4.5,2.32-9.39,4.05-14.34,5.12-1.89.41-1.09,3.3.8,2.89Z"/>
  </g>
  <g>
    <path class="cls-1" d="M107.03,59.8c2.5.75,25.68,7.39,36.65-4.58,3.43-3.74,7.48-11.27,4.74-15.39-2.4-3.6-8.97-3.03-11.35-2.82-15.69,1.37-26.35,16.84-30.05,22.79Z"/>
    <path class="cls-1" d="M106.64,61.25c4.97,1.49,10.22,2.34,15.41,2.53,7.78.29,16.31-1.15,22.07-6.83,5.09-5.02,11.45-17.9,1.1-20.98-3.55-1.06-7.71-.72-11.3,0-4.31.85-8.38,2.77-11.98,5.26-6.65,4.61-11.94,10.99-16.19,17.82-1.02,1.64,1.57,3.15,2.59,1.51,7.1-11.4,17.98-22.48,32.36-22.2,3.28.06,7.2.94,7.14,4.94s-2.58,7.96-5.1,10.76c-4.9,5.43-12.53,6.86-19.54,6.76-5.31-.08-10.67-.93-15.76-2.45-1.85-.55-2.65,2.34-.8,2.89Z"/>
  </g>
  <g>
    <path class="cls-1" d="M79.35,172.48c2.6-.23,26.59-2.65,32.35-17.84,1.8-4.74,2.77-13.24-1.3-16.05-3.56-2.46-9.46.51-11.58,1.58-14.06,7.09-18.24,25.41-19.47,32.3Z"/>
    <path class="cls-1" d="M79.35,173.98c4.92-.44,9.85-1.47,14.53-3.06,7.1-2.41,14.35-6.42,18.06-13.23,3.16-5.79,5.78-20.35-3.91-21.48-4.22-.49-8.84,1.78-12.3,4-3.76,2.41-6.86,5.69-9.35,9.37-4.51,6.68-7.06,14.61-8.48,22.49-.34,1.89,2.55,2.7,2.89.8,2.4-13.4,8.62-28.56,22.7-33.09,1.8-.58,4.14-1.13,5.87-.08,1.44.88,2,2.65,2.24,4.22.56,3.65-.19,7.91-1.76,11.24-2.95,6.27-9.25,10.09-15.54,12.4-3.17,1.17-6.46,2.03-9.78,2.65-2,.37-3.27.57-5.18.74s-1.93,3.17,0,3Z"/>
  </g>
</svg>