<?xml version="1.0" encoding="UTF-8"?>
<svg id="Calque_1" data-name="Calque 1" xmlns="http://www.w3.org/2000/svg" viewBox="0 0 818.35 351.34">
  <defs>
    <style>
      .cls-1 {
        fill: #ff8300;
        stroke-width: 0px;
      }
    </style>
  </defs>
  <path class="cls-1" d="M683.86,260.51c4.08,0,7.69-.42,11.18.08,10.01,1.43,20.05.76,30.08.89,3.03.04,6.04.91,9.08,1.13,5.67.41,10.33,2.79,14.5,6.55,4.51,4.07,3.69,11.1-1.84,13.72-4.49,2.13-8.97,4.27-13.84,5.53-6.33,1.63-12.56,3.67-18.89,5.29-6.25,1.59-12.57,2.87-18.86,4.29-.59.13-1.17.3-2.38.61,4.2.84,7.41,2.74,11.21,3.07,3.34.3,5.69,2.57,7.19,5.52,1,1.96.52,3.88-.64,5.7-2.02,3.18-4.87,5.24-8.45,6.21-5.71,1.54-11.29,3.59-17.25,4.24-4.41.48-8.76,1.52-13.14,2.32-.34.06-.68.18-1,.3-4.1,1.56-8.4,2.29-12.69,3.12-3.93.76-7.87,1.57-11.67,2.79-4.28,1.37-8.66,2.01-13.06,2.66-1.56.23-3.11.51-4.67.66-1.29.12-2.59.07-3.89.1-1.21.03-2.44-.01-3.64.12-3.73.41-7.48.75-11.17,1.37-3.08.52-6.09,1.41-9.13,2.13-.59.14-1.16.35-1.76.41-6.78.59-13.57.86-20.37,1.18-6,.28-11.97,1.37-17.95,2.11-.87.11-1.73.31-2.6.34-5.85.18-11.7.27-17.55.48-3.4.13-6.8.38-10.19.68-6.96.6-13.91,1.31-20.86,1.9-8.53.72-17.06,1.5-25.6,2-4.88.29-9.79-.11-14.67.13-12.13.6-24.24,1.4-36.37,2.07-4.45.25-8.9.31-13.35.5-3.58.16-7.15.49-10.72.55-5.4.09-10.81.11-16.21-.04-8.11-.23-16.22-.56-24.32-.97-12.39-.63-24.78.28-37.17,0-2.62-.06-5.24-.04-7.86.01-4.45.08-8.9.39-13.34.27-7.84-.2-15.68-.09-23.49-1.33-5.4-.86-10.95-.88-16.44-1.11-3.66-.15-7.34.04-11,0-1.39-.01-2.78-.28-4.17-.3-2-.03-4,.13-5.99.07-2.87-.09-5.75-.16-8.6-.48-7.98-.91-15.94-1.94-23.9-2.92-.52-.06-1.04-.11-1.56-.21-7.71-1.48-15.43-2.96-23.14-4.47-.84-.17-1.65-.5-2.48-.77-1.81-.58-3.6-1.56-5.45-1.67-4.05-.25-7.9-1.38-11.8-2.27-1.85-.42-3.56-1.4-5.38-2-4.47-1.47-8.99-2.8-13.45-4.31-3.47-1.17-6.87-2.54-10.31-3.8-5.48-2.01-10.99-3.93-16.44-6.02-3.66-1.41-7.13-3.36-10.86-4.51-5.96-1.84-11.42-4.77-17.09-7.25-1.91-.84-3.67-2.01-5.46-3.09-3.51-2.1-7.16-4.01-10.44-6.43-4.05-2.99-7.8-6.39-11.64-9.66-3.5-2.98-7.13-5.85-10.38-9.09-3.69-3.68-7.27-7.46-10.53-11.58-5.12-6.47-9.38-13.43-13.27-20.66-2.11-3.92-4.49-7.7-6.48-11.68-3.12-6.24-5.89-12.65-8.14-19.28-.9-2.64-2-5.22-3-7.83-1.81-4.73-3.84-9.38-5.35-14.2-1.28-4.06-1.97-8.32-2.93-12.48-.51-2.21-1.09-4.4-1.53-6.62-.63-3.17-1.22-6.34-1.74-9.53-.63-3.87-1.21-7.75-1.73-11.64-.69-5.19-1.29-10.39-1.96-15.58-.67-5.19-1.38-10.38-2.08-15.57-.09-.69-.35-1.38-.35-2.06.05-8.55-1.42-17.08-.14-25.65.28-1.85-.23-3.82-.38-5.73-.27-3.22-.64-6.42-.78-9.64-.11-2.53-.15-5.09.14-7.59.28-2.49.92-4.96,1.57-7.39.41-1.53,1.61-2.46,3.14-2.88,2.42-.67,4,.35,3.95,2.86-.04,2.43-.64,4.84-.7,7.27-.1,4.09-.4,8.25.17,12.27.73,5.15.84,10.25.67,15.41-.09,2.78.05,5.58.16,8.36.07,1.83.21,3.66.43,5.47.57,4.59,1.23,9.16,1.81,13.75.8,6.32,1.54,12.65,2.35,18.97.59,4.59,1.26,9.17,1.89,13.75,1.48,10.92,3.96,21.63,6.97,32.22.66,2.33,1.84,4.51,2.71,6.78,2.59,6.76,5.23,13.5,7.69,20.31,2.24,6.18,5.19,12.01,8.44,17.69,3.39,5.91,6.82,11.79,10.47,17.54,2.26,3.56,5.48,6.31,8.74,8.97,1.27,1.04,2.54,2.21,3.4,3.58,2.32,3.7,5.34,6.61,8.86,9.14,1.76,1.26,3.22,2.94,4.8,4.44,2.47,2.34,4.95,4.63,7.96,6.35,2.41,1.38,4.48,3.34,6.85,4.79,2.14,1.31,4.5,2.26,6.76,3.38.62.31,1.21.66,1.81,1.01,3.7,2.14,7.36,4.36,11.12,6.41,3.13,1.71,6.36,3.24,9.56,4.84.31.16.63.32.96.41,8.18,2.24,15.64,6.4,23.7,8.98,5.48,1.76,10.9,3.71,16.38,5.46,1.82.58,3.75.81,5.62,1.23.76.17,1.63.22,2.25.62,3.86,2.51,8.34,2.98,12.65,4.01,3.65.87,7.31,1.68,10.96,2.51,1.27.29,2.56.52,3.83.84,3.05.76,6.08,1.55,9.13,2.32.68.17,1.36.51,2.03.48,7.57-.37,15.09,2.31,22.67.34,4.79.19,9.59.29,14.37.62,2.85.2,5.66.97,8.51,1.15,8.64.56,17.16,2,25.72,3.13,4.76.62,9.57.84,14.35,1.24,6.45.53,12.9.78,19.37.39,4.27-.26,8.53-.65,12.81-.75,2.87-.06,5.74.34,8.62.45,4.01.15,8.02.32,12.03.29,4.8-.04,9.6-.28,14.4-.43.79-.03,1.59.03,2.35-.13,5.27-1.06,10.6-.93,15.93-.88,7.42.08,14.85-.16,22.27.07,7.59.24,15.16.98,22.74,1.32,3.38.15,6.8,0,10.18-.23,4.88-.32,9.74-.8,14.61-1.23,5.91-.53,11.82-1.02,17.72-1.63,3.39-.35,6.74-1.03,10.12-1.38,4.51-.47,9.05-.74,13.56-1.15,1.74-.16,3.45-.54,5.19-.67,1.65-.12,3.31-.02,4.96-.07,4.53-.16,9.07-.36,13.6-.54,7.67-.31,15.27-1.57,22.99-1.49,4.52.05,9.06-.46,13.57-.95,2.5-.27,4.93-1.17,7.42-1.5,3.19-.42,6.43-.52,9.64-.8,6.26-.55,12.5-1.23,18.77-1.69,6.18-.46,12.37-.66,18.56-1.1,3.83-.27,7.63-1.05,11.46-1.1,6.98-.09,13.55-2.42,20.39-3.21,4.42-.51,8.84-1.06,13.25-1.59.35-.04.69-.1,1.03-.17,10.25-2.16,20.49-4.34,30.74-6.47,1.45-.3,2.93-.53,4.41-.6,3.01-.15,5.41-1.69,8.49-3.32-1.14-.37-1.73-.69-2.34-.73-3.66-.28-7.31-.58-10.98-.71-7.86-.26-15.72-.38-23.57-.63-7.33-.23-14.65-.53-21.97-.82-2.49-.1-4.6-.73-5.53-3.49-.83-2.47-.25-4.29,2.29-5.12,3.64-1.19,7.32-2.21,11.21-2.48,5.13-.36,10.26-.87,15.35-1.62,8.89-1.31,17.76-2.83,26.62-4.33,2.41-.41,4.75-1.19,7.15-1.6,8.01-1.38,15.98-2.95,23.77-5.27,6.02-1.8,12-3.75,17.99-5.65.57-.18,1.11-.46,1.99-.84-.65-.38-1.02-.71-1.44-.82-6.27-1.7-12.61-2.55-19.16-2.42-5.48.1-10.98-.62-16.47-.83-8.03-.32-16.06-.75-24.09-.69-9.87.07-19.73.56-29.59.92-4.27.16-8.54.43-12.81.69-1.67.1-3.07-.37-4.3-1.52-1.52-1.42-1.89-3.25-.52-4.85,1.05-1.23,2.35-2.48,3.8-3.08,2.39-.99,4.97-1.56,7.51-2.15,2.63-.61,5.3-1.01,7.95-1.56,2.22-.46,4.44-.97,6.63-1.53,9.25-2.38,18.07-5.92,26.73-9.91,2.53-1.17,5.21-2.01,7.79-3.09,2.9-1.22,5.74-2.57,8.63-3.79,6.11-2.59,12.23-5.16,18.37-7.67,2.84-1.16,5.69-2.25,8.09-4.23,2.08-1.71,2.16-3.22-.22-4.44-1.89-.97-4.11-1.36-6.23-1.79-4.07-.82-8.15-.64-12.24.02-2.67.43-5.38.63-8.05,1.05-6.38,1.01-12.75,2.06-19.11,3.16-6.19,1.07-12.38,2.19-18.55,3.36-5.4,1.02-10.78,2.11-16.16,3.19-2.65.53-5.28,1.18-7.95,1.64-4.82.83-9.64,1.66-14.48,2.28-2.41.31-4.65-.3-6.31-2.4-.54-.68-1.48-1.1-2.3-1.51-1.24-.61-1.46-1.22-.51-2.13,2.66-2.58,5.47-4.57,9.43-5.12,3.39-.47,6.78-1.77,9.89-3.28,6.44-3.12,12.75-6.52,19-10,2.27-1.26,4.23-3.07,6.29-4.69,3.92-3.08,7.98-5.93,12.51-8.09,5.52-2.64,10.9-5.56,16.43-8.17,3.39-1.6,7-2.73,10.42-4.27,2.22-1,4.3-2.31,6.4-3.56.53-.31.88-.92,1.71-1.81-3.08-.39-5.53-.31-7.99.27-2.03.48-4.08.89-6.11,1.4-1.69.42-3.34.99-5.02,1.41-2.28.57-4.61.97-6.87,1.62-4.18,1.21-8.32,2.57-12.48,3.85-3,.93-6.01,1.85-9.02,2.75-.67.2-1.36.42-2.04.42-3.12,0-6,1.02-8.9,1.99-5.71,1.91-11.42,3.81-17.15,5.66-1.41.45-2.88.7-4.31,1.06-.84.21-1.74.32-2.51.69-7.32,3.47-15.17,5.21-22.96,7.18-4.01,1.01-8.04,1.57-12.12,2.02-4.18.46-8.11-.67-11.78-1.27-.85-2.17-1.48-4.03-2.3-5.82-.81-1.78-.74-3.37.52-4.89,1.39-1.67,2.64-3.5,4.21-4.98,2.6-2.45,5.39-4.71,8.12-7.01,4.4-3.71,8.83-7.39,13.24-11.09,3.94-3.31,7.89-6.6,11.8-9.95,1.12-.96,2.1-2.1,3.17-3.12,1.32-1.27,2.62-2.56,4-3.75,2.05-1.76,3.36-3.91,3.54-6.23-2.47-1.07-5.1-.9-7.66-.59-6.76.81-13.48,1.84-20.07,3.72-3.42.98-7.03,1.32-10.54,1.97-5.7,1.05-11.09,3.09-16.55,4.97-7.43,2.55-14.89,5.03-22.33,7.55-2.98,1.01-5.97,1.99-8.9,3.12-2.85,1.09-5.61,2.41-8.46,3.52-2.11.82-4.27,1.5-6.43,2.18-4.49,1.42-8.96,2.91-13.5,4.15-3.1.85-6.35,1.16-9.45,1.98-3.45.92-6.82,2.15-10.22,3.24-1.25.4-2.48.87-3.76,1.14-8.28,1.79-16.63,3.09-25.09,3.83-9.38.83-18.75,1.96-28.07,3.37-4.16.63-8.34.79-12.47,1.34-6.24.82-12.51.96-18.76,1.2-3.71.15-7.24,1.04-10.88,1.42-2.6.27-5.2.57-7.8.79-5.66.48-11.31.96-16.97,1.37-2.44.18-4.89.12-7.33.27-3.31.2-6.61.6-9.93.7-5.5.17-11,.16-16.5.22-1.31.01-2.62-.11-3.91,0-3.66.33-7.3.65-10.97.03-1.1-.19-2.27-.07-3.4.04-3.86.37-7.68.18-11.47-.63-5.42-1.16-10.92-1.18-16.43-1.4-6.45-.27-12.92-.53-19.33-1.25-6.05-.68-12.03-2.03-18.06-2.96-4.82-.74-9.66-1.55-14.52-1.87-5.27-.35-10.39-1.39-15.47-2.6-4.24-1.01-8.35-2.51-12.54-3.75-1.42-.42-2.86-.9-4.32-1.01-2.69-.19-5.07-1.14-7.47-2.25-5.23-2.43-10.56-4.64-15.74-7.16-3.05-1.48-5.97-3.27-8.82-5.13-3.72-2.44-7.3-5.1-10.95-7.65-2-1.4-4.05-2.74-6.04-4.14-3.77-2.65-6.58-6.24-9.42-9.78-2-2.5-1.82-7.01.28-9.57,1.74-2.12,3.9-3.55,6.69-4.3,7.41-1.99,14.73-.9,22.1.09,4.34.58,8.62,1.35,12.79,2.72,1.38.46,2.89.55,4.49.43-.53-.33-1.05-.68-1.6-.99-6.68-3.79-13.37-7.57-20.06-11.36-.38-.21-.77-.42-1.1-.7-4.48-3.76-9.24-7.13-14.12-10.35-3.56-2.35-6.91-5.04-10.29-7.67-3.83-2.98-6.57-6.79-7.78-11.5-.84-3.27-.23-6.49,1.88-9.17.67-.86,1.99-1.51,3.09-1.68,4.06-.62,8.14-.93,12.27-.57,3.74.32,7.51.26,11.08,1.66,1.44.56,2.88,1.1,4.56,1.34-.36-.41-.67-.86-1.08-1.21-2.65-2.27-5.44-4.41-7.95-6.83-1.41-1.37-2.62-3.08-3.49-4.85-1.54-3.13-2.86-6.38-4.07-9.65-1.08-2.89-.23-5.67,1.18-8.26.3-.55,1.02-.96,1.64-1.22,2.21-.93,4.49-1.33,6.9-.75,9.67,2.3,19.35,4.59,29.04,6.81,3.22.74,6.56,1.04,9.73,1.93,3.52.99,7,2.23,10.35,3.69,8.88,3.87,17.71,7.87,26.52,11.92,6.27,2.88,12.45,5.95,18.7,8.89,5.16,2.43,10.68,3.76,16.19,5.07.49.12,1.01.09,1.77.16-.65-1.9-2.03-2.74-3.36-3.65-5.33-3.65-10.78-7.14-15.95-11.01-4.68-3.49-9.09-7.34-13.53-11.14-1.45-1.24-2.62-2.8-3.88-4.24-2.29-2.63-4.53-5.3-6.81-7.95-3.62-4.21-3.06-8.07.95-11.84,3.56-3.35,7.6-4.38,12.21-4.23,6.49.21,12.87,1.25,19.14,2.85,6.85,1.75,13.73,3.43,20.45,5.59,6.39,2.06,12.57,4.76,18.88,7.09,7.21,2.66,14.39,5.4,21.7,7.76,5.72,1.85,11.61,3.19,17.43,4.75,1.52.41,3.01.89,4.54,1.24,6.8,1.58,13.6,3.15,20.41,4.68,7.66,1.72,15.31,3.49,22.99,5.08,5.63,1.16,11.32,1.98,16.96,3.06,7.28,1.4,14.64,2.29,21.8,4.39,3.23.95,6.71,1.15,10.1,1.46,4.43.4,8.88.65,13.33.83,4.97.2,9.95.25,14.93.4.87.03,1.76.1,2.6.32,4.73,1.23,9.53,1.04,14.33.8,6.18-.31,12.37-.52,18.54-.91,6.96-.44,13.94-.86,20.87-1.61,4.59-.5,9.11-1.55,13.67-2.36,5.49-.98,11.09-1.59,16.45-3.06,5.15-1.41,10.35-2.49,15.55-3.59,3.76-.8,7.48-1.77,11.26-2.4,3.95-.66,7.5-2.27,11.01-4.03,3.58-1.8,7.38-3.24,10.32-6.12,5.02-1.86,8.6-5.91,13.03-8.69,2.72-1.71,4.76-4.56,6.92-7.06,2.05-2.37,3.81-4.98,5.81-7.4,2.52-3.06,4.42-6.28,3.77-10.46-.25-1.63.31-3.03,1.77-3.78,1.39-.72,2.69-.04,3.89.8,1.5,1.05,2.48,2.38,2.82,4.22.96,5.25.55,10.24-2.32,14.91-1.55,2.53-3.13,5.08-4.27,7.8-1.48,3.53-3.96,6.14-6.77,8.53-2.59,2.21-5.21,4.38-7.87,6.52-.8.65-1.7,1.23-2.65,1.64-6.17,2.67-12.33,5.32-18.79,7.27-3.24.97-6.24,2.72-9.42,3.91-2.93,1.1-5.92,2.08-8.94,2.86-4.38,1.13-8.82,2.04-13.24,3.04-.76.17-1.52.44-2.3.51-8.27.71-16.38,2.57-24.58,3.71-8.38,1.16-16.68,2.93-25.19,3.23-9.86.35-19.7,1.25-29.56,1.6-6.8.24-13.62-.06-20.43-.11-1.57-.01-3.15.03-4.71-.04-2.69-.12-5.38-.29-8.07-.47-1.04-.07-2.08-.3-3.13-.3-3.68,0-7.29-.38-10.89-1.31-2.69-.69-5.52-.81-8.27-1.28-6.7-1.14-13.48-2-20.07-3.64-4.68-1.16-9.49-1.41-14.12-2.67-2.61-.7-5.22-1.44-7.87-1.93-5.83-1.09-11.68-2.11-17.54-3.03-4.56-.71-9.17-1.18-13.74-1.86-3.19-.47-6.39-.93-9.51-1.7-3.81-.94-7.53-2.23-11.31-3.31-9.23-2.62-18.55-4.98-27.7-7.88-7.31-2.32-14.42-5.27-21.61-7.95-9.66-3.6-19.34-7.11-29.37-9.57-2.2-.54-4.43-1.01-6.57-1.72-2.88-.96-5.64-.78-8.58.4-.07,1.5.58,2.76,1.67,3.82,4.52,4.37,8.96,8.84,13.64,13.04,2.39,2.14,5.19,3.84,7.86,5.64,4.49,3.02,9.14,5.83,13.51,9.02,2,1.46,3.58,3.54,5.18,5.48,1.42,1.73,3.16,3.21,4,5.46,1.03,2.77,1.47,5.55,1.17,8.47-.19,1.85-1.15,3.22-2.95,3.57-1.59.31-3.39.58-4.89.15-5.44-1.58-10.8-3.43-16.18-5.23-7.8-2.6-15.18-6.21-22.74-9.4-5.87-2.48-11.88-4.62-17.8-6.98-2.43-.97-4.74-2.26-7.18-3.19-6.53-2.47-13.05-4.97-19.68-7.15-5.71-1.88-11.51-3.55-17.36-4.9-4.22-.97-8.44-2.27-12.87-2-.81.05-1.61.21-2.99.39,1,1.26,1.52,2.16,2.26,2.81,3.73,3.29,7.42,6.63,11.32,9.72,5.34,4.23,10.81,8.29,16.28,12.35,8.15,6.06,16.66,11.52,25.89,15.81,3.24,1.51,6.35,3.31,9.51,4.99,2.62,1.39,5.25,2.78,7.85,4.21.99.54,2.02,1.08,2.88,1.8,1.89,1.58,1.9,4.06.11,5.71-.45.41-1.05.69-1.4,1.17-.72.99-1.61.9-2.57.58-.91-.31-1.82-.62-2.7-1-6.43-2.72-12.85-5.48-19.29-8.17-1.44-.6-2.98-.98-4.47-1.49-7.6-2.61-15.21-5.18-22.78-7.86-4.28-1.51-8.42-3.45-12.75-4.75-6.68-2.02-13.47-3.68-20.23-5.43-1.47-.38-3.03-.67-4.78.48,2.72,2.58,5.05,5.36,7.91,7.41,6.81,4.88,13.87,9.41,20.84,14.08,2.98,1.99,5.97,3.96,8.95,5.94,4.31,2.86,8.85,5.25,13.58,7.36,2.05.92,3.84,2.41,5.81,3.52,2.2,1.24,4.48,2.35,6.71,3.53,2.92,1.56,5.88,3.06,8.74,4.74,2.15,1.26,4.4,2.17,6.84,2.53,2.16.32,3.63,1.53,4.99,3.08.7.8.9,1.59.74,2.63-.52,3.37-2.74,4.84-6.17,4.18-3.25-.63-6.56-.95-9.78-1.66-3.49-.77-6.9-1.89-10.37-2.74-6.53-1.6-13-3.49-19.75-3.94-1.57-.1-3.14,0-4.71-.04-6.72-.17-13.43-.39-20.15-.53-1.18-.02-2.36.25-3.48.38-.51,1.85.25,2.91,1.39,3.64,5.81,3.71,11.64,7.39,17.53,10.99,1.71,1.04,3.62,1.75,5.4,2.67,8.49,4.38,17.42,7.59,26.59,10.23,6.45,1.86,12.84,3.97,19.25,5.96.83.26,1.67.56,2.53.69,5.86.89,11.79,1.45,17.57,2.68,9.83,2.09,19.86,1.23,29.73,2.58,4.4.6,8.83,1.09,13.27,1.38,6.79.44,13.59.65,20.39.99,8.29.42,16.57,1.08,24.86,1.22,5.46.09,10.99.4,16.39-.96.67-.17,1.38-.22,2.08-.24,6.98-.15,13.95-.29,20.93-.43.26,0,.53.02.79-.02,5.68-.91,11.45-.88,17.15-1.91,5.65-1.02,11.45-1.39,17.2-1.63,5.35-.23,10.61-.87,15.83-1.99,3.15-.68,6.27-1.57,9.44-2.11,3.52-.59,7.09-1.16,10.65-1.23,5.21-.1,10.2-1.36,15.25-2.32,4.03-.77,8.09-1.47,12.01-2.64,3.29-.98,6.62-1.58,9.99-2.01,4.59-.59,9.19-1.1,13.8-1.43,4.29-.31,8.48-.83,12.53-2.46,2.08-.84,4.4-1.1,6.63-1.51,3.21-.59,6.18-1.69,9.11-3.16,3.03-1.53,6.32-2.52,9.47-3.82,2.26-.93,4.47-1.97,6.7-2.95,2-.87,3.98-1.79,6.02-2.57,6.59-2.54,13.03-5.48,19.94-7.19,4.82-1.19,9.63-2.55,14.28-4.28,8.6-3.21,17.53-4.65,26.57-5.73,2.6-.31,5.18-.81,7.78-1.1,3.49-.39,6.74.74,9.93,1.94.7.26,1.35.84,1.85,1.42,1.46,1.73,2.85,3.53,4.24,5.32,2.06,2.67,1.72,5.67.57,8.44-1.36,3.3-3.2,6.37-6.35,8.46-1.13.75-1.89,2.04-2.89,3.01-4.36,4.28-8.68,8.6-13.69,12.15-1.7,1.21-3.26,2.62-4.88,3.94-3.85,3.15-7.73,6.27-11.55,9.45-2.13,1.77-4.17,3.65-6.56,5.75,2.14,1.04,3.92,1.08,5.67.68,3.15-.72,6.34-1.38,9.36-2.47,6.9-2.49,13.66-5.36,20.58-7.8,3.27-1.15,6.73-1.83,10.16-2.45,5.69-1.02,11.28-2.18,16.57-4.68,2.9-1.37,6.09-2.13,9.15-3.17,3.39-1.15,6.78-2.3,10.17-3.44,8.29-2.79,16.77-4.82,25.34-6.51,3.94-.78,7.8-1.98,11.89-1.53,1.39.15,2.78.3,4.17.39,5.27.32,8.41,3.53,10.51,7.94,1.18,2.47.3,4.88-1.35,6.82-1.46,1.71-3.08,3.41-4.94,4.64-4.51,2.98-9.17,5.72-13.82,8.49-3.97,2.37-7.93,4.78-12.03,6.91-4.02,2.09-8.27,3.75-12.32,5.79-4.52,2.27-8.93,4.74-13.38,7.13-.04.02-.02.16-.05.49.88-.14,1.71-.24,2.52-.41,8.11-1.72,16.19-3.66,24.35-5.1,4.62-.81,9.38-.97,14.08-1.15,5.59-.21,11.18-.15,16.77-.18,5.21-.03,10.26.92,15.11,2.77,1.51.58,2.54.19,3.48-.89,3.26-3.75,6.6-7.44,9.71-11.31,3.5-4.36,6.95-8.74,11.14-12.5,1.42-1.27,2.57-2.85,3.76-4.35,3.64-4.57,7.36-9.05,10.69-13.88,3.81-5.52,6.55-11.51,9.3-17.54,1.09-2.38,2.4-4.66,3.46-7.05,2.77-6.22,6.02-12.31,8.02-18.77,2.46-7.93,5.31-15.71,7.81-23.61,1.52-4.8,2.56-9.79,2.77-14.89.05-1.13.43-2.23.53-3.36.32-3.65.58-7.3.88-10.95.6-7.3,1.13-14.62,1.85-21.91.72-7.23,1.44-14.39-.72-21.56-2.28-7.56-3.15-15.39-3.57-23.24-.14-2.58.28-5.23.71-7.8.43-2.6,2.13-3.45,4.65-2.6,2.62.88,4.04,2.74,4.81,5.39.92,3.19.46,6.42.65,9.62.4,6.53.29,13.16,2.01,19.49,1.31,4.83,1.38,9.63,1.43,14.52.02,1.65.07,3.37.54,4.94,1,3.34,1.03,6.74.92,10.13-.1,3.22-.6,6.42-.92,9.64-.19,1.91-.46,3.81-.53,5.73-.19,4.91-1.01,9.7-2.33,14.43-.7,2.51-.94,5.17-1.72,7.65-1.25,4-2.79,7.9-3.36,12.09-.02.17-.05.36-.13.51-2,3.52-2.35,7.6-3.91,11.29-2.44,5.79-4.53,11.72-6.93,17.53-1.33,3.22-2.97,6.32-4.48,9.47-.6,1.26-1.28,2.48-1.86,3.75-2.09,4.6-4.04,9.26-6.25,13.8-1.02,2.1-2.41,4.05-3.8,5.95-2.52,3.45-5.28,6.73-7.72,10.24-3.39,4.88-7.36,9.25-11.19,13.76-2.65,3.11-5.07,6.41-7.9,9.38-4.34,4.55-8.62,9.15-12.92,13.74-.59.63-1.39,1.24-1.62,2-1.37,4.5-4.66,7.74-7.46,11.24-1.36,1.71-3.47,2.87-5.38,4.08-4.05,2.56-8.19,4.99-12.3,7.46-1.27.76-2.51,1.6-3.87,2.18-5.63,2.39-11.36,4.48-17.25,6.18-3.49,1.01-6.83,2.55-10.65,4.02Z"/>
</svg>