<?xml version="1.0" encoding="utf-8"?>
<svg id="Calque_1" data-name="Calque 1" xmlns="http://www.w3.org/2000/svg" viewBox="0 0 861.66 624.27">
  <defs>
    <style>
      .cls-1 {
        fill: #fff;
        stroke-width: 0px;
      }
    </style>
  </defs>
  <path class="cls-1" d="M318.97,3c-57.49-9.42-122.76,24.98-152.77,72.06-3.69,5.79-9.26,17.5-17.4,41.84-13.81,41.25-21.38,84.72-41.62,123.69-19.28,37.13-49.25,68.61-72.64,103.69-23.38,35.09-40.44,76.99-29.81,117.14,14.6,55.13,75.09,88.75,132.06,111.6,97.29,39.02,206.92,65.08,308.89,39.66,82.22-20.49,150.3-72.11,211.1-126.4,69.72-62.24,134.36-130.8,177.6-210.67,12.51-23.1,23.29-47.52,25.52-73.28,5.86-67.77-59.38-128.08-115.25-157.43-89.28-46.9-196.95-31.21-215.85-28.46-55.43,8.08-98.46,27.08-155.89,8.68-29.71-9.52-28.79-18-53.94-22.13Z"/>
  <path class="cls-1" d="M319.37,1.55c-35.1-5.56-71.2,4.23-101.34,22.33-25.8,15.49-48.85,37.62-60.68,65.63-16.54,39.15-23.89,81.32-38.65,121.07-7.75,20.89-18.1,40.31-30.7,58.66-12.28,17.9-25.98,34.75-38.98,52.13C24.47,354.19.69,391.97.01,434.33c-.58,36.28,18.86,67.2,45.98,89.85,28.19,23.55,62.17,39.19,96.1,52.55,41.2,16.22,83.61,29.72,127.11,38.22,42.63,8.33,86.46,11.83,129.76,7.36,41.65-4.3,81.8-16.49,119.26-35.12,36.56-18.18,70.14-41.77,101.77-67.47,32.73-26.59,63.99-55.21,93.72-85.11,29.85-30.02,57.97-61.85,82.77-96.19,12.33-17.07,23.83-34.76,34.22-53.09,10.57-18.64,20.47-38.03,26.23-58.76,4.97-17.9,6.36-36.43,2.5-54.67-3.58-16.91-11.07-32.84-20.6-47.19-19.74-29.73-47.81-53.9-78.11-72.4-60.09-36.7-132.95-46.13-202.16-40.72-26.11,2.04-51.64,7.07-77.29,12.3-20.24,4.13-40.69,7.81-61.43,7.49-21.76-.33-44.26-4.9-63.85-14.56-5.62-2.77-10.85-6.25-16.45-9.04-6.38-3.18-13.17-5.02-20.18-6.22-1.89-.32-2.7,2.57-.8,2.89,7.33,1.25,14.34,3.2,20.94,6.67,5.71,3.01,11.12,6.51,16.98,9.25,18.33,8.58,38.85,13.06,59.03,13.89,38.92,1.59,76.56-10.99,114.72-16.51,55.69-8.06,114.31-6.42,168.34,10.03,35.61,10.84,68.53,29.17,96.83,53.33,26.79,22.88,51.13,52.16,60.04,86.92,10.39,40.52-7.02,79.75-26.61,114.52-20.47,36.33-45.25,70.12-72.44,101.69-27.11,31.48-56.61,60.83-87.25,88.85-30,27.42-60.99,53.97-94.5,77.05-33.25,22.91-69.1,42.37-107.61,54.85-40.68,13.18-83.54,17.8-126.17,15.82-43.54-2.02-86.59-10.62-128.34-22.9-38.92-11.45-77.87-25.37-114.11-43.72-31.06-15.73-62.49-36.29-80.9-66.7-9.46-15.64-14.58-33.42-14.52-51.73.07-21.21,6.53-41.95,15.67-60.91,18.43-38.25,48.07-69.35,71.92-104.09,11.71-17.06,21.56-35.06,29.09-54.36,7.74-19.82,13.37-40.36,19.11-60.82,5.61-20.02,11.44-40.01,19.06-59.38,4.87-12.39,10.77-23.3,19.29-33.61,22.54-27.28,54.74-47.11,89.08-55.52,17.11-4.19,34.94-5.39,52.37-2.63,1.89.3,2.7-2.59.8-2.89Z"/>
</svg>