<?xml version="1.0" encoding="UTF-8"?>
<svg id="Calque_1" data-name="Calque 1" xmlns="http://www.w3.org/2000/svg" viewBox="0 0 111.56 116.79">
  <defs>
    <style>
      .cls-1 {
        fill: #4b996c;
      }

      .cls-1, .cls-2 {
        stroke-width: 0px;
      }

      .cls-2 {
        fill: #fff;
      }
    </style>
  </defs>
  <path class="cls-1" d="M55.94,0C22.08,0,0,23.23,0,58.4s22.08,58.4,55.62,58.4,55.61-22.9,55.94-58.4C111.23,23.23,89.31,0,55.94,0Z"/>
  <g>
    <path class="cls-2" d="M31.07,32.92c12.75,13.6,25.49,27.2,38.24,40.8,3.64,3.89,7.28,7.77,10.92,11.66,1.32,1.41,3.44-.71,2.12-2.12-12.75-13.6-25.49-27.2-38.24-40.8-3.64-3.89-7.28-7.77-10.92-11.66-1.32-1.41-3.44.71-2.12,2.12h0Z"/>
    <path class="cls-2" d="M31.7,85.44c12.68-12.65,25-25.66,36.93-39.02,3.37-3.77,6.71-7.58,10.02-11.4,1.26-1.45-.86-3.59-2.12-2.12-11.71,13.55-23.81,26.77-36.28,39.62-3.52,3.63-7.08,7.23-10.66,10.81-1.37,1.37.75,3.49,2.12,2.12h0Z"/>
  </g>
</svg>