<?xml version="1.0" encoding="UTF-8"?>
<svg id="Calque_1" data-name="Calque 1" xmlns="http://www.w3.org/2000/svg" viewBox="0 0 605.73 246.14">
  <defs>
    <style>
      .cls-1 {
        fill: #fad4ce;
        stroke-width: 0px;
      }
    </style>
  </defs>
  <path class="cls-1" d="M71,55.25C53.99,66.34,10.52,94.68,2.37,135.87c-2.17,10.97-12.49,53.2,36.89,78.13,23.57,11.9,55.6,17.6,87.45,21.77,54.85,7.18,111.93,10.66,169.66,10.35,55.15-.3,111.89-4.22,164.5-16.94,52.61-12.72,100.92-35.13,125.07-64.1,14.73-17.67,19.94-36.94,19.78-55.59-.17-20.35-6.56-40.32-18.81-58.8-5.69-8.59-13.12-17.19-26.42-22.37-9.8-3.81-21.99-5.46-33.92-7.04C432.81,8.85,384.37-4.24,269.1,1.31c-40.22,1.94-67.83,3.41-102.77,12.34-50.78,12.97-81.52,32.6-95.33,41.6Z"/>
</svg>