<?xml version="1.0" encoding="UTF-8"?>
<svg id="Calque_1" data-name="Calque 1" xmlns="http://www.w3.org/2000/svg" viewBox="0 0 816.89 636.24">
  <defs>
    <style>
      .cls-1 {
        fill: #fff;
        stroke-width: 0px;
      }
    </style>
  </defs>
  <path class="cls-1" d="M566.24,40.47c58.23-.21,117.5,42.85,140,92.68,2.77,6.13,6.49,18.23,10.84,42.86,7.38,41.74,8.26,84.66,22.33,125.19,13.41,38.62,38.24,73.46,56.02,110.75,17.77,37.29,28.26,80.16,11.66,117.08-22.8,50.7-87.68,73.7-147.43,86.89-102.06,22.53-214.33,30.71-311.23-9.37-78.13-32.31-137.55-92.35-189.38-153.83C99.61,382.24,46.16,306.47,15.57,223.11,6.72,199.01-.23,173.89,1.48,148.81,5.98,82.82,79.61,34.92,139.27,15.32c95.34-31.33,199.35.28,217.6,5.83,53.55,16.27,93.17,41.14,152.71,32.29,30.81-4.58,31.18-12.87,56.66-12.96Z"/>
  <path class="cls-1" d="M566.24,41.97c37.15.05,73.02,16.86,100.46,41.27,13.35,11.88,25.01,25.8,33.65,41.48,6.33,11.49,9.65,23.59,12.35,36.37,9.02,42.67,9.56,86.95,21.64,129,11.61,40.4,35.68,75.22,54.68,112.27,18.68,36.42,34.04,80.76,18.76,121.15-12.17,32.16-41.63,53.14-71.85,66.87-33.9,15.4-70.83,23.56-107.27,30.35-41.23,7.68-83.12,12.51-125.1,12.5-41.9,0-83.97-4.92-124.13-17.17-38.56-11.76-74.38-30.65-106.82-54.49-31.49-23.14-59.66-50.5-85.88-79.4-27.41-30.21-53.35-61.93-77.53-94.78-24.76-33.63-47.52-68.85-66.47-106.1-9.46-18.6-17.97-37.7-25.21-57.27-7.85-21.2-14.53-43.39-14.77-66.18C1.99,88.75,71.1,42.28,128.89,20.56,195.77-4.57,271.05-.2,339.19,17.68c27.72,7.28,54.12,18.3,81.28,27.3,34.93,11.57,72.87,16.72,108.71,5.67,5.56-1.71,10.9-4.05,16.45-5.8,6.71-2.11,13.59-2.82,20.6-2.88,1.93-.02,1.93-3.02,0-3-7.14.07-14.2.76-21.04,2.87-5.68,1.75-11.13,4.16-16.81,5.91-19.37,5.97-40.49,7.24-60.58,5.12-38.67-4.08-74.01-22.06-110.82-33.26C298.05,1.69,233.82-5.97,172.89,5.26c-35.05,6.45-68.9,20.15-98.83,39.47C46.98,62.2,21.42,85.46,8.3,115.49c-16.41,37.55-5.72,78.01,8.27,114.55,15.01,39.18,34.85,76.37,57.47,111.66,23.13,36.08,49.15,70.25,76.51,103.21,25.39,30.58,51.91,60.36,81.37,87.1,29.28,26.59,61.57,50.15,97.21,67.5,37.56,18.29,78.24,29.01,119.67,33.72,42.93,4.87,86.4,3.47,129.23-1.69,39.79-4.79,79.9-12,118.35-23.47,32.43-9.68,65.81-23.32,90.26-47.49,11.72-11.59,20.9-25.68,25.81-41.48,5.96-19.18,5.43-39.72,1.35-59.21-8.86-42.38-33.66-78.65-53.65-116.31-10.44-19.66-19.38-39.92-24.89-61.53-5.65-22.14-8.35-44.87-11.17-67.51-2.59-20.81-5.38-41.66-10.27-62.08-3.04-12.71-7.5-24.1-14.41-35.27-18.84-30.47-48.52-54.59-81.68-67.89-16.37-6.56-33.83-10.3-51.49-10.33-1.93,0-1.93,3,0,3Z"/>
</svg>