<?xml version="1.0" encoding="UTF-8"?>
<svg id="Calque_1" data-name="Calque 1" xmlns="http://www.w3.org/2000/svg" viewBox="0 0 111.56 116.79">
  <defs>
    <style>
      .cls-1 {
        fill: #c6271a;
      }

      .cls-1, .cls-2 {
        stroke-width: 0px;
      }

      .cls-2 {
        fill: #fff;
      }
    </style>
  </defs>
  <path class="cls-1" d="M55.94,0C22.08,0,0,23.23,0,58.4s22.08,58.4,55.62,58.4,55.61-22.9,55.94-58.4C111.23,23.23,89.31,0,55.94,0Z"/>
  <path class="cls-2" d="M65.3,34.72c-9.55,8.38-19.96,15.71-31.03,21.92-1.03.57-.91,1.99,0,2.59,10.73,7.03,21.45,14.07,32.18,21.1,1.62,1.06,3.12-1.53,1.51-2.59-10.73-7.03-21.45-14.07-32.18-21.1v2.59c11.3-6.33,21.9-13.85,31.64-22.39,1.45-1.28-.67-3.39-2.12-2.12h0Z"/>
</svg>