<?xml version="1.0" encoding="UTF-8"?>
<svg id="Calque_1" data-name="Calque 1" xmlns="http://www.w3.org/2000/svg" viewBox="0 0 273.32 291.38">
  <defs>
    <style>
      .cls-1 {
        fill: #fff;
        stroke-width: 0px;
      }
    </style>
  </defs>
  <path class="cls-1" d="M241.38,5.95c-47.16-13.16-105.03-.4-105.03-.4-50.24,11.08-76.01,15.94-95.8,39.81-14.16,17.08-22.2,39.23-28.63,61.3-14.95,51.3-20.72,113.85,12.33,153.41,24.82,29.71,66.14,37.27,101.47,26.89,35.32-10.38,65.44-36.02,91.32-64.6,19.32-21.33,37.21-45.27,46.57-73.64,4.21-12.75,6.02-39.58,9.38-93.36.56-8.96,1.18-21.38-5.63-32.22-6.98-11.1-18.3-15.05-25.99-17.19Z"/>
</svg>