<?xml version="1.0" encoding="utf-8"?>
<svg id="Calque_1" data-name="Calque 1" xmlns="http://www.w3.org/2000/svg" viewBox="0 0 810.74 706.026">
  <defs>
    <style>
      .cls-1 {
        fill: #fff;
        stroke-width: 0px;
      }
    </style>
  </defs>
  <path class="cls-1" d="M 239.876 662.926 C 181.506 664.067 123.196 617.125 101.906 562.091 C 99.286 555.32 95.866 541.926 92.126 514.625 C 85.796 468.356 86.006 420.665 72.926 375.836 C 60.466 333.12 36.466 294.782 19.596 253.61 C 2.726 212.438 -6.694 164.963 10.886 123.66 C 35.026 66.952 100.646 40.371 160.876 24.789 C 263.746 -1.839 376.496 -12.679 472.596 30.354 C 550.086 65.054 608.116 130.861 658.506 198.381 C 716.286 275.805 767.936 359.187 796.476 451.361 C 804.736 478.017 811.056 505.824 808.706 533.724 C 802.516 607.136 727.496 661.523 667.196 684.242 C 570.836 720.55 467.386 687.029 449.236 681.146 C 395.976 663.89 356.896 636.869 296.986 647.643 C 265.996 653.218 265.406 662.431 239.866 662.936 L 239.876 662.926 Z" style="transform-box: fill-box; transform-origin: 50% 50%;" transform="matrix(-1, 0, 0, -1, 0.000061, -0.00005)"/>
  <path class="cls-1" d="M 239.94 664.316 C 202.03 664.859 166.62 646.33 140.65 621.526 C 126.84 608.338 115.23 593.027 106.74 576.351 C 100.79 564.678 97.22 552.903 94.79 540.211 C 86.3 495.953 86.39 450.768 78.51 406.454 C 74.55 384.193 67.93 362.681 59.01 341.731 C 50.17 320.967 39.68 300.877 30.01 280.45 C 11.8 241.981 -3.76 200.257 0.8 157.514 C 4.69 121.028 25.03 89.873 55.89 67.753 C 86.75 45.633 120.85 33.989 156.22 24.551 C 199.65 12.972 244.3 4.47 289.37 1.29 C 333.97 -1.862 379.35 0.449 422.63 11.495 C 464.03 22.063 501.96 40.994 535.5 65.91 C 569.07 90.855 598.01 120.841 624.32 152.388 C 651.67 185.18 676.9 219.665 700.47 254.916 C 725.03 291.636 747.43 329.693 766.08 369.369 C 775.29 388.963 783.61 408.941 790.79 429.266 C 798.39 450.759 805.24 472.729 808.64 495.186 C 811.65 515.07 811.81 535.441 806.52 555.007 C 802.1 571.338 794.26 586.761 784.24 600.725 C 764.22 628.597 736.02 651.054 705.3 668.104 C 670.35 687.512 631.64 698.904 591.05 701.588 C 553.91 704.048 516.33 699.942 480.31 691.346 C 452.2 684.64 425.83 674.099 399.07 663.736 C 380.9 656.703 362.28 650.277 342.7 647.761 C 321.74 645.068 299.46 646.732 279.51 653.485 C 273.29 655.59 267.45 658.527 261.28 660.743 C 254.42 663.203 247.25 664.129 239.93 664.316 C 238 664.363 238 661.557 239.93 661.51 C 247.53 661.314 254.83 660.21 261.88 657.516 C 268.17 655.113 274.2 652.195 280.65 650.146 C 300.04 644.001 321.43 642.402 341.68 644.824 C 380.15 649.426 414.34 668.347 450.53 680.048 C 513.82 700.503 585.49 707.536 650.13 688.475 C 684.19 678.43 716.29 661.005 743.26 639.194 C 770.23 617.383 793.54 589.174 803.05 556.289 C 815.17 514.35 802.03 470.017 787.89 430.014 C 773.75 390.011 755.02 350.925 733.55 313.587 C 712.09 276.269 687.83 240.41 662.09 205.56 C 637.75 172.61 612.13 140.323 582.86 111.011 C 554.71 82.821 523.01 57.352 486.76 38.684 C 447.79 18.622 404.32 7.622 360.11 4.124 C 315.9 0.626 270.83 4.218 227.07 11.794 C 187.01 18.734 146.37 27.947 108.77 42.883 C 75.4 56.146 43 75.329 23.14 104.445 C -0.9 139.687 -0.55 182.683 10.32 221.984 C 21.85 263.633 44.95 301.223 61.89 340.973 C 70.63 361.484 77.19 382.529 81.14 404.302 C 85.09 426.076 86.97 447.663 88.92 469.427 C 90.87 491.192 93.01 513.583 96.93 535.45 C 99.19 548.077 102.16 560.114 107.79 571.833 C 123.81 605.168 152.51 634.358 187.9 650.249 C 204.14 657.544 221.87 661.753 239.93 661.491 C 241.86 661.463 241.86 664.269 239.93 664.297 L 239.94 664.316 Z" style="transform-box: fill-box; transform-origin: 50% 50%;" transform="matrix(-1, 0, 0, -1, 0.000075, 0.000031)"/>
</svg>