<?xml version="1.0" encoding="UTF-8"?>
<svg id="Calque_1" data-name="Calque 1" xmlns="http://www.w3.org/2000/svg" viewBox="0 0 810.74 750.87">
  <defs>
    <style>
      .cls-1 {
        fill: #fff;
        stroke-width: 0px;
      }
    </style>
  </defs>
  <path class="cls-1" d="M239.94,42.1c-58.37-1.22-116.68,48.97-137.97,107.81-2.62,7.24-6.04,21.56-9.78,50.75-6.33,49.47-6.12,100.46-19.2,148.39-12.46,45.67-36.46,86.66-53.33,130.68s-26.29,94.78-8.71,138.94c24.14,60.63,89.76,89.05,149.99,105.71,102.87,28.47,215.62,40.06,311.72-5.95,77.49-37.1,135.52-107.46,185.91-179.65,57.78-82.78,109.43-171.93,137.97-270.48,8.26-28.5,14.58-58.23,12.23-88.06-6.19-78.49-81.21-136.64-141.51-160.93-96.36-38.82-199.81-2.98-217.96,3.31-53.26,18.45-92.34,47.34-152.25,35.82-30.99-5.96-31.58-15.81-57.12-16.35Z"/>
  <path class="cls-1" d="M239.94,40.6c-37.91-.58-73.32,19.23-99.29,45.75-13.81,14.1-25.42,30.47-33.91,48.3-5.95,12.48-9.52,25.07-11.95,38.64-8.49,47.32-8.4,95.63-16.28,143.01-3.96,23.8-10.58,46.8-19.5,69.2-8.84,22.2-19.33,43.68-29,65.52C11.8,492.15-3.76,536.76.8,582.46c3.89,39.01,24.23,72.32,55.09,95.97s64.96,36.1,100.33,46.19c43.43,12.38,88.08,21.47,133.15,24.87,44.6,3.37,89.98.9,133.26-10.91,41.4-11.3,79.33-31.54,112.87-58.18,33.57-26.67,62.51-58.73,88.82-92.46,27.35-35.06,52.58-71.93,76.15-109.62,24.56-39.26,46.96-79.95,65.61-122.37,9.21-20.95,17.53-42.31,24.71-64.04,7.6-22.98,14.45-46.47,17.85-70.48,3.01-21.26,3.17-43.04-2.12-63.96-4.42-17.46-12.26-33.95-22.28-48.88-20.02-29.8-48.22-53.81-78.94-72.04C670.35,15.8,631.64,3.62,591.05.75c-37.14-2.63-74.72,1.76-110.74,10.95-28.11,7.17-54.48,18.44-81.24,29.52-18.17,7.52-36.79,14.39-56.37,17.08-20.96,2.88-43.24,1.1-63.19-6.12-6.22-2.25-12.06-5.39-18.23-7.76-6.86-2.63-14.03-3.62-21.35-3.82-1.93-.05-1.93,2.95,0,3,7.6.21,14.9,1.39,21.95,4.27,6.29,2.57,12.32,5.69,18.77,7.88,19.39,6.57,40.78,8.28,61.03,5.69,38.47-4.92,72.66-25.15,108.85-37.66,63.29-21.87,134.96-29.39,199.6-9.01,34.06,10.74,66.16,29.37,93.13,52.69s50.28,53.48,59.79,88.64c12.12,44.84-1.02,92.24-15.16,135.01s-32.87,84.56-54.34,124.48c-21.46,39.9-45.72,78.24-71.46,115.5-24.34,35.23-49.96,69.75-79.23,101.09-28.15,30.14-59.85,57.37-96.1,77.33-38.97,21.45-82.44,33.21-126.65,36.95s-89.28-.1-133.04-8.2c-40.06-7.42-80.7-17.27-118.3-33.24-33.37-14.18-65.77-34.69-85.63-65.82-24.04-37.68-23.69-83.65-12.82-125.67,11.53-44.53,34.63-84.72,51.57-127.22,8.74-21.93,15.3-44.43,19.25-67.71s5.83-46.36,7.78-69.63,4.09-47.21,8.01-70.59c2.26-13.5,5.23-26.37,10.86-38.9,16.02-35.64,44.72-66.85,80.11-83.84,16.24-7.8,33.97-12.3,52.03-12.02,1.93.03,1.93-2.97,0-3Z"/>
</svg>