<?xml version="1.0" encoding="UTF-8"?>
<svg id="Calque_1" data-name="Calque 1" xmlns="http://www.w3.org/2000/svg" viewBox="0 0 126.93 183.86">
  <defs>
    <style>
      .cls-1 {
        fill: #0f548d;
        stroke-width: 0px;
      }
    </style>
  </defs>
  <path class="cls-1" d="M55.11,52.14c.54,23.87-7.25,46.8-15.78,68.77-4.35,11.2-9.1,22.3-12.85,33.72-.83,2.53-1.28,5.1-.92,7.76s1.27,4.96,2.48,7.22c1.29,2.41,2.88,4.63,4.52,6.81,1.52,2.02,2.99,3.73,5.57,4.29,5.8,1.26,11.89,1.77,17.8,2.28s11.97.79,17.97.86,12-.09,18-.44c3.08-.18,6.15-.41,9.22-.68,2.54-.23,5.12-.44,7.6-1.06s4.61-1.6,6.46-3.21c1.94-1.7,3.27-4,4.54-6.21,2.68-4.69,5.4-9.54,6.63-14.85s.36-10.86-1.53-16.15c-2-5.6-4.23-11.12-6.51-16.61-4.55-10.94-9.51-21.72-14.89-32.27-2.62-5.14-5.3-10.12-6.35-15.85s-.84-11.41-.89-17.11c-.02-2.82-.1-5.65-.36-8.46-.18-1.91-3.18-1.92-3,0,1.01,10.89-.89,22.26,3.12,32.72,2,5.23,4.88,10.12,7.36,15.14s4.99,10.34,7.34,15.58,4.68,10.72,6.86,16.15,4.42,10.45,5.8,15.88.51,10.59-1.65,15.64c-1.05,2.46-2.33,4.82-3.64,7.14-1.21,2.16-2.37,4.47-4.07,6.29-3.48,3.73-9.03,3.91-13.78,4.33-5.82.5-11.65.83-17.49.97-11.75.28-23.52-.23-35.18-1.69-2.84-.36-5.74-.67-8.55-1.28-2.49-.54-3.78-2.86-5.18-4.81-2.88-4.02-5.83-8.75-5.27-13.91.29-2.7,1.46-5.34,2.38-7.88,1.01-2.8,2.05-5.59,3.11-8.37,2.07-5.41,4.21-10.8,6.33-16.19,8.34-21.21,16.41-43.02,17.68-66,.16-2.84.2-5.68.14-8.52-.04-1.93-3.04-1.93-3,0h0Z"/>
  <path class="cls-1" d="M29.99,150.29c6.04,0,12.08,0,18.12,0,1.93,0,1.93-3,0-3-6.04,0-12.08,0-18.12,0-1.93,0-1.93,3,0,3h0Z"/>
  <path class="cls-1" d="M36.45,133.26c5.61.75,11.26,1.01,16.91.78,1.92-.08,1.93-3.08,0-3-5.65.23-11.31-.03-16.91-.78-.8-.11-1.5.77-1.5,1.5,0,.9.69,1.39,1.5,1.5h0Z"/>
  <path class="cls-1" d="M43.69,118.4c6.03.36,12.07.52,18.12.49,1.93,0,1.93-3.01,0-3-6.04.03-12.09-.13-18.12-.49-1.93-.11-1.92,2.89,0,3h0Z"/>
  <path class="cls-1" d="M50.13,102c4.17-.21,8.34-.14,12.49.23.81.07,1.5-.74,1.5-1.5,0-.87-.69-1.43-1.5-1.5-4.15-.37-8.33-.45-12.49-.23-.81.04-1.5.66-1.5,1.5,0,.78.69,1.54,1.5,1.5h0Z"/>
  <path class="cls-1" d="M54.37,51.97c8.4.24,16.8.41,25.2.53,4.16.06,8.33.16,12.49.12,3.36-.04,7.16-.78,8.92-4,.73-1.34.99-3.09.27-4.49-.82-1.59-2.43-1.79-4.03-2-4.13-.56-8.28-.95-12.44-1.22-8.43-.55-16.89-.65-25.33-.7-3.73-.02-7.78.78-9.33,4.65-1.35,3.37.85,7.11,4.44,7.51,1.92.22,1.9-2.79,0-3-.99-.11-1.73-1.16-1.86-2.09-.17-1.26.7-2.44,1.69-3.12,1.16-.8,2.59-.92,3.96-.95,1.75-.04,3.51.02,5.26.04,6.9.07,13.79.2,20.68.63,3.36.21,6.71.5,10.05.89.73.09,1.47.18,2.2.27.45.06,1.66.01,2.02.39.82.85-.72,2.56-1.33,3-2.45,1.82-6.39,1.19-9.24,1.17-3.46-.03-6.92-.07-10.38-.12-7.74-.11-15.48-.28-23.22-.5-1.93-.05-1.93,2.95,0,3h0Z"/>
  <path class="cls-1" d="M19.62,6.37C13.03,16.04,7.26,26.57,3.41,37.65,1.47,43.23.14,49.08.01,55c-.11,5.26.46,10.99,4.67,14.66,2.01,1.75,4.42,3.07,6.84,4.16,2.61,1.19,5.34,2.05,8.22,2.25,5.38.37,11.07-1.69,15.2-5.11,4.42-3.66,5.24-9.43,5.34-14.85.11-6.07-.89-12.13-2.36-18-3.28-13.04-8.5-25.66-15.07-37.38-.68-1.21-2.32-.8-2.74.36-.56,1.52-.8,3.1-.75,4.72.07,1.93,3.07,1.93,3,0-.05-1.37.17-2.63.64-3.92l-2.74.36c5.38,9.59,9.74,19.72,12.96,30.24,1.64,5.37,3.07,10.86,3.7,16.45.32,2.86.45,5.75.31,8.62-.12,2.5-.39,5.11-1.41,7.42-2.01,4.53-7.47,7.11-12.12,7.9-5.27.9-10.39-1.11-14.81-3.85-2-1.24-3.81-2.8-4.73-5.02-.99-2.39-1.14-5.1-1.17-7.65-.06-5.35.98-10.64,2.58-15.73,3.66-11.64,9.78-22.69,16.62-32.75,1.09-1.6-1.51-3.1-2.59-1.51h0Z"/>
</svg>