<?xml version="1.0" encoding="UTF-8"?>
<svg id="Calque_1" data-name="Calque 1" xmlns="http://www.w3.org/2000/svg" viewBox="0 0 173.61 172.78">
  <defs>
    <style>
      .cls-1 {
        fill: #d9f2f2;
      }

      .cls-1, .cls-2 {
        stroke-width: 0px;
      }

      .cls-2 {
        fill: #0f548d;
      }
    </style>
  </defs>
  <path class="cls-1" d="M8.49,99.97c.04,7.41.13,26.35,13.35,45.14,3.52,5,16.6,24.58,37.51,27.33,9.98,1.31,19.69-1.35,28.79-4.63,15.68-5.65,30.52-13.23,44.13-22.53,13-8.88,25.04-19.55,32.86-33.3,7.82-13.75,11.06-30.94,6.14-47.08-3-9.84-8.85-18.85-15.75-26.75-7.53-8.62-16.39-16.08-26.1-21.99-4.51-2.75-9.44-5.22-14.51-5.31-3.73-.07-7.23,1.17-10.65,2.39-26.85,9.6-43.18,11.73-68.53,32.38-8.85,7.2-14.87,12.21-19.89,21.55-7.3,13.57-7.38,26.78-7.35,32.8Z"/>
  <g>
    <g>
      <path class="cls-2" d="M145.41,86.15c-.01,7.43-.02,14.86-.03,22.28l2.26-1.3c-4.86-3.75-9.73-7.51-14.52-11.35-4.29-3.44-8.95-6.85-12.02-11.5-1.06-1.6-3.66-.1-2.59,1.51,3.23,4.9,7.96,8.48,12.48,12.11,4.99,4,10.06,7.91,15.13,11.82.94.72,2.26-.27,2.26-1.3.01-7.43.02-14.86.03-22.28,0-1.93-3-1.93-3,0h0Z"/>
      <path class="cls-2" d="M119.86,82.91c-11.55.2-23.09.39-34.64.59-5.72.1-11.45.29-17.18.22-2.67-.03-5.68.13-8.28-.58s-3.07-3.61-3.77-5.75c-3.3-10.01-4.62-20.53-4.98-31.03-.18-5.3-.13-10.6.04-15.9.08-2.69.2-5.38.32-8.06s.11-5.19.43-7.74c.64-5.17,5.62-7.84,10.14-9.3,4.9-1.59,10.12-1.99,15.24-2.21,11.46-.49,22.99-.02,34.46.09,11.16.11,22.52-.32,33.59,1.23,4.65.65,10.5,1.31,14,4.78,3.05,3.02,4.01,7.56,4.67,11.65,1.75,10.77,2.05,21.8,1.08,32.66-.48,5.43-1.31,10.82-2.46,16.15-.57,2.65-1.19,5.31-1.97,7.91-.35,1.15-.8,2.1-1.86,2.73s-2.43.98-3.63,1.41c-2.58.91-5.15,1.82-7.73,2.73-1.81.64-1.03,3.54.8,2.89,2.88-1.02,5.76-2.04,8.64-3.06,2.28-.81,4.66-1.58,5.87-3.86s1.71-5.31,2.31-7.89c.66-2.83,1.23-5.69,1.71-8.56,1.9-11.46,2.37-23.15,1.3-34.72-.47-5.09-.94-10.45-2.59-15.32s-4.53-8.23-9.18-10.08c-5.13-2.04-11.04-2.58-16.5-3.02-5.84-.46-11.7-.48-17.55-.54C109.84.22,97.55,0,85.26,0c-5.83,0-11.7.13-17.48.97-5.1.74-10.25,2.25-14.38,5.44-1.91,1.48-3.44,3.31-4.14,5.66-.8,2.7-.67,5.71-.81,8.49-.27,5.6-.51,11.21-.55,16.82-.1,11.17.54,22.44,3.1,33.35.66,2.81,1.45,5.59,2.38,8.32.75,2.21,1.53,4.7,3.56,6.08,2.21,1.49,5.31,1.38,7.86,1.49,3.06.13,6.13.1,9.19.06,12.29-.19,24.59-.42,36.88-.63,2.99-.05,5.98-.1,8.97-.15,1.93-.03,1.93-3.03,0-3h0Z"/>
      <path class="cls-2" d="M96.63,31.29c1.93,0,1.93-3,0-3s-1.93,3,0,3h0Z"/>
      <path class="cls-2" d="M111.1,30.15c1.93,0,1.93-3,0-3s-1.93,3,0,3h0Z"/>
      <path class="cls-2" d="M79.05,36.92c4.12,6.66,10.37,12.03,18.05,14.03,8.31,2.16,17.17.34,24.57-3.79,4.71-2.63,8.86-6.2,12.31-10.33,1.23-1.47-.88-3.61-2.12-2.12-5.48,6.56-12.78,11.65-21.21,13.5-7.74,1.69-15.97.14-22.18-4.92-2.72-2.22-4.99-4.9-6.83-7.87-1.01-1.64-3.61-.13-2.59,1.51h0Z"/>
      <path class="cls-2" d="M50.56,61.36c-10.41.05-20.82.1-31.24.15-4.28.02-8.98-.05-12.67,2.46-2.97,2.02-4.74,5.2-5.63,8.62C.08,76.19-.03,79.97,0,83.67c.05,5.19.1,10.39.15,15.58s.1,10.39.15,15.58c.04,4.62-.15,9.33.43,13.93s2.14,8.87,5.8,11.76,8.22,3.92,12.69,4.58l-1.1-1.45c-.04,3.15-.08,6.3-.13,9.45-.04,2.92-.38,6.03-.06,8.93.13,1.12.58,2.15,1.6,2.72,1.22.68,2.57.28,3.75-.27,2.5-1.16,4.92-2.57,7.28-4.01,4.73-2.88,9.21-6.16,13.39-9.79,1.05-.91,2.07-1.85,3.09-2.8s1.86-1.72,3.33-1.67c1.38.05,2.77.38,4.14.57,1.58.22,3.16.42,4.75.6,12.26,1.39,24.66,1.5,36.94.33,3.04-.29,6.08-.66,9.1-1.1,2.29-.33,4.71-.78,6.48-2.39,1.96-1.78,2.14-4.45,2.39-6.91.31-3.1.56-6.2.75-9.31.89-14.07.65-28.2-.69-42.24-.18-1.91-3.18-1.92-3,0,1.12,11.75,1.48,23.57,1.04,35.36-.22,5.79-.59,11.59-1.22,17.36-.11,1.05-.26,2.27-.92,3.13s-1.77,1.3-2.81,1.58c-2.5.67-5.17.87-7.73,1.17-11.61,1.33-23.35,1.51-35,.55-2.94-.24-5.87-.56-8.8-.95-2.38-.32-5.26-1.26-7.62-.45s-3.94,2.95-5.68,4.48c-1.98,1.75-4.04,3.43-6.17,5.01-2.35,1.74-4.78,3.37-7.27,4.89-1.25.76-2.51,1.49-3.8,2.19-1.16.64-2.57,1.67-3.87,1.96-.26.06-.25.15-.41.03s-.08-.66-.09-.84c-.02-.8.02-1.6.03-2.4.02-1.66.04-3.32.07-4.97.05-3.4.09-6.8.14-10.2,0-.59-.47-1.35-1.1-1.45-3.66-.54-7.45-1.27-10.61-3.29-3.32-2.12-4.91-5.6-5.56-9.37-.7-4.09-.49-8.35-.53-12.48-.05-4.87-.09-9.73-.14-14.6s-.09-9.73-.14-14.6c-.04-3.81-.21-7.67.28-11.47.41-3.15,1.33-6.51,3.63-8.82,2.88-2.9,7.12-3.04,10.96-3.07,10.88-.08,21.76-.1,32.65-.15,1.93,0,1.93-3.01,0-3h0Z"/>
      <path class="cls-2" d="M43.55,105.21c1.93,0,1.93-3,0-3s-1.93,3,0,3h0Z"/>
      <path class="cls-2" d="M58.55,105.55c1.93,0,1.93-3,0-3s-1.93,3,0,3h0Z"/>
      <path class="cls-2" d="M73.12,105.17c1.93,0,1.93-3,0-3s-1.93,3,0,3h0Z"/>
    </g>
    <path class="cls-2" d="M13.54,10.64c.13-.35,0,0,.06-.16.15-.33.32-.66.49-.99.44-.81.95-1.59,1.56-2.29,1.65-1.88,3.84-3.12,6.39-3.05,3.42.1,5.48,2.75,5.53,6.04.06,3.71-2.12,6.17-4.5,8.7-2.65,2.8-2.93,6.67-1.47,10.14.32.75.99,1.27,1.85,1.05.71-.19,1.36-1.1,1.05-1.85-.79-1.88-1.21-3.96-.27-5.88.65-1.31,1.91-2.2,2.85-3.28,2.7-3.12,4.19-7.27,3.19-11.37-.88-3.61-3.75-6.09-7.42-6.48-3.18-.34-6.26.89-8.55,3.07-1.61,1.53-2.86,3.49-3.65,5.56-.69,1.8,2.21,2.58,2.89.8h0Z"/>
    <path class="cls-2" d="M25.76,42.41c1.93,0,1.93-3,0-3s-1.93,3,0,3h0Z"/>
  </g>
</svg>