<?xml version="1.0" encoding="UTF-8"?>
<svg id="Calque_1" data-name="Calque 1" xmlns="http://www.w3.org/2000/svg" viewBox="0 0 175.66 172.04">
  <defs>
    <style>
      .cls-1 {
        fill: #6dc3bc;
        stroke-width: 0px;
      }
    </style>
  </defs>
  <g>
    <path class="cls-1" d="M151.69,89.81c-.01,7.75-.02,15.5-.03,23.25l2.26-1.3c-5.06-3.9-10.12-7.81-15.11-11.81-4.5-3.61-9.39-7.18-12.6-12.06-1.06-1.61-3.66-.1-2.59,1.51,3.38,5.12,8.34,8.87,13.07,12.66,5.19,4.16,10.45,8.22,15.72,12.28.94.72,2.26-.27,2.26-1.3.01-7.75.02-15.5.03-23.25,0-1.93-3-1.93-3,0h0Z"/>
    <path class="cls-1" d="M124.97,86.5c-12.11.21-24.22.41-36.33.62-5.9.1-11.8.3-17.7.23-2.71-.03-5.64.07-8.3-.51s-3.34-3.08-4.12-5.39c-3.56-10.49-5.02-21.53-5.43-32.57-.21-5.53-.16-11.06,0-16.59.17-5.54.24-11.16.76-16.68.26-2.77,1.43-4.86,3.62-6.57,1.99-1.55,4.32-2.67,6.7-3.47,5.05-1.7,10.45-2.15,15.74-2.39,11.98-.56,24.04-.05,36.02.07s23.6-.32,35.23,1.25c4.98.67,11.29,1.37,15,5.13,3.22,3.26,4.17,8.12,4.86,12.47,1.78,11.3,2.08,22.85,1.02,34.24-.53,5.75-1.44,11.46-2.69,17.1-.59,2.66-1.16,5.39-2.04,7.97s-3.24,3.04-5.54,3.85c-2.72.96-5.44,1.92-8.15,2.88-1.81.64-1.03,3.54.8,2.89,2.94-1.04,5.89-2.08,8.83-3.12,2.38-.84,4.9-1.61,6.21-3.95s1.75-5.31,2.36-7.88c.69-2.91,1.29-5.85,1.79-8.8,2.04-12.02,2.57-24.28,1.49-36.43-.48-5.37-.97-11.04-2.68-16.19s-4.69-8.66-9.58-10.6c-5.44-2.16-11.72-2.73-17.51-3.17-6.21-.47-12.45-.49-18.67-.55C113.84.22,101.02-.02,88.2,0c-5.94.01-11.92.17-17.8,1.05-5.35.8-10.75,2.44-15.03,5.87-2.05,1.65-3.59,3.76-4.16,6.36s-.53,5.63-.67,8.41c-.29,5.99-.53,11.98-.57,17.98-.07,11.7.66,23.51,3.45,34.91.69,2.81,1.5,5.58,2.45,8.31.81,2.32,1.71,4.88,4.01,6.11s5.54,1.17,8.18,1.27c3.06.12,6.13.09,9.19.04,12.76-.2,25.52-.43,38.28-.65,3.15-.05,6.3-.11,9.45-.16,1.93-.03,1.93-3.03,0-3h0Z"/>
    <path class="cls-1" d="M100.74,32.51c1.93,0,1.93-3,0-3s-1.93,3,0,3h0Z"/>
    <path class="cls-1" d="M115.84,31.32c1.93,0,1.93-3,0-3s-1.93,3,0,3h0Z"/>
    <path class="cls-1" d="M82.46,38.42c4.33,6.99,10.91,12.62,18.99,14.66,8.66,2.19,17.89.24,25.57-4.1,4.83-2.73,9.1-6.41,12.65-10.67,1.23-1.47-.88-3.61-2.12-2.12-5.68,6.8-13.24,12.1-21.97,14.06-8.14,1.83-16.77.25-23.33-5.05-2.87-2.32-5.27-5.15-7.21-8.28-1.01-1.64-3.61-.13-2.59,1.51h0Z"/>
    <path class="cls-1" d="M52.68,64.02c-10.88.05-21.76.1-32.63.15-4.48.02-9.42-.05-13.26,2.64-3.02,2.11-4.81,5.37-5.73,8.87C.08,79.43-.03,83.36,0,87.21c.05,5.38.1,10.77.15,16.15s.1,10.93.15,16.4c.05,4.84-.16,9.77.45,14.58.61,4.76,2.32,9.29,6.23,12.3s8.45,3.93,13.01,4.6l-1.1-1.45c-.04,3.27-.09,6.54-.13,9.82-.02,1.64-.04,3.27-.07,4.91-.02,1.47-.16,2.99,0,4.45.34,2.94,2.89,3.67,5.35,2.56,2.62-1.19,5.14-2.68,7.6-4.17,4.84-2.94,9.44-6.29,13.73-9.98,1.1-.95,2.19-1.93,3.25-2.92,1-.94,1.95-1.99,3.4-2.07s3.13.37,4.63.58c1.58.22,3.16.42,4.74.61,12.71,1.47,25.57,1.61,38.32.44,3.2-.3,6.39-.68,9.57-1.13,2.43-.35,5.02-.73,6.97-2.36,2.2-1.84,2.42-4.66,2.69-7.32.32-3.28.59-6.57.8-9.86.92-14.64.67-29.35-.73-43.96-.18-1.9-3.18-1.92-3,0,1.18,12.31,1.55,24.69,1.08,37.04-.23,6.05-.55,12.15-1.29,18.16-.14,1.17-.34,2.43-1.16,3.34s-1.96,1.24-3.06,1.51c-2.68.66-5.51.89-8.24,1.19-11.99,1.35-24.12,1.52-36.14.51-3.09-.26-6.18-.59-9.26-1.01-2.56-.35-5.63-1.35-8.12-.31-2.29.96-4.07,3.24-5.91,4.85-2.1,1.84-4.27,3.59-6.52,5.23-2.47,1.81-5.02,3.5-7.64,5.08-1.25.75-2.51,1.47-3.8,2.17-.7.38-1.41.76-2.13,1.12-.3.15-1.55.99-1.94.83-.58-.24-.22-3.03-.21-3.62.02-1.72.05-3.44.07-5.15.05-3.52.09-7.03.14-10.55,0-.59-.47-1.35-1.1-1.45-3.82-.56-7.79-1.33-11.09-3.44s-5.09-5.73-5.79-9.6c-.77-4.27-.55-8.74-.59-13.06-.05-5.14-.1-10.27-.14-15.41s-.1-10.11-.14-15.16c-.04-4.05-.24-8.16.31-12.19.44-3.24,1.39-6.69,3.75-9.07,3.03-3.06,7.48-3.22,11.53-3.25,11.35-.08,22.69-.11,34.04-.16,1.93,0,1.93-3.01,0-3h0Z"/>
    <path class="cls-1" d="M45.36,109.63c1.93,0,1.93-3,0-3s-1.93,3,0,3h0Z"/>
    <path class="cls-1" d="M61.01,109.99c1.93,0,1.93-3,0-3s-1.93,3,0,3h0Z"/>
    <path class="cls-1" d="M76.22,109.59c1.93,0,1.93-3,0-3s-1.93,3,0,3h0Z"/>
  </g>
  <path class="cls-1" d="M14,11.02c.14-.37-.05.09.09-.21.16-.34.32-.67.5-1,.48-.89,1.04-1.74,1.72-2.49,1.77-1.99,4.13-3.23,6.81-3.11,3.49.16,5.59,2.93,5.67,6.28.05,1.95-.51,3.84-1.53,5.49-.87,1.42-2.04,2.49-3.17,3.68-2.76,2.91-3.06,6.92-1.53,10.53.32.75.99,1.27,1.85,1.05.71-.19,1.36-1.1,1.05-1.85-.81-1.92-1.26-4.05-.35-6.03.65-1.42,1.98-2.36,2.99-3.51,2.81-3.2,4.37-7.45,3.42-11.7-.86-3.86-3.9-6.51-7.81-6.91-3.24-.33-6.39.93-8.74,3.15-1.69,1.6-3.01,3.65-3.84,5.82-.69,1.8,2.21,2.58,2.89.8h0Z"/>
  <path class="cls-1" d="M26.81,44.12c1.93,0,1.93-3,0-3s-1.93,3,0,3h0Z"/>
</svg>