<?xml version="1.0" encoding="UTF-8"?>
<svg id="Calque_1" data-name="Calque 1" xmlns="http://www.w3.org/2000/svg" viewBox="0 0 78.22 96.72">
  <defs>
    <style>
      .cls-1 {
        fill: #0f548d;
        stroke-width: 0px;
      }
    </style>
  </defs>
  <path class="cls-1" d="M32.36,96.07c14.59-19.86,28.18-40.46,40.67-61.71,2.31-3.93,4.42-7.98,5.05-12.56.53-3.87-.24-7.99-3.67-10.33-4.51-3.07-10.19-.89-14.53,1.36s-8.35,5.09-11.95,8.38c-8.05,7.34-13.96,17-16.74,27.54h2.89c-4.51-10.83-9.01-21.67-13.52-32.5-1.11-2.67-2.22-5.34-3.33-8.01-.87-2.1-1.64-4.34-3.16-6.08-2.78-3.2-7.14-2.64-9.79.35C1.29,5.87.55,10.24.19,14.56c-.41,4.91-.13,9.85.66,14.71,1.61,9.83,5.46,19.18,10.15,27.92,5.48,10.2,12.19,19.67,19.03,28.98,1.13,1.54,3.74.04,2.59-1.51-11.07-15.06-22.42-30.99-27.37-49.27-1.19-4.42-1.98-8.94-2.19-13.51-.2-4.22-.22-8.95,1.07-13.01.79-2.49,3.31-7.32,6.64-5.56,1.78.94,2.55,3.33,3.27,5.06,1.02,2.44,2.03,4.88,3.05,7.32,4.7,11.29,9.39,22.59,14.09,33.88.53,1.27,2.48,1.57,2.89,0,2.32-8.79,6.89-16.88,13.15-23.46,3.15-3.31,6.69-6.22,10.57-8.63,3.65-2.26,8.83-5.54,13.31-4.26,3.77,1.08,4.5,5.03,3.97,8.43-.66,4.26-2.74,7.96-4.89,11.62-5.85,9.93-11.94,19.73-18.25,29.37-7.1,10.84-14.5,21.48-22.17,31.93-1.14,1.56,1.46,3.06,2.59,1.51h0Z"/>
</svg>