<?xml version="1.0" encoding="UTF-8"?>
<svg id="Calque_1" data-name="Calque 1" xmlns="http://www.w3.org/2000/svg" viewBox="0 0 151.47 197.52">
  <defs>
    <style>
      .cls-1 {
        fill: #0f548d;
        stroke-width: 0px;
      }
    </style>
  </defs>
  <path class="cls-1" d="M.15,117.53c-.19,16.93-.2,33.85-.02,50.78.05,4.81.12,9.62.2,14.44.03,1.93,3.03,1.93,3,0-.28-16.92-.38-33.85-.29-50.78.02-4.81.06-9.63.12-14.44.02-1.93-2.98-1.93-3,0H.15Z"/>
  <path class="cls-1" d="M2.07,185.7c19.24,0,38.49,0,57.73,0s38.49,0,57.73,0c10.83,0,21.66,0,32.49,0v-3c-2.12,0-4.24,0-6.35,0-1.93,0-1.93,3,0,3,.57,0,1.14,0,1.71,0,1.93,0,1.93-3,0-3-.57,0-1.14,0-1.71,0v3c2.12,0,4.24,0,6.35,0,1.93,0,1.93-3,0-3-19.24,0-38.49,0-57.73,0-19.24,0-38.49,0-57.73,0-10.83,0-21.66,0-32.49,0-1.93,0-1.93,3,0,3h0Z"/>
  <path class="cls-1" d="M150.62,184.2c0-16.13,0-32.26,0-48.39,0-1.93-3-1.93-3,0,0,16.13,0,32.26,0,48.39,0,1.93,3,1.93,3,0h0Z"/>
  <path class="cls-1" d="M149.05,134.77c-12.38-5.56-24.35-11.98-35.84-19.2-.95-.6-2.29.18-2.26,1.3.17,6.59.12,13.19-.14,19.78-.08,1.93,2.92,1.93,3,0,.26-6.59.31-13.19.14-19.78l-2.26,1.3c11.49,7.22,23.46,13.64,35.84,19.2,1.75.78,3.27-1.8,1.51-2.59h0Z"/>
  <path class="cls-1" d="M112.45,134.94c-12.38-5.56-24.35-11.98-35.84-19.2-.95-.6-2.29.18-2.26,1.3.17,6.59.12,13.19-.14,19.78-.08,1.93,2.92,1.93,3,0,.26-6.59.31-13.19.14-19.78l-2.26,1.3c11.49,7.22,23.46,13.64,35.84,19.2,1.75.78,3.27-1.8,1.51-2.59h0Z"/>
  <path class="cls-1" d="M75.85,134.94c-12.38-5.56-24.35-11.98-35.84-19.2-.95-.6-2.29.18-2.26,1.3.17,6.59.12,13.19-.14,19.78-.08,1.93,2.92,1.93,3,0,.26-6.59.31-13.19.14-19.78l-2.26,1.3c11.49,7.22,23.46,13.64,35.84,19.2,1.75.78,3.27-1.8,1.51-2.59h0Z"/>
  <path class="cls-1" d="M38.11,134.94c-12.38-5.56-24.35-11.98-35.84-19.2-1.64-1.03-3.15,1.56-1.51,2.59,11.49,7.22,23.46,13.64,35.84,19.2,1.75.78,3.27-1.8,1.51-2.59h0Z"/>
  <path class="cls-1" d="M48.68,47.23c-.88,19.21-1.95,38.41-3.21,57.6-.36,5.46-.73,10.92-1.12,16.37-.14,1.93,2.86,1.92,3,0,1.36-19.18,2.54-38.38,3.53-57.58.28-5.46.55-10.93.8-16.39.09-1.93-2.91-1.93-3,0h0Z"/>
  <path class="cls-1" d="M50.91,48.1l4.25-.06c.71,0,1.42-.02,2.13-.03s.97-.19,1.16.5c.37,1.34.31,2.97.44,4.36.14,1.53.28,3.07.4,4.61.47,5.99.79,11.99,1.04,17.99.52,12.08.82,24.18,1.75,36.24.52,6.76,1.26,13.5,2.31,20.2.3,1.9,3.19,1.09,2.89-.8-3.96-25.24-3-50.9-5.22-76.3-.16-1.78-.33-3.55-.51-5.33-.14-1.3-.17-2.68-1.18-3.63-1.08-1.01-2.67-.85-4.03-.83l-5.44.07c-1.93.03-1.93,3.03,0,3h0Z"/>
  <path class="cls-1" d="M87.89,57.31c-.81,16.67-1.62,33.34-2.43,50.01-.23,4.73-.46,9.46-.69,14.18-.09,1.93,2.91,1.92,3,0,.81-16.67,1.62-33.34,2.43-50.01.23-4.73.46-9.46.69-14.18.09-1.93-2.91-1.92-3,0h0Z"/>
  <path class="cls-1" d="M89.52,58.49l3.46-.06,1.85-.03c.49,0,.99-.19,1.18.17s.07,1.18.1,1.56c.03.58.07,1.16.1,1.74.08,1.4.16,2.81.25,4.21.3,5.21.61,10.41.91,15.62.6,10.33,1.2,20.66,1.81,30.98.34,5.87.68,11.73,1.03,17.6.11,1.92,3.11,1.93,3,0-1.3-22.31-2.6-44.62-3.9-66.93-.09-1.49-.14-2.98-.26-4.46-.09-1.09-.28-2.18-1.2-2.89-1.05-.8-2.46-.61-3.69-.59l-4.62.08c-1.93.03-1.93,3.03,0,3h0Z"/>
  <path class="cls-1" d="M77.63,19.41c0,1.58-1.75,2.78-2.51,4.04-1.02,1.7-1.36,3.6-1.16,5.55.25,2.41,1.14,4.93,3.15,6.42,1.83,1.36,4.51,1.78,6.42.33l-2.2-1.69c-.77,3.99,1.34,8.05,5.21,9.45,2.22.8,4.78.76,7.11.6,2.05-.14,4.12-.55,5.79-1.83s2.62-3.22,2.99-5.26c.18-.99.26-2,.26-3.01s-.33-2.26.07-3.17c.34-.78,1.33-1.15,2.01-1.58.93-.59,1.86-1.24,2.62-2.03,1.42-1.49,2.17-3.44,1.76-5.49-1.13-5.62-7.55-6.29-12.19-6.16l1.5,1.5c-.39-6.71-3.56-14.53-10.62-16.58-3.51-1.02-7.64-.46-10.83,1.28-2.38,1.29-4.38,3.8-2.75,6.49,1.53,2.52,4.79,3.9,7.41,4.97l.4-2.95c-2.2.13-5.81.22-7.04,2.52-1.5,2.82,2.4,4.15,2.61,6.6.16,1.91,3.16,1.93,3,0-.11-1.34-.58-2.45-1.4-3.51-.38-.49-1.09-1.55-1.52-1.79-.05-.03-.06.41-.04.13.01-.16-.14.05.04-.04.09-.05.17-.14.47-.27,1.18-.52,2.63-.56,3.89-.63,1.77-.1,1.94-2.32.4-2.95-.81-.33-2.09-.94-3.04-1.5-.87-.51-2.38-1.31-2.72-2.34-.3-.87.9-1.6,1.56-1.99,1.49-.87,3.27-1.35,4.99-1.47,7.89-.56,11.8,7.15,12.21,14.04.05.79.65,1.52,1.5,1.5,3.1-.09,7.75-.26,9.12,3.28s-3.58,4.69-5.29,6.57c-1.15,1.26-1.2,2.85-1.12,4.46s.05,3.22-.48,4.74c-1.21,3.49-5.05,3.56-8.18,3.52-1.94-.03-4.02-.27-5.42-1.75-1.13-1.2-1.67-2.94-1.36-4.56.22-1.12-1.06-2.56-2.2-1.69-1.42,1.08-3.22.19-4.07-1.2s-1.22-3.34-1-5.02c.04-.29-.03.17,0-.02.04-.21.1-.41.16-.61.13-.43.3-.82.52-1.21.36-.63.82-1.16,1.28-1.71,1-1.19,1.73-2.38,1.72-3.99-.01-1.93-3.01-1.93-3,0Z"/>
</svg>