<?xml version="1.0" encoding="UTF-8"?>
<svg id="Calque_1" data-name="Calque 1" xmlns="http://www.w3.org/2000/svg" viewBox="0 0 81.41 67.6">
  <defs>
    <style>
      .cls-1 {
        fill: #6dc3bc;
        stroke-width: 0px;
      }
    </style>
  </defs>
  <path class="cls-1" d="M79.52,47.7c-13.31,2.05-26.23-3.5-37.59-9.88-10.49-5.89-21.17-12.38-29.5-21.18C8.21,12.18,4.68,7,2.96,1.05,2.42-.8-.47,0,.07,1.85c3.38,11.66,12.78,20.34,22.32,27.23,5.31,3.83,10.9,7.25,16.58,10.5s11.94,6.45,18.36,8.63c7.42,2.51,15.22,3.58,23,2.38,1.9-.29,1.09-3.18-.8-2.89h0Z"/>
  <path class="cls-1" d="M80.8,47c-6.47-5.16-12.08-11.34-16.19-18.53-.96-1.68-3.55-.17-2.59,1.51,4.23,7.4,10.01,13.83,16.66,19.14.63.5,1.5.62,2.12,0,.52-.52.64-1.61,0-2.12h0Z"/>
  <path class="cls-1" d="M79.53,47.71c-12.26,3.38-23.92,9.1-33.61,17.39-1.47,1.26.66,3.37,2.12,2.12,9.29-7.95,20.55-13.38,32.29-16.62,1.86-.51,1.07-3.41-.8-2.89h0Z"/>
</svg>