<svg width="389" height="403" xmlns="http://www.w3.org/2000/svg" xmlns:xlink="http://www.w3.org/1999/xlink" xml:space="preserve" overflow="hidden"><g transform="translate(-1462 -7017)"><g><path d="M1658.55 7020C1542 7020 1466 7099.16 1466 7219 1466 7338.84 1542 7418 1657.45 7418 1772.9 7418 1848.86 7339.97 1850 7219 1848.86 7099.16 1773.41 7020 1658.55 7020Z" fill="#42A29A" fill-rule="evenodd" fill-opacity="1"/><path d="M1735.66 7257.45C1707.03 7224.54 1681.99 7188.66 1660.78 7150.51 1658.83 7146.96 1653.98 7147.37 1651.93 7150.51 1627.92 7187.49 1603.87 7224.44 1579.85 7261.42 1576.23 7267 1585.08 7272.17 1588.7 7266.62 1612.72 7229.64 1636.76 7192.69 1660.78 7155.71L1651.93 7155.71C1673.56 7194.66 1699.24 7231.19 1728.42 7264.76 1732.79 7269.76 1740 7262.45 1735.66 7257.45Z" fill="#FFFFFF" fill-rule="evenodd" fill-opacity="1"/></g></g></svg>