<?xml version="1.0" encoding="UTF-8"?>
<svg id="Calque_1" data-name="Calque 1" xmlns="http://www.w3.org/2000/svg" viewBox="0 0 57.83 47.17">
  <defs>
    <style>
      .cls-1 {
        fill: #6dc3bc;
        stroke-width: 0px;
      }
    </style>
  </defs>
  <path class="cls-1" d="M2.28,5.14c4.54-2.23,9.84-2.74,14.73-1.47s8.73,4.06,11.94,7.6c4.71,5.19,8.39,11.43,11.36,17.75,2.45,5.21,4.35,10.65,5.86,16.2.51,1.86,3.4,1.07,2.89-.8-2.57-9.45-6.34-18.65-11.67-26.89C32.75,10.37,26.93,3.41,18.4.94,12.55-.75,6.22-.13.76,2.55c-1.73.85-.21,3.44,1.51,2.59h0Z"/>
  <path class="cls-1" d="M49.88,46.08c1.56-8.39,4.15-16.56,7.79-24.28.82-1.74-1.77-3.26-2.59-1.51-3.75,7.96-6.49,16.34-8.09,24.99-.35,1.89,2.54,2.7,2.89.8h0Z"/>
  <path class="cls-1" d="M47.93,43.9c-8.2-1.8-16.26-4.19-24.12-7.15-1.81-.68-2.59,2.22-.8,2.89,7.86,2.96,15.92,5.35,24.12,7.15,1.88.41,2.69-2.48.8-2.89h0Z"/>
</svg>