<?xml version="1.0" encoding="UTF-8"?>
<svg id="Calque_1" data-name="Calque 1" xmlns="http://www.w3.org/2000/svg" viewBox="0 0 85.86 83.01">
  <defs>
    <style>
      .cls-1 {
        fill: #c6271a;
        stroke-width: 0px;
      }
    </style>
  </defs>
  <path class="cls-1" d="M34.44.39C19.14,2.93,6.39,16.06,2.46,30.8c-1.26,4.73-1.79,9.65-2.12,14.52-.39,5.55-.86,11.4,1.28,16.67,4.11,10.13,14.57,15.19,24.59,17.67s20.78,4.28,31.06,2.85c9.62-1.33,18.12-6.34,22.89-14.95s5.65-18.34,5.7-27.76c.04-7-.42-15.2-4.49-21.23-3.63-5.39-10.29-8.08-16.02-10.52C57.28,4.61,48.7.27,39.75,0c-1.78-.05-3.55.11-5.3.38-1.9.29-1.09,3.19.8,2.89,7.49-1.16,14.73,1.63,21.55,4.41,4.84,1.97,9.75,3.9,14.36,6.37,2.37,1.27,4.75,2.69,6.58,4.71.6.66.62.69,1.05,1.32.49.73.91,1.51,1.29,2.31,1.38,2.96,2.07,6.3,2.44,9.53.53,4.71.45,9.53.13,14.26s-.99,9.05-2.34,13.4c-2.7,8.62-8.52,15.65-17.25,18.55s-18.76,1.98-27.85.35c-9.87-1.78-20.66-4.17-27.48-12.15-3.4-3.98-4.71-8.75-4.7-13.92s.39-10.15,1.16-15.11c.66-4.23,1.72-8.43,3.57-12.3.95-1.99,2.09-3.9,3.36-5.7.74-1.04,1.06-1.45,1.7-2.24,4.21-5.17,9.61-9.58,15.87-11.99,2.12-.82,4.32-1.4,6.57-1.77,1.9-.32,1.09-3.21-.8-2.89Z"/>
  <path class="cls-1" d="M38.69,13.45c-.05,8.43-.05,16.86.03,25.29.02,1.8-.28,3.93.18,5.69.4,1.55,1.75,2.18,3.25,2.14,1.71-.04,3.42-.13,5.13-.17,3.95-.09,7.89-.16,11.84-.24,1.93-.04,1.93-3.04,0-3-4.05.07-8.1.15-12.14.24-1.2.03-2.4.06-3.6.1-.33.01-.66.03-.99.05-.65.04-.61.12-.62-.6-.17-9.83-.13-19.67-.07-29.51.01-1.93-2.99-1.93-3,0h0Z"/>
  <path class="cls-1" d="M38.86,11.91c-2,1.85-4,3.7-6,5.55-.58.53-.58,1.59,0,2.12.62.57,1.51.57,2.12,0,2-1.85,4-3.7,6-5.55.58-.53.58-1.59,0-2.12-.62-.57-1.51-.57-2.12,0h0Z"/>
  <path class="cls-1" d="M39.73,14.34c2.09,2.04,4.19,4.08,6.28,6.13.56.55,1.57.6,2.12,0s.6-1.54,0-2.12c-2.09-2.04-4.19-4.08-6.28-6.13-.56-.55-1.57-.6-2.12,0s-.6,1.54,0,2.12h0Z"/>
  <path class="cls-1" d="M53.87,40.32l2.26,2.5,1.13,1.25c.2.22.4.44.6.66.03.03.19.26.23.26-.1,0-.08-.33-.08-.33,0,.11,0-.35.04-.31-.01,0-.07.06-.15.13-.2.18-.43.35-.64.52-.44.35-.87.71-1.31,1.06-.9.73-1.8,1.46-2.69,2.18-.63.51-.53,1.59,0,2.12.62.62,1.49.51,2.12,0,1.03-.83,2.05-1.66,3.08-2.5s2.55-1.72,2.52-3.21c-.03-1.41-1.4-2.48-2.28-3.45l-2.73-3.02c-.54-.6-1.57-.55-2.12,0-.6.6-.54,1.52,0,2.12h0Z"/>
</svg>