<?xml version="1.0" encoding="UTF-8"?>
<svg id="Calque_1" data-name="Calque 1" xmlns="http://www.w3.org/2000/svg" viewBox="0 0 79.57 77.99">
  <defs>
    <style>
      .cls-1 {
        fill: #0f548d;
      }

      .cls-1, .cls-2 {
        stroke-width: 0px;
      }

      .cls-2 {
        fill: #fff;
      }
    </style>
  </defs>
  <g>
    <path class="cls-2" d="M77.61,46.79c-1.42,10.39-9.69,16.69-19.58,19.52-7.08,2.13-14.8,2.77-21.76.79-7.03-1.94-13.21-6.35-17.87-11.91-5.46-6.37-8.07-13.77-7.45-21.07.58-6.78,3.83-11.39,6.47-15.14,2.08-2.97,8.16-10.79,19.18-14.94,3.86-1.45,8.39-3.15,14.19-2.48,11.81,1.36,18.82,11.39,20.9,14.37,2.03,2.9,8.07,15.1,5.92,30.86Z"/>
    <path class="cls-1" d="M76.17,46.39c-.94,6.46-4.76,11.63-10.31,14.97-6.47,3.89-14.63,5.71-22.13,5.4-7.96-.32-15.35-3.8-21.09-9.25s-10-12.48-10.26-20.46c-.12-3.77.67-7.5,2.33-10.88,1.23-2.51,2.83-4.84,4.48-7.09,3.13-4.28,7.22-7.95,11.78-10.67,3.13-1.87,6.53-3.26,10.02-4.32,3.66-1.12,7.48-1.54,11.27-.79,5.98,1.19,11.03,4.81,14.99,9.32,6.67,7.59,9.4,17.91,9.31,27.89-.02,2.1-.18,4.19-.45,6.27-.11.81.77,1.49,1.5,1.5.9,0,1.39-.7,1.5-1.5,1.54-11.71-.72-24.86-8.12-34.33-3.72-4.76-8.45-8.78-14.13-10.96-7.81-2.98-15.79-1.16-23.16,2.12-6.06,2.69-11.48,6.91-15.65,12.06s-7.53,10.55-8.42,16.93c-2.32,16.77,12.16,32.87,27.97,36.36,8.48,1.87,17.74.44,25.66-2.95,6.35-2.71,11.87-7.32,14.48-13.83.65-1.61,1.07-3.29,1.32-5.01.27-1.89-2.62-2.7-2.89-.8Z"/>
  </g>
  <path class="cls-1" d="M20.62,58.05c-6.71,5.81-13.42,11.62-20.12,17.43-1.46,1.27.67,3.38,2.12,2.12,6.71-5.81,13.42-11.62,20.12-17.43,1.46-1.27-.67-3.38-2.12-2.12h0Z"/>
  <path class="cls-1" d="M26.68,27.54c5.04-6.6,12.66-10.57,19.86-14.35,1.71-.9.19-3.49-1.51-2.59-7.73,4.07-15.54,8.36-20.94,15.43-.5.65-.1,1.67.54,2.05.77.46,1.56.1,2.05-.54h0Z"/>
</svg>