<?xml version="1.0" encoding="UTF-8"?>
<svg id="Calque_1" data-name="Calque 1" xmlns="http://www.w3.org/2000/svg" viewBox="0 0 90.51 94.76">
  <defs>
    <style>
      .cls-1 {
        fill: #3fb24f;
      }

      .cls-1, .cls-2 {
        stroke-width: 0px;
      }

      .cls-2 {
        fill: #fff;
      }
    </style>
  </defs>
  <path class="cls-1" d="M45.39,0C17.92,0,0,18.85,0,47.38s17.92,47.38,45.12,47.38,45.12-18.58,45.39-47.38C90.25,18.85,72.46,0,45.39,0Z"/>
  <path class="cls-2" d="M68.39,24.15c-9.33,14.34-18.66,28.67-28,43.01-7.1-6.04-13.27-13.06-18.28-20.93-1.19-1.87-4.17-.14-2.98,1.74,5.54,8.7,12.41,16.48,20.42,22.99.88.72,2.06.65,2.71-.35,9.7-14.9,19.4-29.81,29.11-44.71,1.21-1.87-1.77-3.6-2.98-1.74Z"/>
</svg>