<svg width="57" height="58" xmlns="http://www.w3.org/2000/svg" xmlns:xlink="http://www.w3.org/1999/xlink" xml:space="preserve" overflow="hidden"><defs><clipPath id="clip0"><rect x="116" y="663" width="57" height="57"/></clipPath><clipPath id="clip1"><rect x="116" y="663" width="57" height="57"/></clipPath><clipPath id="clip2"><rect x="116" y="663" width="57" height="57"/></clipPath></defs><g transform="translate(-116 -662)"><g><g clip-path="url(#clip0)"><g clip-path="url(#clip1)"><g clip-path="url(#clip2)"><path d="M123.766 671.659C122.115 673.851 117.894 679.425 116.825 688.611 116.541 691.06 115.256 700.423 119.612 707.025 121.696 710.178 124.591 712.085 127.487 713.641 132.479 716.32 137.701 718.214 143.019 719.256 148.092 720.244 153.355 720.446 158.293 718.579 163.232 716.712 167.859 712.559 170.308 706.457 171.796 702.736 172.432 698.474 172.567 694.24 172.716 689.626 172.283 684.972 171.295 680.548 170.835 678.491 170.226 676.394 169.036 674.974 168.17 673.918 167.061 673.31 165.965 672.728 157.427 668.101 153.071 664.204 142.423 663.244 138.703 662.905 136.159 662.716 132.871 664.055 128.095 666.017 125.119 669.873 123.766 671.645Z" fill="#017B3B" fill-rule="nonzero" fill-opacity="1"/></g></g></g></g></g></svg>