<svg width="54" height="56" xmlns="http://www.w3.org/2000/svg" xmlns:xlink="http://www.w3.org/1999/xlink" xml:space="preserve" overflow="hidden"><defs><clipPath id="clip0"><rect x="116" y="476" width="54" height="56"/></clipPath><clipPath id="clip1"><rect x="116" y="476" width="54" height="56"/></clipPath><clipPath id="clip2"><rect x="116" y="476" width="54" height="55"/></clipPath><clipPath id="clip3"><rect x="116" y="476" width="54" height="55"/></clipPath><clipPath id="clip4"><rect x="116" y="476" width="54" height="55"/></clipPath></defs><g clip-path="url(#clip0)" transform="translate(-116 -476)"><g clip-path="url(#clip1)"><g clip-path="url(#clip2)"><g clip-path="url(#clip3)"><g clip-path="url(#clip4)"><path d="M6.95989 8.20318C5.39615 10.2796 1.3971 15.5604 0.384524 24.2635 0.115357 26.5834-1.1023 35.4531 3.02492 41.708 4.99881 44.6945 7.74175 46.5018 10.4847 47.9758 15.2143 50.5136 20.1619 52.3081 25.1991 53.295 30.0057 54.2307 34.9917 54.423 39.6701 52.6542 44.3484 50.8854 48.732 46.9504 51.052 41.1697 52.4619 37.6449 53.0643 33.6074 53.1925 29.5955 53.3335 25.2248 52.9233 20.8156 51.9877 16.6243 51.5519 14.676 50.9751 12.6893 49.8471 11.3435 49.0268 10.3437 47.9758 9.76691 46.9376 9.21576 38.8498 4.83219 34.7225 1.14075 24.6352 0.230714 21.1104-0.0897223 18.7007-0.269167 15.586 0.999763 11.0615 2.8583 8.24163 6.51127 6.95989 8.19036Z" fill="#E82D0A" fill-rule="nonzero" fill-opacity="1" transform="matrix(1 0 0 1.01852 116.397 476)"/></g></g></g></g></g></svg>