<svg width="57" height="57" xmlns="http://www.w3.org/2000/svg" xmlns:xlink="http://www.w3.org/1999/xlink" xml:space="preserve" overflow="hidden"><defs><clipPath id="clip0"><rect x="116" y="570" width="57" height="56"/></clipPath><clipPath id="clip1"><rect x="116" y="570" width="57" height="56"/></clipPath><clipPath id="clip2"><rect x="116" y="570" width="57" height="56"/></clipPath></defs><g transform="translate(-116 -569)"><g><g clip-path="url(#clip0)"><g clip-path="url(#clip1)"><g clip-path="url(#clip2)"><path d="M7.21766 8.507C5.59601 10.6603 1.44885 16.1367 0.398766 25.1621 0.11963 27.568-1.14313 36.7662 3.13696 43.2528 5.18395 46.3499 8.02848 48.2241 10.873 49.7527 15.7778 52.3845 20.9086 54.2454 26.1324 55.2689 31.117 56.2393 36.2877 56.4386 41.1393 54.6043 45.991 52.77 50.5369 48.6893 52.9428 42.6945 54.4049 39.0392 55.0297 34.8521 55.1626 30.6917 55.3088 26.159 54.8835 21.5865 53.9131 17.24 53.4612 15.2196 52.863 13.1593 51.6933 11.7636 50.8426 10.7268 49.7527 10.1286 48.676 9.55709 40.2886 5.01116 36.0085 1.183 25.5476 0.239259 21.8922-0.0930453 19.3933-0.279136 16.1633 1.03679 11.4712 2.96416 8.54688 6.75243 7.21766 8.49371Z" fill="#F17800" fill-rule="nonzero" fill-opacity="1" transform="matrix(1.01786 0 0 1 116.419 570)"/></g></g></g></g></g></svg>