<?xml version="1.0" encoding="UTF-8"?>
<svg id="Calque_1" data-name="Calque 1" xmlns="http://www.w3.org/2000/svg" viewBox="0 0 69.96 68.5">
  <defs>
    <style>
      .cls-1 {
        fill: #0f548d;
        stroke-width: 0px;
      }
    </style>
  </defs>
  <path class="cls-1" d="M10.97,9.57c-3.92,3.71-7,8.37-8.94,13.4-3.12,8.1-2.62,17.29,1.41,24.99,2.89,5.52,7.43,10.06,12.59,13.5,4.74,3.16,10.01,5.66,15.67,6.61,8.85,1.48,17.59-.97,24.58-6.53,6.23-4.95,10.83-12.15,12.74-19.87.91-3.69,1.21-7.53.68-11.31-.6-4.29-2.35-8.22-4.65-11.86-2.8-4.45-6.12-8.49-10.32-11.7C47.78,1.47,38.96-.91,30.28.31c-6.57.92-12.79,3.85-17.9,8.03-.48.39-.95.8-1.41,1.23-1.41,1.33.72,3.44,2.12,2.12C22.45,2.88,37.18.24,48.73,6.46c4.97,2.68,9.13,6.69,12.3,11.34,1.43,2.1,2.79,4.28,3.85,6.59,1.65,3.63,2.3,7.6,2.03,11.57-1,15-13.94,29.25-29.34,29.57-6.55.13-12.74-2.15-18.25-5.53-3.97-2.43-7.62-5.43-10.47-9.14-4.79-6.23-6.91-14.26-5.39-22.02,1.16-5.93,4.2-11.43,8.32-15.83.43-.45.87-.9,1.32-1.32,1.41-1.33-.72-3.45-2.12-2.12Z"/>
  <path class="cls-1" d="M32.31,22.84c-.28,8.57.21,17.12,1.4,25.61.27,1.9,3.16,1.09,2.89-.8-1.15-8.22-1.56-16.52-1.29-24.81.06-1.93-2.94-1.93-3,0h0Z"/>
  <path class="cls-1" d="M18.54,38.01c11.26,2.57,23.31.58,33.1-5.57,1.63-1.02.13-3.62-1.51-2.59-9.11,5.72-20.3,7.66-30.79,5.27-1.88-.43-2.68,2.46-.8,2.89h0Z"/>
</svg>