<?xml version="1.0" encoding="UTF-8"?>
<svg id="Calque_1" data-name="Calque 1" xmlns="http://www.w3.org/2000/svg" viewBox="0 0 167.67 163.47">
  <defs>
    <style>
      .cls-1 {
        fill: #d9f2f2;
      }

      .cls-1, .cls-2 {
        stroke-width: 0px;
      }

      .cls-2 {
        fill: #c42923;
      }
    </style>
  </defs>
  <path class="cls-1" d="M6.49,67.15c-2.6,6.55-9.24,23.28-3.85,43.6,1.43,5.41,6.42,26.38,24.52,34.73,8.64,3.99,18.45,4.39,27.92,4.07,16.32-.55,32.56-3.03,48.28-7.38,15.02-4.15,29.8-10.15,41.82-20.07,12.02-9.92,21.09-24.16,22.33-39.79.76-9.53-1.38-19.14-4.87-28.06-3.81-9.73-9.24-18.83-16.01-26.79-3.14-3.7-6.76-7.28-11.36-8.79-3.38-1.11-7.02-1.02-10.57-.91-27.92.87-43.58-1.88-74.05,9.16-10.63,3.85-17.91,6.57-25.8,13.38-11.48,9.9-16.25,21.54-18.36,26.85Z"/>
  <g>
    <path class="cls-2" d="M71.29,68.79c1.93,0,1.93-3,0-3s-1.93,3,0,3h0Z"/>
    <path class="cls-2" d="M88.23,68.52c1.93,0,1.93-3,0-3s-1.93,3,0,3h0Z"/>
    <path class="cls-2" d="M49.21,82.08c6.8,6.99,14.1,14.3,23.84,16.84,4.62,1.2,9.5,1.15,14.02-.46s8.37-4.34,11.86-7.48c3.76-3.38,7.41-7.49,8.23-12.66.3-1.89-2.59-2.7-2.89-.8-.67,4.21-3.4,7.51-6.41,10.37s-6.52,5.56-10.44,7.23c-8.59,3.65-17.61.58-24.77-4.69-4.15-3.05-7.74-6.79-11.32-10.47-1.35-1.39-3.47.74-2.12,2.12h0Z"/>
    <path class="cls-2" d="M26.74,104.45c.53,12.35,1.07,24.7,1.56,37.05.1,2.51.21,5.02.26,7.53.02.78.06,1.55.33,2.29.59,1.62,1.9,2.36,3.47,2.84,3.63,1.1,7.32,2.05,11.01,2.96,14.87,3.66,30.12,6.04,45.45,6.33,7.73.15,15.46-.26,23.12-1.28,3.01-.4,6.21-.83,8.14-3.45,1.49-2.02,1.75-4.59,1.62-7.02-.65-12.39-.38-24.84-.35-37.24,0-1.93-3-1.93-3,0-.03,11.36-.2,22.74.2,34.1.06,1.61.24,3.25.17,4.86-.05,1.11-.26,2.26-.85,3.22-.79,1.29-2.13,1.83-3.55,2.15-3.37.75-6.95.97-10.39,1.24-3.61.28-7.24.43-10.86.46-14.59.1-29.13-1.78-43.35-4.95-3.56-.79-7.1-1.66-10.62-2.6-1.68-.45-3.36-.92-5.03-1.4-1.4-.4-2.44-.58-2.51-2.19-.08-2.07-.12-4.15-.2-6.22-.5-12.89-1.08-25.78-1.63-38.67-.08-1.92-3.08-1.93-3,0h0Z"/>
    <path class="cls-2" d="M41.41,107.27c-7.74-2.08-15.57-4.93-21.73-10.24s-10.62-12.83-13.52-20.25-4.39-15.53-1.95-23.12,8.99-12.24,16.48-13.34c10.2-1.5,19.41,4.12,27.63,9.41,1.63,1.05,3.13-1.55,1.51-2.59-7.97-5.12-16.77-10.43-26.6-10.03-8.13.33-16.15,4.39-20.17,11.67-4.17,7.55-3.58,16.86-1.16,24.86s7.03,16.55,12.97,22.93c6.8,7.3,16.31,11.07,25.75,13.61,1.87.5,2.66-2.39.8-2.89h0Z"/>
    <path class="cls-2" d="M39.57,42.76c5.12-10.36,11.44-20.65,19.51-28.97,5.14-5.31,11.42-9.68,18.93-10.62,5.1-.64,10.31.67,14.87,2.92,3.29,1.62,6.09,3.86,7.7,7.2,1.8,3.72,2.28,8.16,2.74,12.21.62,5.41.82,10.85.65,16.29-.06,1.93,2.94,1.93,3,0,.16-5.15,0-10.31-.55-15.44-.45-4.18-.95-8.52-2.38-12.5-1.2-3.33-3.22-6.13-6.09-8.24-4.12-3.02-9.4-4.85-14.44-5.43-17.3-2.01-29.78,13.56-38.16,26.46-3.05,4.7-5.88,9.58-8.36,14.61-.85,1.72,1.73,3.25,2.59,1.51h0Z"/>
    <path class="cls-2" d="M114.41,115.98c6.54-.07,11.92-4.36,16.32-8.79s8.29-9.14,11.84-14.15c7.29-10.31,12.81-22.12,14.74-34.66,1.06-6.86,1.4-13.91-1.48-20.39-2.31-5.19-5.99-9.71-10.49-13.15-5.28-4.02-11.66-6.63-18.35-6.54-8.4.12-17.16,4.17-22.87,10.37-1.31,1.42.81,3.55,2.12,2.12,4.3-4.67,10.5-7.98,16.7-9.11s12.27.34,17.73,3.61c4.06,2.43,7.55,5.76,10.13,9.73,1.76,2.71,3.17,5.67,3.83,8.84s.53,6.68.23,9.98c-1.07,11.9-5.61,23.25-11.95,33.29-3.51,5.56-7.58,10.75-12.05,15.57s-9.65,10.2-16.45,10.27c-1.93.02-1.93,3.02,0,3h0Z"/>
  </g>
</svg>