<?xml version="1.0" encoding="UTF-8"?>
<svg id="Calque_1" data-name="Calque 1" xmlns="http://www.w3.org/2000/svg" xmlns:xlink="http://www.w3.org/1999/xlink" viewBox="0 0 1080 97">
  <defs>
    <style>
      .cls-1 {
        fill: #fff;
      }

      .cls-1, .cls-2 {
        stroke-width: 0px;
      }

      .cls-2 {
        fill: url(#Dégradé_sans_nom_16);
      }
    </style>
    <linearGradient id="Dégradé_sans_nom_16" data-name="Dégradé sans nom 16" x1="0" y1="48.5" x2="1080" y2="48.5" gradientUnits="userSpaceOnUse">
      <stop offset="0" stop-color="#306c66"/>
      <stop offset=".61" stop-color="#a9dbd6"/>
      <stop offset="1" stop-color="#d9f2f2" stop-opacity=".2"/>
    </linearGradient>
  </defs>
  <path class="cls-2" d="M1080,0v97H0c34.96-3.14,69.93-6.28,104.89-9.42,1-.09,2-.18,3-.27,34.93-3.14,69.85-6.27,104.78-9.41,1-.09,2-.18,3-.27,35.41-3.18,70.81-6.36,106.22-9.54,1-.09,2-.18,3-.27,35-3.14,70-6.29,105-9.43,1-.09,2-.18,3-.27,35.33-3.17,70.67-6.35,106-9.52,1-.09,2-.18,3-.27,35.07-3.15,70.15-6.3,105.22-9.45,1-.09,2-.18,3-.27,35.27-3.17,70.53-6.33,105.8-9.5.99-.09,1.97-.18,2.96-.27,35.15-3.16,70.3-6.31,105.45-9.47,1-.09,2-.18,3-.27.03,0,.05-.01.08-.01,34.83-3.13,69.66-6.25,104.49-9.38,1.01-.09,2.01-.18,3.02-.27,35.03-3.15,70.06-6.3,105.09-9.44Z"/>
  <path class="cls-1" d="M215.67,77.63v19.45h-3v-19.18c1-.09,2-.18,3-.27Z"/>
  <path class="cls-1" d="M432.89,58.12v38.96h-3v-38.69c1-.09,2-.18,3-.27Z"/>
  <path class="cls-1" d="M650.11,38.61v58.47h-3v-58.2c1-.09,2-.18,3-.27Z"/>
  <path class="cls-1" d="M867.32,19.1v77.98h-3V19.37c1-.09,2-.18,3-.27Z"/>
  <path class="cls-1" d="M974.91,9.44c-.01.92-.02,1.83-.02,2.75v84.89h-3V9.71c1.01-.09,2.01-.18,3.02-.27Z"/>
  <path class="cls-1" d="M758.87,28.84v68.24h-2.96V29.11c.99-.09,1.97-.18,2.96-.27Z"/>
  <path class="cls-1" d="M541.89,48.33v48.75h-3v-48.48c1-.09,2-.18,3-.27Z"/>
  <path class="cls-1" d="M324.89,67.82v29.26h-3v-28.99c1-.09,2-.18,3-.27Z"/>
  <path class="cls-1" d="M107.89,87.31v9.77h-3v-9.5c1-.09,2-.18,3-.27Z"/>
</svg>