<?xml version="1.0" encoding="UTF-8"?>
<svg id="Calque_1" data-name="Calque 1" xmlns="http://www.w3.org/2000/svg" viewBox="0 0 236.47 245.88">
  <defs>
    <style>
      .cls-1 {
        fill: #ffc400;
      }

      .cls-1, .cls-2 {
        stroke-width: 0px;
      }

      .cls-2 {
        fill: #ffebab;
      }
    </style>
  </defs>
  <path class="cls-2" d="M120.12.01C48.35-.88.94,47.78.01,122.32c-.83,67.06,35.78,113.37,94.08,123.27.1.02.2.04.3.05l141.41-108.8s.02,0,.03,0c0-.01,0-.02,0-.03.33-3.78.54-7.63.63-11.56C236.71,50.7,190.85.89,120.12.01Z"/>
  <path class="cls-1" d="M235.51,137.04l-141.57,108.59-.32.24c0-.1,0-.2.01-.3.92-18.79,5.49-35.88,13.3-50.71,14.92-28.29,41.69-48.33,77.64-56.13,3.13-.68,6.33-1.27,9.6-1.76,14.57-2.19,28.42-2.11,41.33.05Z"/>
  <g>
    <path class="cls-1" d="M48.04,120.62l-15.82-.82-.39,7.48-5.34-.28,1.09-20.87,5.34.28-.39,7.45,15.82.82-.31,5.94Z"/>
    <path class="cls-1" d="M49.56,105.63l-20.67-4.63,1.3-5.8,20.67,4.63-1.3,5.8Z"/>
    <path class="cls-1" d="M42.18,94.22l-3.46-1.21.66-1.88c.25-.72.16-1.12-.71-1.42l-.42-.15-1.11,3.19-5.73-2,2.54-7.28,6.12,2.13c3.08,1.07,3.93,3.41,2.84,6.55l-.72,2.06Z"/>
    <path class="cls-1" d="M45.06,82.43c-5.5-3.66-6.68-9.64-2.61-15.78,3.94-5.92,9.11-7.6,13.83-4.47l.45.3-3.67,5.53-.45-.3c-2-1.33-3.42-.91-5.36,2.02-2.38,3.58-2.18,5.11,1.32,7.44,3.5,2.33,4.99,1.91,7.37-1.67,1.94-2.92,1.78-4.39-.22-5.72l-.45-.3,3.67-5.53.45.3c4.71,3.13,5.17,8.56,1.23,14.48-4.08,6.13-10.05,7.36-15.55,3.7Z"/>
    <path class="cls-1" d="M62.07,58.88c-3.63-5.52-2.34-11.51,3.82-15.55,6.32-4.15,12.27-2.91,15.9,2.61,3.63,5.52,2.39,11.48-3.92,15.62-6.16,4.04-12.16,2.84-15.79-2.68ZM76.5,49.4c-2.31-3.51-3.89-3.68-7.49-1.32-3.59,2.36-3.96,3.81-1.66,7.33,2.31,3.51,3.79,3.75,7.38,1.39,3.59-2.36,4.07-3.88,1.76-7.4Z"/>
    <path class="cls-1" d="M89.65,54.29l-4.54-20.68,6.17-1.36,7.44,6.49,4.07,4.09.4-.09-1.27-4.45-1.76-8,5.8-1.27,4.54,20.68-6.17,1.36-7.86-6.62-3.52-3.5-.4.09,1.11,3.9,1.78,8.09-5.8,1.27Z"/>
    <path class="cls-1" d="M113.04,42.37v-.19s5.94.33,5.94.33l-.04.66c-.08,1.42.41,1.83,4.38,2.05,3.6.2,3.99-.06,4.05-1.01.04-.76-.35-1.1-2.07-1.41l-6.58-1.25c-3.92-.76-5.79-2.98-5.6-6.39.19-3.38,3-6.77,10.64-6.34,6.72.37,9.78,3.49,9.52,8.22v.19s-5.94-.33-5.94-.33l.03-.47c.08-1.51-.55-2.06-4.53-2.28-3.03-.17-3.72.21-3.77,1.12-.04.66.32,1,1.45,1.22l6.57,1.35c5.13,1.04,6.38,3.77,6.23,6.49-.2,3.63-3.16,6.7-10.29,6.3-6.47-.36-10.29-2.88-9.99-8.25Z"/>
    <path class="cls-1" d="M134.72,51.23l7.08-19.96,17.72,6.28-1.78,5.03-12.12-4.3-.84,2.38,11.68,4.14-1.77,5-11.68-4.14-.89,2.5,12.12,4.3-1.78,5.03-17.73-6.28Z"/>
    <path class="cls-1" d="M153.91,59.02l11.36-17.88,5.02,3.19-11.36,17.88-5.02-3.19Z"/>
    <path class="cls-1" d="M161.06,63.06l15.14-14.81,4.16,4.25-11.32,11.08,8.56,8.74-3.82,3.74-12.71-12.99Z"/>
  </g>
  <g>
    <path class="cls-1" d="M111.34,146.58c.01-4.09-.75-8.15-2.39-11.91s-4.11-6.76-5.81-10.33c-3.55-7.44-5.08-17.8,1.87-23.88,3.36-2.94,8.24-4.25,12.61-4.55s8.77.51,12.36,3.07c6.67,4.76,8.72,13.99,6.48,21.56-1.5,5.09-4.88,9.32-7.3,13.97-2.02,3.87-3.03,8.13-2.98,12.5.01,1.45,2.26,1.45,2.25,0-.04-4.39,1.08-8.47,3.18-12.31,2.37-4.34,5.38-8.36,6.89-13.12,2.53-8,.67-17.55-5.76-23.25-6.8-6.04-17.33-5.83-25.21-2.13-8.53,4-11.06,13.68-8.91,22.3,1.3,5.22,4,9.82,6.81,14.34,2.56,4.12,3.69,8.91,3.67,13.74,0,1.45,2.25,1.45,2.25,0h0Z"/>
    <path class="cls-1" d="M110.13,147.87c3.69-.1,7.36.19,11.04.35,1.8.08,3.61.11,5.41.05.65-.02,1.86-.29,2.11.52.31,1.05-.47.94-1.26,1.03-3.48.41-7,.3-10.49.04-1.78-.13-3.55-.3-5.32-.49-.75-.08-1.55-.09-2.28-.26-.37-.08-.53-.08-.54-.46-.01-.45.66-.89,1.05-.78,1.4.37,2-1.8.6-2.17-3.25-.86-5.67,4.27-2.12,5.47,1.62.55,3.61.5,5.31.66,2.08.2,4.17.38,6.26.46s4.06.08,6.08-.08c1.47-.11,3.82.03,4.64-1.48.7-1.3.43-3.23-.78-4.13-1.41-1.05-3.57-.56-5.2-.56-4.84,0-9.66-.57-14.5-.43-1.44.04-1.45,2.29,0,2.25h0Z"/>
    <path class="cls-1" d="M108.54,150.46c-.18,2.23.62,4.02,2.9,4.61s4.86.35,7.19.39c1.23.02,2.46.05,3.69.07,1.14.02,2.35.15,3.47-.06,2.09-.39,3.04-2.29,3.11-4.26.05-1.45-2.2-1.45-2.25,0-.02.58-.12,1.26-.55,1.69-.53.55-1.44.42-2.14.41-1.78-.02-3.56-.06-5.35-.09s-3.71.02-5.55-.15c-.62-.05-1.41-.12-1.9-.53-.6-.49-.44-1.39-.39-2.07.12-1.44-2.13-1.44-2.25,0h0Z"/>
    <path class="cls-1" d="M112.71,154.92c.33,1.16,1.22,2,2.22,2.62s2.28,1.08,3.52,1.05c2.26-.05,4.19-1.54,5-3.61.22-.57-.24-1.23-.79-1.38-.64-.17-1.16.22-1.38.79.05-.13-.04.09-.06.12-.04.07-.08.14-.12.22-.05.09-.11.17-.16.26-.01.02-.11.15-.04.07-.11.14-.24.28-.37.4-.16.15-.18.17-.29.25-.59.42-1.18.62-1.78.64-.76.02-1.51-.24-2.19-.63-.34-.2-.62-.39-.88-.63-.14-.13-.21-.21-.29-.32-.12-.17-.17-.3-.21-.43-.4-1.39-2.57-.8-2.17.6h0Z"/>
    <path class="cls-1" d="M88.32,97.78c2.24,1.18,4.49,2.36,6.73,3.54.52.27,1.25.15,1.54-.4.27-.52.15-1.25-.4-1.54-2.24-1.18-4.49-2.36-6.73-3.54-.52-.27-1.25-.15-1.54.4-.27.52-.15,1.25.4,1.54h0Z"/>
    <path class="cls-1" d="M118.78,79.69v7.81c0,.61.52,1.12,1.12,1.12s1.12-.51,1.12-1.12v-7.81c0-.61-.52-1.12-1.12-1.12s-1.12.51-1.12,1.12h0Z"/>
    <path class="cls-1" d="M142.66,99.36c2.09-1.55,4.31-2.92,6.64-4.09.53-.26.72-1.05.4-1.54-.35-.54-.98-.69-1.54-.4-2.33,1.17-4.55,2.53-6.64,4.09-.47.35-.76.99-.4,1.54.3.47,1.03.78,1.54.4h0Z"/>
    <path class="cls-1" d="M97.25,86.18c2.1,2.22,4.31,4.35,6.61,6.36.44.39,1.16.47,1.59,0,.39-.42.47-1.18,0-1.59-2.3-2.01-4.51-4.14-6.61-6.36-.41-.43-1.19-.44-1.59,0s-.43,1.13,0,1.59h0Z"/>
    <path class="cls-1" d="M133.18,91.22c1.89-2.75,3.83-5.47,5.83-8.14.36-.49.08-1.26-.4-1.54-.57-.34-1.17-.08-1.54.4-2,2.67-3.94,5.39-5.83,8.14-.34.5-.09,1.25.4,1.54.56.33,1.19.1,1.54-.4h0Z"/>
    <path class="cls-1" d="M144.48,111.61l7.72.33c.61.03,1.12-.54,1.12-1.12,0-.63-.52-1.1-1.12-1.12l-7.72-.33c-.61-.03-1.12.54-1.12,1.12,0,.63.52,1.1,1.12,1.12h0Z"/>
    <path class="cls-1" d="M92.32,111.9c-2.99.29-5.87,1.05-8.61,2.28-.55.25-.69,1.05-.4,1.54.33.57.98.65,1.54.4,2.35-1.06,4.93-1.73,7.48-1.98.6-.06,1.12-.48,1.12-1.12,0-.56-.52-1.18-1.12-1.12h0Z"/>
    <path class="cls-1" d="M115.97,146.77c.04-3.36.09-6.72-.07-10.07-.07-1.47-.18-2.94-.35-4.41-.09-.77-.19-1.53-.31-2.29-.11-.72-.15-1.57-.59-2.18-.71-.97-2.27-.96-2.74.23-.42,1.07.1,2.84.67,3.8s1.63,1.69,2.79,1.67c1.31-.03,2.35-.97,3.07-1.98s1.25-2.16,1.42-3.36c.16-1.13.02-2.96-1.36-3.3-2.81-.69-2.76,4.71-2.24,6.26.84,2.5,3.68,4.02,6.13,2.66.96-.54,1.7-1.48,2-2.54.31-1.11.21-2.72-1.11-3.13-1.49-.46-2.5,1.22-2.87,2.39-.48,1.51-.46,3.23-.56,4.79-.24,3.85-.25,7.7-.06,11.55.07,1.44,2.32,1.45,2.25,0-.16-3.3-.18-6.6-.03-9.9.07-1.59.12-3.22.34-4.8.05-.34.11-.71.23-1.04.05-.18.12-.35.22-.5.22-.27.05-.46-.5-.56-.01,0-.15.84-.19.91-.13.28-.35.55-.59.74-1.18.89-2.62.06-3.08-1.15-.28-.73-.26-1.56-.15-2.33.03-.21.34-1.08.26-1.17l-.96-.21c.07.23.1.47.09.71-.02,1.16-.8,2.69-1.71,3.42-1.26,1-2.24-1.32-1.89-2.32l-.52.67c-.58-.37-.82-.39-.71-.05.04.17.07.35.1.53.07.4.13.79.19,1.19.1.7.18,1.39.25,2.09.16,1.53.25,3.07.31,4.61.11,3.02.07,6.05.03,9.07-.02,1.45,2.23,1.45,2.25,0h0Z"/>
  </g>
</svg>