<?xml version="1.0" encoding="UTF-8"?>
<svg id="Calque_1" data-name="Calque 1" xmlns="http://www.w3.org/2000/svg" viewBox="0 0 885.36 999">
  <defs>
    <style>
      .cls-1 {
        fill: #d9f2f2;
        stroke-width: 0px;
      }
    </style>
  </defs>
  <path class="cls-1" d="M115.74,151.76C89.7,190.07,23.14,287.99,6.24,448.87c-4.5,42.83-24.67,207.11,43.9,322.79,32.74,55.23,78.5,88.66,124.21,115.98,78.7,47.04,161.09,80.11,244.9,98.32,80.06,17.39,162.87,20.97,240.77-11.83,77.9-32.8,150.76-105.51,189.37-212.47,23.54-65.23,33.48-140.01,35.54-214.17,2.25-80.9-4.55-162.36-20.05-239.91-7.2-36.06-16.91-72.72-35.58-97.78-13.75-18.46-31.24-29.1-48.35-39.4C646.44,89.46,577.76,21.13,409.82,4.3c-58.59-5.87-98.84-9.32-150.63,14.34-75.28,34.39-122.29,101.99-143.45,133.11Z"/>
</svg>