<?xml version="1.0" encoding="UTF-8"?>
<svg id="Calque_1" data-name="Calque 1" xmlns="http://www.w3.org/2000/svg" viewBox="0 0 147.7 143.13">
  <defs>
    <style>
      .cls-1 {
        fill: #d9f2f2;
      }

      .cls-1, .cls-2 {
        stroke-width: 0px;
      }

      .cls-2 {
        fill: #0f548d;
      }
    </style>
  </defs>
  <path class="cls-1" d="M19.31,32.86c-4.35,4.25-15.45,15.1-18.27,32.94-.75,4.75-4.12,22.96,7.32,35.79,5.46,6.12,13.1,9.83,20.72,12.86,13.13,5.22,26.87,8.88,40.86,10.9,13.36,1.93,27.17,2.33,40.17-1.31s25.15-11.7,31.59-23.56c3.93-7.23,5.58-15.52,5.93-23.74.38-8.97-.76-18-3.34-26.6-1.2-4-2.82-8.06-5.94-10.84-2.29-2.05-5.21-3.23-8.07-4.37-22.44-8.97-33.9-16.55-61.91-18.42-9.78-.65-16.49-1.03-25.13,1.59-12.56,3.81-20.4,11.31-23.93,14.76Z"/>
  <g>
    <path class="cls-2" d="M59.36,55.18c-7.9-.34-15.82-.24-23.7.33-3.44.25-7.11.43-10.15,2.25-2.31,1.38-4,3.58-5.11,6-2.01,4.4-2.73,9.34-3.43,14.09-.66,4.47-1.09,8.98-1.27,13.5-.24,6.13-.04,12.29.61,18.39.74,6.98,1.8,14.23,4,20.92,1.97,5.98,6.49,10.17,12.6,11.67,5.06,1.24,10.28.76,15.41.42,19.9-1.32,39.87-1.71,59.8-2.1,2.96-.06,5.92-.1,8.89-.14,5.14-.08,10.71-.38,15.19-3.16,5.74-3.55,6.94-10.01,7.42-16.26.6-7.85.4-15.75-.11-23.6-.47-7.29-.98-14.66-2-21.9-.84-5.98-2.51-12.14-6.74-16.65-9.78-10.43-25.41-6.35-37.85-5.88-3.02.11-6-.17-8.99-.52-1.91-.22-1.9,2.78,0,3,2.91.34,5.81.62,8.75.53,3.74-.12,7.46-.59,11.19-.91,6.1-.54,12.45-.7,18.26,1.56,12.44,4.83,12.62,19.69,13.62,30.94.66,7.44,1.21,14.9,1.25,22.38.02,3.69-.09,7.38-.37,11.06-.24,3.15-.53,6.5-1.99,9.36-4.15,8.11-15.21,6.99-22.89,7.13-18.58.32-37.17.78-55.72,1.72-4.29.22-8.58.58-12.87.78-5.15.23-10.83-.02-15.14-3.22-2.46-1.83-4.01-4.46-4.92-7.35-1.02-3.23-1.7-6.61-2.33-9.93-1.2-6.34-1.89-12.76-2.1-19.2-.27-8.63.35-17.26,1.86-25.75.87-4.89,1.81-11.47,6.5-14.28,2.96-1.77,6.78-1.73,10.12-1.94,3.78-.25,7.57-.39,11.36-.42s7.25.03,10.87.19c1.93.08,1.93-2.92,0-3h0Z"/>
    <path class="cls-2" d="M74.4,90.04c-.33-23.06-.49-46.12-.5-69.18,0-6.47.01-12.94.03-19.41,0-1.93-2.99-1.93-3,0-.08,23.06-.01,46.12.23,69.18.07,6.47.15,12.94.24,19.41.03,1.93,3.03,1.93,3,0h0Z"/>
    <path class="cls-2" d="M71.51.75c-5.87,8.02-12.03,15.83-18.44,23.41-1.24,1.47.87,3.6,2.12,2.12,6.58-7.78,12.89-15.8,18.91-24.02,1.14-1.56-1.46-3.06-2.59-1.51h0Z"/>
    <path class="cls-2" d="M71.73,3.56c3.31,7.85,8.52,14.62,15.27,19.82.64.49,1.68.1,2.05-.54.45-.77.11-1.56-.54-2.05-6.06-4.67-10.92-10.98-13.89-18.02-.31-.75-.99-1.28-1.85-1.05-.7.19-1.36,1.09-1.05,1.85h0Z"/>
  </g>
</svg>