<?xml version="1.0" encoding="utf-8"?>
<svg xmlns="http://www.w3.org/2000/svg" viewBox="162.823 260.046 20.179 20.217">
  <path d="M 167.958 261.167 L 165.958 261.167 C 164.853 261.167 163.958 262.062 163.958 263.167 L 163.958 265.167" stroke-width="1.5" stroke-linecap="round" stroke-linejoin="round" style="fill: none; stroke: rgb(255, 255, 255);"/>
  <path d="M 177.958 261.167 L 179.958 261.167 C 181.062 261.167 181.958 262.062 181.958 263.167 L 181.958 265.167" stroke-width="1.5" stroke-linecap="round" stroke-linejoin="round" style="fill: rgba(0, 0, 0, 0); stroke: rgb(255, 255, 255);"/>
  <path d="M 176.958 266.167 L 176.958 268.167" stroke-width="1.5" stroke-linecap="round" stroke-linejoin="round" style="fill: rgba(0, 0, 0, 0); stroke: rgb(255, 255, 255);"/>
  <path d="M 168.958 266.167 L 168.958 268.167" stroke-width="1.5" stroke-linecap="round" stroke-linejoin="round" style="fill: rgba(0, 0, 0, 0); stroke: rgb(255, 255, 255);"/>
  <path d="M 169.958 274.167 C 169.958 274.167 170.958 275.167 172.958 275.167 C 174.958 275.167 175.958 274.167 175.958 274.167" stroke-width="1.5" stroke-linecap="round" stroke-linejoin="round" style="fill: rgba(0, 0, 0, 0); stroke: rgb(255, 255, 255);"/>
  <path d="M 172.958 266.167 L 172.958 271.167 L 171.958 271.167" stroke-width="1.5" stroke-linecap="round" stroke-linejoin="round" style="fill: rgba(0, 0, 0, 0); stroke: rgb(255, 255, 255);"/>
  <path d="M 167.958 279.167 L 165.958 279.167 C 164.853 279.167 163.958 278.271 163.958 277.167 L 163.958 275.167" stroke-width="1.5" stroke-linecap="round" stroke-linejoin="round" style="fill: rgba(0, 0, 0, 0); stroke: rgb(255, 255, 255);"/>
  <path d="M 177.958 279.167 L 179.958 279.167 C 181.062 279.167 181.958 278.271 181.958 277.167 L 181.958 275.167" stroke-width="1.5" stroke-linecap="round" stroke-linejoin="round" style="fill: rgba(0, 0, 0, 0); stroke: rgb(255, 255, 255);"/>
</svg>