<?xml version="1.0" encoding="utf-8"?>
<svg xmlns="http://www.w3.org/2000/svg" viewBox="212.333 292.187 19.753 19.392">
  <path d="M 217.13 292.966 L 215.13 292.966 C 214.025 292.966 213.13 293.861 213.13 294.966 L 213.13 296.966" stroke-width="1.5" stroke-linecap="round" stroke-linejoin="round" style="fill: none; stroke: rgb(255, 130, 0);"/>
  <path d="M 227.13 292.966 L 229.13 292.966 C 230.234 292.966 231.13 293.861 231.13 294.966 L 231.13 296.966" stroke-width="1.5" stroke-linecap="round" stroke-linejoin="round" style="fill: rgba(0, 0, 0, 0); stroke: rgb(255, 130, 0);"/>
  <path d="M 226.13 297.966 L 226.13 299.966" stroke-width="1.5" stroke-linecap="round" stroke-linejoin="round" style="fill: rgba(0, 0, 0, 0); stroke: rgb(255, 130, 0);"/>
  <path d="M 218.13 297.966 L 218.13 299.966" stroke-width="1.5" stroke-linecap="round" stroke-linejoin="round" style="fill: rgba(0, 0, 0, 0); stroke: rgb(255, 130, 0);"/>
  <path d="M 219.13 305.966 C 219.13 305.966 220.13 306.966 222.13 306.966 C 224.13 306.966 225.13 305.966 225.13 305.966" stroke-width="1.5" stroke-linecap="round" stroke-linejoin="round" style="fill: rgba(0, 0, 0, 0); stroke: rgb(255, 130, 0);"/>
  <path d="M 222.13 297.966 L 222.13 302.966 L 221.13 302.966" stroke-width="1.5" stroke-linecap="round" stroke-linejoin="round" style="fill: rgba(0, 0, 0, 0); stroke: rgb(255, 130, 0);"/>
  <path d="M 217.13 310.966 L 215.13 310.966 C 214.025 310.966 213.13 310.07 213.13 308.966 L 213.13 306.966" stroke-width="1.5" stroke-linecap="round" stroke-linejoin="round" style="fill: rgba(0, 0, 0, 0); stroke: rgb(255, 130, 0);"/>
  <path d="M 227.13 310.966 L 229.13 310.966 C 230.234 310.966 231.13 310.07 231.13 308.966 L 231.13 306.966" stroke-width="1.5" stroke-linecap="round" stroke-linejoin="round" style="fill: rgba(0, 0, 0, 0); stroke: rgb(255, 130, 0);"/>
</svg>