<?xml version="1.0" encoding="UTF-8"?>
<svg id="Calque_1" xmlns="http://www.w3.org/2000/svg" viewBox="0 0 132.14 126.62">
  <defs>
    <style>
      .cls-1 {
        fill: #c6271a;
      }

      .cls-2 {
        fill: #fad4ce;
      }
    </style>
  </defs>
  <path class="cls-2" d="M.04,63.62c-.13,5.96-.45,21.19,9.69,37.31,2.7,4.29,12.72,21.03,29.33,24.84,7.93,1.82,15.73.42,23.06-1.52,12.62-3.35,24.62-8.31,35.67-14.75,10.55-6.15,20.38-13.81,26.91-24.27,6.53-10.46,9.48-24.03,5.9-37.39-2.18-8.14-6.66-15.84-12-22.71-5.82-7.5-12.73-14.18-20.35-19.68-3.54-2.55-7.42-4.92-11.46-5.38-2.98-.34-5.79.39-8.54,1.11-21.62,5.67-34.68,6.14-55.34,20.81-7.21,5.12-12.11,8.69-16.31,15.81C.49,48.16.14,58.78.04,63.62Z"/>
  <g>
    <path class="cls-1" d="M34.8,8.51v95.56c0,4.4-.18,8.85,0,13.25,0,.06,0,.13,0,.19,0,1.93,3,1.93,3,0V21.95c0-4.4.18-8.85,0-13.25,0-.06,0-.13,0-.19,0-1.93-3-1.93-3,0h0Z"/>
    <path class="cls-1" d="M63.8,8.51v95.56c0,4.4-.18,8.85,0,13.25,0,.06,0,.13,0,.19,0,1.93,3,1.93,3,0V21.95c0-4.4.18-8.85,0-13.25,0-.06,0-.13,0-.19,0-1.93-3-1.93-3,0h0Z"/>
    <path class="cls-1" d="M94.8,8.51v95.56c0,4.4-.18,8.85,0,13.25,0,.06,0,.13,0,.19,0,1.93,3,1.93,3,0V21.95c0-4.4.18-8.85,0-13.25,0-.06,0-.13,0-.19,0-1.93-3-1.93-3,0h0Z"/>
    <path class="cls-1" d="M35.84,77.59c-6.07,0-10.04,4.17-10.04,10.48s3.96,10.48,9.98,10.48,9.98-4.11,10.04-10.48c-.06-6.31-3.99-10.48-9.98-10.48Z"/>
    <path class="cls-1" d="M65.29,29.84c-6.07,0-10.04,4.17-10.04,10.48s3.96,10.48,9.98,10.48,9.98-4.11,10.04-10.48c-.06-6.31-3.99-10.48-9.98-10.48Z"/>
    <path class="cls-1" d="M96.36,67.28c-6.07,0-10.04,4.17-10.04,10.48s3.96,10.48,9.98,10.48,9.98-4.11,10.04-10.48c-.06-6.31-3.99-10.48-9.98-10.48Z"/>
  </g>
</svg>