<?xml version="1.0" encoding="UTF-8"?>
<svg id="Calque_1" data-name="Calque 1" xmlns="http://www.w3.org/2000/svg" viewBox="0 0 132.89 126.25">
  <defs>
    <style>
      .cls-1 {
        fill: #c6271a;
      }

      .cls-1, .cls-2 {
        stroke-width: 0px;
      }

      .cls-2 {
        fill: #fad4ce;
      }
    </style>
  </defs>
  <path class="cls-2" d="M.11,62.33c-.24,5.96-.87,21.18,8.95,37.5,2.62,4.34,12.3,21.28,28.84,25.41,7.89,1.97,15.72.73,23.09-1.07,12.69-3.1,24.78-7.82,35.95-14.04,10.67-5.94,20.65-13.4,27.38-23.73,6.73-10.33,9.95-23.84,6.63-37.26-2.02-8.19-6.35-15.96-11.55-22.95-5.67-7.62-12.45-14.43-19.96-20.07-3.49-2.62-7.32-5.06-11.35-5.6-2.97-.4-5.8.28-8.56.94-21.72,5.25-34.8,5.46-55.74,19.72-7.31,4.98-12.28,8.45-16.62,15.48C.86,46.88.3,57.49.11,62.33Z"/>
  <path class="cls-1" d="M52.15.19c-9.48,1.15-17.76,6.12-24.25,12.99-3.73,3.95-6.99,8.35-9.23,13.31-3.93,8.68-5.97,18.23-6.14,27.74-.11,5.71.21,11.8,2.18,17.21,1.6,4.39,4.19,8.34,7.54,11.6,7.52,7.33,18.11,11.08,28.3,12.68,12.16,1.91,24.38.06,34.89-6.54,9.7-6.09,18.01-15.48,21.86-26.35,1.88-5.32,2.62-11.11,1.96-16.72s-2.57-10.53-5.39-15.21c-3.79-6.29-8.42-12.14-14.03-16.9-4-3.39-8.42-6.29-13.18-8.51S66.59,1.31,61.33.46c-3.05-.49-6.11-.59-9.18-.26-1.9.2-1.92,3.21,0,3,5.57-.6,10.9.38,16.16,2.22,4.92,1.72,9.63,3.82,13.99,6.69,5.88,3.86,11.08,8.86,15.15,14.61,2.56,3.61,5.08,7.31,6.72,11.44,2,5.01,2.69,10.4,2.13,15.76-1.16,11.08-7.85,20.85-16.08,28.02s-19.26,11.65-30.63,11.58c-6.08-.04-12.02-1.18-17.83-2.92-4.42-1.32-8.67-3.18-12.51-5.74-3.62-2.41-6.84-5.49-9.16-9.19-2.59-4.12-3.78-8.67-4.24-13.48-.97-10.09.3-20.35,3.71-29.89,1.71-4.79,4.01-9.12,7.15-13.12,4.82-6.13,10.97-11.54,18.38-14.25,2.28-.83,4.66-1.43,7.07-1.73,1.89-.23,1.92-3.23,0-3Z"/>
  <path class="cls-1" d="M91.81,83.22c12.83,11.2,25.65,22.41,38.48,33.61,1.45,1.27,3.58-.85,2.12-2.12-12.83-11.2-25.65-22.41-38.48-33.61-1.45-1.27-3.58.85-2.12,2.12h0Z"/>
</svg>