<?xml version="1.0" encoding="utf-8"?>
<svg viewBox="-9.225 0 624.605 583.643" xmlns="http://www.w3.org/2000/svg">
  <g id="Layer_2" data-name="Layer 2" transform="matrix(1.0319570302963257, 0, 0, 0.5624359846115112, -742.2998046875, 17.649469375610366)" style="">
    <g id="_1_px" data-name="1 px">
      <path class="cls-1" d="M 1287.09 351.013 C 1280.585 351.02 1279 343.564 1279 337.573 L 1277.635 250.838 C 1277.608 232.883 1254.404 216.062 1234.909 216.043 L 1140.792 216.043 C 1131.731 216.043 1126.068 207.009 1130.598 199.782 C 1132.701 196.428 1136.587 194.362 1140.792 194.362 L 1234.909 194.362 C 1267.401 194.394 1293.734 218.64 1293.774 248.564 L 1293.774 335.299 C 1293.768 341.279 1293.583 351.001 1287.09 351.013 Z" style="stroke: rgb(255, 255, 255); fill-opacity: 0.96; fill: rgb(255, 255, 255);"/>
      <path class="cls-1" d="M 1234.921 714.737 L 1140.804 714.737 C 1131.743 714.737 1126.081 705.703 1130.61 698.476 C 1132.713 695.121 1136.6 693.056 1140.804 693.056 L 1234.921 693.056 C 1254.419 693.031 1278.657 678.48 1278.684 660.523 L 1277.666 573.845 C 1277.666 565.5 1278.053 555.411 1285.9 559.582 C 1289.542 561.519 1293.787 569.972 1293.787 573.845 L 1293.787 660.523 C 1293.746 690.449 1267.414 714.699 1234.921 714.737 Z" style="stroke: rgb(255, 255, 255); fill-opacity: 0.96; fill: rgb(255, 255, 255);"/>
      <path class="cls-1" d="M 881.788 714.737 L 787.61 714.737 C 755.118 714.699 728.791 690.447 728.757 660.523 L 728.757 573.845 C 728.757 565.5 729.144 564.832 736.992 569.004 C 740.634 570.94 744.205 576.389 744.205 580.262 L 743.531 657.923 C 743.558 675.875 768.12 693.02 787.61 693.044 L 881.788 693.044 C 890.849 693.044 896.512 702.078 891.982 709.305 C 889.88 712.66 885.993 714.725 881.788 714.725 L 881.788 714.737 Z" style="stroke: rgb(255, 255, 255); fill-opacity: 0.96; fill: rgb(255, 255, 255);"/>
      <path class="cls-1" d="M 737.163 346.139 C 730.661 346.139 728.757 341.286 728.757 335.299 L 728.757 248.564 C 728.791 218.642 755.121 194.394 787.61 194.362 L 881.788 194.362 C 890.849 194.362 896.512 203.396 891.982 210.623 C 889.88 213.977 885.993 216.043 881.788 216.043 L 787.61 216.043 C 768.116 216.062 744.898 224.194 744.877 242.147 L 744.877 330.75 C 744.877 336.738 743.664 346.139 737.163 346.139 Z" style="stroke: rgb(255, 255, 255); fill-opacity: 0.96; fill: rgb(255, 255, 255);"/>
      <g transform="matrix(0.018262, 0, 0, -0.040716, 736.574524, 867.071411)" fill="#000000" stroke="none" style="">
        <path d="M1122 10003 l3 -3828 433 -3 432 -2 0 3830 0 3830 -435 0 -435 0 2&#10;-3827z" style="fill: rgb(255, 255, 255);"/>
        <path d="M2350 10655 l0 -3175 155 0 155 0 0 3175 0 3175 -155 0 -155 0 0&#10;-3175z" style="fill: rgb(255, 255, 255);"/>
        <path d="M3020 10655 l0 -3175 515 0 515 0 0 3175 0 3175 -515 0 -515 0 0&#10;-3175z" style="fill: rgb(255, 255, 255);"/>
        <path d="M4410 10655 l0 -3175 335 0 335 0 0 3175 0 3175 -335 0 -335 0 0&#10;-3175z" style="fill: rgb(255, 255, 255);"/>
        <path d="M5430 10655 l0 -3175 335 0 335 0 0 3175 0 3175 -335 0 -335 0 0&#10;-3175z" style="fill: rgb(255, 255, 255);"/>
        <path d="M6460 10655 l0 -3175 325 0 325 0 0 3175 0 3175 -325 0 -325 0 0&#10;-3175z" style="fill: rgb(255, 255, 255);"/>
        <path d="M7470 10655 l0 -3175 160 0 160 0 0 3175 0 3175 -160 0 -160 0 0&#10;-3175z" style="fill: rgb(255, 255, 255);"/>
        <path d="M8140 10655 l0 -3175 335 0 335 0 0 3175 0 3175 -335 0 -335 0 0&#10;-3175z" style="fill: rgb(255, 255, 255);"/>
        <path d="M9170 10655 l0 -3175 335 0 335 0 0 3175 0 3175 -335 0 -335 0 0&#10;-3175z" style="fill: rgb(255, 255, 255);"/>
        <path d="M10200 10655 l0 -3175 515 0 515 0 0 3175 0 3175 -515 0 -515 0 0&#10;-3175z" style="fill: rgb(255, 255, 255);"/>
        <path d="M11590 10655 l0 -3175 155 0 155 0 0 3175 0 3175 -155 0 -155 0 0&#10;-3175z" style="fill: rgb(255, 255, 255);"/>
        <path d="M12260 10655 l0 -3175 1030 0 1030 0 0 3175 0 3175 -1030 0 -1030 0&#10;0 -3175z" style="fill: rgb(255, 255, 255);"/>
        <path d="M14680 10000 l0 -3830 180 0 180 0 0 3830 0 3830 -180 0 -180 0 0&#10;-3830z" style="fill: rgb(255, 255, 255);"/>
        <path d="M15400 10000 l0 -3831 128 3 127 3 3 3828 2 3827 -130 0 -130 0 0&#10;-3830z" style="fill: rgb(255, 255, 255);"/>
        <path d="M16010 10655 l0 -3175 210 0 210 0 0 3175 0 3175 -210 0 -210 0 0&#10;-3175z" style="fill: rgb(255, 255, 255);"/>
        <path d="M16790 10655 l0 -3175 430 0 430 0 0 3175 0 3175 -430 0 -430 0 0&#10;-3175z" style="fill: rgb(255, 255, 255);"/>
        <path d="M18010 10655 l0 -3175 950 0 950 0 0 3175 0 3175 -950 0 -950 0 0&#10;-3175z" style="fill: rgb(255, 255, 255);"/>
        <path d="M20270 10655 l0 -3175 475 0 475 0 0 3175 0 3175 -475 0 -475 0 0&#10;-3175z" style="fill: rgb(255, 255, 255);"/>
        <path d="M21580 10655 l0 -3175 145 0 145 0 0 3175 0 3175 -145 0 -145 0 0&#10;-3175z" style="fill: rgb(255, 255, 255);"/>
        <path d="M22230 10655 l0 -3175 305 0 305 0 0 3175 0 3175 -305 0 -305 0 0&#10;-3175z" style="fill: rgb(255, 255, 255);"/>
        <path d="M23200 10655 l0 -3175 310 0 310 0 0 3175 0 3175 -310 0 -310 0 0&#10;-3175z" style="fill: rgb(255, 255, 255);"/>
        <path d="M24180 10655 l0 -3175 475 0 475 0 0 3175 0 3175 -475 0 -475 0 0&#10;-3175z" style="fill: rgb(255, 255, 255);"/>
        <path d="M25480 10655 l0 -3175 145 0 145 0 0 3175 0 3175 -145 0 -145 0 0&#10;-3175z" style="fill: rgb(255, 255, 255);"/>
        <path d="M26130 10655 l0 -3175 950 0 950 0 0 3175 0 3175 -950 0 -950 0 0&#10;-3175z" style="fill: rgb(255, 255, 255);"/>
        <path d="M28390 10000 l0 -3830 235 0 235 0 0 3830 0 3830 -235 0 -235 0 0&#10;-3830z" style="fill: rgb(255, 255, 255);"/>
      </g>
    </g>
  </g>
</svg>