<?xml version="1.0" encoding="UTF-8"?>
<svg id="Calque_1" data-name="Calque 1" xmlns="http://www.w3.org/2000/svg" viewBox="0 0 1078.03 1009.78">
  <defs>
    <style>
      .cls-1 {
        fill: #ffeca7;
        stroke-width: 0px;
      }
    </style>
  </defs>
  <path class="cls-1" d="M1064.48,487.48c21.84,122.36,8.6,191.93,2.34,219.24-10.03,43.81-29.17,122.66-97,185-12.52,11.5-40.7,35.9-105,62-41.48,16.84-117.42,42.76-287.2,51.89-163.38,8.79-262.57-6.09-326.41-19.95-54.98-11.93-102.35-27.15-145.39-64.94-42.69-37.49-61.57-80.04-69.74-98.44C-36.63,658.45,5.14,330.58,164.82,144.72,211.12,90.83,267.44,25.28,358.82,5.72c87.85-18.8,94.1,29.32,281.28,47.47,131.89,12.79,197.01,26.24,245.27,52.23,122.7,66.07,152.85,235.01,179.1,382.06Z"/>
  <path class="cls-1" d="M1063.03,487.88c10.59,59.73,16.16,121.47,8.75,181.94-4.82,39.3-15.26,79.08-30.45,115.57-21.34,51.27-55.95,97.69-102.44,128.65-36.69,24.44-78.51,41.89-120.69,54.54-47.86,14.35-97.5,22.43-147.08,27.97-75.16,8.41-151.25,11.72-226.85,9.67-52.92-1.44-105.82-5.92-157.97-15.17-57.5-10.19-116.68-23.8-164.38-59.23-46.07-34.22-77.32-84.28-95.27-138.21-15.94-47.9-22.18-98.83-23.38-149.13-1.4-58.43,4.28-117.04,15.53-174.36,11.79-60.09,29.81-119.13,54.71-175.11,24.24-54.47,55.17-105.94,94.08-151.21,39.43-45.88,81.16-91.33,136.62-117.87,37.81-18.09,81.69-28.82,123.26-19.16,15.3,3.56,30.14,8.92,45.04,13.82,20.87,6.87,41.95,13.02,63.38,17.9,68.28,15.55,138.49,18.08,207.59,28.41,45.55,6.81,92.39,15.49,133.99,36.12,50.65,25.12,87.27,68.89,112.52,118.66,28.07,55.33,43.65,116.33,56.2,176.78,6.17,29.7,11.51,59.56,16.84,89.41.34,1.9,3.23,1.09,2.89-.8-11.24-62.96-22.41-126.25-41.63-187.37-17.54-55.77-42.3-111.52-83.5-154-33.02-34.05-74.75-54.51-120.1-66.59-62.08-16.53-126.72-21.68-190.38-28.42-55.17-5.85-108.83-17-161.46-34.46-14.91-4.95-29.82-10.23-45.25-13.37-14.91-3.04-30.07-3.63-45.19-1.91-60.06,6.85-113.32,38.76-156.51,79.7-21.42,20.31-40.86,42.63-59.96,65.11-19.05,22.43-36.14,46.51-51.41,71.66-31.89,52.51-56.07,109.6-73.88,168.33-17.6,58.06-29.06,118.07-33.99,178.54-4.49,55.02-3.73,110.86,5.35,165.39,7.55,45.32,21.51,89.84,45.07,129.5,17.73,29.86,41.2,56.29,69.33,76.72,27.53,20,59.05,33.1,91.68,42.23,46.55,13.03,94.86,20.83,142.9,25.66,67.88,6.83,136.32,7.21,204.42,4.12,67.51-3.07,135.36-8.93,201.66-22.52,34.15-7,67.75-16.41,100.12-29.41,28.63-11.51,56.8-25.03,82.16-42.73,18.81-13.13,35.64-28.92,50.4-46.47,37.41-44.45,58.25-98.33,71.27-154.32,9.14-39.29,12.07-79.3,10.66-119.59-1.24-35.5-5.57-70.84-11.77-105.8-.34-1.9-3.23-1.09-2.89.8Z"/>
</svg>