<?xml version="1.0" encoding="utf-8"?>
<svg viewBox="0 0 298.619 142.933" xmlns="http://www.w3.org/2000/svg">
  <g transform="matrix(0.11793300509452818, 0, 0, -0.08228900283575058, -12.964929580688477, 304.3934936523437)" fill="#000000" stroke="none" style="">
    <path d="M 173.733 3610.278 C 173.733 3605.278 178.733 3600.278 183.733 3600.278 C 189.733 3600.278 193.733 3605.278 193.733 3610.278 C 193.733 3616.278 189.733 3620.278 183.733 3620.278 C 178.733 3620.278 173.733 3616.278 173.733 3610.278 Z" style="fill: rgb(255, 131, 0);"/>
    <path d="M 273.733 2955.278 C 273.733 2518.278 276.733 2290.278 283.733 2290.278 C 290.733 2290.278 293.733 2518.278 293.733 2955.278 C 293.733 3392.278 290.733 3620.278 283.733 3620.278 C 276.733 3620.278 273.733 3392.278 273.733 2955.278 Z" style="fill: rgb(255, 131, 0);"/>
    <path d="M 323.733 2955.278 L 323.733 2290.278 L 373.733 2290.278 L 423.733 2290.278 L 423.733 2955.278 L 423.733 3620.278 L 373.733 3620.278 L 323.733 3620.278 L 323.733 2955.278 Z" style="fill: rgb(255, 131, 0);"/>
    <path d="M 453.733 2955.278 L 453.733 2290.278 L 488.733 2290.278 L 523.733 2290.278 L 523.733 2955.278 L 523.733 3620.278 L 488.733 3620.278 L 453.733 3620.278 L 453.733 2955.278 Z" style="fill: rgb(255, 131, 0);"/>
    <path d="M 553.733 2955.278 C 553.733 2371.278 555.733 2290.278 568.733 2290.278 C 581.733 2290.278 583.733 2371.278 583.733 2955.278 C 583.733 3539.278 581.733 3620.278 568.733 3620.278 C 555.733 3620.278 553.733 3539.278 553.733 2955.278 Z" style="fill: rgb(255, 131, 0);"/>
    <path d="M 643.733 2955.278 L 643.733 2290.278 L 668.733 2290.278 L 693.733 2290.278 L 693.733 2955.278 L 693.733 3620.278 L 668.733 3620.278 L 643.733 3620.278 L 643.733 2955.278 Z" style="fill: rgb(255, 131, 0);"/>
    <path d="M 733.733 2955.278 C 733.733 2371.278 735.733 2290.278 748.733 2290.278 C 761.733 2290.278 763.733 2371.278 763.733 2955.278 C 763.733 3539.278 761.733 3620.278 748.733 3620.278 C 735.733 3620.278 733.733 3539.278 733.733 2955.278 Z" style="fill: rgb(255, 131, 0);"/>
    <path d="M 863.733 2955.278 C 863.733 2518.278 866.733 2290.278 873.733 2290.278 C 880.733 2290.278 883.733 2518.278 883.733 2955.278 C 883.733 3392.278 880.733 3620.278 873.733 3620.278 C 866.733 3620.278 863.733 3392.278 863.733 2955.278 Z" style="fill: rgb(255, 131, 0);"/>
    <path d="M 933.733 2955.278 C 933.733 2371.278 935.733 2290.278 948.733 2290.278 C 961.733 2290.278 963.733 2371.278 963.733 2955.278 C 963.733 3539.278 961.733 3620.278 948.733 3620.278 C 935.733 3620.278 933.733 3539.278 933.733 2955.278 Z" style="fill: rgb(255, 131, 0);"/>
    <path d="M 983.733 2955.278 C 983.733 2518.278 986.733 2290.278 993.733 2290.278 C 1000.733 2290.278 1003.733 2518.278 1003.733 2955.278 C 1003.733 3392.278 1000.733 3620.278 993.733 3620.278 C 986.733 3620.278 983.733 3392.278 983.733 2955.278 Z" style="fill: rgb(255, 131, 0);"/>
    <path d="M 1033.733 2955.278 L 1033.733 2290.278 L 1068.733 2290.278 L 1103.733 2290.278 L 1103.733 2955.278 L 1103.733 3620.278 L 1068.733 3620.278 L 1033.733 3620.278 L 1033.733 2955.278 Z" style="fill: rgb(255, 131, 0);"/>
    <path d="M 1203.733 2955.278 C 1203.733 2371.278 1205.733 2290.278 1218.733 2290.278 C 1231.733 2290.278 1233.733 2371.278 1233.733 2955.278 C 1233.733 3539.278 1231.733 3620.278 1218.733 3620.278 C 1205.733 3620.278 1203.733 3539.278 1203.733 2955.278 Z" style="fill: rgb(255, 131, 0);"/>
    <path d="M 1263.733 2955.278 C 1263.733 2408.278 1266.733 2290.278 1277.733 2290.278 C 1288.733 2290.278 1290.733 2409.278 1292.733 2955.278 C 1294.733 3550.278 1292.733 3620.278 1278.733 3620.278 C 1264.733 3620.278 1263.733 3550.278 1263.733 2955.278 Z" style="fill: rgb(255, 131, 0);"/>
    <path d="M 1323.733 2840.278 C 1323.733 2327.278 1326.733 2060.278 1333.733 2060.278 C 1340.733 2060.278 1343.733 2327.278 1343.733 2840.278 C 1343.733 3353.278 1340.733 3620.278 1333.733 3620.278 C 1326.733 3620.278 1323.733 3353.278 1323.733 2840.278 Z" style="fill: rgb(255, 131, 0);"/>
    <path d="M 1373.733 2840.278 C 1373.733 2327.278 1376.733 2060.278 1383.733 2060.278 C 1390.733 2060.278 1393.733 2327.278 1393.733 2840.278 C 1393.733 3353.278 1390.733 3620.278 1383.733 3620.278 C 1376.733 3620.278 1373.733 3353.278 1373.733 2840.278 Z" style="fill: rgb(255, 131, 0);"/>
    <path d="M 1433.733 2955.278 L 1433.733 2290.278 L 1468.733 2290.278 L 1503.733 2290.278 L 1503.733 2955.278 L 1503.733 3620.278 L 1468.733 3620.278 L 1433.733 3620.278 L 1433.733 2955.278 Z" style="fill: rgb(255, 131, 0);"/>
    <path d="M 1533.733 2955.278 C 1533.733 2518.278 1536.733 2290.278 1543.733 2290.278 C 1550.733 2290.278 1553.733 2518.278 1553.733 2955.278 C 1553.733 3392.278 1550.733 3620.278 1543.733 3620.278 C 1536.733 3620.278 1533.733 3392.278 1533.733 2955.278 Z" style="fill: rgb(255, 131, 0);"/>
    <path d="M 1625.733 2955.278 L 1628.733 2290.278 L 1651.733 2290.278 L 1673.733 2290.278 L 1673.733 2955.278 L 1673.733 3620.278 L 1647.733 3620.278 L 1621.733 3620.278 L 1625.733 2955.278 Z" style="fill: rgb(255, 131, 0);"/>
    <path d="M 1713.733 2955.278 C 1713.733 2297.278 1713.733 2290.278 1733.733 2290.278 C 1753.733 2290.278 1753.733 2297.278 1753.733 2955.278 C 1753.733 3613.278 1753.733 3620.278 1733.733 3620.278 C 1713.733 3620.278 1713.733 3613.278 1713.733 2955.278 Z" style="fill: rgb(255, 131, 0);"/>
    <path d="M 1813.733 2955.278 C 1813.733 2518.278 1816.733 2290.278 1823.733 2290.278 C 1830.733 2290.278 1833.733 2518.278 1833.733 2955.278 C 1833.733 3392.278 1830.733 3620.278 1823.733 3620.278 C 1816.733 3620.278 1813.733 3392.278 1813.733 2955.278 Z" style="fill: rgb(255, 131, 0);"/>
    <path d="M 1893.733 2955.278 L 1893.733 2290.278 L 1933.733 2290.278 L 1973.733 2290.278 L 1973.733 2955.278 L 1973.733 3620.278 L 1933.733 3620.278 L 1893.733 3620.278 L 1893.733 2955.278 Z" style="fill: rgb(255, 131, 0);"/>
    <path d="M 2033.733 2955.278 C 2033.733 2430.278 2036.733 2290.278 2046.733 2290.278 C 2061.733 2290.278 2070.733 3076.278 2058.733 3408.278 C 2044.733 3815.278 2033.733 3621.278 2033.733 2955.278 Z" style="fill: rgb(255, 131, 0);"/>
    <path d="M 2123.733 2955.278 L 2123.733 2290.278 L 2148.733 2290.278 L 2173.733 2290.278 L 2173.733 2955.278 L 2173.733 3620.278 L 2148.733 3620.278 L 2123.733 3620.278 L 2123.733 2955.278 Z" style="fill: rgb(255, 131, 0);"/>
    <path d="M 2223.733 2955.278 L 2223.733 2290.278 L 2248.733 2290.278 L 2273.733 2290.278 L 2273.733 2955.278 L 2273.733 3620.278 L 2248.733 3620.278 L 2223.733 3620.278 L 2223.733 2955.278 Z" style="fill: rgb(255, 131, 0);"/>
    <path d="M 2323.733 2955.278 C 2323.733 2518.278 2326.733 2290.278 2333.733 2290.278 C 2340.733 2290.278 2343.733 2518.278 2343.733 2955.278 C 2343.733 3392.278 2340.733 3620.278 2333.733 3620.278 C 2326.733 3620.278 2323.733 3392.278 2323.733 2955.278 Z" style="fill: rgb(255, 131, 0);"/>
    <path d="M 2393.733 2955.278 L 2393.733 2290.278 L 2433.733 2290.278 L 2473.733 2290.278 L 2473.733 2955.278 L 2473.733 3620.278 L 2433.733 3620.278 L 2393.733 3620.278 L 2393.733 2955.278 Z" style="fill: rgb(255, 131, 0);"/>
    <path d="M 2503.733 2840.278 C 2503.733 2327.278 2506.733 2060.278 2513.733 2060.278 C 2520.733 2060.278 2523.733 2327.278 2523.733 2840.278 C 2523.733 3353.278 2520.733 3620.278 2513.733 3620.278 C 2506.733 3620.278 2503.733 3353.278 2503.733 2840.278 Z" style="fill: rgb(255, 131, 0);"/>
    <path d="M 2553.733 2840.278 C 2553.733 2327.278 2556.733 2060.278 2563.733 2060.278 C 2570.733 2060.278 2573.733 2327.278 2573.733 2840.278 C 2573.733 3353.278 2570.733 3620.278 2563.733 3620.278 C 2556.733 3620.278 2553.733 3353.278 2553.733 2840.278 Z" style="fill: rgb(255, 131, 0);"/>
    <path d="M 230.733 3603.278 C 218.733 3592.278 222.733 2060.278 233.733 2060.278 C 240.733 2060.278 243.733 2325.278 243.733 2835.278 C 243.733 3261.278 242.733 3610.278 240.733 3610.278 C 238.733 3610.278 233.733 3607.278 230.733 3603.278 Z" style="fill: rgb(255, 131, 0);"/>
    <path d="M 173.733 2825.278 C 173.733 2322.278 176.733 2060.278 183.733 2060.278 C 190.733 2060.278 193.733 2322.278 193.733 2825.278 C 193.733 3328.278 190.733 3590.278 183.733 3590.278 C 176.733 3590.278 173.733 3328.278 173.733 2825.278 Z" style="fill: rgb(255, 131, 0);"/>
  </g>
</svg>