<?xml version="1.0" encoding="UTF-8"?>
<svg id="Calque_1" data-name="Calque 1" xmlns="http://www.w3.org/2000/svg" viewBox="0 0 457.81 253.48">
  <defs>
    <style>
      .cls-1 {
        fill: #ff8300;
        stroke-width: 0px;
      }
    </style>
  </defs>
  <path class="cls-1" d="M281.57,117.15c0-37.57,0-75.13,0-112.7,0-.83.07-1.65.01-2.48-.09-1.27.73-1.75,2.29-1.75,4.2.02,8.4.02,12.6,0,1.62,0,2.32.57,2.21,1.8-.04.45,0,.9,0,1.35,0,75.73,0,151.46,0,227.19q0,3.4-4.48,3.4c-3.32,0-6.65-.06-9.97.02-2.05.05-2.79-.58-2.67-2.13.12-1.57.02-3.15.02-4.73,0-36.66,0-73.33,0-109.99h0Z"/>
  <path class="cls-1" d="M242.38,117.16c0-38.02.02-76.04-.06-114.06,0-2.25.7-3.11,3.75-2.91,3.2.2,6.45.15,9.67.01,2.47-.1,3.77.41,3.34,2.48-.06.29,0,.6,0,.9,0,75.67,0,151.33,0,227,0,3.76.47,3.39-4.38,3.41-3.13.01-6.26-.11-9.38.03-2.42.12-3.16-.65-2.93-2.35.09-.67.01-1.35.01-2.03,0-37.49,0-74.99,0-112.48Z"/>
  <path class="cls-1" d="M360.38,117.17c0-38.02.03-76.04-.07-114.05,0-2.29.83-2.97,3.78-2.93,7.58.1,7.58,0,7.58,5.75,0,74.91,0,149.82,0,224.73q0,3.32-4.22,3.32-7.06,0-7.07-5.47c0-37.12,0-74.23,0-111.35Z"/>
  <path class="cls-1" d="M191.49,116.91c0-37.94.03-75.88-.07-113.82,0-2.32.9-2.94,3.81-2.9,7.51.11,7.52.02,7.52,5.81,0,74.98,0,149.96,0,224.94q0,3.04-3.98,3.05-7.3.01-7.31-5.51c0-37.19,0-74.38,0-111.57h.01Z"/>
  <path class="cls-1" d="M321.23,117.05c0-37.94,0-75.88,0-113.83q0-2.99,3.72-2.99c7.55,0,7.53,0,7.53,5.81,0,74.83,0,149.67,0,224.5q0,3.45-4.42,3.45-6.83,0-6.84-5.36c0-37.19,0-74.38,0-111.57Z"/>
  <path class="cls-1" d="M382.92,116.92c0-37.79,0-75.58,0-113.37q0-3.33,4.3-3.33,6.96,0,6.96,5.28c0,75.05,0,150.1,0,225.15q0,3.31-4.22,3.32-7.03,0-7.03-5.5c0-37.19,0-74.38,0-111.56Z"/>
  <path class="cls-1" d="M45.12,117.15c0,37.95,0,75.9,0,113.85q0,2.98-3.78,2.99-7.47.01-7.48-5.65c0-74.92,0-149.85,0-224.77q0-3.34,4.35-3.34,6.94,0,6.92,5.33c0,37.2,0,74.4,0,111.59h-.01Z"/>
  <path class="cls-1" d="M343.73,116.89c0-37.71,0-75.42,0-113.13q0-3.53,4.58-3.53,6.69,0,6.68,5.12c0,75.04,0,150.09,0,225.13q0,3.5-4.64,3.51-6.63,0-6.62-5.1c0-37.33,0-74.67,0-112Z"/>
  <path class="cls-1" d="M152.33,117.16c0-37.8,0-75.6,0-113.39,0-3.54,0-3.57,4.58-3.53,7.87.07,6.66-.75,6.66,5.12.03,75.07.02,150.14.01,225.21q0,3.41-4.47,3.42-6.78,0-6.79-5.23c0-37.2,0-74.39,0-111.59Z"/>
  <path class="cls-1" d="M73.48,117.19c0-37.86,0-75.72,0-113.58,0-3.37,0-3.41,4.48-3.37,7.86.07,6.77-.85,6.78,5.27.02,74.74,0,149.48,0,224.22,0,.75-.07,1.51.02,2.25.16,1.45-.64,2.06-2.52,2.01-2.15-.06-4.3-.08-6.45,0-1.86.07-2.4-.59-2.32-1.89.08-1.35.02-2.7.02-4.06,0-36.96,0-73.91,0-110.87Z"/>
  <path class="cls-1" d="M112.68,233.98c0-1.28,0-2.17,0-3.05,0-75.65-.01-151.3-.02-226.94,0-.68.08-1.36.02-2.03-.12-1.3.78-1.64,2.29-1.73q8.96-.56,8.97,6.25c0,74.75,0,149.49,0,224.24q0,3.27-4.29,3.27c-2.21,0-4.43,0-6.96,0Z"/>
  <path class="cls-1" d="M11.34,126.62c0-41.25,0-82.5-.01-123.75,0-1.4-.23-2.63,2.54-2.7,2.87-.07,3.36.84,3.36,2.79-.05,82.57-.04,165.15-.04,247.72,0,2.51-.91,3.17-3.98,2.6-.74-.14-1.43-.96-1.8-1.58-.29-.5-.06-1.18-.06-1.78,0-41.1,0-82.2,0-123.3Z"/>
  <path class="cls-1" d="M5.94,126.86c0,41.25,0,82.5,0,123.75,0,1.36.32,2.71-2.45,2.8-2.76.1-3.46-.71-3.46-2.74.07-28.33.05-56.65.05-84.98,0-54.17,0-108.35.02-162.52,0-1.21-.82-2.85,2.14-2.97,3.24-.13,3.69.12,3.69,2.67,0,41.32,0,82.65,0,123.97h0Z"/>
  <path class="cls-1" d="M90.13,117.18c0-37.64,0-75.27,0-112.91,0-.45.06-.91,0-1.35-.23-1.78.3-2.78,3.12-2.75,2.84.03,2.79,1.19,2.79,2.76-.02,43.35-.01,86.69,0,130.04,0,32.75,0,65.51,0,98.26,0,2.71-.26,2.79-3.55,2.78-3.2,0-2.33-1.75-2.33-3.01-.03-37.94-.03-75.87-.03-113.81Z"/>
  <path class="cls-1" d="M405.24,117.11c0,38.09,0,76.17,0,114.26,0,2.64-.36,2.97-3.61,2.53-.77-.1-1.64-.98-1.94-1.64-.34-.74-.09-1.63-.09-2.46,0-75.12,0-150.24,0-225.36,0-.6.09-1.21,0-1.8-.28-1.88.79-2.43,3.19-2.46,2.6-.02,2.48,1.09,2.48,2.45-.02,38.16-.01,76.32-.01,114.48Z"/>
  <path class="cls-1" d="M270.32,117.17c0-38.08.01-76.17-.03-114.25,0-1.77.24-2.85,3.1-2.73,2.18.09,2.84.66,2.83,2.29-.08,8.26-.04,16.53-.04,24.79,0,67.91,0,135.81-.02,203.72,0,1.28.83,3-2.33,3.03-3.21.03-3.51-.09-3.51-2.81,0-38.01,0-76.02,0-114.03Z"/>
  <path class="cls-1" d="M315.37,117.15c0,38.03,0,76.05-.02,114.08,0,1.24.69,2.7-2.3,2.82-3.19.13-3.14-1.15-3.14-2.89.03-75.38.02-150.75.02-226.13,0-.83.12-1.67-.03-2.48-.4-2.24,1.29-2.63,3.51-2.26.74.12,1.6.85,1.86,1.45.32.74.09,1.63.09,2.46,0,37.65,0,75.3,0,112.95Z"/>
  <path class="cls-1" d="M168.98,117.2c0-38.01,0-76.02.03-114.03,0-1.2-.81-2.85,2.15-2.96,3.23-.12,3.67.11,3.67,2.69,0,76.09-.01,152.19.05,228.28,0,2.11-.62,3.04-3.55,2.83-1.71-.12-2.49-.51-2.37-1.88.11-1.27.02-2.55.02-3.83,0-37.03,0-74.06,0-111.1Z"/>
  <path class="cls-1" d="M457.79,127.1c0,41.17,0,82.34,0,123.51,0,2.74-.45,3.16-3.47,2.7-.82-.13-1.61-.99-2.07-1.65-.33-.47-.09-1.18-.09-1.78,0-81.97,0-163.94,0-245.9,0-.53.06-1.06,0-1.58-.23-1.7.83-2.17,2.92-2.22,2.31-.05,2.75.69,2.74,2.27-.06,15.25-.03,30.5-.03,45.75,0,26.3,0,52.59,0,78.89Z"/>
  <path class="cls-1" d="M446.51,126.86c0,41.25,0,82.49-.01,123.74,0,1.26.64,2.8-2.31,2.83-2.34.02-3.57-.49-3.29-2.42.05-.37,0-.75,0-1.13,0-82.04,0-164.08,0-246.12,0-.53.06-1.06,0-1.58-.22-1.91,1.37-1.92,3.19-1.98,2.05-.07,2.43.65,2.43,2.03-.04,14.65-.02,29.3-.02,43.95,0,26.9,0,53.79,0,80.69Z"/>
  <path class="cls-1" d="M219.88,126.6c0-41.17,0-82.34.03-123.52,0-1.19-.84-2.74,2.19-2.91,3.11-.17,3.22,1.02,3.22,2.83-.04,47.78-.04,95.57-.04,143.35,0,34.79,0,69.57,0,104.36,0,2.56-.47,3.01-3.35,2.6-.78-.11-1.65-.98-1.96-1.64-.34-.73-.09-1.63-.09-2.46,0-40.87,0-81.74,0-122.61Z"/>
  <path class="cls-1" d="M231.13,126.6c0-41.25,0-82.49,0-123.74,0-2.55.64-3.05,3.67-2.57.67.11,1.28.84,1.67,1.39.25.35.06.88.06,1.33,0,82.49,0,164.98,0,247.48,0,2.79-.63,3.33-3.66,2.81-.67-.12-1.46-.84-1.65-1.4-.28-.85-.1-1.79-.1-2.69,0-40.87,0-81.74,0-122.61Z"/>
  <path class="cls-1" d="M208.63,116.91c0-38.08,0-76.17,0-114.25,0-2.42.48-2.8,3.56-2.36.68.1,1.38.78,1.75,1.32.28.41.08,1.03.08,1.55,0,76.02,0,152.04-.02,228.06,0,1.1.9,2.65-1.98,2.79-2.7.14-3.45-.52-3.45-2.63.08-38.16.06-76.32.06-114.48Z"/>
  <path class="cls-1" d="M427.75,117.19c0,38.02,0,76.04.02,114.06,0,1.65.07,2.95-2.95,2.78-2.02-.11-2.87-.61-2.68-2.15.06-.52,0-1.05,0-1.58,0-75.37,0-150.73,0-226.1,0-.6.07-1.21,0-1.8-.26-1.91,1.11-2.17,3.21-2.22,2.37-.05,2.42.93,2.42,2.26-.02,22.02-.01,44.03-.01,66.05,0,16.23,0,32.46,0,48.69Z"/>
  <path class="cls-1" d="M135.19,117.15c0,38.02,0,76.04-.03,114.07,0,1.11.85,2.67-1.99,2.8-2.4.1-3.45-.27-3.44-2.41.07-76.34.06-152.69.04-229.03,0-1.46.17-2.35,2.62-2.4,2.86-.06,2.82,1.12,2.82,2.69-.03,38.1-.02,76.19-.02,114.29Z"/>
  <path class="cls-1" d="M56.38,117.15c0,38.02,0,76.05,0,114.07,0,1.38.53,2.82-2.58,2.84-3.16.02-2.83-1.37-2.83-2.9,0-73.87,0-147.73,0-221.6,0-2.55.08-5.11-.01-7.66-.06-1.75,1.4-1.63,2.92-1.67,1.65-.05,2.68.28,2.51,1.74-.05.45,0,.9,0,1.35,0,37.95,0,75.9,0,113.84Z"/>
</svg>