<?xml version="1.0" encoding="UTF-8"?>
<svg id="Calque_1" xmlns="http://www.w3.org/2000/svg" viewBox="0 0 1030.04 1293.17">
  <defs>
    <style>
      .cls-1 {
        fill: #ffeca7;
      }
    </style>
  </defs>
  <path class="cls-1" d="M1017.11,689.08c20.55-161.51,8.09-253.33,2.2-289.39-9.43-57.82-27.45-161.9-91.27-244.19-11.78-15.18-38.29-47.38-98.8-81.84-39.03-22.22-110.49-56.44-270.24-68.5-153.73-11.6-247.06,8.04-307.13,26.33-51.74,15.75-96.31,35.83-136.8,85.72-40.17,49.49-57.93,105.64-65.62,129.94-36.68,115.95-130.92,623.67,121.14,894.33,14.43,15.49,161.93,169.72,331.96,148.13,18.27-2.32,49.68-18.4,115.25-27.32,124.1-16.88,185.38-34.64,230.79-68.94,115.45-87.2,143.83-310.2,168.53-504.29Z"/>
  <path class="cls-1" d="M1018.61,689.08c9.38-74.16,14.41-149.38,9.54-224.09-2.91-44.63-10.09-89.2-20.2-132.74-15.91-68.5-42.58-137.54-89.65-190.91-35.19-39.9-82.62-69.71-131.42-90.33-57.51-24.29-119.9-35.94-181.65-42.98-82.38-9.39-166.57-11.68-248.91-.65-27.05,3.62-53.88,8.79-80.28,15.72-29.45,7.73-58.93,16.96-86.09,30.91-69.86,35.89-112.51,105.05-137,177.51-10.7,31.68-18.48,64.2-25.04,96.98-9.55,47.74-16.45,96.03-21.13,144.48-5.75,59.55-8.04,119.47-6.15,179.28,2.04,64.44,8.95,128.88,22.66,191.91s34.55,125.32,64.78,182.71c24.33,46.18,54.87,89.79,92.05,126.57,35.34,34.96,75.48,65.73,118.79,90.14,60.15,33.9,129.26,55.63,198.88,48.1,9.93-1.07,19.24-3.83,28.75-6.8,14.07-4.39,28.18-8.61,42.53-12.03,42.34-10.09,85.99-13.63,128.74-21.71,53.97-10.19,110.03-24.1,154.15-58.51,50.82-39.63,80.42-100.95,100.96-160.57,25.45-73.87,39.06-151.54,50.36-228.65,5.58-38.05,10.44-76.19,15.29-114.33.24-1.91-2.76-1.89-3,0-10.03,78.84-19.96,157.88-36.65,235.65-14.82,69.05-34.45,139.81-72.01,200.31-15.97,25.73-35.67,49.51-60.03,67.72-19.22,14.36-40.81,25.07-63.33,33.21-30.52,11.02-62.45,17.95-94.33,23.73-41.7,7.56-84.21,11.11-125.38,21.35-24.23,6.02-47.65,16.22-72.67,18.28-35.73,2.94-71.69-1.73-106.01-11.84-59.97-17.68-114.86-50.91-163.01-90.32-31.57-25.84-59.94-54.61-84.48-87.26-38.61-51.38-67.33-109.63-87.85-170.42-20.66-61.19-33.27-124.94-40.17-189.09-6.6-61.38-8.04-123.27-5.56-184.94,2.18-54.09,7.35-108.07,15.41-161.6,5.92-39.31,13.25-78.51,23.1-117.03,12.83-50.12,31.31-99.53,61.14-142.15,23.59-33.7,54.04-61.44,91-79.76,27.23-13.5,56.71-22.47,86.1-29.98,62.39-15.94,126.91-21.83,191.19-21.74,81.82.12,165.49,7.26,244.91,27.73,44.23,11.4,86.34,28.22,125.26,52.18,27.88,17.16,54.23,37.47,75.68,62.35,22.85,26.49,40.82,57.2,54.99,89.1,24.8,55.86,37.85,116.26,46.66,176.5,7.38,50.45,8.52,101.75,6.64,152.63-1.55,41.94-5.33,83.77-10.6,125.4-.24,1.91,2.76,1.89,3,0Z"/>
</svg>