<?xml version="1.0" encoding="UTF-8"?>
<svg id="Calque_1" data-name="Calque 1" xmlns="http://www.w3.org/2000/svg" viewBox="0 0 1048.84 1402.77">
  <defs>
    <style>
      .cls-1 {
        fill: #ffeca7;
        stroke-width: 0px;
      }
    </style>
  </defs>
  <path class="cls-1" d="M1.5,639.29c.01,55.88,4.03,167.06,39.63,301.94,36.55,138.49,62.62,240.95,147.63,325.68,81.05,80.78,190.5,121.21,299.6,131.73,109.1,10.52,218.82-6.75,326.41-29.24,40.12-8.39,81.21-17.99,115.31-42.64,58.71-42.43,85.86-121.25,99.82-196.82,47.05-254.7,3.25-695.25-209.9-955.37-57.34-69.98-107.29-103.13-139.3-120.86C575.96-4.25,477.2-.04,425.88,2.82c-74.92,4.18-164.19,9.17-245.27,76.55C101.51,145.09,73.93,233.85,42.33,335.55,2.28,464.42,1.49,571.8,1.5,639.29Z"/>
  <path class="cls-1" d="M0,639.29c.04,54.47,4,108.89,11.58,162.83,10.73,76.28,30.05,150.84,51.14,224.82,17.28,60.6,37.64,121.32,71.72,174.79,35.62,55.87,85.51,101.5,143.01,134.2,136.77,77.78,298.27,76.69,449.27,51.71,40.45-6.69,81.12-14.1,120.91-24.08,34.21-8.58,67.7-21.29,94.73-44.59,50.71-43.69,73.47-112.18,86.48-175.75,21.9-107,23.59-218.69,15.66-327.28-9.18-125.8-33.11-251.35-75.37-370.34s-105.37-237.89-198.36-326.59c-42.56-40.6-91.89-72.74-147.25-93.03C564.68,4.41,502.33-2.17,440.02.6c-60.7,2.7-122.59,6.78-179.61,29.55-63.78,25.48-116.26,72.5-151.14,131.36-16.72,28.21-29.61,58.51-40.77,89.29-12.25,33.77-23.19,68.2-33.1,102.73C15.71,422.14,4.82,492.94,1.43,564.19.24,589.21,0,614.25,0,639.29c0,1.93,3,1.93,3,0,0-58.08,2.32-116.01,11.02-173.52,11.01-72.82,32-143.99,57-213.16,22.32-61.75,52.69-120.71,102.31-165,28.13-25.11,60.8-44.77,96.21-57.75,31-11.36,63.55-17.62,96.31-21.13,52.81-5.65,107.39-8.8,160.27-2.66,65.15,7.56,128.38,30.08,182.88,66.72,53.42,35.91,97.93,84.23,135.56,136.11,35.5,48.95,65.02,102.1,89.66,157.27,51.09,114.38,82.01,237.63,98.28,361.61,14.65,111.65,18.11,225.78,5.39,337.8-6.66,58.6-17.06,118.46-41.53,172.5-13.37,29.54-31.4,57.46-56.12,78.76-28.49,24.55-64.28,36.95-100.35,45.51-80.37,19.06-163.35,33.25-245.93,37.07-75.59,3.49-151.86-3.2-224.15-26.44-67.77-21.79-131.11-57.9-181.44-108.58-43.43-43.74-73.86-97.14-95.6-154.48-11.46-30.23-20.84-61.2-29.56-92.31-10.11-36.04-20.03-72.23-28.58-108.67-15.82-67.39-25.86-136.16-29.79-205.28-1.22-21.44-1.82-42.9-1.84-64.37,0-1.93-3-1.93-3,0Z"/>
</svg>