<?xml version="1.0" encoding="UTF-8"?>
<svg id="Calque_1" xmlns="http://www.w3.org/2000/svg" viewBox="0 0 1048.52 1020.96">
  <defs>
    <style>
      .cls-1 {
        fill: #ffeca7;
      }
    </style>
  </defs>
  <path class="cls-1" d="M1.5,465.17c.01,40.62,4.03,121.44,39.63,219.49,36.55,100.67,62.62,175.15,147.63,236.75,81.05,58.72,190.5,88.11,299.6,95.76,109.1,7.65,218.82-4.91,326.41-21.25,40.12-6.1,81.21-13.08,115.31-30.99,58.71-30.85,85.86-88.14,99.82-143.07,47.05-185.15,3.25-505.4-209.9-694.49-57.34-50.87-107.29-74.97-139.3-87.85C575.96-2.65,477.2.41,425.88,2.5c-74.92,3.04-164.19,6.66-245.27,55.64-79.09,47.78-106.67,112.3-138.27,186.23C2.28,338.05,1.49,416.1,1.5,465.17Z"/>
  <path class="cls-1" d="M0,465.17c.04,45.4,5.25,90.74,15.02,135.07,7.19,32.62,17.21,64.3,28.61,95.67,9.21,25.36,18.45,50.73,29.06,75.54,19.72,46.1,45.31,89.27,82.06,123.87,42.54,40.05,95.56,67.94,150.38,87.18,60.19,21.13,123.72,32.28,187.27,36.44,72.09,4.73,144.47.71,216.19-7.28,35.29-3.93,70.48-8.83,105.59-14.15,32.21-4.89,64.84-10.04,95.4-21.75,26.34-10.09,50.02-25.67,68.93-46.68,17.23-19.15,30.08-41.79,39.61-65.64,15.72-39.32,23.21-82.04,27.25-124.04,4.24-44.14,4.06-88.69.33-132.86-4.05-48.05-12.32-95.77-24.69-142.37-13.04-49.08-30.67-96.99-53.13-142.54-22.96-46.57-51.04-90.65-84.24-130.6-36.93-44.44-80.27-84.1-129.06-115.17-45.63-29.05-96.22-49.28-148.9-61.35S498.84-1.19,444.87.32c-54.03,1.51-108.79,3.69-161.67,15.75-59.15,13.5-116.38,40.66-158.95,84.65-36.15,37.36-58.17,84.52-78.44,131.72-12.71,29.58-23.78,59.57-31.33,90.91-6.36,26.41-10.47,53.33-12.57,80.41C.33,424.2,0,444.68,0,465.17c0,1.93,3,1.93,3,0,0-48.39,3.36-96.38,14.99-143.52,7.69-31.19,18.91-60.98,31.6-90.45,10.08-23.41,20.48-46.75,33.09-68.94,12.68-22.32,27.7-43.28,45.79-61.55,20.89-21.09,45.44-38.28,71.8-51.83,54.9-28.21,116.17-38.52,177.18-42.51,47.28-3.09,95.05-5.1,142.36-1.6,60.05,4.44,119.77,17.78,174.91,42.28,49.88,22.17,95.03,53.91,134.87,91.07,38.33,35.75,71.7,76.63,99.74,120.89,27.3,43.08,49.61,89.26,67.12,137.15,16.74,45.75,29.17,93.08,37.39,141.09,7.78,45.46,11.8,91.6,11.64,137.73-.14,40.71-3.48,81.55-11.41,121.51-9.4,47.38-25.53,95.33-58.71,131.58-20.07,21.93-45.31,37.49-73.29,47.24-30.55,10.65-62.8,15.42-94.68,20.21-70.21,10.55-140.84,19.26-211.85,21.74-67.4,2.35-135.2-.95-201.48-13.94-60.13-11.79-119.48-31.25-172.52-62.34-46.17-27.05-85.91-63.07-114.35-108.59s-44.95-93.93-62.64-142.68c-20.09-55.35-33.99-112.65-39.19-171.37-1.57-17.68-2.35-35.42-2.37-53.17,0-1.93-3-1.93-3,0Z"/>
</svg>