<?xml version="1.0" encoding="utf-8"?>
<svg id="Calque_1" data-name="Calque 1" xmlns="http://www.w3.org/2000/svg" viewBox="0 0 1071.339 1140.95">
  <defs>
    <style>
      .cls-1 {
        fill: #ffeca7;
        stroke-width: 0px;
      }
    </style>
  </defs>
  <path class="cls-1" d="M 1.531 519.81 C 1.541 565.22 5.644 655.57 41.976 765.18 C 79.276 877.72 105.882 960.98 192.64 1029.83 C 275.356 1095.47 387.056 1128.33 498.398 1136.88 C 609.741 1145.43 721.716 1131.39 831.517 1113.12 C 872.462 1106.31 914.396 1098.5 949.198 1078.47 C 1009.12 1043.99 1036.82 979.94 1051.07 918.53 C 1099.09 711.55 1054.38 353.55 836.854 142.18 C 778.336 85.31 727.36 58.37 694.692 43.97 C 587.799 -3.15 487.008 0.27 434.633 2.6 C 358.174 6 267.069 10.05 184.323 64.8 C 103.607 118.21 75.46 190.33 43.21 272.98 C 2.326 377.71 1.52 464.96 1.531 519.81 Z" style=""/>
  <path class="cls-1" d="M 0 519.81 C 0.041 567.94 4.817 616.03 13.869 663.34 C 26.198 727.77 47.2 790.79 70.367 852.2 C 89.258 902.29 113.006 950.81 149.235 991.21 C 190.385 1037.09 244.31 1070.72 301.544 1094.05 C 363.675 1119.37 430.46 1133.07 497.398 1138.3 C 574.48 1144.32 652.012 1139.45 728.574 1129.88 C 766.171 1125.18 803.645 1119.43 840.978 1113.04 C 874.605 1107.29 908.732 1100.43 939.482 1085.34 C 993.369 1058.88 1025.58 1007.42 1043.26 952.65 C 1057.18 909.55 1063.91 864.06 1067.44 819.08 C 1071.27 770.32 1070.77 721.23 1066.75 672.49 C 1062.41 619.85 1053.94 567.52 1041.34 516.17 C 1028.28 462.92 1010.73 410.7 988.243 360.55 C 965.516 309.85 937.655 261.26 904.16 216.62 C 867.93 168.34 825.098 124.25 775.703 88.75 C 729.707 55.7 677.842 31.77 622.732 17.38 C 567.092 2.86 509.532 -1.46 452.126 0.41 C 394.465 2.29 335.844 4.96 280.01 20.32 C 218.093 37.35 160.727 70.91 120.181 120.32 C 84.338 164 63.539 216.7 43.312 268.52 C 20.013 328.2 5.98 390.44 1.746 454.21 C 0.296 476.05 0 497.93 0 519.81 C 0 521.74 3.061 521.74 3.061 519.81 C 3.061 468.71 6.001 417.9 16.533 367.72 C 23.646 333.82 33.964 300.8 46.578 268.49 C 56.916 242.03 67.306 215.54 79.879 190 C 92.115 165.15 106.526 141.23 124.456 119.89 C 143.929 96.72 167.259 76.95 193.15 60.93 C 249.322 26.18 314.3 12.24 379.779 7.16 C 429.919 3.27 480.886 0.89 531.076 5.01 C 594.116 10.18 656.512 26 712.99 54.22 C 765.293 80.35 811.391 117.21 851.449 159.04 C 889.75 199.04 922.479 243.96 949.881 291.75 C 977.181 339.35 999.227 389.76 1016.61 441.61 C 1033.52 492.05 1046.05 543.89 1054.47 596.33 C 1062.48 646.2 1066.76 696.68 1066.98 747.17 C 1067.19 792.2 1064.26 837.37 1056.82 881.83 C 1048.37 932.32 1034.53 983.93 1004.05 1026.28 C 986.151 1051.16 962.495 1071.37 934.389 1084.46 C 903.252 1098.97 868.89 1105.33 835.15 1111.01 C 759.997 1123.65 684.251 1134.23 607.975 1137.17 C 536.557 1139.91 464.628 1135.78 394.863 1119.97 C 331.191 1105.54 269.049 1081.62 215.337 1044.73 C 168.371 1012.47 130.692 970.53 104.076 920.76 C 76.848 869.84 59.396 814.05 41.711 759.43 C 22.412 699.85 9.96 638.08 5.215 575.73 C 3.796 557.12 3.092 538.47 3.072 519.82 C 3.072 517.89 0.01 517.89 0.01 519.82 L 0 519.81 Z" style=""/>
</svg>