<?xml version="1.0" encoding="UTF-8"?>
<svg id="Calque_1" xmlns="http://www.w3.org/2000/svg" viewBox="0 0 144.13 141.2">
  <defs>
    <style>
      .cls-1 {
        fill: #ff8300;
      }
    </style>
  </defs>
  <g>
    <path class="cls-1" d="M124,73.69c0,6.33-.02,12.67-.03,19l2.26-1.3c-4.17-3.21-8.33-6.43-12.44-9.72-3.61-2.9-7.53-5.77-10.11-9.69-1.06-1.6-3.66-.1-2.59,1.51,2.75,4.16,6.74,7.21,10.58,10.29,4.3,3.45,8.67,6.82,13.04,10.19.94.72,2.26-.27,2.26-1.3,0-6.33.02-12.67.03-19,0-1.93-3-1.93-3,0h0Z"/>
    <path class="cls-1" d="M102.43,70.71c-9.79.17-19.58.33-29.37.5-4.88.08-9.76.24-14.64.19-2.23-.02-4.64.06-6.82-.4s-2.62-2.46-3.23-4.29c-2.9-8.58-4.08-17.61-4.41-26.64-.17-4.55-.12-9.11.02-13.66.14-4.46.16-9,.62-13.44.44-4.23,4.24-6.49,7.94-7.78,4.2-1.47,8.71-1.84,13.12-2.05,9.6-.44,19.26-.04,28.86.05,9.56.09,19.26-.24,28.76.95,2.35.3,4.71.7,7,1.3,1.96.52,3.93,1.25,5.43,2.67,2.71,2.58,3.52,6.55,4.09,10.11,1.47,9.18,1.71,18.57.88,27.82-.42,4.65-1.14,9.28-2.14,13.84-.48,2.18-.98,4.38-1.64,6.52-.27.88-.62,1.63-1.44,2.11-.95.56-2.08.85-3.11,1.21-2.19.77-4.37,1.55-6.56,2.32-1.81.64-1.03,3.54.8,2.89,2.41-.85,4.83-1.71,7.24-2.56,1.96-.69,4-1.33,5.15-3.22s1.52-4.49,2.03-6.64c.56-2.38,1.05-4.77,1.46-7.18,1.67-9.84,2.11-19.89,1.23-29.83-.39-4.42-.79-9.07-2.2-13.31s-3.91-7.25-7.99-8.87c-4.45-1.77-9.57-2.24-14.31-2.61-5.16-.4-10.35-.41-15.52-.46C93.29.18,82.91-.01,72.53,0c-5.02,0-10.08.14-15.05.91-4.31.67-8.62,2.03-12.07,4.78-1.65,1.31-2.94,2.99-3.46,5.06-.57,2.21-.5,4.61-.61,6.88-.24,4.86-.44,9.72-.48,14.58-.08,9.69.49,19.47,2.78,28.92.56,2.3,1.21,4.58,1.99,6.81.65,1.87,1.34,3.92,3.06,5.08,1.85,1.25,4.4,1.19,6.53,1.29,2.63.12,5.27.1,7.91.06,10.45-.16,20.9-.35,31.35-.53,2.65-.05,5.31-.09,7.96-.14,1.93-.03,1.93-3.03,0-3h0Z"/>
    <path class="cls-1" d="M82.62,27.12c1.93,0,1.93-3,0-3s-1.93,3,0,3h0Z"/>
    <path class="cls-1" d="M94.96,26.15c1.93,0,1.93-3,0-3s-1.93,3,0,3h0Z"/>
    <path class="cls-1" d="M67.44,31.82c3.52,5.69,8.84,10.28,15.39,12.03,7.13,1.9,14.78.37,21.15-3.16,4.08-2.26,7.67-5.34,10.65-8.91,1.23-1.47-.88-3.6-2.12-2.12-4.62,5.53-10.75,9.83-17.85,11.42-6.55,1.47-13.52.2-18.8-4.08-2.32-1.88-4.26-4.17-5.83-6.7-1.01-1.64-3.61-.13-2.59,1.51h0Z"/>
    <path class="cls-1" d="M43.33,52.33c-8.99.04-17.99.08-26.98.13-3.66.02-7.66.04-10.77,2.27-2.47,1.77-3.95,4.45-4.7,7.34C.07,65.17-.02,68.42,0,71.61c.04,4.49.08,8.98.13,13.46s.08,8.98.13,13.46c.04,3.87-.12,7.81.38,11.66s1.94,7.65,5.15,10.14,6.98,3.28,10.76,3.84l-1.1-1.45c-.04,2.72-.07,5.44-.11,8.16-.03,2.49-.35,5.16-.03,7.63.29,2.25,2.25,3.19,4.31,2.41s4.19-2.12,6.15-3.29c4.16-2.48,8.09-5.33,11.77-8.48.84-.72,1.66-1.46,2.47-2.21.88-.82,1.68-1.8,2.96-1.82,1.19-.02,2.44.31,3.61.47,1.34.19,2.67.36,4.01.51,10.46,1.2,21.05,1.31,31.53.31,2.63-.25,5.26-.57,7.88-.95,1.96-.29,4.02-.66,5.57-2,1.72-1.49,1.98-3.69,2.19-5.82.27-2.7.49-5.4.67-8.11.77-12.06.57-24.17-.58-36.19-.18-1.91-3.18-1.92-3,0,.94,9.9,1.25,19.85.9,29.79-.18,5-.49,10.02-1.04,15-.1.91-.19,1.98-.77,2.73s-1.56,1.07-2.43,1.29c-2.18.55-4.49.73-6.72.98-9.74,1.09-19.58,1.24-29.35.44-2.42-.2-4.84-.45-7.25-.77-2.08-.27-4.51-1.05-6.6-.53s-3.62,2.51-5.17,3.88c-1.67,1.48-3.39,2.89-5.18,4.23-3.99,2.97-8.23,5.35-12.59,7.71-.24.13-.22.3-.34.22-.1-.07-.05-.67-.05-.74,0-.66.02-1.32.03-1.98.02-1.4.04-2.8.06-4.21.04-2.89.08-5.77.12-8.66,0-.59-.47-1.35-1.1-1.45-3.09-.46-6.31-1.07-8.99-2.78s-4.12-4.74-4.66-7.92c-.59-3.54-.4-7.23-.43-10.8-.04-3.99-.08-7.98-.11-11.97s-.08-8.31-.12-12.47c-.03-3.31-.2-6.68.24-9.97.34-2.55,1.06-5.31,2.89-7.22,2.41-2.53,5.99-2.67,9.27-2.7,9.3-.08,18.6-.09,27.9-.13,1.93,0,1.93-3.01,0-3h0Z"/>
    <path class="cls-1" d="M37.35,90.16c1.93,0,1.93-3,0-3s-1.93,3,0,3h0Z"/>
    <path class="cls-1" d="M50.15,90.45c1.93,0,1.93-3,0-3s-1.93,3,0,3h0Z"/>
    <path class="cls-1" d="M62.58,90.13c1.93,0,1.93-3,0-3s-1.93,3,0,3h0Z"/>
  </g>
  <path class="cls-1" d="M11.98,9.35c.12-.32-.15.29.04-.09.13-.27.26-.54.4-.8.37-.69.8-1.36,1.32-1.95,1.4-1.6,3.25-2.58,5.29-2.52,2.79.08,4.45,2.25,4.49,4.93.05,3.12-1.8,5.15-3.79,7.28-2.3,2.45-2.57,5.82-1.29,8.84.32.75.99,1.27,1.85,1.05.71-.19,1.36-1.1,1.05-1.85-.64-1.51-1.02-3.18-.3-4.74.54-1.18,1.69-1.97,2.51-2.94,2.31-2.71,3.58-6.29,2.71-9.84-.78-3.17-3.31-5.35-6.54-5.69-2.76-.29-5.43.77-7.43,2.66-1.41,1.34-2.5,3.05-3.19,4.86s2.21,2.58,2.89.8h0Z"/>
  <path class="cls-1" d="M22.19,36.61c1.93,0,1.93-3,0-3s-1.93,3,0,3h0Z"/>
</svg>