<?xml version="1.0" encoding="UTF-8"?>
<svg id="Calque_1" xmlns="http://www.w3.org/2000/svg" viewBox="0 0 1048.52 1140.95">
  <defs>
    <style>
      .cls-1 {
        fill: #ffeca7;
      }
    </style>
  </defs>
  <path class="cls-1" d="M1.5,519.81c.01,45.41,4.03,135.76,39.63,245.37,36.55,112.54,62.62,195.8,147.63,264.65,81.05,65.64,190.5,98.5,299.6,107.05,109.1,8.55,218.82-5.49,326.41-23.76,40.12-6.81,81.21-14.62,115.31-34.65,58.71-34.48,85.86-98.53,99.82-159.94,47.05-206.98,3.25-564.98-209.9-776.35-57.34-56.87-107.29-83.81-139.3-98.21C575.96-3.15,477.2.27,425.88,2.6c-74.92,3.4-164.19,7.45-245.27,62.2-79.09,53.41-106.67,125.53-138.27,208.18C2.28,377.71,1.49,464.96,1.5,519.81Z"/>
  <path class="cls-1" d="M0,519.81c.04,48.13,4.72,96.22,13.59,143.53,12.08,64.43,32.66,127.45,55.36,188.86,18.51,50.09,41.78,98.61,77.28,139.01,40.32,45.88,93.16,79.51,149.24,102.84,60.88,25.32,126.32,39.02,191.91,44.25,75.53,6.02,151.5,1.15,226.52-8.42,36.84-4.7,73.56-10.45,110.14-16.84,32.95-5.75,66.39-12.61,96.52-27.7,52.8-26.46,84.36-77.92,101.69-132.69,13.64-43.1,20.23-88.59,23.69-133.57,3.75-48.76,3.26-97.85-.68-146.59-4.25-52.64-12.55-104.97-24.89-156.32-12.8-53.25-30-105.47-52.03-155.62-22.27-50.7-49.57-99.29-82.39-143.93-35.5-48.28-77.47-92.37-125.87-127.87-45.07-33.05-95.89-56.98-149.89-71.37C555.67,2.86,499.27-1.46,443.02.41c-56.5,1.88-113.94,4.55-168.65,19.91-60.67,17.03-116.88,50.59-156.61,100-35.12,43.68-55.5,96.38-75.32,148.2C19.61,328.2,5.86,390.44,1.71,454.21.29,476.05,0,497.93,0,519.81c0,1.93,3,1.93,3,0,0-51.1,2.88-101.91,13.2-152.09,6.97-33.9,17.08-66.92,29.44-99.23,10.13-26.46,20.31-52.95,32.63-78.49,11.99-24.85,26.11-48.77,43.68-70.11,19.08-23.17,41.94-42.94,67.31-58.96C244.3,26.18,307.97,12.24,372.13,7.16c49.13-3.89,99.07-6.27,148.25-2.15,61.77,5.17,122.91,20.99,178.25,49.21,51.25,26.13,96.42,62.99,135.67,104.82,37.53,40,69.6,84.92,96.45,132.71,26.75,47.6,48.35,98.01,65.39,149.86,16.57,50.44,28.85,102.28,37.1,154.72,7.84,49.87,12.03,100.35,12.26,150.84.2,45.03-2.68,90.2-9.97,134.66-8.28,50.49-21.84,102.1-51.7,144.45-17.54,24.88-40.72,45.09-68.26,58.18-30.51,14.51-64.18,20.87-97.24,26.55-73.64,12.64-147.86,23.22-222.6,26.16-69.98,2.74-140.46-1.39-208.82-17.2-62.39-14.43-123.28-38.35-175.91-75.24-46.02-32.26-82.94-74.2-109.02-123.97-26.68-50.92-43.78-106.71-61.11-161.33-18.91-59.58-31.11-121.35-35.76-183.7-1.39-18.61-2.08-37.26-2.1-55.91,0-1.93-3-1.93-3,0Z"/>
</svg>