<?xml version="1.0" encoding="UTF-8"?>
<svg id="Calque_1" xmlns="http://www.w3.org/2000/svg" viewBox="0 0 1048.51 683.12">
  <defs>
    <style>
      .cls-1 {
        fill: #ffeca7;
      }
    </style>
  </defs>
  <path class="cls-1" d="M1047.01,371.86c-.01-27.14-4.03-81.13-39.63-146.63-36.55-67.25-62.62-117.01-147.63-158.16C778.7,27.84,669.25,8.21,560.15,3.1c-109.1-5.11-218.82,3.28-326.41,14.2-40.12,4.07-81.21,8.73-115.31,20.7-58.71,20.61-85.86,58.88-99.82,95.58-47.05,123.69-3.25,337.63,209.9,463.95,57.34,33.98,107.29,50.08,139.3,58.69,104.73,28.16,203.5,26.11,254.82,24.72,74.92-2.03,164.19-4.45,245.27-37.17,79.09-31.92,106.67-75.02,138.27-124.41,40.05-62.58,40.84-114.73,40.83-147.51Z"/>
  <path class="cls-1" d="M1048.51,371.86c-.07-39.75-9.08-79.04-24.51-115.59-9.25-21.91-21.01-42.75-32.72-63.42-9.75-17.22-20.13-34.13-32.26-49.8-26.97-34.81-62.48-60.28-102.11-78.99-47.58-22.47-98.98-36.43-150.57-46.05C587.92-4.08,466.37-2.84,346.66,5.79c-30.32,2.18-60.59,4.86-90.84,7.82-29.06,2.84-58.23,5.47-87.03,10.42-47.32,8.12-94.33,24.75-125.52,63.12-20.56,25.3-31.92,56.72-37.96,88.45-5.88,30.94-6.66,62.78-3.4,94.06,7.84,75.11,38.73,146.78,84.77,206.35,58.74,76,141.54,132.63,231.22,165.91,90.52,33.59,188.43,42.72,284.37,41.01,101.47-1.81,211.25-3.88,302.13-54.85,35.49-19.91,63.06-48.16,85.83-81.57,13.37-19.61,26.48-39.66,36.29-61.33,9.44-20.87,15.99-42.95,19.21-65.63,2.24-15.82,2.78-31.73,2.78-47.68,0-1.93-3-1.93-3,0,0,16.99-.59,33.96-3.25,50.78-3.61,22.82-10.62,45.02-20.57,65.86s-22.53,39.8-35.44,58.54c-10.62,15.42-22.22,30.16-35.68,43.21-35.71,34.63-82.66,55.01-130.17,67.69-52.27,13.95-106.46,18.35-160.35,20.36-41.19,1.53-82.47,2.68-123.67.98-54.99-2.27-109.91-9.31-163.23-23.2-90.47-23.56-175.98-69.7-242.8-135.43-56.18-55.27-98.23-125.03-116.89-201.86-14.54-59.87-15.65-125.69,6.28-183.97,14.64-38.93,42.5-69.76,80.19-87.63,24.23-11.49,50.73-17.36,77.1-21.5,29.44-4.62,59.2-7.23,88.85-10.06,118.69-11.33,238.7-18.42,357.64-6.37,54.95,5.56,109.81,15,162.71,31.11,46.38,14.13,92.96,33.38,130.97,64.09,30.75,24.84,52.89,56.93,72.16,91.07,11.93,21.14,23.92,42.42,33.16,64.9s15.44,43.93,19.27,66.85c2.46,14.73,3.71,29.65,3.73,44.58,0,1.93,3,1.93,3,0Z"/>
</svg>