<?xml version="1.0" encoding="UTF-8"?>
<svg id="Calque_1" data-name="Calque 1" xmlns="http://www.w3.org/2000/svg" viewBox="0 0 410.78 403.17">
  <defs>
    <style>
      .cls-1 {
        fill: #ff8300;
        stroke-width: 0px;
      }
    </style>
  </defs>
  <path class="cls-1" d="M396.53,120.89c-6.81-19.92-15.87-37.98-28.7-54.63-19.02-24.67-43.07-45.84-72.29-57.44-19.35-7.68-40.63-10.47-61.3-7.89-19.89,2.48-39.24,9.38-57.56,17.32-31.67,13.72-59.97,35.38-81.93,61.99-20.42,24.75-39.05,53.61-44.13,85.78-6.91,43.73,8.69,86.8,36.25,120.57,5.45,6.68,11.29,13.06,17.47,19.08-34.23,29.65-68.45,59.3-102.68,88.94-4.99,4.32,2.28,11.53,7.24,7.24,34.32-29.73,68.64-59.46,102.96-89.19,23.19,20.54,50.71,35.98,81.19,43.03,43.83,10.13,92.12,2.85,133.22-14.56,32.66-13.83,61.38-37.25,74.96-70.72,3.45-8.51,5.71-17.41,7-26.49.03-.24.04-.47.05-.71.05-.22.1-.43.13-.66,5.43-40.74,1.39-82.76-11.9-121.67ZM343.22,321.14c-15.5,9.34-32.37,15.58-49.77,20.37-22.26,6.13-45.38,9.32-68.48,8.25-42.34-1.96-81.52-20.67-111.93-49.8-29.94-28.68-52.64-66.54-53.86-108.86-.57-20.05,3.75-39.83,12.6-57.82,6.51-13.23,14.94-25.54,23.65-37.4,16.85-22.96,38.66-42.53,63.18-56.97,16.68-9.82,34.82-17.21,53.34-22.77,19.87-5.97,40.6-7.84,61.01-3.48,31.2,6.67,57.66,25.86,78.39,49.54,12.1,13.83,22.05,28.69,29.29,45.61,13.56,31.71,20.13,66.62,19.93,101.04-.06,10.94-.85,21.86-2.26,32.71-5,34.3-25.7,61.85-55.1,79.57Z"/>
  <path class="cls-1" d="M234.16,55.5c-39.94,21.01-80.71,43.19-108.58,79.77-3.99,5.24,4.89,10.34,8.84,5.17,26.66-34.98,66.78-56.04,104.91-76.09,5.83-3.07.66-11.91-5.17-8.84Z"/>
</svg>