<?xml version="1.0" encoding="UTF-8"?>
<svg id="Calque_1" data-name="Calque 1" xmlns="http://www.w3.org/2000/svg" viewBox="0 0 81.41 67.6">
  <defs>
    <style>
      .cls-1 {
        fill: #ff8300;
        stroke-width: 0px;
      }
    </style>
  </defs>
  <path class="cls-1" d="M1.09,50.59c14.05,2.16,27.47-3.24,39.53-9.97,11.04-6.17,22.35-13.04,31-22.41,4.35-4.71,7.93-10.16,9.72-16.36.54-1.86-2.36-2.65-2.89-.8-3.19,11-12.26,19.21-21.27,25.68-5.09,3.65-10.45,6.93-15.88,10.05s-11.17,6.13-17.17,8.25c-7.12,2.51-14.71,3.83-22.24,2.67-1.89-.29-2.7,2.6-.8,2.89h0Z"/>
  <path class="cls-1" d="M2.72,49.12c6.65-5.31,12.43-11.74,16.66-19.14.96-1.68-1.63-3.19-2.59-1.51-4.11,7.2-9.73,13.37-16.19,18.53-.63.51-.53,1.59,0,2.12.63.63,1.49.51,2.12,0h0Z"/>
  <path class="cls-1" d="M1.08,50.6c11.74,3.24,23,8.67,32.29,16.62,1.46,1.25,3.59-.86,2.12-2.12-9.69-8.29-21.36-14.01-33.61-17.39-1.86-.51-2.66,2.38-.8,2.89h0Z"/>
</svg>