<?xml version="1.0" encoding="utf-8"?>
<svg id="Calque_1" data-name="Calque 1" xmlns="http://www.w3.org/2000/svg" viewBox="0 -4.551 681.71 395.656">
  <defs>
    <style>
      .cls-1 {
        fill: #ff8300;
        stroke-width: 0px;
      }
    </style>
  </defs>
  <path class="cls-1" d="M 540.148 317.763 C 543.114 317.763 545.739 317.429 548.269 317.829 C 555.544 318.965 562.837 318.431 570.129 318.535 C 572.328 318.564 574.517 319.261 576.724 319.432 C 580.841 319.757 584.226 321.646 587.262 324.633 C 590.541 327.868 589.94 333.459 585.927 335.54 C 582.664 337.229 579.411 338.937 575.869 339.929 C 571.263 341.227 566.745 342.849 562.139 344.128 C 557.603 345.397 553.006 346.408 548.435 347.534 C 548.007 347.639 547.58 347.773 546.708 348.021 C 549.761 348.689 552.099 350.196 554.855 350.464 C 557.28 350.702 558.99 352.506 560.08 354.853 C 560.804 356.408 560.455 357.935 559.609 359.385 C 558.144 361.914 556.068 363.546 553.468 364.319 C 549.316 365.55 545.268 367.172 540.933 367.687 C 537.731 368.069 534.565 368.899 531.39 369.538 C 531.146 369.586 530.901 369.681 530.666 369.777 C 527.682 371.017 524.56 371.599 521.445 372.258 C 518.593 372.868 515.723 373.508 512.966 374.481 C 509.861 375.569 506.677 376.084 503.476 376.599 C 502.342 376.781 501.216 377.01 500.082 377.124 C 499.149 377.22 498.198 377.182 497.256 377.201 C 496.375 377.22 495.485 377.191 494.613 377.296 C 491.9 377.62 489.178 377.888 486.492 378.384 C 484.259 378.794 482.069 379.5 479.853 380.082 C 479.426 380.197 479.007 380.369 478.58 380.407 C 473.651 380.874 468.714 381.094 463.777 381.342 C 459.415 381.571 455.08 382.43 450.735 383.021 C 450.107 383.107 449.479 383.269 448.851 383.289 C 444.603 383.432 440.346 383.498 436.098 383.67 C 433.629 383.775 431.161 383.976 428.692 384.205 C 423.633 384.682 418.591 385.245 413.531 385.722 C 407.338 386.294 401.136 386.915 394.933 387.315 C 391.392 387.544 387.815 387.229 384.274 387.42 C 375.463 387.897 366.653 388.537 357.843 389.071 C 354.615 389.262 351.37 389.319 348.142 389.472 C 345.543 389.596 342.952 389.863 340.353 389.911 C 336.427 389.978 332.493 390.006 328.568 389.882 C 322.671 389.701 316.783 389.434 310.895 389.109 C 301.892 388.613 292.89 389.338 283.888 389.109 C 281.986 389.062 280.076 389.081 278.174 389.109 C 274.938 389.176 271.71 389.424 268.483 389.329 C 262.786 389.166 257.09 389.262 251.411 388.27 C 247.486 387.592 243.456 387.573 239.469 387.392 C 236.809 387.277 234.139 387.42 231.47 387.392 C 230.458 387.392 229.446 387.172 228.434 387.153 C 226.986 387.124 225.53 387.258 224.082 387.21 C 221.997 387.144 219.903 387.086 217.827 386.829 C 212.035 386.113 206.243 385.292 200.459 384.51 C 200.084 384.462 199.7 384.424 199.325 384.348 C 193.716 383.174 188.116 381.991 182.516 380.798 C 181.905 380.664 181.312 380.397 180.719 380.187 C 179.402 379.729 178.102 378.947 176.759 378.861 C 173.81 378.661 171.019 377.764 168.184 377.057 C 166.84 376.724 165.593 375.941 164.276 375.473 C 161.022 374.309 157.742 373.25 154.497 372.048 C 151.976 371.113 149.499 370.034 147.004 369.033 C 143.026 367.439 139.022 365.912 135.062 364.242 C 132.401 363.126 129.88 361.571 127.167 360.655 C 122.832 359.185 118.863 356.866 114.754 354.891 C 113.367 354.223 112.085 353.288 110.785 352.439 C 108.238 350.769 105.578 349.252 103.196 347.334 C 100.256 344.958 97.535 342.257 94.743 339.652 C 92.196 337.286 89.562 335.005 87.198 332.429 C 84.52 329.499 81.912 326.503 79.539 323.221 C 75.814 318.077 72.726 312.543 69.9 306.799 C 68.365 303.678 66.637 300.673 65.189 297.514 C 62.921 292.552 60.915 287.457 59.275 282.189 C 58.621 280.09 57.827 278.039 57.094 275.968 C 55.777 272.208 54.312 268.506 53.204 264.68 C 52.27 261.445 51.773 258.067 51.075 254.756 C 50.709 253 50.281 251.254 49.959 249.488 C 49.496 246.969 49.078 244.45 48.694 241.912 C 48.24 238.83 47.813 235.748 47.438 232.656 C 46.932 228.534 46.504 224.393 46.016 220.27 C 45.527 216.139 45.013 212.016 44.507 207.894 C 44.437 207.341 44.245 206.797 44.254 206.253 C 44.289 199.459 43.224 192.684 44.149 185.871 C 44.35 184.401 43.983 182.837 43.87 181.319 C 43.678 178.762 43.408 176.214 43.303 173.657 C 43.216 171.653 43.198 169.611 43.399 167.626 C 43.608 165.642 44.062 163.685 44.542 161.748 C 44.838 160.527 45.711 159.792 46.827 159.458 C 48.589 158.924 49.732 159.735 49.697 161.729 C 49.662 163.657 49.235 165.575 49.191 167.502 C 49.113 170.756 48.894 174.058 49.313 177.254 C 49.845 181.348 49.924 185.403 49.802 189.507 C 49.741 191.72 49.837 193.944 49.915 196.157 C 49.967 197.608 50.063 199.068 50.229 200.509 C 50.639 204.154 51.119 207.789 51.538 211.434 C 52.122 216.463 52.654 221.492 53.247 226.521 C 53.675 230.166 54.163 233.811 54.617 237.446 C 55.69 246.13 57.495 254.641 59.676 263.057 C 60.156 264.909 61.011 266.636 61.648 268.449 C 63.532 273.821 65.442 279.184 67.239 284.594 C 68.87 289.508 71.008 294.146 73.372 298.659 C 75.832 303.354 78.326 308.03 80.978 312.6 C 82.618 315.425 84.965 317.61 87.329 319.738 C 88.253 320.558 89.178 321.494 89.797 322.581 C 91.481 325.52 93.679 327.839 96.235 329.843 C 97.509 330.845 98.573 332.181 99.724 333.374 C 101.521 335.234 103.327 337.047 105.508 338.421 C 107.261 339.519 108.761 341.084 110.489 342.229 C 112.05 343.269 113.76 344.023 115.4 344.92 C 115.845 345.168 116.281 345.444 116.717 345.721 C 119.404 347.42 122.064 349.185 124.795 350.817 C 127.071 352.181 129.418 353.393 131.738 354.662 C 131.965 354.786 132.201 354.91 132.436 354.986 C 138.385 356.771 143.802 360.072 149.656 362.124 C 153.642 363.517 157.576 365.073 161.563 366.466 C 162.88 366.924 164.284 367.115 165.645 367.439 C 166.203 367.573 166.832 367.611 167.276 367.935 C 170.077 369.929 173.339 370.302 176.471 371.122 C 179.122 371.819 181.783 372.458 184.435 373.117 C 185.36 373.346 186.293 373.536 187.218 373.785 C 189.433 374.386 191.64 375.015 193.847 375.626 C 194.336 375.76 194.842 376.036 195.321 376.008 C 200.817 375.712 206.286 377.849 211.799 376.275 C 215.28 376.428 218.769 376.504 222.241 376.771 C 224.308 376.933 226.358 377.544 228.426 377.687 C 234.698 378.136 240.891 379.281 247.119 380.168 C 250.574 380.664 254.072 380.836 257.552 381.151 C 262.237 381.571 266.93 381.771 271.623 381.466 C 274.728 381.266 277.825 380.951 280.93 380.874 C 283.015 380.827 285.1 381.151 287.194 381.227 C 290.107 381.342 293.021 381.475 295.934 381.456 C 299.424 381.428 302.913 381.237 306.393 381.113 C 306.96 381.094 307.554 381.132 308.103 381.008 C 311.933 380.168 315.806 380.264 319.679 380.311 C 325.07 380.378 330.469 380.187 335.86 380.369 C 341.373 380.559 346.878 381.142 352.382 381.418 C 354.842 381.542 357.319 381.418 359.779 381.237 C 363.321 380.989 366.862 380.598 370.395 380.254 C 374.687 379.834 378.987 379.443 383.271 378.956 C 385.73 378.67 388.164 378.136 390.624 377.859 C 393.904 377.487 397.193 377.267 400.481 376.943 C 401.746 376.819 402.994 376.514 404.25 376.409 C 405.445 376.313 406.649 376.399 407.852 376.351 C 411.15 376.227 414.438 376.065 417.736 375.922 C 423.31 375.683 428.832 374.672 434.441 374.739 C 437.729 374.777 441.027 374.376 444.306 373.985 C 446.121 373.775 447.883 373.05 449.697 372.792 C 452.018 372.458 454.373 372.382 456.702 372.153 C 461.247 371.714 465.792 371.18 470.336 370.807 C 474.829 370.445 479.33 370.283 483.822 369.939 C 486.605 369.729 489.37 369.109 492.144 369.071 C 497.212 369.004 501.993 367.153 506.956 366.523 C 510.166 366.113 513.376 365.683 516.587 365.254 C 516.84 365.225 517.093 365.178 517.337 365.12 C 524.786 363.403 532.227 361.676 539.677 359.977 C 540.732 359.738 541.805 359.557 542.878 359.5 C 545.068 359.376 546.812 358.154 549.045 356.857 C 548.217 356.561 547.789 356.313 547.344 356.275 C 544.684 356.055 542.032 355.807 539.371 355.712 C 533.667 355.502 527.953 355.406 522.239 355.215 C 516.918 355.034 511.597 354.796 506.276 354.567 C 504.461 354.49 502.935 353.985 502.263 351.79 C 501.653 349.824 502.08 348.383 503.929 347.725 C 506.572 346.78 509.25 345.969 512.068 345.75 C 515.793 345.463 519.526 345.053 523.216 344.461 C 529.68 343.421 536.118 342.219 542.564 341.017 C 544.309 340.692 546.01 340.072 547.763 339.738 C 553.581 338.641 559.374 337.4 565.035 335.549 C 569.414 334.118 573.749 332.562 578.102 331.055 C 578.521 330.912 578.905 330.683 579.542 330.387 C 579.071 330.091 578.8 329.824 578.495 329.728 C 573.941 328.373 569.335 327.705 564.573 327.801 C 560.586 327.887 556.6 327.314 552.604 327.142 C 546.769 326.894 540.933 326.551 535.106 326.589 C 527.935 326.646 520.765 327.028 513.603 327.324 C 510.498 327.448 507.401 327.667 504.296 327.868 C 503.083 327.944 502.063 327.572 501.173 326.665 C 500.065 325.539 499.803 324.079 500.798 322.81 C 501.557 321.837 502.499 320.845 503.554 320.358 C 505.29 319.566 507.166 319.118 509.015 318.65 C 510.925 318.163 512.87 317.848 514.79 317.41 C 516.403 317.037 518.008 316.637 519.613 316.188 C 526.339 314.299 532.742 311.484 539.04 308.306 C 540.881 307.381 542.826 306.703 544.701 305.844 C 546.804 304.881 548.871 303.802 550.973 302.829 C 555.413 300.778 559.853 298.726 564.32 296.732 C 566.378 295.816 568.454 294.938 570.199 293.373 C 571.717 292.018 571.769 290.816 570.042 289.842 C 568.673 289.069 567.059 288.764 565.515 288.42 C 562.558 287.762 559.592 287.915 556.617 288.43 C 554.681 288.774 552.709 288.936 550.773 289.27 C 546.141 290.071 541.509 290.901 536.885 291.779 C 532.384 292.629 527.892 293.526 523.408 294.451 C 519.491 295.262 515.575 296.131 511.667 296.989 C 509.739 297.409 507.829 297.924 505.892 298.297 C 502.394 298.955 498.887 299.613 495.363 300.11 C 493.61 300.358 491.987 299.871 490.775 298.201 C 490.382 297.657 489.702 297.323 489.1 296.999 C 488.201 296.522 488.036 296.035 488.725 295.3 C 490.653 293.249 492.703 291.665 495.572 291.226 C 498.041 290.844 500.501 289.814 502.76 288.621 C 507.445 286.14 512.024 283.439 516.569 280.672 C 518.218 279.67 519.648 278.229 521.14 276.941 C 523.993 274.489 526.932 272.227 530.23 270.51 C 534.242 268.411 538.15 266.092 542.172 264.021 C 544.632 262.752 547.257 261.846 549.743 260.624 C 551.357 259.832 552.866 258.783 554.393 257.8 C 554.777 257.552 555.03 257.074 555.631 256.359 C 553.39 256.044 551.61 256.111 549.822 256.578 C 548.348 256.96 546.856 257.284 545.382 257.695 C 544.16 258.029 542.957 258.477 541.735 258.821 C 540.078 259.279 538.386 259.594 536.746 260.109 C 533.71 261.073 530.701 262.151 527.674 263.172 C 525.493 263.907 523.312 264.641 521.123 265.357 C 520.643 265.519 520.137 265.691 519.64 265.691 C 517.372 265.691 515.278 266.502 513.176 267.275 C 509.032 268.792 504.88 270.3 500.719 271.769 C 499.699 272.132 498.626 272.332 497.588 272.609 C 496.977 272.771 496.323 272.867 495.764 273.153 C 490.443 275.911 484.747 277.294 479.086 278.859 C 476.172 279.67 473.25 280.109 470.284 280.462 C 467.248 280.834 464.387 279.928 461.727 279.451 C 461.116 277.724 460.654 276.245 460.061 274.832 C 459.467 273.42 459.52 272.151 460.436 270.949 C 461.447 269.622 462.355 268.172 463.497 266.989 C 465.382 265.042 467.414 263.248 469.403 261.416 C 472.604 258.468 475.823 255.548 479.025 252.609 C 481.886 249.985 484.756 247.361 487.6 244.698 C 488.419 243.935 489.126 243.028 489.902 242.217 C 490.862 241.206 491.804 240.185 492.816 239.24 C 494.308 237.838 495.258 236.129 495.389 234.288 C 493.592 233.439 491.682 233.572 489.824 233.82 C 484.913 234.469 480.028 235.28 475.239 236.778 C 472.753 237.561 470.136 237.828 467.58 238.343 C 463.436 239.173 459.52 240.805 455.559 242.294 C 450.16 244.326 444.743 246.292 439.334 248.296 C 437.171 249.097 434.999 249.88 432.87 250.777 C 430.803 251.645 428.788 252.695 426.721 253.573 C 425.185 254.221 423.615 254.765 422.045 255.3 C 418.783 256.426 415.538 257.618 412.24 258.601 C 409.99 259.269 407.626 259.517 405.366 260.176 C 402.854 260.901 400.412 261.884 397.934 262.752 C 397.027 263.067 396.128 263.439 395.204 263.659 C 389.185 265.08 383.122 266.111 376.972 266.703 C 370.151 267.361 363.347 268.258 356.578 269.384 C 353.551 269.89 350.524 270.014 347.523 270.453 C 342.987 271.111 338.434 271.216 333.889 271.407 C 331.193 271.521 328.629 272.237 325.986 272.533 C 324.093 272.752 322.208 272.981 320.316 273.163 C 316.207 273.544 312.098 273.926 307.981 274.25 C 306.21 274.393 304.431 274.346 302.651 274.46 C 300.244 274.613 297.845 274.937 295.437 275.023 C 291.442 275.157 287.447 275.157 283.451 275.195 C 282.501 275.205 281.55 275.109 280.608 275.195 C 277.947 275.462 275.304 275.71 272.635 275.224 C 271.832 275.081 270.986 275.166 270.166 275.252 C 267.366 275.548 264.592 275.395 261.835 274.747 C 257.901 273.821 253.897 273.811 249.902 273.63 C 245.218 273.42 240.516 273.21 235.858 272.638 C 231.461 272.094 227.117 271.025 222.73 270.281 C 219.223 269.689 215.716 269.05 212.183 268.802 C 208.354 268.525 204.638 267.695 200.939 266.731 C 197.86 265.93 194.868 264.737 191.832 263.744 C 190.803 263.41 189.747 263.029 188.692 262.943 C 186.738 262.79 185.002 262.036 183.266 261.149 C 179.471 259.221 175.598 257.466 171.83 255.462 C 169.614 254.279 167.486 252.866 165.427 251.378 C 162.723 249.441 160.123 247.322 157.472 245.299 C 156.015 244.193 154.532 243.124 153.075 242.007 C 150.336 239.908 148.295 237.046 146.236 234.24 C 144.779 232.255 144.91 228.668 146.437 226.626 C 147.702 224.937 149.272 223.801 151.296 223.209 C 156.687 221.635 161.999 222.494 167.355 223.276 C 170.513 223.744 173.618 224.345 176.654 225.433 C 177.657 225.795 178.747 225.872 179.916 225.776 C 179.532 225.519 179.149 225.242 178.756 224.994 C 173.897 221.978 169.039 218.973 164.18 215.967 C 163.901 215.795 163.621 215.633 163.377 215.413 C 160.115 212.427 156.669 209.745 153.119 207.188 C 150.528 205.318 148.103 203.18 145.643 201.091 C 142.86 198.724 140.871 195.69 139.99 191.949 C 139.38 189.354 139.825 186.797 141.36 184.659 C 141.848 183.982 142.799 183.466 143.611 183.323 C 146.559 182.827 149.525 182.588 152.526 182.865 C 155.238 183.123 157.986 183.075 160.577 184.192 C 161.624 184.64 162.671 185.069 163.883 185.251 C 163.621 184.926 163.395 184.564 163.098 184.287 C 161.17 182.484 159.146 180.785 157.323 178.858 C 156.294 177.77 155.422 176.405 154.794 175.002 C 153.677 172.512 152.717 169.936 151.836 167.331 C 151.051 165.031 151.662 162.827 152.691 160.766 C 152.909 160.327 153.433 160.002 153.886 159.792 C 155.491 159.048 157.149 158.743 158.902 159.191 C 165.933 161.014 172.964 162.836 180.004 164.602 C 182.341 165.193 184.766 165.432 187.078 166.138 C 189.634 166.92 192.164 167.913 194.597 169.077 C 201.053 172.159 207.473 175.336 213.867 178.552 C 218.42 180.842 222.921 183.276 227.449 185.623 C 231.2 187.56 235.204 188.61 239.216 189.65 C 239.574 189.745 239.949 189.726 240.507 189.774 C 240.036 188.266 239.033 187.589 238.065 186.873 C 234.192 183.972 230.231 181.195 226.481 178.123 C 223.087 175.346 219.877 172.283 216.65 169.268 C 215.603 168.285 214.748 167.044 213.832 165.89 C 212.175 163.8 210.535 161.672 208.886 159.573 C 206.26 156.233 206.661 153.161 209.575 150.164 C 212.157 147.502 215.097 146.681 218.446 146.796 C 223.166 146.958 227.798 147.788 232.351 149.057 C 237.332 150.451 242.33 151.786 247.215 153.504 C 251.856 155.145 256.349 157.292 260.937 159.134 C 266.171 161.252 271.396 163.428 276.7 165.308 C 280.861 166.777 285.135 167.836 289.366 169.086 C 290.465 169.411 291.555 169.792 292.663 170.079 C 297.6 171.338 302.546 172.579 307.492 173.8 C 313.058 175.174 318.614 176.577 324.197 177.836 C 328.288 178.753 332.423 179.411 336.523 180.27 C 341.809 181.386 347.165 182.092 352.364 183.762 C 354.711 184.516 357.241 184.678 359.701 184.926 C 362.919 185.251 366.156 185.442 369.383 185.585 C 372.995 185.747 376.615 185.785 380.235 185.9 C 380.863 185.919 381.517 185.985 382.119 186.157 C 385.556 187.131 389.045 186.978 392.535 186.797 C 397.027 186.548 401.519 186.377 406.012 186.071 C 411.071 185.718 416.139 185.384 421.181 184.793 C 424.514 184.401 427.802 183.562 431.108 182.913 C 435.104 182.13 439.169 181.644 443.059 180.48 C 446.801 179.363 450.578 178.504 454.356 177.627 C 457.086 176.997 459.79 176.214 462.538 175.718 C 465.408 175.193 467.981 173.915 470.537 172.512 C 473.137 171.081 475.902 169.936 478.039 167.645 C 481.685 166.166 484.285 162.951 487.512 160.737 C 489.484 159.382 490.967 157.111 492.546 155.126 C 494.037 153.246 495.32 151.166 496.768 149.239 C 498.599 146.805 499.978 144.248 499.507 140.918 C 499.323 139.62 499.733 138.513 500.789 137.912 C 501.801 137.34 502.743 137.884 503.615 138.551 C 504.706 139.382 505.421 140.441 505.665 141.91 C 506.363 146.08 506.066 150.05 503.973 153.762 C 502.848 155.766 501.696 157.808 500.867 159.964 C 499.786 162.769 497.989 164.84 495.948 166.739 C 494.063 168.495 492.162 170.222 490.234 171.92 C 489.649 172.436 488.995 172.903 488.315 173.228 C 483.831 175.346 479.356 177.455 474.663 179.001 C 472.308 179.774 470.127 181.157 467.815 182.111 C 465.687 182.989 463.515 183.762 461.317 184.392 C 458.133 185.289 454.905 186.014 451.695 186.816 C 451.137 186.949 450.587 187.169 450.029 187.216 C 444.019 187.779 438.13 189.258 432.173 190.165 C 426.084 191.091 420.056 192.493 413.871 192.732 C 406.71 193.009 399.557 193.724 392.395 194.001 C 387.458 194.192 382.503 193.953 377.548 193.915 C 376.405 193.905 375.263 193.934 374.12 193.886 C 372.166 193.791 370.212 193.648 368.258 193.514 C 367.499 193.457 366.74 193.276 365.99 193.276 C 363.312 193.276 360.695 192.97 358.078 192.236 C 356.124 191.682 354.065 191.587 352.068 191.215 C 347.192 190.308 342.272 189.621 337.483 188.323 C 334.081 187.398 330.591 187.197 327.216 186.205 C 325.323 185.642 323.421 185.06 321.502 184.669 C 317.262 183.8 313.014 182.989 308.757 182.264 C 305.443 181.692 302.093 181.329 298.778 180.785 C 296.466 180.413 294.137 180.041 291.869 179.43 C 289.104 178.686 286.4 177.655 283.652 176.796 C 276.944 174.707 270.175 172.836 263.528 170.537 C 258.215 168.695 253.051 166.348 247.826 164.22 C 240.813 161.367 233.773 158.571 226.489 156.615 C 224.893 156.185 223.27 155.813 221.718 155.25 C 219.624 154.487 217.618 154.63 215.481 155.575 C 215.437 156.767 215.899 157.769 216.693 158.609 C 219.982 162.082 223.209 165.632 226.603 168.972 C 228.339 170.67 230.371 172.025 232.316 173.457 C 235.579 175.861 238.955 178.094 242.13 180.623 C 243.578 181.787 244.729 183.438 245.89 184.984 C 246.928 186.358 248.184 187.541 248.794 189.316 C 249.545 191.52 249.867 193.724 249.64 196.052 C 249.501 197.522 248.803 198.61 247.495 198.886 C 246.334 199.135 245.035 199.345 243.944 199.001 C 239.993 197.751 236.093 196.272 232.185 194.85 C 226.515 192.78 221.151 189.907 215.664 187.379 C 211.398 185.413 207.028 183.705 202.727 181.825 C 200.965 181.052 199.29 180.022 197.511 179.287 C 192.766 177.331 188.029 175.336 183.214 173.6 C 179.061 172.102 174.848 170.775 170.6 169.707 C 167.538 168.934 164.468 167.903 161.249 168.113 C 160.664 168.151 160.08 168.275 159.077 168.428 C 159.801 169.43 160.185 170.146 160.717 170.661 C 163.43 173.275 166.108 175.938 168.943 178.39 C 172.816 181.758 176.802 184.974 180.771 188.209 C 186.694 193.028 192.879 197.36 199.587 200.776 C 201.942 201.978 204.202 203.409 206.496 204.745 C 208.406 205.852 210.308 206.959 212.201 208.085 C 212.925 208.515 213.675 208.944 214.294 209.516 C 215.664 210.776 215.673 212.742 214.373 214.049 C 214.05 214.373 213.614 214.602 213.361 214.975 C 212.837 215.757 212.192 215.69 211.494 215.433 C 210.831 215.184 210.177 214.936 209.531 214.641 C 204.856 212.474 200.198 210.289 195.513 208.142 C 194.467 207.665 193.35 207.36 192.268 206.959 C 186.747 204.888 181.216 202.837 175.72 200.709 C 172.615 199.507 169.606 197.97 166.456 196.93 C 161.598 195.327 156.669 194.001 151.758 192.608 C 150.694 192.302 149.56 192.073 148.286 192.989 C 150.258 195.041 151.959 197.255 154.035 198.877 C 158.989 202.751 164.119 206.358 169.178 210.07 C 171.341 211.654 173.513 213.219 175.686 214.793 C 178.817 217.064 182.123 218.963 185.551 220.643 C 187.043 221.377 188.343 222.551 189.773 223.438 C 191.37 224.431 193.027 225.299 194.65 226.244 C 196.778 227.484 198.924 228.677 201 230.013 C 202.562 231.015 204.202 231.74 205.964 232.026 C 207.534 232.274 208.598 233.238 209.592 234.469 C 210.107 235.099 210.247 235.738 210.125 236.559 C 209.749 239.24 208.136 240.404 205.641 239.88 C 203.286 239.383 200.878 239.126 198.532 238.563 C 195.993 237.952 193.516 237.065 190.995 236.387 C 186.249 235.118 181.548 233.61 176.645 233.257 C 175.511 233.171 174.36 233.257 173.217 233.229 C 168.332 233.095 163.456 232.923 158.571 232.809 C 157.716 232.79 156.861 233.009 156.041 233.114 C 155.666 234.584 156.224 235.433 157.053 236.005 C 161.275 238.954 165.514 241.883 169.789 244.746 C 171.027 245.576 172.414 246.13 173.714 246.864 C 179.89 250.347 186.371 252.895 193.036 254.994 C 197.729 256.473 202.361 258.153 207.028 259.727 C 207.63 259.937 208.24 260.166 208.86 260.271 C 213.117 260.977 217.426 261.426 221.63 262.399 C 228.766 264.059 236.067 263.372 243.229 264.451 C 246.43 264.928 249.649 265.309 252.868 265.548 C 257.805 265.901 262.743 266.063 267.689 266.34 C 273.708 266.674 279.727 267.199 285.754 267.313 C 289.723 267.39 293.736 267.628 297.67 266.55 C 298.159 266.416 298.673 266.378 299.179 266.359 C 304.247 266.235 309.316 266.13 314.392 266.015 C 314.584 266.015 314.776 266.035 314.959 266.006 C 319.086 265.281 323.281 265.309 327.425 264.489 C 331.533 263.678 335.747 263.382 339.925 263.191 C 343.816 263.01 347.636 262.494 351.422 261.607 C 353.716 261.063 355.976 260.357 358.287 259.937 C 360.852 259.47 363.443 259.012 366.025 258.964 C 369.811 258.888 373.44 257.886 377.112 257.122 C 380.034 256.512 382.991 255.958 385.835 255.023 C 388.225 254.24 390.642 253.763 393.093 253.42 C 396.425 252.952 399.766 252.552 403.124 252.284 C 406.247 252.036 409.283 251.626 412.231 250.328 C 413.741 249.66 415.424 249.45 417.047 249.126 C 419.376 248.658 421.539 247.79 423.667 246.616 C 425.866 245.404 428.265 244.612 430.55 243.582 C 432.19 242.847 433.795 242.017 435.418 241.244 C 436.874 240.547 438.314 239.822 439.788 239.202 C 444.577 237.189 449.253 234.841 454.277 233.486 C 457.784 232.542 461.282 231.463 464.658 230.08 C 470.903 227.532 477.393 226.387 483.962 225.528 C 485.855 225.28 487.722 224.879 489.615 224.65 C 492.153 224.335 494.508 225.232 496.829 226.196 C 497.335 226.406 497.814 226.864 498.172 227.322 C 499.236 228.696 500.248 230.127 501.251 231.549 C 502.743 233.677 502.499 236.053 501.67 238.257 C 500.684 240.881 499.35 243.324 497.055 244.985 C 496.235 245.586 495.677 246.607 494.953 247.38 C 491.787 250.777 488.646 254.212 485.009 257.036 C 483.77 258 482.645 259.117 481.467 260.166 C 478.667 262.666 475.849 265.147 473.075 267.676 C 471.531 269.088 470.04 270.577 468.313 272.247 C 469.865 273.077 471.165 273.105 472.43 272.781 C 474.715 272.208 477.036 271.684 479.234 270.815 C 484.25 268.84 489.161 266.55 494.185 264.613 C 496.558 263.697 499.079 263.153 501.565 262.666 C 505.7 261.855 509.765 260.93 513.603 258.945 C 515.714 257.857 518.026 257.246 520.25 256.426 C 522.71 255.51 525.17 254.603 527.639 253.687 C 533.658 251.464 539.825 249.861 546.053 248.515 C 548.915 247.895 551.715 246.941 554.689 247.294 C 555.701 247.418 556.713 247.532 557.725 247.599 C 561.554 247.857 563.831 250.405 565.358 253.916 C 566.213 255.882 565.576 257.79 564.372 259.336 C 563.308 260.701 562.13 262.046 560.778 263.029 C 557.507 265.395 554.114 267.58 550.738 269.775 C 547.85 271.655 544.972 273.573 541.997 275.262 C 539.075 276.922 535.987 278.249 533.047 279.861 C 529.767 281.665 526.557 283.63 523.33 285.529 C 523.295 285.548 523.312 285.663 523.295 285.92 C 523.931 285.806 524.533 285.73 525.127 285.596 C 531.023 284.231 536.885 282.686 542.817 281.541 C 546.176 280.892 549.63 280.777 553.049 280.625 C 557.106 280.453 561.171 280.5 565.236 280.481 C 569.021 280.453 572.694 281.207 576.218 282.686 C 577.317 283.144 578.059 282.838 578.748 281.98 C 581.112 278.993 583.546 276.063 585.805 272.991 C 588.352 269.527 590.856 266.044 593.9 263.057 C 594.929 262.046 595.767 260.796 596.639 259.603 C 599.282 255.968 601.986 252.408 604.411 248.572 C 607.185 244.183 609.174 239.422 611.172 234.631 C 611.957 232.742 612.916 230.929 613.693 229.03 C 615.699 224.087 618.063 219.249 619.52 214.106 C 621.308 207.808 623.384 201.616 625.199 195.337 C 626.298 191.52 627.057 187.56 627.214 183.505 C 627.249 182.608 627.528 181.73 627.597 180.833 C 627.833 177.932 628.016 175.031 628.234 172.13 C 628.67 166.329 629.054 160.508 629.578 154.716 C 630.101 148.971 630.624 143.275 629.054 137.578 C 627.397 131.567 626.769 125.345 626.463 119.105 C 626.368 117.053 626.664 114.944 626.978 112.902 C 627.292 110.832 628.522 110.164 630.363 110.841 C 632.264 111.547 633.302 113.017 633.852 115.125 C 634.524 117.664 634.183 120.231 634.323 122.778 C 634.611 127.969 634.532 133.246 635.78 138.275 C 636.731 142.12 636.783 145.937 636.818 149.811 C 636.827 151.128 636.87 152.493 637.21 153.733 C 637.934 156.386 637.961 159.096 637.882 161.787 C 637.804 164.344 637.446 166.892 637.21 169.449 C 637.071 170.966 636.879 172.483 636.827 174.001 C 636.687 177.903 636.094 181.711 635.134 185.47 C 634.62 187.465 634.454 189.573 633.887 191.549 C 632.98 194.726 631.863 197.827 631.444 201.158 C 631.427 201.291 631.409 201.444 631.348 201.558 C 629.892 204.354 629.639 207.598 628.505 210.537 C 626.734 215.137 625.207 219.851 623.471 224.469 C 622.503 227.026 621.317 229.488 620.218 231.998 C 619.782 233 619.284 233.963 618.866 234.975 C 617.348 238.63 615.926 242.332 614.321 245.948 C 613.579 247.618 612.567 249.174 611.564 250.681 C 609.732 253.429 607.726 256.034 605.955 258.821 C 603.487 262.695 600.608 266.178 597.817 269.756 C 595.898 272.227 594.127 274.852 592.077 277.208 C 588.928 280.825 585.814 284.48 582.691 288.125 C 582.263 288.621 581.679 289.107 581.513 289.718 C 580.519 293.296 578.128 295.863 576.096 298.659 C 575.11 300.014 573.575 300.94 572.188 301.894 C 569.24 303.926 566.239 305.864 563.255 307.82 C 562.331 308.421 561.432 309.089 560.447 309.547 C 556.355 311.446 552.194 313.106 547.911 314.461 C 545.373 315.263 542.948 316.493 540.174 317.658 L 540.148 317.763 Z" style=""/>
  <path class="cls-1" d="M 225.02 134.819 L 214.556 134.819 C 210.203 134.819 208.11 132.525 208.11 127.753 L 208.11 43.034 L 179.6 43.034 C 175.414 43.034 173.322 40.739 173.322 36.151 L 173.322 23.62 C 173.322 18.849 175.414 16.555 179.768 16.555 L 259.641 16.555 C 263.993 16.555 266.087 18.849 266.087 23.62 L 266.087 36.151 C 266.087 40.739 263.993 43.034 259.808 43.034 L 231.467 43.034 L 231.467 127.763 C 231.467 132.525 229.372 134.828 225.02 134.828 L 225.02 134.819 Z" style="fill: rgb(15, 84, 141);"/>
  <path class="cls-1" d="M 273.957 22.733 C 273.957 14.617 280.235 7.725 287.649 7.725 C 295.062 7.725 301.341 14.607 301.341 22.733 C 301.341 30.859 295.062 37.915 287.649 37.915 C 280.235 37.915 273.957 31.033 273.957 22.733 Z M 292.476 134.819 L 282.812 134.819 C 278.459 134.819 276.367 132.525 276.367 127.753 L 276.367 57.155 C 276.367 52.394 278.459 50.09 282.812 50.09 L 292.476 50.09 C 296.83 50.09 298.923 52.384 298.923 57.155 L 298.923 127.763 C 298.923 132.525 296.83 134.828 292.476 134.828 L 292.476 134.819 Z" style="fill: rgb(15, 84, 141);"/>
  <path class="cls-1" d="M 384.933 104.107 C 388.636 102.344 390.57 103.22 391.863 106.758 L 396.691 119.82 C 397.984 123.174 397.658 124.938 395.724 126.355 C 385.26 133.238 372.535 136.948 361.102 136.948 C 329.059 136.948 307.962 112.937 307.962 75.691 C 307.962 38.445 329.049 14.435 361.419 14.435 C 372.692 14.435 385.417 18.145 395.724 25.027 C 397.658 26.444 397.976 28.208 396.691 31.563 L 391.863 44.625 C 390.57 48.152 388.644 49.039 384.933 47.275 C 379.621 44.625 369.316 40.922 361.419 40.922 C 341.616 40.922 331.31 55.931 331.31 75.701 C 331.31 95.471 341.616 110.48 361.419 110.48 C 369.307 110.48 379.613 106.768 384.933 104.127 L 384.933 104.107 Z" style="fill: rgb(15, 84, 141);"/>
  <path class="cls-1" d="M 392.337 75.691 C 392.337 37.742 414.076 12.67 447.412 12.67 C 480.75 12.67 501.846 37.732 502.162 75.691 C 501.837 113.998 480.099 138.713 447.087 138.713 C 414.076 138.713 392.329 113.998 392.329 75.691 L 392.337 75.691 Z M 478.823 75.691 C 478.498 54.861 467.708 39.149 447.263 39.149 C 426.817 39.149 415.702 54.861 415.702 75.691 C 415.702 96.522 426.493 112.233 447.431 112.233 C 468.367 112.233 478.507 96.879 478.832 75.691 L 478.823 75.691 Z" style="fill: rgb(15, 84, 141);"/>
</svg>