<?xml version="1.0" encoding="utf-8"?>
<svg id="Calque_1" data-name="Calque 1" xmlns="http://www.w3.org/2000/svg" viewBox="0 -4.551 681.71 395.656">
  <defs>
    <style>
      .cls-1 {
        fill: #ff8300;
        stroke-width: 0px;
      }
    </style>
  </defs>
  <path class="cls-1" d="M 570.239 314.298 C 573.639 314.298 576.649 313.948 579.549 314.368 C 587.889 315.558 596.249 314.998 604.609 315.108 C 607.129 315.138 609.639 315.868 612.169 316.048 C 616.889 316.388 620.769 318.368 624.249 321.498 C 628.009 324.888 627.319 330.748 622.719 332.928 C 618.979 334.698 615.249 336.488 611.189 337.528 C 605.909 338.888 600.729 340.588 595.449 341.928 C 590.249 343.258 584.979 344.318 579.739 345.498 C 579.249 345.608 578.759 345.748 577.759 346.008 C 581.259 346.708 583.939 348.288 587.099 348.568 C 589.879 348.818 591.839 350.708 593.089 353.168 C 593.919 354.798 593.519 356.398 592.549 357.918 C 590.869 360.568 588.489 362.278 585.509 363.088 C 580.749 364.378 576.109 366.078 571.139 366.618 C 567.469 367.018 563.839 367.888 560.199 368.558 C 559.919 368.608 559.639 368.708 559.369 368.808 C 555.949 370.108 552.369 370.718 548.799 371.408 C 545.529 372.048 542.239 372.718 539.079 373.738 C 535.519 374.878 531.869 375.418 528.199 375.958 C 526.899 376.148 525.609 376.388 524.309 376.508 C 523.239 376.608 522.149 376.568 521.069 376.588 C 520.059 376.608 519.039 376.578 518.039 376.688 C 514.929 377.028 511.809 377.308 508.729 377.828 C 506.169 378.258 503.659 378.998 501.119 379.608 C 500.629 379.728 500.149 379.908 499.659 379.948 C 494.009 380.438 488.349 380.668 482.689 380.928 C 477.689 381.168 472.719 382.068 467.739 382.688 C 467.019 382.778 466.299 382.948 465.579 382.968 C 460.709 383.118 455.829 383.188 450.959 383.368 C 448.129 383.478 445.299 383.688 442.469 383.928 C 436.669 384.428 430.889 385.018 425.089 385.518 C 417.989 386.118 410.879 386.768 403.769 387.188 C 399.709 387.428 395.609 387.098 391.549 387.298 C 381.449 387.798 371.349 388.468 361.249 389.028 C 357.549 389.228 353.829 389.288 350.129 389.448 C 347.149 389.578 344.179 389.858 341.199 389.908 C 336.699 389.978 332.189 390.008 327.689 389.878 C 320.929 389.688 314.179 389.408 307.429 389.068 C 297.109 388.548 286.789 389.308 276.469 389.068 C 274.289 389.018 272.099 389.038 269.919 389.068 C 266.209 389.138 262.509 389.398 258.809 389.298 C 252.279 389.128 245.749 389.228 239.239 388.188 C 234.739 387.478 230.119 387.458 225.549 387.268 C 222.499 387.148 219.439 387.298 216.379 387.268 C 215.219 387.268 214.059 387.038 212.899 387.018 C 211.239 386.988 209.569 387.128 207.909 387.078 C 205.519 387.008 203.119 386.948 200.739 386.678 C 194.099 385.928 187.459 385.068 180.829 384.248 C 180.399 384.198 179.959 384.158 179.529 384.078 C 173.099 382.848 166.679 381.608 160.259 380.358 C 159.559 380.218 158.879 379.938 158.199 379.718 C 156.689 379.238 155.199 378.418 153.659 378.328 C 150.279 378.118 147.079 377.178 143.829 376.438 C 142.289 376.088 140.859 375.268 139.349 374.778 C 135.619 373.558 131.859 372.448 128.139 371.188 C 125.249 370.208 122.409 369.078 119.549 368.028 C 114.989 366.358 110.399 364.758 105.859 363.008 C 102.809 361.838 99.919 360.208 96.809 359.248 C 91.839 357.708 87.289 355.278 82.579 353.208 C 80.989 352.508 79.519 351.528 78.029 350.638 C 75.109 348.888 72.059 347.298 69.329 345.288 C 65.959 342.798 62.839 339.968 59.639 337.238 C 56.719 334.758 53.699 332.368 50.989 329.668 C 47.919 326.598 44.929 323.458 42.209 320.018 C 37.939 314.628 34.399 308.828 31.159 302.808 C 29.399 299.538 27.419 296.388 25.759 293.078 C 23.159 287.878 20.859 282.538 18.979 277.018 C 18.229 274.818 17.319 272.668 16.479 270.498 C 14.969 266.558 13.289 262.678 12.019 258.668 C 10.949 255.278 10.379 251.738 9.579 248.268 C 9.159 246.428 8.669 244.598 8.299 242.748 C 7.769 240.108 7.289 237.468 6.849 234.808 C 6.329 231.578 5.839 228.348 5.409 225.108 C 4.829 220.788 4.339 216.448 3.779 212.128 C 3.219 207.798 2.629 203.478 2.049 199.158 C 1.969 198.578 1.749 198.008 1.759 197.438 C 1.799 190.318 0.579 183.218 1.639 176.078 C 1.869 174.538 1.449 172.898 1.319 171.308 C 1.099 168.628 0.789 165.958 0.669 163.278 C 0.569 161.178 0.549 159.038 0.779 156.958 C 1.019 154.878 1.539 152.828 2.089 150.798 C 2.429 149.518 3.429 148.748 4.709 148.398 C 6.729 147.838 8.039 148.688 7.999 150.778 C 7.959 152.798 7.469 154.808 7.419 156.828 C 7.329 160.238 7.079 163.698 7.559 167.048 C 8.169 171.338 8.259 175.588 8.119 179.888 C 8.049 182.208 8.159 184.538 8.249 186.858 C 8.309 188.378 8.419 189.908 8.609 191.418 C 9.079 195.238 9.629 199.048 10.109 202.868 C 10.779 208.138 11.389 213.408 12.069 218.678 C 12.559 222.498 13.119 226.318 13.639 230.128 C 14.869 239.228 16.939 248.148 19.439 256.968 C 19.989 258.908 20.969 260.718 21.699 262.618 C 23.859 268.248 26.049 273.868 28.109 279.538 C 29.979 284.688 32.429 289.548 35.139 294.278 C 37.959 299.198 40.819 304.098 43.859 308.888 C 45.739 311.848 48.429 314.138 51.139 316.368 C 52.199 317.228 53.259 318.208 53.969 319.348 C 55.899 322.428 58.419 324.858 61.349 326.958 C 62.809 328.008 64.029 329.408 65.349 330.658 C 67.409 332.608 69.479 334.508 71.979 335.948 C 73.989 337.098 75.709 338.738 77.689 339.938 C 79.479 341.028 81.439 341.818 83.319 342.758 C 83.829 343.018 84.329 343.308 84.829 343.598 C 87.909 345.378 90.959 347.228 94.089 348.938 C 96.699 350.368 99.389 351.638 102.049 352.968 C 102.309 353.098 102.579 353.228 102.849 353.308 C 109.669 355.178 115.879 358.638 122.589 360.788 C 127.159 362.248 131.669 363.878 136.239 365.338 C 137.749 365.818 139.359 366.018 140.919 366.358 C 141.559 366.498 142.279 366.538 142.789 366.878 C 145.999 368.968 149.739 369.358 153.329 370.218 C 156.369 370.948 159.419 371.618 162.459 372.308 C 163.519 372.548 164.589 372.748 165.649 373.008 C 168.189 373.638 170.719 374.298 173.249 374.938 C 173.809 375.078 174.389 375.368 174.939 375.338 C 181.239 375.028 187.509 377.268 193.829 375.618 C 197.819 375.778 201.819 375.858 205.799 376.138 C 208.169 376.308 210.519 376.948 212.889 377.098 C 220.079 377.568 227.179 378.768 234.319 379.698 C 238.279 380.218 242.289 380.398 246.279 380.728 C 251.649 381.168 257.029 381.378 262.409 381.058 C 265.969 380.848 269.519 380.518 273.079 380.438 C 275.469 380.388 277.859 380.728 280.259 380.808 C 283.599 380.928 286.939 381.068 290.279 381.048 C 294.279 381.018 298.279 380.818 302.269 380.688 C 302.919 380.668 303.599 380.708 304.229 380.578 C 308.619 379.698 313.059 379.798 317.499 379.848 C 323.679 379.918 329.869 379.718 336.049 379.908 C 342.369 380.108 348.679 380.718 354.989 381.008 C 357.809 381.138 360.649 381.008 363.469 380.818 C 367.529 380.558 371.589 380.148 375.639 379.788 C 380.559 379.348 385.489 378.938 390.399 378.428 C 393.219 378.128 396.009 377.568 398.829 377.278 C 402.589 376.888 406.359 376.658 410.129 376.318 C 411.579 376.188 413.009 375.868 414.449 375.758 C 415.819 375.658 417.199 375.748 418.579 375.698 C 422.359 375.568 426.129 375.398 429.909 375.248 C 436.299 374.998 442.629 373.938 449.059 374.008 C 452.829 374.048 456.609 373.628 460.369 373.218 C 462.449 372.998 464.469 372.238 466.549 371.968 C 469.209 371.618 471.909 371.538 474.579 371.298 C 479.789 370.838 484.999 370.278 490.209 369.888 C 495.359 369.508 500.519 369.338 505.669 368.978 C 508.859 368.758 512.029 368.108 515.209 368.068 C 521.019 367.998 526.499 366.058 532.189 365.398 C 535.869 364.968 539.549 364.518 543.229 364.068 C 543.519 364.038 543.809 363.988 544.089 363.928 C 552.629 362.128 561.159 360.318 569.699 358.538 C 570.909 358.288 572.139 358.098 573.369 358.038 C 575.879 357.908 577.879 356.628 580.439 355.268 C 579.489 354.958 578.999 354.698 578.489 354.658 C 575.439 354.428 572.399 354.168 569.349 354.068 C 562.809 353.848 556.259 353.748 549.709 353.548 C 543.609 353.358 537.509 353.108 531.409 352.868 C 529.329 352.788 527.579 352.258 526.809 349.958 C 526.109 347.898 526.599 346.388 528.719 345.698 C 531.749 344.708 534.819 343.858 538.049 343.628 C 542.319 343.328 546.599 342.898 550.829 342.278 C 558.239 341.188 565.619 339.928 573.009 338.668 C 575.009 338.328 576.959 337.678 578.969 337.328 C 585.639 336.178 592.279 334.878 598.769 332.938 C 603.789 331.438 608.759 329.808 613.749 328.228 C 614.229 328.078 614.669 327.838 615.399 327.528 C 614.859 327.218 614.549 326.938 614.199 326.838 C 608.979 325.418 603.699 324.718 598.239 324.818 C 593.669 324.908 589.099 324.308 584.519 324.128 C 577.829 323.868 571.139 323.508 564.459 323.548 C 556.239 323.608 548.019 324.008 539.809 324.318 C 536.249 324.448 532.699 324.678 529.139 324.888 C 527.749 324.968 526.579 324.578 525.559 323.628 C 524.289 322.448 523.989 320.918 525.129 319.588 C 525.999 318.568 527.079 317.528 528.289 317.018 C 530.279 316.188 532.429 315.718 534.549 315.228 C 536.739 314.718 538.969 314.388 541.169 313.928 C 543.019 313.538 544.859 313.118 546.699 312.648 C 554.409 310.668 561.749 307.718 568.969 304.388 C 571.079 303.418 573.309 302.708 575.459 301.808 C 577.869 300.798 580.239 299.668 582.649 298.648 C 587.739 296.498 592.829 294.348 597.949 292.258 C 600.309 291.298 602.689 290.378 604.689 288.738 C 606.429 287.318 606.489 286.058 604.509 285.038 C 602.939 284.228 601.089 283.908 599.319 283.548 C 595.929 282.858 592.529 283.018 589.119 283.558 C 586.899 283.918 584.639 284.088 582.419 284.438 C 577.109 285.278 571.799 286.148 566.499 287.068 C 561.339 287.958 556.189 288.898 551.049 289.868 C 546.559 290.718 542.069 291.628 537.589 292.528 C 535.379 292.968 533.189 293.508 530.969 293.898 C 526.959 294.588 522.939 295.278 518.899 295.798 C 516.889 296.058 515.029 295.548 513.639 293.798 C 513.189 293.228 512.409 292.878 511.719 292.538 C 510.689 292.038 510.499 291.528 511.289 290.758 C 513.499 288.608 515.849 286.948 519.139 286.488 C 521.969 286.088 524.789 285.008 527.379 283.758 C 532.749 281.158 537.999 278.328 543.209 275.428 C 545.099 274.378 546.739 272.868 548.449 271.518 C 551.719 268.948 555.089 266.578 558.869 264.778 C 563.469 262.578 567.949 260.148 572.559 257.978 C 575.379 256.648 578.389 255.698 581.239 254.418 C 583.089 253.588 584.819 252.488 586.569 251.458 C 587.009 251.198 587.299 250.698 587.989 249.948 C 585.419 249.618 583.379 249.688 581.329 250.178 C 579.639 250.578 577.929 250.918 576.239 251.348 C 574.839 251.698 573.459 252.168 572.059 252.528 C 570.159 253.008 568.219 253.338 566.339 253.878 C 562.859 254.888 559.409 256.018 555.939 257.088 C 553.439 257.858 550.939 258.628 548.429 259.378 C 547.879 259.548 547.299 259.728 546.729 259.728 C 544.129 259.728 541.729 260.578 539.319 261.388 C 534.569 262.978 529.809 264.558 525.039 266.098 C 523.869 266.478 522.639 266.688 521.449 266.978 C 520.749 267.148 519.999 267.248 519.359 267.548 C 513.259 270.438 506.729 271.888 500.239 273.528 C 496.899 274.378 493.549 274.838 490.149 275.208 C 486.669 275.598 483.389 274.648 480.339 274.148 C 479.639 272.338 479.109 270.788 478.429 269.308 C 477.749 267.828 477.809 266.498 478.859 265.238 C 480.019 263.848 481.059 262.328 482.369 261.088 C 484.529 259.048 486.859 257.168 489.139 255.248 C 492.809 252.158 496.499 249.098 500.169 246.018 C 503.449 243.268 506.739 240.518 509.999 237.728 C 510.939 236.928 511.749 235.978 512.639 235.128 C 513.739 234.068 514.819 232.998 515.979 232.008 C 517.689 230.538 518.779 228.748 518.929 226.818 C 516.869 225.928 514.679 226.068 512.549 226.328 C 506.919 227.008 501.319 227.858 495.829 229.428 C 492.979 230.248 489.979 230.528 487.049 231.068 C 482.299 231.938 477.809 233.648 473.269 235.208 C 467.079 237.338 460.869 239.398 454.669 241.498 C 452.189 242.338 449.699 243.158 447.259 244.098 C 444.889 245.008 442.579 246.108 440.209 247.028 C 438.449 247.708 436.649 248.278 434.849 248.838 C 431.109 250.018 427.389 251.268 423.609 252.298 C 421.029 252.998 418.319 253.258 415.729 253.948 C 412.849 254.708 410.049 255.738 407.209 256.648 C 406.169 256.978 405.139 257.368 404.079 257.598 C 397.179 259.088 390.229 260.168 383.179 260.788 C 375.359 261.478 367.559 262.418 359.799 263.598 C 356.329 264.128 352.859 264.258 349.419 264.718 C 344.219 265.408 338.999 265.518 333.789 265.718 C 330.699 265.838 327.759 266.588 324.729 266.898 C 322.559 267.128 320.399 267.368 318.229 267.558 C 313.519 267.958 308.809 268.358 304.089 268.698 C 302.059 268.848 300.019 268.798 297.979 268.918 C 295.219 269.078 292.469 269.418 289.709 269.508 C 285.129 269.648 280.549 269.648 275.969 269.688 C 274.879 269.698 273.789 269.598 272.709 269.688 C 269.659 269.968 266.629 270.228 263.569 269.718 C 262.649 269.568 261.679 269.658 260.739 269.748 C 257.529 270.058 254.349 269.898 251.189 269.218 C 246.679 268.248 242.089 268.238 237.509 268.048 C 232.139 267.828 226.749 267.608 221.409 267.008 C 216.369 266.438 211.389 265.318 206.359 264.538 C 202.339 263.918 198.319 263.248 194.269 262.988 C 189.879 262.698 185.619 261.828 181.379 260.818 C 177.849 259.978 174.419 258.728 170.939 257.688 C 169.759 257.338 168.549 256.938 167.339 256.848 C 165.099 256.688 163.109 255.898 161.119 254.968 C 156.769 252.948 152.329 251.108 148.009 249.008 C 145.469 247.768 143.029 246.288 140.669 244.728 C 137.569 242.698 134.589 240.478 131.549 238.358 C 129.879 237.198 128.179 236.078 126.509 234.908 C 123.369 232.708 121.029 229.708 118.669 226.768 C 116.999 224.688 117.149 220.928 118.899 218.788 C 120.349 217.018 122.149 215.828 124.469 215.208 C 130.649 213.558 136.739 214.458 142.879 215.278 C 146.499 215.768 150.059 216.398 153.539 217.538 C 154.689 217.918 155.939 217.998 157.279 217.898 C 156.839 217.628 156.399 217.338 155.949 217.078 C 150.379 213.918 144.809 210.768 139.239 207.618 C 138.919 207.438 138.599 207.268 138.319 207.038 C 134.579 203.908 130.629 201.098 126.559 198.418 C 123.589 196.458 120.809 194.218 117.989 192.028 C 114.799 189.548 112.519 186.368 111.509 182.448 C 110.809 179.728 111.319 177.048 113.079 174.808 C 113.639 174.098 114.729 173.558 115.659 173.408 C 119.039 172.888 122.439 172.638 125.879 172.928 C 128.989 173.198 132.139 173.148 135.109 174.318 C 136.309 174.788 137.509 175.238 138.899 175.428 C 138.599 175.088 138.339 174.708 137.999 174.418 C 135.789 172.528 133.469 170.748 131.379 168.728 C 130.199 167.588 129.199 166.158 128.479 164.688 C 127.199 162.078 126.099 159.378 125.089 156.648 C 124.189 154.238 124.889 151.928 126.069 149.768 C 126.319 149.308 126.919 148.968 127.439 148.748 C 129.279 147.968 131.179 147.648 133.189 148.118 C 141.249 150.028 149.309 151.938 157.379 153.788 C 160.059 154.408 162.839 154.658 165.489 155.398 C 168.419 156.218 171.319 157.258 174.109 158.478 C 181.509 161.708 188.869 165.038 196.199 168.408 C 201.419 170.808 206.579 173.358 211.769 175.818 C 216.069 177.848 220.659 178.948 225.259 180.038 C 225.669 180.138 226.099 180.118 226.739 180.168 C 226.199 178.588 225.049 177.878 223.939 177.128 C 219.499 174.088 214.959 171.178 210.659 167.958 C 206.769 165.048 203.089 161.838 199.389 158.678 C 198.189 157.648 197.209 156.348 196.159 155.138 C 194.259 152.948 192.379 150.718 190.489 148.518 C 187.479 145.018 187.939 141.798 191.279 138.658 C 194.239 135.868 197.609 135.008 201.449 135.128 C 206.859 135.298 212.169 136.168 217.389 137.498 C 223.099 138.958 228.829 140.358 234.429 142.158 C 239.749 143.878 244.899 146.128 250.159 148.058 C 256.159 150.278 262.149 152.558 268.229 154.528 C 272.999 156.068 277.899 157.178 282.749 158.488 C 284.009 158.828 285.259 159.228 286.529 159.528 C 292.189 160.848 297.859 162.148 303.529 163.428 C 309.909 164.868 316.279 166.338 322.679 167.658 C 327.369 168.618 332.109 169.308 336.809 170.208 C 342.869 171.378 349.009 172.118 354.969 173.868 C 357.659 174.658 360.559 174.828 363.379 175.088 C 367.069 175.428 370.779 175.628 374.479 175.778 C 378.619 175.948 382.769 175.988 386.919 176.108 C 387.639 176.128 388.389 176.198 389.079 176.378 C 393.019 177.398 397.019 177.238 401.019 177.048 C 406.169 176.788 411.319 176.608 416.469 176.288 C 422.269 175.918 428.079 175.568 433.859 174.948 C 437.679 174.538 441.449 173.658 445.239 172.978 C 449.819 172.158 454.479 171.648 458.939 170.428 C 463.229 169.258 467.559 168.358 471.889 167.438 C 475.019 166.778 478.119 165.958 481.269 165.438 C 484.559 164.888 487.509 163.548 490.439 162.078 C 493.419 160.578 496.589 159.378 499.039 156.978 C 503.219 155.428 506.199 152.058 509.899 149.738 C 512.159 148.318 513.859 145.938 515.669 143.858 C 517.379 141.888 518.849 139.708 520.509 137.688 C 522.609 135.138 524.189 132.458 523.649 128.968 C 523.439 127.608 523.909 126.448 525.119 125.818 C 526.279 125.218 527.359 125.788 528.359 126.488 C 529.609 127.358 530.429 128.468 530.709 130.008 C 531.509 134.378 531.169 138.538 528.769 142.428 C 527.479 144.528 526.159 146.668 525.209 148.928 C 523.969 151.868 521.909 154.038 519.569 156.028 C 517.409 157.868 515.229 159.678 513.019 161.458 C 512.349 161.998 511.599 162.488 510.819 162.828 C 505.679 165.048 500.549 167.258 495.169 168.878 C 492.469 169.688 489.969 171.138 487.319 172.138 C 484.879 173.058 482.389 173.868 479.869 174.528 C 476.219 175.468 472.519 176.228 468.839 177.068 C 468.199 177.208 467.569 177.438 466.929 177.488 C 460.039 178.078 453.289 179.628 446.459 180.578 C 439.479 181.548 432.569 183.018 425.479 183.268 C 417.269 183.558 409.069 184.308 400.859 184.598 C 395.199 184.798 389.519 184.548 383.839 184.508 C 382.529 184.498 381.219 184.528 379.909 184.478 C 377.669 184.378 375.429 184.228 373.189 184.088 C 372.319 184.028 371.449 183.838 370.589 183.838 C 367.519 183.838 364.519 183.518 361.519 182.748 C 359.279 182.168 356.919 182.068 354.629 181.678 C 349.039 180.728 343.399 180.008 337.909 178.648 C 334.009 177.678 330.009 177.468 326.139 176.428 C 323.969 175.838 321.789 175.228 319.589 174.818 C 314.729 173.908 309.859 173.058 304.979 172.298 C 301.179 171.698 297.339 171.318 293.539 170.748 C 290.889 170.358 288.219 169.968 285.619 169.328 C 282.449 168.548 279.349 167.468 276.199 166.568 C 268.509 164.378 260.749 162.418 253.129 160.008 C 247.039 158.078 241.119 155.618 235.129 153.388 C 227.089 150.398 219.019 147.468 210.669 145.418 C 208.839 144.968 206.979 144.578 205.199 143.988 C 202.799 143.188 200.499 143.338 198.049 144.328 C 197.999 145.578 198.529 146.628 199.439 147.508 C 203.209 151.148 206.909 154.868 210.799 158.368 C 212.789 160.148 215.119 161.568 217.349 163.068 C 221.089 165.588 224.959 167.928 228.599 170.578 C 230.259 171.798 231.579 173.528 232.909 175.148 C 234.099 176.588 235.539 177.828 236.239 179.688 C 237.099 181.998 237.469 184.308 237.209 186.748 C 237.049 188.288 236.249 189.428 234.749 189.718 C 233.419 189.978 231.929 190.198 230.679 189.838 C 226.149 188.528 221.679 186.978 217.199 185.488 C 210.699 183.318 204.549 180.308 198.259 177.658 C 193.369 175.598 188.359 173.808 183.429 171.838 C 181.409 171.028 179.489 169.948 177.449 169.178 C 172.009 167.128 166.579 165.038 161.059 163.218 C 156.299 161.648 151.469 160.258 146.599 159.138 C 143.089 158.328 139.569 157.248 135.879 157.468 C 135.209 157.508 134.539 157.638 133.389 157.798 C 134.219 158.848 134.659 159.598 135.269 160.138 C 138.379 162.878 141.449 165.668 144.699 168.238 C 149.139 171.768 153.709 175.138 158.259 178.528 C 165.049 183.578 172.139 188.118 179.829 191.698 C 182.529 192.958 185.119 194.458 187.749 195.858 C 189.939 197.018 192.119 198.178 194.289 199.358 C 195.119 199.808 195.979 200.258 196.689 200.858 C 198.259 202.178 198.269 204.238 196.779 205.608 C 196.409 205.948 195.909 206.188 195.619 206.578 C 195.019 207.398 194.279 207.328 193.479 207.058 C 192.719 206.798 191.969 206.538 191.229 206.228 C 185.869 203.958 180.529 201.668 175.159 199.418 C 173.959 198.918 172.679 198.598 171.439 198.178 C 165.109 196.008 158.769 193.858 152.469 191.628 C 148.909 190.368 145.459 188.758 141.849 187.668 C 136.279 185.988 130.629 184.598 124.999 183.138 C 123.779 182.818 122.479 182.578 121.019 183.538 C 123.279 185.688 125.229 188.008 127.609 189.708 C 133.289 193.768 139.169 197.548 144.969 201.438 C 147.449 203.098 149.939 204.738 152.429 206.388 C 156.019 208.768 159.809 210.758 163.739 212.518 C 165.449 213.288 166.939 214.518 168.579 215.448 C 170.409 216.488 172.309 217.398 174.169 218.388 C 176.609 219.688 179.069 220.938 181.449 222.338 C 183.239 223.388 185.119 224.148 187.139 224.448 C 188.939 224.708 190.159 225.718 191.299 227.008 C 191.889 227.668 192.049 228.338 191.909 229.198 C 191.479 232.008 189.629 233.228 186.769 232.678 C 184.069 232.158 181.309 231.888 178.619 231.298 C 175.709 230.658 172.869 229.728 169.979 229.018 C 164.539 227.688 159.149 226.108 153.529 225.738 C 152.229 225.648 150.909 225.738 149.599 225.708 C 143.999 225.568 138.409 225.388 132.809 225.268 C 131.829 225.248 130.849 225.478 129.909 225.588 C 129.479 227.128 130.119 228.018 131.069 228.618 C 135.909 231.708 140.769 234.778 145.669 237.778 C 147.089 238.648 148.679 239.228 150.169 239.998 C 157.249 243.648 164.679 246.318 172.319 248.518 C 177.699 250.068 183.009 251.828 188.359 253.478 C 189.049 253.698 189.749 253.938 190.459 254.048 C 195.339 254.788 200.279 255.258 205.099 256.278 C 213.279 258.018 221.649 257.298 229.859 258.428 C 233.529 258.928 237.219 259.328 240.909 259.578 C 246.569 259.948 252.229 260.118 257.899 260.408 C 264.799 260.758 271.699 261.308 278.609 261.428 C 283.159 261.508 287.759 261.758 292.269 260.628 C 292.829 260.488 293.419 260.448 293.999 260.428 C 299.809 260.298 305.619 260.188 311.439 260.068 C 311.659 260.068 311.879 260.088 312.089 260.058 C 316.819 259.298 321.629 259.328 326.379 258.468 C 331.089 257.618 335.919 257.308 340.709 257.108 C 345.169 256.918 349.549 256.378 353.889 255.448 C 356.519 254.878 359.109 254.138 361.759 253.698 C 364.699 253.208 367.669 252.728 370.629 252.678 C 374.969 252.598 379.129 251.548 383.339 250.748 C 386.689 250.108 390.079 249.528 393.339 248.548 C 396.079 247.728 398.849 247.228 401.659 246.868 C 405.479 246.378 409.309 245.958 413.159 245.678 C 416.739 245.418 420.219 244.988 423.599 243.628 C 425.329 242.928 427.259 242.708 429.119 242.368 C 431.789 241.878 434.269 240.968 436.709 239.738 C 439.229 238.468 441.979 237.638 444.599 236.558 C 446.479 235.788 448.319 234.918 450.179 234.108 C 451.849 233.378 453.499 232.618 455.189 231.968 C 460.679 229.858 466.039 227.398 471.799 225.978 C 475.819 224.988 479.829 223.858 483.699 222.408 C 490.859 219.738 498.299 218.538 505.829 217.638 C 507.999 217.378 510.139 216.958 512.309 216.718 C 515.219 216.388 517.919 217.328 520.579 218.338 C 521.159 218.558 521.709 219.038 522.119 219.518 C 523.339 220.958 524.499 222.458 525.649 223.948 C 527.359 226.178 527.079 228.668 526.129 230.978 C 524.999 233.728 523.469 236.288 520.839 238.028 C 519.899 238.658 519.259 239.728 518.429 240.538 C 514.799 244.098 511.199 247.698 507.029 250.658 C 505.609 251.668 504.319 252.838 502.969 253.938 C 499.759 256.558 496.529 259.158 493.349 261.808 C 491.579 263.288 489.869 264.848 487.889 266.598 C 489.669 267.468 491.159 267.498 492.609 267.158 C 495.229 266.558 497.889 266.008 500.409 265.098 C 506.159 263.028 511.789 260.628 517.549 258.598 C 520.269 257.638 523.159 257.068 526.009 256.558 C 530.749 255.708 535.409 254.738 539.809 252.658 C 542.229 251.518 544.879 250.878 547.429 250.018 C 550.249 249.058 553.069 248.108 555.899 247.148 C 562.799 244.818 569.869 243.138 577.009 241.728 C 580.289 241.078 583.499 240.078 586.909 240.448 C 588.069 240.578 589.229 240.698 590.389 240.768 C 594.779 241.038 597.389 243.708 599.139 247.388 C 600.119 249.448 599.389 251.448 598.009 253.068 C 596.789 254.498 595.439 255.908 593.889 256.938 C 590.139 259.418 586.249 261.708 582.379 264.008 C 579.069 265.978 575.769 267.988 572.359 269.758 C 569.009 271.498 565.469 272.888 562.099 274.578 C 558.339 276.468 554.659 278.528 550.959 280.518 C 550.919 280.538 550.939 280.658 550.919 280.928 C 551.649 280.808 552.339 280.728 553.019 280.588 C 559.779 279.158 566.499 277.538 573.299 276.338 C 577.149 275.658 581.109 275.538 585.029 275.378 C 589.679 275.198 594.339 275.248 598.999 275.228 C 603.339 275.198 607.549 275.988 611.589 277.538 C 612.849 278.018 613.699 277.698 614.489 276.798 C 617.199 273.668 619.989 270.598 622.579 267.378 C 625.499 263.748 628.369 260.098 631.859 256.968 C 633.039 255.908 633.999 254.598 634.999 253.348 C 638.029 249.538 641.129 245.808 643.909 241.788 C 647.089 237.188 649.369 232.198 651.659 227.178 C 652.559 225.198 653.659 223.298 654.549 221.308 C 656.849 216.128 659.559 211.058 661.229 205.668 C 663.279 199.068 665.659 192.578 667.739 185.998 C 668.999 181.998 669.869 177.848 670.049 173.598 C 670.089 172.658 670.409 171.738 670.489 170.798 C 670.759 167.758 670.969 164.718 671.219 161.678 C 671.719 155.598 672.159 149.498 672.759 143.428 C 673.359 137.408 673.959 131.438 672.159 125.468 C 670.259 119.168 669.539 112.648 669.189 106.108 C 669.079 103.958 669.419 101.748 669.779 99.608 C 670.139 97.438 671.549 96.738 673.659 97.448 C 675.839 98.188 677.029 99.728 677.659 101.938 C 678.429 104.598 678.039 107.288 678.199 109.958 C 678.529 115.398 678.439 120.928 679.869 126.198 C 680.959 130.228 681.019 134.228 681.059 138.288 C 681.069 139.668 681.119 141.098 681.509 142.398 C 682.339 145.178 682.369 148.018 682.279 150.838 C 682.189 153.518 681.779 156.188 681.509 158.868 C 681.349 160.458 681.129 162.048 681.069 163.638 C 680.909 167.728 680.229 171.718 679.129 175.658 C 678.539 177.748 678.349 179.958 677.699 182.028 C 676.659 185.358 675.379 188.608 674.899 192.098 C 674.879 192.238 674.859 192.398 674.789 192.518 C 673.119 195.448 672.829 198.848 671.529 201.928 C 669.499 206.748 667.749 211.688 665.759 216.528 C 664.649 219.208 663.289 221.788 662.029 224.418 C 661.529 225.468 660.959 226.478 660.479 227.538 C 658.739 231.368 657.109 235.248 655.269 239.038 C 654.419 240.788 653.259 242.418 652.109 243.998 C 650.009 246.878 647.709 249.608 645.679 252.528 C 642.849 256.588 639.549 260.238 636.349 263.988 C 634.149 266.578 632.119 269.328 629.769 271.798 C 626.159 275.588 622.589 279.418 619.009 283.238 C 618.519 283.758 617.849 284.268 617.659 284.908 C 616.519 288.658 613.779 291.348 611.449 294.278 C 610.319 295.698 608.559 296.668 606.969 297.668 C 603.589 299.798 600.149 301.828 596.729 303.878 C 595.669 304.508 594.639 305.208 593.509 305.688 C 588.819 307.678 584.049 309.418 579.139 310.838 C 576.229 311.678 573.449 312.968 570.269 314.188 L 570.239 314.298 Z"/>
  <path class="cls-1" d="M 226.652 128.146 L 214.752 128.146 C 209.802 128.146 207.422 125.766 207.422 120.816 L 207.422 32.926 L 175.002 32.926 C 170.242 32.926 167.862 30.546 167.862 25.786 L 167.862 12.786 C 167.862 7.836 170.242 5.456 175.192 5.456 L 266.022 5.456 C 270.972 5.456 273.352 7.836 273.352 12.786 L 273.352 25.786 C 273.352 30.546 270.972 32.926 266.212 32.926 L 233.982 32.926 L 233.982 120.826 C 233.982 125.766 231.602 128.156 226.652 128.156 L 226.652 128.146 Z" style="fill: rgb(15, 84, 141);"/>
  <path class="cls-1" d="M 282.302 11.866 C 282.302 3.446 289.442 -3.704 297.872 -3.704 C 306.302 -3.704 313.442 3.436 313.442 11.866 C 313.442 20.296 306.302 27.616 297.872 27.616 C 289.442 27.616 282.302 20.476 282.302 11.866 Z M 303.362 128.146 L 292.372 128.146 C 287.422 128.146 285.042 125.766 285.042 120.816 L 285.042 47.576 C 285.042 42.636 287.422 40.246 292.372 40.246 L 303.362 40.246 C 308.312 40.246 310.692 42.626 310.692 47.576 L 310.692 120.826 C 310.692 125.766 308.312 128.156 303.362 128.156 L 303.362 128.146 Z" style="fill: rgb(15, 84, 141);"/>
  <path class="cls-1" d="M 408.502 96.286 C 412.712 94.456 414.912 95.366 416.382 99.036 L 421.872 112.586 C 423.342 116.066 422.972 117.896 420.772 119.366 C 408.872 126.506 394.402 130.356 381.402 130.356 C 344.962 130.356 320.972 105.446 320.972 66.806 C 320.972 28.166 344.952 3.256 381.762 3.256 C 394.582 3.256 409.052 7.106 420.772 14.246 C 422.972 15.716 423.332 17.546 421.872 21.026 L 416.382 34.576 C 414.912 38.236 412.722 39.156 408.502 37.326 C 402.462 34.576 390.742 30.736 381.762 30.736 C 359.242 30.736 347.522 46.306 347.522 66.816 C 347.522 87.326 359.242 102.896 381.762 102.896 C 390.732 102.896 402.452 99.046 408.502 96.306 L 408.502 96.286 Z" style="fill: rgb(15, 84, 141);"/>
  <path class="cls-1" d="M 416.922 66.806 C 416.922 27.436 441.642 1.426 479.552 1.426 C 517.462 1.426 541.452 27.426 541.812 66.806 C 541.442 106.546 516.722 132.186 479.182 132.186 C 441.642 132.186 416.912 106.546 416.912 66.806 L 416.922 66.806 Z M 515.272 66.806 C 514.902 45.196 502.632 28.896 479.382 28.896 C 456.132 28.896 443.492 45.196 443.492 66.806 C 443.492 88.416 455.762 104.716 479.572 104.716 C 503.382 104.716 514.912 88.786 515.282 66.806 L 515.272 66.806 Z" style="fill: rgb(15, 84, 141);"/>
</svg>