<?xml version="1.0" encoding="UTF-8"?>
<svg id="Calque_1" data-name="Calque 1" xmlns="http://www.w3.org/2000/svg" viewBox="0 0 604.72 421.66">
  <defs>
    <style>
      .cls-1 {
        fill: #ff8300;
        stroke-width: 0px;
      }
    </style>
  </defs>
  <path class="cls-1" d="M72.53,139.53c.67-1.69,1.17-3.42,1.43-5.25.61-4.21,1.27-8.41,1.97-12.61.34-2.04.82-4.06,1.22-6.1.11-.55.15-1.11.21-1.67.23-2.11.35-4.24.69-6.33.58-3.48,1.33-6.92,1.96-10.39.43-2.37.78-4.75,1.19-7.12.68-3.98,1.49-7.91,2.72-11.77.8-2.5,1.14-5.14,1.79-7.69.9-3.58,1.64-7.23,2.91-10.68,2.08-5.66,4.03-11.39,6.84-16.77,1.47-2.82,2.55-5.84,3.9-8.73,1.12-2.38,2.34-4.71,3.61-7.02.88-1.61,1.87-3.18,2.89-4.7,1.6-2.38,4.02-3.43,6.72-4.07,2.02-.48,3.75.25,5.5,1,2.27.98,4.43,2.1,6.22,3.89.89.89,1.69,1.77,2.14,2.96.64,1.67,1.44,3.28,1.98,4.98.97,3.05,1.47,6.15,1.45,9.41-.03,4.19.46,8.38.54,12.57.06,2.9-.19,5.81-.31,8.72-.13,3.29-.47,6.57-.87,9.84-.39,3.22-.51,6.47-.87,9.7-.17,1.55-.65,3.06-.97,4.6-.11.54-.2,1.08-.33,1.79.92-.32.97-1.07,1.15-1.62,1.15-3.57,2.05-7.23,3.39-10.72,2-5.21,3.11-10.78,5.97-15.64,1.86-3.16,2.91-6.66,4.49-9.93.87-1.81,1.84-3.59,2.86-5.32,2.35-4.01,4.8-7.95,7.12-11.97,1.64-2.84,3.88-5.19,5.95-7.69,2.24-2.72,4.31-5.57,6.47-8.35.71-.92,1.51-1.77,2.27-2.65.26-.3.51-.59.76-.89,2.21-2.61,4.54-4.99,7.71-6.6,2.2-1.12,4.05-2.98,5.98-4.59.85-.72,1.72-1.15,2.83-1.29,2.66-.34,5.28-.96,8-.79,2.94.18,5.56,1.27,7.61,3.2,1.97,1.85,2.76,4.41,2.36,7.22-.55,3.88-1.03,7.76-1.58,11.64-.32,2.27-.79,4.5-1.66,6.66-.6,1.49-.91,3.11-1.34,4.67-.76,2.75-1.5,5.51-2.26,8.26-.34,1.24-.75,2.47-1.02,3.73-.67,3.08-1.85,5.95-3.2,8.8-1.62,3.42-3.26,6.88-4.28,10.55-1.04,3.74-2.67,7.23-4.36,10.71-.75,1.55-1.46,3.2-1.71,4.88-.42,2.78-1.72,5.19-2.67,7.75-.78,2.09-1.76,4.11-2.61,6.17-.95,2.33-1.76,4.72-2.79,7.01-.8,1.78-1.87,3.43-2.8,5.16-.24.44-.4.93-.59,1.4.09.07.18.14.28.21.28-.12.6-.18.83-.37,2.44-1.96,4.81-3.99,6.89-6.35,1.18-1.34,2.52-2.55,3.76-3.84,1.28-1.33,2.63-2.61,3.77-4.04,2.36-2.96,5.19-5.38,8.17-7.67,2.7-2.08,5.32-4.27,8.01-6.38,1.76-1.38,3.63-2.63,5.37-4.04,3.09-2.53,6.49-4.59,9.9-6.63.31-.19.74-.38,1.06-.31,1.04.25,1.87-.21,2.7-.66,2.07-1.12,4.08-2.37,6.2-3.38,1.86-.88,3.82-1.56,5.78-2.23,1.95-.67,3.99-1.11,5.92-1.83,3.24-1.21,6.6-1.74,10.02-1.85,2.85-.09,5.73-.27,8.55.03,2.99.31,5.96.99,8.87,1.78,5.26,1.42,9.8,4.31,14.23,7.38,2.9,2.01,5.83,3.94,9.17,5.18,1.78.66,3.53,1.46,5.17,2.4.94.54,1.7,1.44,2.44,2.27,1.34,1.51,2.6,3.08,3.89,4.63.32.39.7.74.96,1.16,2.52,3.97,5.29,7.81,7.12,12.17.62,1.47.91,3.1,1.16,4.69.48,2.98.86,5.99,1.21,8.99.49,4.15-.71,8-3.05,11.26-2.54,3.54-6.28,5.56-10.71,5.87-2.22.16-4.47.03-6.7-.08-2.11-.1-4.02-.84-5.82-1.97-1.8-1.13-3.69-2.11-5.54-3.15-.24-.14-.49-.29-.76-.35-4.27-.96-7.89-3.38-11.81-5.12-2.96-1.31-5.9-2.67-8.81-4.09-.54-.26-1.18-.4-1.79-.42-3.13-.12-6.26-.33-9.39-.22-1.64.06-3.3.58-4.87,1.13-1.95.68-3.81,1.61-5.7,2.44-1.23.54-2.45,1.11-3.7,1.6-2.05.81-3.83,2.05-5.67,3.24-1.96,1.28-3.13,3.3-4.97,4.66-1.52,1.13-2.89,2.46-4.36,3.67-1.3,1.07-2.04,2.51-2.75,3.97-.99,2.01-1.99,4.01-2.94,6.03-.31.65-.5,1.36-.69,2.06-.7,2.65-1.44,5.29-2.06,7.96-.78,3.38-1.5,6.77-2.18,10.17-.44,2.2-.73,4.42-1.16,6.62-.63,3.29-.38,6.58-.02,9.87.08.74.44,1.51.86,2.15.52.81.79,1.59.57,2.53-.37,1.56.04,2.94.77,4.35,1.05,2.03,1.86,4.19,2.86,6.26,1.24,2.57,2.5,5.14,3.87,7.64.44.8,1.22,1.42,1.91,2.05,1.61,1.47,3.22,2.94,4.9,4.34,2.28,1.9,4.59,3.75,6.93,5.57,1.63,1.27,3.26,2.56,5.01,3.64,2.56,1.59,5.23,3.01,7.86,4.49,1.31.74,2.64,1.45,3.96,2.18,4.67,2.56,9.24,5.27,13.48,8.51,1.4,1.07,2.93,1.78,4.66,2.22,1.61.41,3.25.94,4.7,1.75,3.23,1.79,6.36,3.75,9.49,5.72,1.17.74,2.17,1.75,3.31,2.56,2.74,1.93,5.52,3.82,8.29,5.72.97.67,1.77,1.48,2.55,2.38,1.12,1.29,2.56,2.31,3.88,3.43.42.36.98.6,1.32,1.02,1.37,1.7,2.9,3.28,3.74,5.36.23.56.67,1.03.99,1.55,1.07,1.76,2.24,3.48,3.17,5.32.88,1.74,1.53,3.6,2.24,5.42.46,1.19,1.01,2.38,1.23,3.62.21,1.24.21,2.57.02,3.82-.26,1.65-.81,3.26-1.23,4.88-.33,1.25-1.08,2.2-2.17,2.88-2.05,1.28-4.08,2.57-6.15,3.81-.41.25-.94.43-1.41.42-3.13-.09-6.27-.16-9.39-.4-2.47-.18-4.84-.82-7.02-2.11-.95-.56-2.09-.79-3.12-1.21-1.34-.55-2.74-1.02-3.97-1.76-2.03-1.22-4.04-2.32-6.39-2.87-4.05-.93-7.79-2.74-11.6-4.38-3.44-1.48-7.07-2.52-10.88-2.61-1.4-.04-2.8-.08-4.19.04-3.46.31-6.81,1.21-10.1,2.28-.32.1-.62.3-.95.34-4.45.61-8.19,2.92-12.02,5.02-2.21,1.21-4.38,2.51-6.48,3.9-2.15,1.42-4.35,2.82-6.23,4.55-2.42,2.22-4.6,4.68-6.28,7.59-2.74,4.76-5.18,9.67-7.42,14.67-1.09,2.44-1.66,5.1-2.5,7.65-1.33,4.04-2.71,8.06-4.05,12.1-.3.9-.55,1.83-.74,2.76-.72,3.62-1.41,7.25-2.1,10.88-.85,4.4-1.69,8.8-2.54,13.2-.13.66-.22,1.34-.46,1.96-1.52,3.89-2.22,7.97-2.98,12.05-.62,3.3-1.37,6.59-2.29,9.81-.89,3.12-1.1,6.29-1.11,9.47,0,1.48-.12,2.9-.5,4.31-1.09,4.07-1.83,8.2-2.11,12.4-.09,1.39.02,2.8,0,4.2-.03,2.28-1.15,3.88-3.1,4.49-2.33.73-4.09-.63-4.16-3.06-.12-4.29.6-8.48,1.45-12.65.78-3.85,1.5-7.7,1.36-11.65-.02-.5.01-1.01.11-1.5.7-3.69,1.45-7.36,2.14-11.05.36-1.92.6-3.86.89-5.8.53-3.5,1.47-6.89,2.46-10.28,1.62-5.55,2.43-11.27,3.25-16.97.43-2.99.7-6.01,1.18-8.99.27-1.65.76-3.27,1.26-4.88,1.65-5.35,3.19-10.74,4.48-16.19,1.07-4.49,3.06-8.63,5.23-12.68.56-1.03,1.03-2.11,1.55-3.17,2.13-4.33,4.77-8.36,7.53-12.31.95-1.37,2.22-2.51,3.34-3.76.86-.96,1.72-1.91,2.54-2.9,1.17-1.42,2.5-2.48,4.35-2.98,1.44-.39,2.75-1.24,4.14-1.84,3.18-1.37,6.34-2.82,9.59-4.04,2.03-.77,4.19-1.18,6.29-1.76,2.26-.62,4.51-1.31,6.78-1.86,3.42-.82,6.87-1.62,10.42-1.47,1.84.08,3.68.29,5.51.45.28.02.56.04.83.12,3.04.94,6.09,1.88,9.13,2.84.69.22,1.36.52,2.05.75,2.28.75,4.56,1.47,6.7,2.63,1.51.81,3.26,1.17,4.87,1.81,1.66.66,3.28,1.41,4.9,2.14.41.18.76.49,1.17.66,2.94,1.21,5.9,2.41,8.85,3.59.31.12.65.18.99.19,2.73.12,5.47.22,8.2.35.89.04,1.65-.21,2.34-.76.31-.24.64-.45.99-.64,1.86-1.03,2.3-2.04,1.75-4.1-1.02-3.82-2.62-7.37-4.9-10.61-1.19-1.69-2.27-3.48-3.56-5.09-1.11-1.39-2.42-2.64-3.7-3.89-2.32-2.26-4.6-4.57-7.06-6.67-1.78-1.52-3.77-2.81-5.74-4.1-1.63-1.06-3.26-2.15-5.22-2.65-.73-.18-1.39-.71-2.04-1.14-3.05-2-6.24-3.71-9.65-5.07-2.22-.88-4.23-2.29-6.37-3.39-5.7-2.92-10.87-6.69-16.24-10.13-1.55-.99-3.04-2.08-4.59-3.09-.7-.46-1.42-.95-2.21-1.2-2.15-.69-4.12-1.74-6.04-2.89-.66-.4-1.21-.98-1.8-1.49-1.88-1.67-3.89-3.22-5.59-5.05-1.46-1.57-3.22-2.9-4.15-4.95-.38-.84-1.03-1.66-1.77-2.2-2.42-1.76-3.99-4.21-5.69-6.57-.46-.64-.83-1.33-1.3-1.96-2.88-3.89-4.53-8.19-4.66-13.08-.04-1.31-.43-2.64-.82-3.91-.58-1.9-.91-3.82-.77-5.8.26-3.79.56-7.56,1.48-11.28.71-2.86.87-5.86,1.34-8.78.37-2.25.88-4.48,1.27-6.73.14-.81.17-1.66.13-2.48-.1-1.78.29-3.34,1.22-4.94,1.66-2.83,3.62-5.48,4.84-8.6,1.16-2.95,2.76-5.7,5.48-7.69,1.61-1.17,2.95-2.73,4.29-4.22,1.84-2.04,4.25-3.28,6.45-4.8,3.24-2.25,6.85-3.82,10.46-5.35,2.05-.87,4.1-1.78,6.21-2.5,1.14-.39,2.41-.45,3.62-.6,7.53-.94,14.85.08,21.99,2.53.74.25,1.49.51,2.26.65,4.64.8,8.59,3.15,12.51,5.54,1.99,1.21,4,2.16,6.34,2.52,1.52.23,3.06.79,4.44,1.5,1.79.92,3.32.74,4.84-.44.97-.76,2.02-1.44,2.89-2.29.58-.57.89-1.39,1.33-2.1,2.81-4.49,2.27-9.08.25-13.63-.7-1.58-1.73-3-2.6-4.5-1.1-1.89-2.03-3.91-3.35-5.63-1.89-2.47-3.56-5.22-6.46-6.73-1.44-.75-2.89-1.49-4.39-2.11-3.7-1.55-7-3.74-10.27-6.03-4.32-3.03-8.81-5.57-14.3-6.22-5-.58-9.94-.45-14.9-.12-1.48.1-2.98.6-4.36,1.16-3.26,1.33-6.47,2.81-9.69,4.24-4.48,1.99-8.51,4.72-12.47,7.59-4.81,3.48-9.79,6.73-14.65,10.14-1.46,1.02-2.79,2.24-4.17,3.37-.17.14-.31.32-.49.46-1.9,1.46-3.81,2.9-5.71,4.38-.48.37-.96.78-1.32,1.27-1.41,1.92-3.16,3.45-5.06,4.87-1.38,1.02-2.59,2.29-3.83,3.5-2.6,2.55-5.22,5.08-7.71,7.73-1.72,1.83-3.13,3.96-4.88,5.75-1.79,1.83-2.9,4.11-4.49,6.05-2.14,2.6-4.58,2.81-6.93,1.13-.5-.36-.8-.74-.72-1.39.15-1.38.18-2.79.43-4.16.41-2.26.93-4.5,1.45-6.73.93-3.94,2.66-7.59,4.2-11.31,1.18-2.84,2.11-5.79,3.39-8.58,1.13-2.46,1.85-5.04,2.78-7.56,1.29-3.51,2.92-6.89,4.25-10.38,1.6-4.18,3.03-8.43,4.57-12.63.86-2.37,1.75-4.73,2.69-7.06,1.09-2.7,2.24-5.36,3.8-7.84.46-.73.64-1.66.87-2.52,1.32-4.98,2.59-9.97,3.92-14.95.48-1.78,1.16-3.52,1.58-5.31.46-1.95.72-3.95,1.08-5.93.43-2.42.92-4.84,1.28-7.27.2-1.37.27-2.78.27-4.17,0-1.09-.62-1.81-1.62-2.35-2.16-1.16-4.28-.81-6.29.18-2.21,1.09-4.27,2.43-6.05,4.2-1.06,1.06-2.25,2.02-3.48,2.9-1.75,1.25-3.13,2.86-4.55,4.43-.41.46-.82.92-1.18,1.42-1.39,1.97-2.82,3.88-4.56,5.58-2.94,2.89-4.86,6.56-7.31,9.83-.77,1.03-1.59,2.03-2.27,3.12-1.22,1.94-2.33,3.95-3.51,5.92-.92,1.53-1.94,3.02-2.81,4.58-.48.86-.78,1.84-1.14,2.77-.14.36-.17.78-.35,1.11-1.29,2.35-2.54,4.72-3.92,7.02-1.27,2.13-2.33,4.3-3.04,6.7-.81,2.73-1.92,5.37-2.86,8.06-.79,2.27-1.51,4.56-2.25,6.85-.89,2.77-1.69,5.56-2.67,8.3-1.44,4.01-2.8,8.04-3.67,12.22-.46,2.2-1.07,4.34-2.27,6.29-1.92,3.1-2.7,6.6-3.63,10.07-1.16,4.33-2.41,8.62-3.63,12.93-.81,2.85-1.5,5.75-2.47,8.55-.6,1.72-1.61,3.3-2.52,4.9-.49.85-1.3,1.38-2.29,1.58-1.93.4-3.58-.79-3.51-2.75.07-1.83.55-3.65.65-5.49.19-3.27,1.03-6.39,1.76-9.56.46-2,.42-4.12.76-6.15.46-2.81.98-5.62,1.62-8.4.39-1.69.79-3.33.75-5.12-.04-1.6.31-3.23.62-4.82.75-3.9,1.62-7.78,2.34-11.69.65-3.52,1.17-7.07,1.75-10.6.02-.11.05-.22.05-.33.15-6.17,1.69-12.2,1.72-18.37.02-3.97-.22-7.95-.32-11.92-.03-1.34-.11-2.69,0-4.03.31-3.66-.06-7.28-.47-10.9-.29-2.55-1.33-4.85-2.83-6.93-.71-.98-1.21-1.18-2.29-.73-1.49.63-3,1.26-4.4,2.06-.85.49-1.56,1.26-2.23,2-.98,1.08-1.88,2.22-2.77,3.36-.44.57-.87,1.18-1.18,1.82-1.32,2.77-2.72,5.52-3.84,8.38-.71,1.8-.94,3.79-1.43,5.68-.32,1.24-.62,2.51-1.14,3.67-1.07,2.37-2,4.74-1.91,7.41.02.54-.18,1.1-.36,1.63-.99,2.87-1.75,5.76-1.83,8.84-.03,1.36-.44,2.77-.96,4.05-1.04,2.54-2.29,4.97-2.63,7.75-.11.87-.44,1.74-.8,2.56-1.46,3.31-2.17,6.82-2.9,10.33-.48,2.29-.67,4.66-1.25,6.92-.97,3.81-1.63,7.66-2.25,11.53-.28,1.76-.89,3.48-1.22,5.23-.32,1.7-.46,3.44-.7,5.15-.09.61-.21,1.21-.38,1.8-1.73,6.16-3,12.4-3.86,18.74-.25,1.88-.71,3.74-1.16,5.59-.88,3.61-1.08,7.31-1.44,10.98-.14,1.45-.54,2.71-1.66,3.72-.78.7-1.7.92-2.64.88-1.03-.05-1.78-.71-2.04-1.74-.3-1.19-.49-2.41-.72-3.62-.21-1.1-.42-2.19-.62-3.29-.51-2.69-1.03-5.38-1.53-8.08-.3-1.6-.61-3.19-.83-4.8-.58-4.32-1.24-8.64-1.63-12.98-.26-2.84-.16-5.7-.9-8.5-.24-.9-.05-1.9-.11-2.85-.12-2.01-.19-4.02-.43-6.01-.32-2.66-.87-5.3-1.18-7.97-.48-4.06-2.04-7.66-4.32-10.99-1.87-2.73-3.68-5.49-5.57-8.2-.4-.58-.96-1.08-1.54-1.49-1.09-.79-1.58-.68-2.28.49-.4.66-.68,1.41-.96,2.13-.56,1.45-1.09,2.92-1.63,4.38-.31.83-.73,1.64-.94,2.5-.89,3.66-1.25,7.39-1.45,11.14-.01.28.02.57-.05.84-.89,3.72-.75,7.55-1.12,11.32-.26,2.67-.33,5.37-.21,8.05.09,2.2.15,4.35-.49,6.48-.44,1.47-.54,2.97-.31,4.49.5,3.26-.25,6.48-.33,9.71-.12,4.7-.13,9.4-.21,14.1-.02,1-.22,2-.2,3,.04,2.85.16,5.7.24,8.55.1,3.3.2,6.6.3,9.9,0,.06,0,.11-.01.17-1.42,6.14-.24,12.38-.7,18.56-.14,1.9-.42,3.79-.48,5.69-.17,5.82-.71,11.62-.53,17.46.06,1.88-.4,3.77-.55,5.66-.12,1.56-.15,3.13-.21,4.7-.03.67.09,1.38-.07,2.01-.84,3.21-.59,6.46-.46,9.69.13,3.27-.34,6.47-.7,9.7-.3,2.72-.47,5.47-.51,8.21-.03,2.54-.19,5.04-.78,7.5-.79,3.28-1.09,6.62-1.37,9.96-.08.94-.02,1.9.07,2.85.27,2.94-.02,5.77-.94,8.61-.99,3.03-1.79,6.12-1.94,9.36-.08,1.67-.43,3.33-.79,4.97-1.1,5.15-2.24,10.29-3.42,15.42-.8,3.49-1.45,7.05-2.64,10.41-1.38,3.89-1.84,7.95-2.83,11.91-.83,3.31-1.73,6.61-2.47,9.94-.9,4.1-1.61,8.24-2.52,12.34-.46,2.07-1.19,4.07-1.84,6.1-.98,3.09-1.98,6.19-3.01,9.26-.35,1.05-.86,2.06-1.27,3.09-.66,1.67-1.3,3.34-1.93,5.01-.29.79-.5,1.6-.79,2.39-.86,2.39-2.9,3.35-5.09,3.96-1.37.38-2.67-.81-2.71-2.3-.02-.6.12-1.23.34-1.8,1.56-4.08,3.16-8.14,4.72-12.21.34-.89.55-1.82.83-2.73,1.07-3.47,2.19-6.93,3.18-10.42.41-1.44.52-2.96.79-4.45.2-1.16.4-2.32.65-3.46.61-2.79,1.24-5.58,1.87-8.36.82-3.6,1.64-7.21,2.49-10.81,1.41-6,2.89-11.98,4.25-17.99,1.19-5.24,2.3-10.5,3.36-15.78,1.02-5.1,2-10.21,2.84-15.34.48-2.92.64-5.89,1-8.83.39-3.16.88-6.32,1.28-9.48.16-1.22.19-2.45.3-3.68.13-1.45.29-2.89.43-4.34.1-1.06.21-2.12.3-3.17.09-1.06.07-2.14.25-3.18.73-4.33.65-8.7.68-13.06,0-.61-.09-1.27.08-1.84,1.21-4.1.84-8.34,1.21-12.51.4-4.63.08-9.3.8-13.92.19-1.2-.04-2.46-.02-3.69.08-3.81.23-7.61.29-11.42.03-2.13-.08-4.26-.09-6.38,0-1.51.03-3.02.12-4.52.28-4.58.61-9.15.87-13.73.05-.94-.16-1.89-.2-2.84-.17-3.75-.42-7.5-.45-11.25-.06-5.6-.07-11.2.11-16.8.16-5.03,0-10.07.65-15.09.25-1.93.08-3.91.13-5.87.07-2.69.17-5.37.24-8.06.07-2.52.12-5.04.18-7.56,0-.28-.04-.57.02-.84,1.23-5.42.98-11.03,2.3-16.44.83-3.43,1.49-6.9,2.98-10.13.42-.91.79-1.86,1.08-2.82,1.06-3.61,3.62-5.85,6.85-7.42.59-.29,1.44-.28,2.11-.14,4.12.87,7.31,3.23,9.98,6.4.83.98,1.65,1.98,2.5,2.94,1.69,1.93,2.81,4.21,3.69,6.57,1.05,2.82,2.05,5.69,2.72,8.62.62,2.71.77,5.54,1.13,8.31.06.44.04.92.2,1.32.97,2.52.94,5.17.92,7.79-.02,2.72.37,5.37.98,7.98.92,3.91,1.26,7.83.8,11.83-.04.37.13.77.2,1.15.2,0,.39,0,.59,0Z"/>
  <path class="cls-1" d="M541.89,146.44c-.6-1.71-1.04-3.46-1.24-5.3-.46-4.23-.96-8.45-1.5-12.67-.26-2.05-.67-4.09-.99-6.14-.09-.55-.11-1.11-.15-1.67-.15-2.12-.19-4.25-.46-6.35-.45-3.49-1.07-6.97-1.57-10.46-.34-2.38-.61-4.77-.92-7.16-.53-4-1.2-7.96-2.28-11.86-.7-2.53-.95-5.18-1.5-7.75-.77-3.61-1.37-7.29-2.51-10.79-1.87-5.74-3.6-11.53-6.21-17.01-1.37-2.87-2.33-5.93-3.58-8.87-1.03-2.42-2.16-4.8-3.34-7.15-.82-1.64-1.75-3.25-2.72-4.81-1.51-2.44-3.89-3.57-6.57-4.32-2-.56-3.76.11-5.53.8-2.3.89-4.51,1.94-6.36,3.65-.92.85-1.76,1.71-2.25,2.88-.7,1.64-1.56,3.23-2.16,4.9-1.09,3.01-1.7,6.1-1.8,9.35-.13,4.19-.77,8.36-1.01,12.54-.16,2.9-.02,5.81-.01,8.72.01,3.3.23,6.58.5,9.87.27,3.23.27,6.49.51,9.72.12,1.55.53,3.09.8,4.63.09.54.16,1.09.26,1.8-.91-.35-.93-1.1-1.09-1.66-1.02-3.61-1.78-7.3-2.99-10.84-1.81-5.28-2.7-10.89-5.38-15.85-1.74-3.23-2.66-6.77-4.11-10.09-.81-1.84-1.71-3.65-2.66-5.42-2.2-4.09-4.5-8.12-6.67-12.23-1.53-2.9-3.69-5.33-5.66-7.91-2.14-2.8-4.1-5.73-6.16-8.58-.68-.94-1.44-1.82-2.17-2.73-.24-.31-.49-.61-.73-.92-2.11-2.69-4.35-5.16-7.45-6.88-2.16-1.2-3.94-3.12-5.8-4.81-.83-.75-1.68-1.21-2.78-1.4-2.65-.44-5.24-1.15-7.97-1.09-2.94.07-5.6,1.07-7.72,2.91-2.04,1.78-2.92,4.31-2.63,7.13.4,3.9.74,7.8,1.15,11.69.24,2.28.62,4.53,1.41,6.71.55,1.52.79,3.14,1.17,4.72.65,2.78,1.3,5.56,1.95,8.34.29,1.25.65,2.5.88,3.76.56,3.11,1.63,6.01,2.88,8.91,1.5,3.48,3,6.99,3.88,10.7.9,3.78,2.4,7.33,3.95,10.87.69,1.57,1.34,3.25,1.52,4.94.31,2.79,1.53,5.25,2.38,7.84.7,2.12,1.61,4.17,2.37,6.27.86,2.36,1.58,4.78,2.53,7.11.74,1.81,1.74,3.5,2.61,5.26.22.45.36.95.54,1.42-.1.07-.19.14-.29.2-.27-.13-.59-.21-.82-.4-2.36-2.05-4.65-4.17-6.65-6.6-1.13-1.38-2.42-2.64-3.62-3.98-1.23-1.37-2.53-2.7-3.62-4.18-2.25-3.05-4.99-5.56-7.88-7.97-2.62-2.18-5.16-4.47-7.77-6.67-1.71-1.45-3.53-2.76-5.21-4.24-3-2.64-6.31-4.83-9.65-7-.3-.2-.73-.41-1.04-.35-1.05.21-1.86-.28-2.68-.76-2.03-1.2-3.99-2.52-6.07-3.6-1.83-.95-3.76-1.71-5.69-2.45-1.93-.74-3.95-1.26-5.85-2.05-3.2-1.33-6.53-1.99-9.95-2.22-2.84-.19-5.71-.48-8.54-.29-3,.2-6,.77-8.93,1.45-5.31,1.23-9.96,3.94-14.49,6.85-2.97,1.9-5.97,3.72-9.36,4.83-1.8.59-3.58,1.33-5.25,2.21-.96.5-1.75,1.38-2.52,2.18-1.39,1.46-2.71,2.98-4.06,4.48-.34.37-.72.72-1.01,1.13-2.67,3.87-5.57,7.6-7.56,11.89-.67,1.45-1.02,3.07-1.34,4.64-.59,2.96-1.08,5.95-1.54,8.94-.64,4.13.41,8.02,2.63,11.37,2.41,3.63,6.07,5.79,10.49,6.27,2.21.24,4.46.19,6.7.17,2.11-.02,4.05-.69,5.89-1.75,1.84-1.06,3.77-1.97,5.66-2.94.25-.13.51-.27.77-.32,4.3-.8,8.01-3.09,11.99-4.68,3.01-1.2,6-2.45,8.96-3.76.55-.24,1.2-.35,1.8-.35,3.13,0,6.27-.1,9.39.13,1.64.12,3.28.7,4.83,1.31,1.92.76,3.74,1.75,5.61,2.65,1.21.58,2.41,1.2,3.64,1.74,2.02.89,3.75,2.19,5.54,3.45,1.91,1.35,3.01,3.41,4.8,4.84,1.48,1.18,2.8,2.57,4.23,3.83,1.26,1.11,1.94,2.58,2.6,4.07.91,2.04,1.84,4.08,2.71,6.14.28.66.45,1.38.61,2.09.61,2.67,1.24,5.34,1.76,8.03.66,3.4,1.25,6.82,1.8,10.24.36,2.21.57,4.44.91,6.66.51,3.31.13,6.59-.35,9.86-.11.74-.5,1.49-.94,2.11-.55.79-.85,1.56-.66,2.51.31,1.57-.15,2.93-.93,4.31-1.13,1.99-2.02,4.12-3.09,6.15-1.33,2.53-2.69,5.04-4.15,7.49-.47.78-1.27,1.37-1.99,1.98-1.66,1.41-3.33,2.82-5.06,4.15-2.35,1.81-4.73,3.58-7.13,5.31-1.67,1.21-3.35,2.43-5.14,3.45-2.62,1.49-5.34,2.81-8.03,4.19-1.34.69-2.69,1.35-4.04,2.03-4.76,2.39-9.43,4.92-13.79,8-1.44,1.02-3,1.67-4.74,2.05-1.63.35-3.29.82-4.76,1.57-3.29,1.67-6.5,3.51-9.69,5.37-1.2.7-2.24,1.67-3.41,2.43-2.81,1.83-5.66,3.61-8.5,5.41-1,.63-1.82,1.41-2.64,2.29-1.17,1.25-2.64,2.21-4,3.28-.44.34-1,.56-1.35.97-1.43,1.64-3.02,3.17-3.93,5.21-.25.55-.71,1-1.05,1.52-1.14,1.72-2.36,3.39-3.36,5.19-.94,1.71-1.66,3.54-2.44,5.33-.51,1.17-1.1,2.34-1.36,3.57-.26,1.23-.31,2.56-.16,3.81.2,1.66.68,3.29,1.05,4.93.28,1.27.99,2.24,2.06,2.96,2,1.35,3.99,2.72,6,4.03.4.26.93.46,1.4.47,3.13.03,6.27.07,9.4-.05,2.48-.09,4.87-.64,7.1-1.84.97-.52,2.11-.71,3.16-1.09,1.36-.5,2.78-.92,4.03-1.61,2.07-1.14,4.13-2.17,6.5-2.63,4.08-.78,7.89-2.45,11.76-3.94,3.5-1.35,7.16-2.25,10.97-2.21,1.4.02,2.81.02,4.19.2,3.45.44,6.76,1.46,10.01,2.65.31.11.61.32.93.37,4.43.78,8.08,3.23,11.82,5.47,2.16,1.3,4.29,2.67,6.34,4.14,2.09,1.5,4.24,2.98,6.06,4.78,2.33,2.31,4.42,4.85,5.99,7.82,2.57,4.86,4.82,9.85,6.87,14.93,1,2.47,1.47,5.16,2.21,7.74,1.18,4.09,2.41,8.16,3.59,12.24.26.91.48,1.85.63,2.78.58,3.65,1.13,7.3,1.7,10.95.68,4.43,1.36,8.86,2.05,13.28.1.66.17,1.35.39,1.98,1.38,3.94,1.92,8.05,2.53,12.15.49,3.32,1.12,6.63,1.92,9.89.77,3.15.86,6.32.76,9.51-.05,1.48.01,2.9.34,4.33.94,4.1,1.52,8.26,1.64,12.47.04,1.39-.12,2.79-.15,4.19-.05,2.28,1.01,3.92,2.93,4.6,2.3.82,4.11-.47,4.27-2.9.28-4.29-.29-8.49-.98-12.7-.63-3.87-1.21-7.75-.93-11.69.04-.5.03-1.01-.05-1.51-.57-3.71-1.18-7.41-1.72-11.12-.28-1.93-.46-3.88-.68-5.83-.4-3.51-1.22-6.94-2.08-10.36-1.41-5.6-2.01-11.35-2.62-17.08-.32-3.01-.47-6.03-.84-9.03-.2-1.66-.64-3.3-1.07-4.92-1.45-5.41-2.79-10.85-3.88-16.35-.9-4.52-2.73-8.74-4.76-12.86-.52-1.05-.95-2.15-1.43-3.22-1.97-4.41-4.46-8.53-7.07-12.58-.9-1.4-2.12-2.59-3.19-3.89-.82-.99-1.65-1.97-2.43-2.99-1.11-1.46-2.4-2.57-4.23-3.14-1.42-.45-2.7-1.34-4.07-1.99-3.13-1.49-6.23-3.05-9.43-4.39-2-.84-4.14-1.34-6.22-1.99-2.24-.71-4.45-1.48-6.71-2.11-3.39-.95-6.8-1.87-10.36-1.86-1.84,0-3.69.15-5.53.24-.28.01-.56.02-.83.09-3.08.83-6.15,1.66-9.23,2.5-.7.19-1.38.47-2.08.67-2.31.67-4.61,1.3-6.8,2.38-1.54.76-3.3,1.05-4.93,1.63-1.68.6-3.33,1.29-4.98,1.96-.41.17-.77.47-1.19.62-2.99,1.1-5.98,2.19-8.98,3.26-.31.11-.66.15-.99.15-2.74.02-5.47.01-8.21.04-.89,0-1.64-.27-2.31-.85-.3-.25-.63-.47-.96-.68-1.82-1.1-2.22-2.12-1.6-4.17,1.16-3.78,2.89-7.27,5.29-10.42,1.25-1.65,2.4-3.39,3.75-4.96,1.16-1.35,2.51-2.55,3.84-3.75,2.4-2.17,4.77-4.39,7.3-6.41,1.83-1.46,3.87-2.67,5.89-3.88,1.67-1,3.34-2.03,5.31-2.45.74-.16,1.42-.66,2.08-1.06,3.12-1.89,6.37-3.48,9.83-4.71,2.25-.8,4.31-2.13,6.49-3.15,5.81-2.7,11.11-6.28,16.61-9.52,1.59-.94,3.12-1.97,4.7-2.92.72-.43,1.46-.9,2.25-1.12,2.17-.61,4.18-1.58,6.14-2.66.67-.37,1.25-.93,1.85-1.42,1.94-1.59,4.01-3.07,5.78-4.84,1.52-1.51,3.33-2.78,4.33-4.8.41-.82,1.09-1.62,1.85-2.14,2.48-1.67,4.15-4.06,5.93-6.36.48-.62.88-1.3,1.37-1.91,3.02-3.78,4.83-8.02,5.15-12.9.08-1.31.53-2.62.96-3.88.66-1.88,1.05-3.78.98-5.76-.12-3.8-.28-7.57-1.06-11.33-.6-2.89-.65-5.89-1.02-8.83-.28-2.27-.72-4.51-1.02-6.78-.11-.82-.11-1.66-.04-2.48.17-1.78-.16-3.35-1.04-4.98-1.55-2.89-3.41-5.61-4.52-8.77-1.05-2.99-2.54-5.8-5.19-7.89-1.56-1.23-2.85-2.84-4.13-4.38-1.76-2.11-4.12-3.43-6.27-5.04-3.16-2.37-6.7-4.07-10.26-5.74-2.02-.95-4.03-1.93-6.11-2.73-1.13-.43-2.39-.54-3.6-.74-7.49-1.22-14.84-.47-22.07,1.71-.75.23-1.51.46-2.28.56-4.66.63-8.7,2.83-12.71,5.07-2.03,1.13-4.07,2.01-6.43,2.28-1.53.17-3.09.67-4.49,1.33-1.83.85-3.35.62-4.82-.62-.94-.79-1.96-1.51-2.8-2.4-.55-.59-.84-1.43-1.26-2.15-2.64-4.59-1.93-9.16.25-13.63.75-1.55,1.84-2.94,2.77-4.4,1.17-1.84,2.17-3.83,3.55-5.5,1.98-2.39,3.75-5.08,6.7-6.48,1.47-.7,2.95-1.38,4.46-1.95,3.75-1.41,7.13-3.47,10.48-5.64,4.43-2.86,9.01-5.24,14.52-5.68,5.02-.4,9.95-.08,14.9.44,1.47.15,2.95.71,4.32,1.32,3.21,1.45,6.36,3.05,9.53,4.59,4.41,2.16,8.32,5.03,12.18,8.05,4.67,3.66,9.53,7.09,14.26,10.67,1.42,1.08,2.7,2.34,4.05,3.52.17.15.3.33.47.48,1.85,1.53,3.7,3.04,5.54,4.59.47.39.93.82,1.27,1.31,1.34,1.97,3.03,3.57,4.88,5.05,1.34,1.08,2.51,2.38,3.69,3.64,2.5,2.64,5.03,5.27,7.42,8.01,1.65,1.89,2.98,4.07,4.66,5.93,1.72,1.89,2.74,4.22,4.26,6.21,2.04,2.68,4.47,2.98,6.89,1.39.51-.34.82-.71.78-1.36-.1-1.39-.07-2.79-.27-4.17-.33-2.27-.76-4.53-1.2-6.78-.78-3.97-2.38-7.69-3.78-11.46-1.07-2.88-1.89-5.87-3.07-8.7-1.04-2.5-1.67-5.1-2.49-7.65-1.15-3.55-2.66-6.99-3.86-10.53-1.44-4.24-2.72-8.53-4.09-12.79-.77-2.4-1.57-4.79-2.42-7.16-.99-2.73-2.04-5.44-3.5-7.97-.43-.75-.58-1.68-.77-2.55-1.13-5.02-2.22-10.06-3.36-15.08-.41-1.8-1.03-3.56-1.38-5.37-.39-1.97-.58-3.98-.86-5.97-.34-2.44-.74-4.87-1.01-7.32-.15-1.38-.17-2.78-.11-4.17.04-1.09.69-1.79,1.71-2.29,2.2-1.08,4.31-.65,6.28.41,2.17,1.17,4.18,2.59,5.89,4.42,1.02,1.1,2.18,2.1,3.37,3.03,1.7,1.32,3.02,2.97,4.38,4.6.39.47.79.95,1.12,1.46,1.31,2.02,2.68,3.98,4.35,5.75,2.83,2.99,4.61,6.73,6.93,10.09.73,1.06,1.51,2.09,2.15,3.2,1.14,1.99,2.18,4.04,3.29,6.04.87,1.57,1.82,3.09,2.64,4.68.45.88.71,1.87,1.03,2.81.13.37.14.78.31,1.13,1.2,2.4,2.37,4.81,3.65,7.16,1.19,2.17,2.17,4.39,2.79,6.81.71,2.76,1.72,5.44,2.56,8.16.7,2.3,1.34,4.61,1.99,6.92.79,2.8,1.48,5.62,2.36,8.39,1.28,4.06,2.5,8.14,3.21,12.34.38,2.22.91,4.38,2.04,6.37,1.8,3.16,2.45,6.7,3.25,10.2.99,4.37,2.09,8.71,3.15,13.06.7,2.88,1.28,5.8,2.15,8.63.54,1.74,1.49,3.36,2.33,4.99.45.87,1.25,1.42,2.23,1.66,1.91.47,3.61-.66,3.61-2.62,0-1.84-.41-3.67-.45-5.51-.07-3.27-.79-6.43-1.4-9.62-.38-2.02-.27-4.13-.53-6.18-.35-2.83-.77-5.65-1.31-8.45-.33-1.71-.67-3.36-.56-5.14.1-1.6-.19-3.24-.44-4.84-.6-3.93-1.33-7.84-1.91-11.77-.52-3.54-.91-7.1-1.36-10.66-.01-.11-.04-.22-.04-.33.08-6.17-1.24-12.26-1.04-18.42.13-3.97.51-7.94.76-11.9.08-1.34.21-2.69.15-4.03-.17-3.67.33-7.27.88-10.87.39-2.53,1.5-4.8,3.09-6.82.75-.96,1.25-1.14,2.31-.64,1.47.69,2.95,1.37,4.32,2.22.83.52,1.51,1.32,2.15,2.08.94,1.11,1.8,2.29,2.65,3.47.42.59.82,1.21,1.11,1.87,1.22,2.82,2.51,5.62,3.52,8.51.64,1.83.79,3.82,1.22,5.73.28,1.25.53,2.53,1.01,3.71.98,2.41,1.82,4.81,1.63,7.47-.04.54.14,1.11.3,1.64.89,2.9,1.54,5.82,1.5,8.9-.02,1.36.33,2.79.81,4.08.94,2.57,2.11,5.05,2.34,7.85.07.88.38,1.76.71,2.59,1.33,3.36,1.91,6.9,2.52,10.43.4,2.31.5,4.68.99,6.96.83,3.84,1.34,7.72,1.82,11.61.22,1.77.76,3.51,1.02,5.28.25,1.71.33,3.45.51,5.18.06.61.17,1.22.31,1.82,1.5,6.22,2.53,12.51,3.16,18.87.18,1.89.57,3.77.95,5.63.75,3.64.81,7.34,1.03,11.03.09,1.45.43,2.73,1.52,3.78.75.73,1.67.98,2.6.98,1.03,0,1.81-.65,2.1-1.66.34-1.18.58-2.39.85-3.59.25-1.09.5-2.17.75-3.26.61-2.67,1.23-5.34,1.83-8.01.36-1.58.73-3.17,1.01-4.76.75-4.3,1.56-8.59,2.12-12.91.36-2.83.37-5.69,1.21-8.46.27-.89.12-1.89.22-2.84.19-2,.34-4.01.65-5.99.42-2.65,1.07-5.27,1.48-7.92.63-4.04,2.32-7.57,4.73-10.82,1.97-2.65,3.89-5.35,5.87-7.99.42-.56,1-1.04,1.59-1.44,1.12-.75,1.6-.62,2.26.57.37.68.62,1.43.88,2.17.51,1.47.98,2.96,1.47,4.44.28.85.67,1.67.85,2.53.76,3.69.98,7.43,1.03,11.19,0,.28-.04.57.01.84.75,3.75.47,7.57.7,11.36.16,2.67.13,5.38-.09,8.05-.17,2.2-.31,4.34.25,6.5.38,1.48.43,2.99.14,4.5-.62,3.24,0,6.48-.03,9.72-.06,4.7-.22,9.4-.31,14.1-.02,1,.14,2.01.09,3.01-.15,2.85-.37,5.69-.56,8.53-.22,3.3-.44,6.59-.66,9.89,0,.06,0,.11,0,.17,1.19,6.19-.22,12.39,0,18.58.07,1.9.28,3.8.26,5.7-.05,5.82.27,11.64-.12,17.47-.13,1.88.26,3.78.34,5.68.07,1.56.03,3.13.03,4.7,0,.67-.15,1.37,0,2.01.72,3.23.35,6.48.1,9.71-.25,3.26.1,6.48.34,9.72.2,2.73.27,5.48.2,8.22-.06,2.53,0,5.04.5,7.53.66,3.3.85,6.66,1,10.01.04.94-.05,1.9-.17,2.85-.38,2.93-.2,5.77.62,8.64.87,3.06,1.56,6.19,1.59,9.42.02,1.67.31,3.35.6,5,.91,5.18,1.85,10.37,2.84,15.54.67,3.52,1.18,7.1,2.25,10.5,1.24,3.94,1.54,8.02,2.39,12,.71,3.34,1.48,6.67,2.1,10.03.75,4.13,1.3,8.3,2.06,12.42.39,2.08,1.04,4.12,1.61,6.16.87,3.13,1.74,6.26,2.66,9.37.31,1.07.78,2.09,1.16,3.14.59,1.69,1.18,3.38,1.74,5.08.26.8.44,1.62.7,2.42.77,2.42,2.78,3.45,4.94,4.14,1.35.43,2.7-.71,2.79-2.2.04-.6-.08-1.24-.27-1.81-1.4-4.13-2.86-8.25-4.26-12.38-.31-.9-.48-1.84-.73-2.76-.94-3.51-1.93-7-2.79-10.53-.35-1.46-.41-2.98-.62-4.47-.16-1.16-.31-2.33-.52-3.48-.5-2.81-1.03-5.62-1.56-8.42-.69-3.63-1.37-7.27-2.08-10.89-1.19-6.05-2.44-12.08-3.58-18.14-.99-5.28-1.91-10.58-2.77-15.89-.83-5.13-1.61-10.28-2.27-15.43-.37-2.93-.42-5.91-.67-8.86-.27-3.18-.64-6.35-.93-9.52-.11-1.22-.1-2.46-.17-3.69-.08-1.45-.18-2.9-.26-4.35-.06-1.06-.13-2.12-.18-3.18-.05-1.06,0-2.14-.13-3.19-.56-4.35-.32-8.72-.2-13.08.02-.61.13-1.26-.01-1.84-1.06-4.14-.53-8.37-.74-12.55-.23-4.64.27-9.29-.28-13.94-.14-1.21.13-2.46.15-3.69.06-3.81.05-7.62.14-11.42.05-2.13.24-4.25.32-6.38.06-1.51.08-3.02.05-4.53-.11-4.58-.27-9.17-.35-13.75-.02-.94.23-1.89.31-2.83.31-3.74.7-7.48.87-11.22.26-5.59.48-11.19.52-16.79.03-5.03.38-10.07-.09-15.1-.18-1.94.06-3.91.08-5.87.03-2.69.03-5.37.06-8.06.02-2.52.06-5.04.1-7.56,0-.28.06-.57.01-.84-1.02-5.46-.57-11.06-1.68-16.51-.71-3.45-1.24-6.95-2.6-10.24-.39-.93-.72-1.89-.97-2.86-.92-3.65-3.4-5.98-6.57-7.67-.58-.31-1.43-.34-2.1-.22-4.15.71-7.43,2.96-10.21,6.02-.86.95-1.72,1.91-2.6,2.85-1.77,1.87-2.97,4.1-3.94,6.42-1.16,2.78-2.26,5.61-3.03,8.51-.72,2.69-.97,5.5-1.44,8.26-.07.44-.08.92-.25,1.32-1.06,2.48-1.13,5.13-1.21,7.75-.08,2.71-.57,5.35-1.28,7.94-1.06,3.87-1.55,7.78-1.24,11.79.03.37-.16.76-.24,1.14-.2,0-.39-.01-.59-.02Z"/>
</svg>